  0
SECTION
  2
HEADER
  9
$ACADVER
  1
AC1021
  9
$ACADMAINTVER
 70
     1
  9
$DWGCODEPAGE
  3
ANSI_1252
  9
$INSBASE
 10
0.0
 20
0.0
 30
0.0
  9
$EXTMIN
 10
-16.0
 20
-28.542089
 30
0.0
  9
$EXTMAX
 10
16.0
 20
25.059056
 30
0.0
  9
$LIMMIN
 10
-16.0
 20
-28.542089
  9
$LIMMAX
 10
16.0
 20
25.059056
  9
$ORTHOMODE
 70
     0
  9
$REGENMODE
 70
     1
  9
$FILLMODE
 70
     1
  9
$QTEXTMODE
 70
     0
  9
$MIRRTEXT
 70
     1
  9
$LTSCALE
 40
1.0
  9
$ATTMODE
 70
     1
  9
$TEXTSIZE
 40
2.11669993400574
  9
$TRACEWID
 40
0.05
  9
$TEXTSTYLE
  7
Standard
  9
$CLAYER
  8
0
  9
$CELTYPE
  6
ByLayer
  9
$CECOLOR
 62
     7
  9
$CELTSCALE
 40
1.0
  9
$DISPSILH
 70
     0
  9
$DIMSCALE
 40
1.0
  9
$DIMASZ
 40
0.18
  9
$DIMEXO
 40
0.0625
  9
$DIMDLI
 40
0.38
  9
$DIMRND
 40
0.0000001
  9
$DIMDLE
 40
0.0
  9
$DIMEXE
 40
0.18
  9
$DIMTP
 40
0.0
  9
$DIMTM
 40
0.0
  9
$DIMTXT
 40
0.2
  9
$DIMCEN
 40
0.09
  9
$DIMTSZ
 40
0.0
  9
$DIMTOL
 70
     0
  9
$DIMLIM
 70
     0
  9
$DIMTIH
 70
     1
  9
$DIMTOH
 70
     1
  9
$DIMSE1
 70
     0
  9
$DIMSE2
 70
     0
  9
$DIMTAD
 70
     0
  9
$DIMZIN
 70
     0
  9
$DIMBLK
  1

  9
$DIMASO
 70
     1
  9
$DIMSHO
 70
     1
  9
$DIMPOST
  1

  9
$DIMAPOST
  1

  9
$DIMALT
 70
     0
  9
$DIMALTD
 70
     2
  9
$DIMALTF
 40
25.4
  9
$DIMLFAC
 40
1.0
  9
$DIMTOFL
 70
     0
  9
$DIMTVP
 40
0.0
  9
$DIMTIX
 70
     0
  9
$DIMSOXD
 70
     0
  9
$DIMSAH
 70
     0
  9
$DIMBLK1
  1

  9
$DIMBLK2
  1

  9
$DIMSTYLE
  2
Standard
  9
$DIMCLRD
 70
     0
  9
$DIMCLRE
 70
     0
  9
$DIMCLRT
 70
     0
  9
$DIMTFAC
 40
1.0
  9
$DIMGAP
 40
0.09
  9
$DIMJUST
 70
     0
  9
$DIMSD1
 70
     0
  9
$DIMSD2
 70
     0
  9
$DIMTOLJ
 70
     1
  9
$DIMTZIN
 70
     0
  9
$DIMALTZ
 70
     0
  9
$DIMALTTZ
 70
     0
  9
$DIMUPT
 70
     0
  9
$DIMDEC
 70
     4
  9
$DIMTDEC
 70
     4
  9
$DIMALTU
 70
     2
  9
$DIMALTTD
 70
     2
  9
$DIMTXSTY
  7
_TCW_TXTSTY_1
  9
$DIMAUNIT
 70
     0
  9
$DIMADEC
 70
     4
  9
$DIMALTRND
 40
0.0000001
  9
$DIMAZIN
 70
     0
  9
$DIMDSEP
 70
    46
  9
$DIMATFIT
 70
     3
  9
$DIMFRAC
 70
     0
  9
$DIMLDRBLK
  1

  9
$DIMLUNIT
 70
     2
  9
$DIMLWD
 70
    -2
  9
$DIMLWE
 70
    -2
  9
$DIMTMOVE
 70
     0
  9
$DIMFXL
 40
1.0
  9
$DIMFXLON
 70
     0
  9
$DIMJOGANG
 40
0.7853981633974483
  9
$DIMTFILL
 70
     0
  9
$DIMTFILLCLR
 70
     0
  9
$DIMARCSYM
 70
     0
  9
$DIMLTYPE
  6

  9
$DIMLTEX1
  6

  9
$DIMLTEX2
  6

  9
$LUNITS
 70
     2
  9
$LUPREC
 70
     4
  9
$SKETCHINC
 40
0.1
  9
$FILLETRAD
 40
2.0
  9
$AUNITS
 70
     0
  9
$AUPREC
 70
     0
  9
$MENU
  1
.
  9
$ELEVATION
 40
0.0
  9
$PELEVATION
 40
0.0
  9
$THICKNESS
 40
0.0
  9
$LIMCHECK
 70
     0
  9
$CHAMFERA
 40
0.5
  9
$CHAMFERB
 40
0.5
  9
$CHAMFERC
 40
1.0
  9
$CHAMFERD
 40
0.0
  9
$SKPOLY
 70
     0
  9
$TDCREATE
 40
2454327.492838901
  9
$TDUCREATE
 40
2454327.159505567
  9
$TDUPDATE
 40
2454327.492838912
  9
$TDUUPDATE
 40
2454327.159505579
  9
$TDINDWG
 40
0.0
  9
$TDUSRTIMER
 40
0.0
  9
$USRTIMER
 70
     1
  9
$ANGBASE
 50
0.0
  9
$ANGDIR
 70
     0
  9
$PDMODE
 70
     0
  9
$PDSIZE
 40
0.0
  9
$PLINEWID
 40
0.0
  9
$SPLFRAME
 70
     0
  9
$SPLINETYPE
 70
     6
  9
$SPLINESEGS
 70
    10
  9
$HANDSEED
  5
179
  9
$SURFTAB1
 70
     6
  9
$SURFTAB2
 70
     6
  9
$SURFTYPE
 70
     6
  9
$SURFU
 70
     6
  9
$SURFV
 70
     6
  9
$UCSBASE
  2

  9
$UCSNAME
  2

  9
$UCSORG
 10
0.0
 20
0.0
 30
0.0
  9
$UCSXDIR
 10
1.0
 20
0.0
 30
0.0
  9
$UCSYDIR
 10
0.0
 20
1.0
 30
0.0
  9
$UCSORTHOREF
  2

  9
$UCSORTHOVIEW
 70
     0
  9
$UCSORGTOP
 10
0.0
 20
0.0
 30
0.0
  9
$UCSORGBOTTOM
 10
0.0
 20
0.0
 30
0.0
  9
$UCSORGLEFT
 10
0.0
 20
0.0
 30
0.0
  9
$UCSORGRIGHT
 10
0.0
 20
0.0
 30
0.0
  9
$UCSORGFRONT
 10
0.0
 20
0.0
 30
0.0
  9
$UCSORGBACK
 10
0.0
 20
0.0
 30
0.0
  9
$PUCSBASE
  2

  9
$PUCSNAME
  2

  9
$PUCSORG
 10
0.0
 20
0.0
 30
0.0
  9
$PUCSXDIR
 10
1.0
 20
0.0
 30
0.0
  9
$PUCSYDIR
 10
0.0
 20
1.0
 30
0.0
  9
$PUCSORTHOREF
  2

  9
$PUCSORTHOVIEW
 70
     0
  9
$PUCSORGTOP
 10
0.0
 20
0.0
 30
0.0
  9
$PUCSORGBOTTOM
 10
0.0
 20
0.0
 30
0.0
  9
$PUCSORGLEFT
 10
0.0
 20
0.0
 30
0.0
  9
$PUCSORGRIGHT
 10
0.0
 20
0.0
 30
0.0
  9
$PUCSORGFRONT
 10
0.0
 20
0.0
 30
0.0
  9
$PUCSORGBACK
 10
0.0
 20
0.0
 30
0.0
  9
$USERI1
 70
     0
  9
$USERI2
 70
     0
  9
$USERI3
 70
     0
  9
$USERI4
 70
     0
  9
$USERI5
 70
     0
  9
$USERR1
 40
0.0
  9
$USERR2
 40
0.0
  9
$USERR3
 40
0.0
  9
$USERR4
 40
0.0
  9
$USERR5
 40
0.0
  9
$WORLDVIEW
 70
     1
  9
$SHADEDGE
 70
     3
  9
$SHADEDIF
 70
    70
  9
$TILEMODE
 70
     1
  9
$MAXACTVP
 70
    64
  9
$PINSBASE
 10
0.0
 20
0.0
 30
0.0
  9
$PLIMCHECK
 70
     0
  9
$PEXTMIN
 10
0.0
 20
0.0
 30
0.0
  9
$PEXTMAX
 10
12.0
 20
9.0
 30
0.0
  9
$PLIMMIN
 10
0.0
 20
0.0
  9
$PLIMMAX
 10
12.0
 20
9.0
  9
$UNITMODE
 70
     0
  9
$VISRETAIN
 70
     1
  9
$PLINEGEN
 70
     0
  9
$PSLTSCALE
 70
     1
  9
$TREEDEPTH
 70
  3020
  9
$CMLSTYLE
  2
Standard
  9
$CMLJUST
 70
     0
  9
$CMLSCALE
 40
1.0
  9
$PROXYGRAPHICS
 70
     1
  9
$MEASUREMENT
 70
     0
  9
$CELWEIGHT
370
    -1
  9
$ENDCAPS
280
     0
  9
$JOINSTYLE
280
     0
  9
$LWDISPLAY
290
     0
  9
$INSUNITS
 70
     1
  9
$HYPERLINKBASE
  1

  9
$STYLESHEET
  1

  9
$XEDIT
290
     1
  9
$CEPSNTYPE
380
     0
  9
$PSTYLEMODE
290
     1
  9
$FINGERPRINTGUID
  2
{97019376-37A5-4BC6-ABE3-435B927501AD}
  9
$VERSIONGUID
  2
{FAEB1C32-E019-11D5-929B-00C0DF256EC4}
  9
$EXTNAMES
290
     1
  9
$PSVPSCALE
 40
0.0
  9
$OLESTARTUP
290
     0
  9
$SORTENTS
280
   127
  9
$INDEXCTL
280
     0
  9
$HIDETEXT
280
     1
  9
$XCLIPFRAME
290
     0
  9
$HALOGAP
280
     0
  9
$OBSCOLOR
 70
   257
  9
$OBSLTYPE
280
     0
  9
$INTERSECTIONDISPLAY
280
     0
  9
$INTERSECTIONCOLOR
 70
   257
  9
$DIMASSOC
280
     2
  9
$PROJECTNAME
  1

  9
$CAMERADISPLAY
290
     0
  9
$LENSLENGTH
 40
50.0
  9
$CAMERAHEIGHT
 40
0.0
  9
$STEPSPERSEC
 40
2.0
  9
$STEPSIZE
 40
6.0
  9
$3DDWFPREC
 40
2.0
  9
$PSOLWIDTH
 40
0.25
  9
$PSOLHEIGHT
 40
4.0
  9
$LOFTANG1
 40
1.570796326794897
  9
$LOFTANG2
 40
1.570796326794897
  9
$LOFTMAG1
 40
0.0
  9
$LOFTMAG2
 40
0.0
  9
$LOFTPARAM
 70
     7
  9
$LOFTNORMALS
280
     1
  9
$LATITUDE
 40
37.795
  9
$LONGITUDE
 40
-122.394
  9
$NORTHDIRECTION
 40
0.0
  9
$TIMEZONE
 70
 -8000
  9
$LIGHTGLYPHDISPLAY
280
     1
  9
$TILEMODELIGHTSYNCH
280
     1
  9
$SOLIDHIST
280
     1
  9
$SHOWHIST
280
     1
  9
$DWFFRAME
280
     2
  9
$DGNFRAME
280
     2
  9
$REALWORLDSCALE
290
     1
  9
$INTERFERECOLOR
 62
   256
  9
$CSHADOW
280
     0
  9
$SHADOWPLANELOCATION
 40
0.0
  0
ENDSEC
  0
SECTION
  2
CLASSES
  0
CLASS
  1
ACDBDICTIONARYWDFLT
  2
AcDbDictionaryWithDefault
  3
ObjectDBX Classes
 90
        0
 91
        3
280
     0
281
     0
  0
CLASS
  1
VISUALSTYLE
  2
AcDbVisualStyle
  3
ObjectDBX Classes
 90
     4095
 91
        3
280
     0
281
     0
  0
CLASS
  1
TCOPTIONALDATA
  2
TcOptionalData
  3
ExTcadCustObjs|Description: TurboCAD extension data object
 90
        0
 91
        3
280
     0
281
     0
  0
ENDSEC
  0
SECTION
  2
TABLES
  0
TABLE
  2
VPORT
  5
8
330
0
100
AcDbSymbolTable
 70
     1
  0
VPORT
  5
29
330
8
100
AcDbSymbolTableRecord
100
AcDbViewportTableRecord
  2
*Active
 70
     0
 10
0.0
 20
0.0
 11
1.0
 21
1.0
 12
0.0
 22
0.0
 13
0.0
 23
0.0
 14
1.0
 24
1.0
 15
1.0
 25
1.0
 16
0.0
 26
0.0
 36
1.0
 17
0.0000000000000033
 27
6.788778062283757
 37
0.0
 40
54.673168
 41
1.365487674169346
 42
50.0
 43
0.0
 44
0.0
 50
0.0
 51
0.0
 71
     0
 72
   100
 73
     1
 74
     3
 75
     0
 76
     1
 77
     0
 78
     0
281
     0
 65
     1
110
0.0
120
0.0
130
0.0
111
1.0
121
0.0
131
0.0
112
0.0
122
1.0
132
0.0
 79
     0
146
0.0
 60
     3
 61
     5
292
     1
282
     1
141
0.0
142
0.0
 63
   256
  0
ENDTAB
  0
TABLE
  2
LTYPE
  5
5
330
0
100
AcDbSymbolTable
 70
    12
  0
LTYPE
  5
14
330
5
100
AcDbSymbolTableRecord
100
AcDbLinetypeTableRecord
  2
ByBlock
 70
     0
  3

 72
    65
 73
     0
 40
0.0
  0
LTYPE
  5
15
330
5
100
AcDbSymbolTableRecord
100
AcDbLinetypeTableRecord
  2
ByLayer
 70
     0
  3

 72
    65
 73
     0
 40
0.0
  0
LTYPE
  5
16
330
5
100
AcDbSymbolTableRecord
100
AcDbLinetypeTableRecord
  2
Continuous
 70
     0
  3
Solid line
 72
    65
 73
     0
 40
0.0
  0
LTYPE
  5
3C
330
5
100
AcDbSymbolTableRecord
100
AcDbLinetypeTableRecord
  2
BORDER
 70
     0
  3
BORDER
 72
    65
 73
     6
 40
1.75
 49
0.5
 74
     0
 49
-0.25
 74
     0
 49
0.5
 74
     0
 49
-0.25
 74
     0
 49
0.0
 74
     0
 49
-0.25
 74
     0
  0
LTYPE
  5
3D
330
5
100
AcDbSymbolTableRecord
100
AcDbLinetypeTableRecord
  2
CENTER
 70
     0
  3
CENTER
 72
    65
 73
     4
 40
2.0
 49
1.25
 74
     0
 49
-0.25
 74
     0
 49
0.25
 74
     0
 49
-0.25
 74
     0
  0
LTYPE
  5
3E
330
5
100
AcDbSymbolTableRecord
100
AcDbLinetypeTableRecord
  2
DASHDOT
 70
     0
  3
DASHDOT
 72
    65
 73
     4
 40
1.0
 49
0.5
 74
     0
 49
-0.25
 74
     0
 49
0.0
 74
     0
 49
-0.25
 74
     0
  0
LTYPE
  5
3F
330
5
100
AcDbSymbolTableRecord
100
AcDbLinetypeTableRecord
  2
DASHED
 70
     0
  3
DASHED
 72
    65
 73
     2
 40
0.75
 49
0.5
 74
     0
 49
-0.25
 74
     0
  0
LTYPE
  5
40
330
5
100
AcDbSymbolTableRecord
100
AcDbLinetypeTableRecord
  2
DIVIDE
 70
     0
  3
DIVIDE
 72
    65
 73
     6
 40
1.25
 49
0.5
 74
     0
 49
-0.25
 74
     0
 49
0.0
 74
     0
 49
-0.25
 74
     0
 49
0.0
 74
     0
 49
-0.25
 74
     0
  0
LTYPE
  5
41
330
5
100
AcDbSymbolTableRecord
100
AcDbLinetypeTableRecord
  2
DOT
 70
     0
  3
DOT
 72
    65
 73
     2
 40
0.25
 49
0.0
 74
     0
 49
-0.25
 74
     0
  0
LTYPE
  5
42
330
5
100
AcDbSymbolTableRecord
100
AcDbLinetypeTableRecord
  2
HIDDEN
 70
     0
  3
HIDDEN
 72
    65
 73
     2
 40
0.375
 49
0.25
 74
     0
 49
-0.125
 74
     0
  0
LTYPE
  5
43
330
5
100
AcDbSymbolTableRecord
100
AcDbLinetypeTableRecord
  2
PHANTOM
 70
     0
  3
PHANTOM
 72
    65
 73
     6
 40
2.5
 49
1.25
 74
     0
 49
-0.25
 74
     0
 49
0.25
 74
     0
 49
-0.25
 74
     0
 49
0.25
 74
     0
 49
-0.25
 74
     0
  0
LTYPE
  5
44
330
5
100
AcDbSymbolTableRecord
100
AcDbLinetypeTableRecord
  2
$INVISIBLE
 70
     0
  3
$INVISIBLE
 72
    65
 73
     2
 40
200.0
 49
-100.0
 74
     0
 49
-100.0
 74
     0
  0
LTYPE
  5
45
330
5
100
AcDbSymbolTableRecord
100
AcDbLinetypeTableRecord
  2
$SNAPEXT
 70
     0
  3
$SNAPEXT
 72
    65
 73
     2
 40
0.04
 49
0.02
 74
     0
 49
-0.02
 74
     0
  0
LTYPE
  5
46
330
5
100
AcDbSymbolTableRecord
100
AcDbLinetypeTableRecord
  2
$AUXILIARY
 70
     0
  3
$AUXILIARY
 72
    65
 73
     2
 40
0.1
 49
0.05
 74
     0
 49
-0.05
 74
     0
  0
ENDTAB
  0
TABLE
  2
LAYER
  5
2
330
0
100
AcDbSymbolTable
 70
     1
  0
LAYER
  5
10
330
2
100
AcDbSymbolTableRecord
100
AcDbLayerTableRecord
  2
0
 70
     0
 62
     7
  6
Continuous
370
     0
390
F
347
0
  0
ENDTAB
  0
TABLE
  2
STYLE
  5
3
330
0
100
AcDbSymbolTable
 70
     4
  0
STYLE
  5
11
330
3
100
AcDbSymbolTableRecord
100
AcDbTextStyleTableRecord
  2
Standard
 70
     0
 40
0.0
 41
1.0
 50
0.0
 71
     0
 42
0.25
  3
txt
  4

1001
ACAD
1000
Times New Roman
1071
      290
  0
STYLE
  5
48
330
3
100
AcDbSymbolTableRecord
100
AcDbTextStyleTableRecord
  2
STANDARD0
 70
     0
 40
0.0
 41
1.0
 50
0.0
 71
     0
 42
0.2000000029802322
  3
TXT.SHX
  4

  0
STYLE
  5
49
330
3
100
AcDbSymbolTableRecord
100
AcDbTextStyleTableRecord
  2
STANDARD1
 70
     0
 40
0.2000000029802322
 41
1.0
 50
0.0
 71
     0
 42
0.2000000029802322
  3
TXT.SHX
  4

  0
STYLE
  5
4A
330
3
100
AcDbSymbolTableRecord
100
AcDbTextStyleTableRecord
  2
_TCW_TXTSTY_1
 70
     0
 40
0.0
 41
1.0
 50
0.0
 71
     0
 42
0.6000000238418579
  3
TXT.SHX
  4

  0
ENDTAB
  0
TABLE
  2
VIEW
  5
6
330
0
100
AcDbSymbolTable
 70
     1
  0
VIEW
  5
47
330
6
100
AcDbSymbolTableRecord
100
AcDbViewTableRecord
  2
View_0
 70
     0
 40
8.267716535433072
 10
5.846456692913386
 20
4.133858267716536
 41
11.69291338582677
 11
0.0
 21
0.0
 31
1.0
 12
0.0
 22
0.0
 32
0.0
 42
50.0
 43
0.0
 44
0.0
 50
0.0
 71
     0
281
     0
 72
     0
 73
     0
  0
ENDTAB
  0
TABLE
  2
UCS
  5
7
330
0
100
AcDbSymbolTable
 70
     0
  0
ENDTAB
  0
TABLE
  2
APPID
  5
9
330
0
100
AcDbSymbolTable
 70
     2
  0
APPID
  5
12
330
9
100
AcDbSymbolTableRecord
100
AcDbRegAppTableRecord
  2
ACAD
 70
     0
  0
APPID
  5
3B
330
9
100
AcDbSymbolTableRecord
100
AcDbRegAppTableRecord
  2
TCAD
 70
     0
  0
ENDTAB
  0
TABLE
  2
DIMSTYLE
  5
A
330
0
100
AcDbSymbolTable
 70
     1
100
AcDbDimStyleTable
  0
DIMSTYLE
105
27
330
A
100
AcDbSymbolTableRecord
100
AcDbDimStyleTableRecord
  2
Standard
 70
     0
 45
0.0000001
140
0.2
148
0.0000001
179
     4
340
4A
  0
ENDTAB
  0
TABLE
  2
BLOCK_RECORD
  5
1
330
0
100
AcDbSymbolTable
 70
     1
  0
BLOCK_RECORD
  5
1F
330
1
100
AcDbSymbolTableRecord
100
AcDbBlockTableRecord
  2
*Model_Space
340
22
 70
     0
280
     1
281
     0
  0
BLOCK_RECORD
  5
1B
330
1
100
AcDbSymbolTableRecord
100
AcDbBlockTableRecord
  2
*Paper_Space
340
1E
 70
     0
280
     1
281
     0
  0
ENDTAB
  0
ENDSEC
  0
SECTION
  2
BLOCKS
  0
BLOCK
  5
20
330
1F
100
AcDbEntity
  8
0
100
AcDbBlockBegin
  2
*Model_Space
 70
     0
 71
     0
 10
0.0
 20
0.0
 30
0.0
  3
*Model_Space
  1

  0
ENDBLK
  5
21
330
1F
100
AcDbEntity
  8
0
100
AcDbBlockEnd
  0
BLOCK
  5
1C
330
1B
100
AcDbEntity
 67
     1
  8
0
100
AcDbBlockBegin
  2
*Paper_Space
 70
     0
 71
     0
 10
0.0
 20
0.0
 30
0.0
  3
*Paper_Space
  1

  0
ENDBLK
  5
1D
330
1B
100
AcDbEntity
 67
     1
  8
0
100
AcDbBlockEnd
  0
ENDSEC
  0
SECTION
  2
ENTITIES
  0
LINE
  5
4D
102
{ACAD_XDICTIONARY
360
4B
102
}
330
1F
100
AcDbEntity
  8
0
  6
Continuous
 62
     7
100
AcDbLine
 10
-1.486028888380029
 20
-3.909568038009042
 30
0.0
 11
-1.486028888380029
 21
5.749619736461133
 31
0.0
  0
LINE
  5
50
102
{ACAD_XDICTIONARY
360
4E
102
}
330
1F
100
AcDbEntity
  8
0
  6
Continuous
 62
     7
100
AcDbLine
 10
5.944115553520105
 20
-5.158238733149235
 30
0.0
 11
5.944115553520105
 21
8.216021262271003
 31
0.0
  0
LINE
  5
53
102
{ACAD_XDICTIONARY
360
51
102
}
330
1F
100
AcDbEntity
  8
0
  6
Continuous
 62
     7
100
AcDbLine
 10
-5.944115553520109
 20
7.435089304965087
 30
0.0
 11
5.944115553520105
 21
7.435089304965087
 31
0.0
  0
LINE
  5
56
102
{ACAD_XDICTIONARY
360
54
102
}
330
1F
100
AcDbEntity
  8
0
  6
Continuous
 62
     7
100
AcDbLine
 10
-5.944115553520109
 20
-5.158238733149235
 30
0.0
 11
-0.0000000000000025
 21
-9.989370660283797
 31
0.0
  0
LINE
  5
59
102
{ACAD_XDICTIONARY
360
57
102
}
330
1F
100
AcDbEntity
  8
0
  6
Continuous
 62
     7
100
AcDbLine
 10
5.944115553520105
 20
-5.158238733149235
 30
0.0
 11
-0.0000000000000025
 21
-9.989370660283797
 31
0.0
  0
LINE
  5
5C
102
{ACAD_XDICTIONARY
360
5A
102
}
330
1F
100
AcDbEntity
  8
0
  6
Continuous
 62
     7
100
AcDbLine
 10
-0.0000000000000025
 20
-3.909568038009042
 30
0.0
 11
-0.0000000000000025
 21
5.749619736461133
 31
0.0
  0
LINE
  5
5F
102
{ACAD_XDICTIONARY
360
5D
102
}
330
1F
100
AcDbEntity
  8
0
  6
Continuous
 62
     7
100
AcDbLine
 10
-2.972057776760056
 20
-3.909568038009042
 30
0.0
 11
-2.972057776760056
 21
5.749619736461133
 31
0.0
  0
LINE
  5
62
102
{ACAD_XDICTIONARY
360
60
102
}
330
1F
100
AcDbEntity
  8
0
  6
Continuous
 62
     7
100
AcDbLine
 10
1.486028888380024
 20
-3.909568038009042
 30
0.0
 11
1.486028888380024
 21
5.749619736461133
 31
0.0
  0
LINE
  5
65
102
{ACAD_XDICTIONARY
360
63
102
}
330
1F
100
AcDbEntity
  8
0
  6
Continuous
 62
     7
100
AcDbLine
 10
2.972057776760051
 20
-3.909568038009042
 30
0.0
 11
2.972057776760051
 21
5.749619736461133
 31
0.0
  0
LINE
  5
68
102
{ACAD_XDICTIONARY
360
66
102
}
330
1F
100
AcDbEntity
  8
0
  6
Continuous
 62
     7
100
AcDbLine
 10
4.458086665140079
 20
-3.909568038009042
 30
0.0
 11
4.458086665140079
 21
5.749619736461133
 31
0.0
  0
LINE
  5
6B
102
{ACAD_XDICTIONARY
360
69
102
}
330
1F
100
AcDbEntity
  8
0
  6
Continuous
 62
     7
100
AcDbLine
 10
-4.458086665140083
 20
-3.909568038009042
 30
0.0
 11
-4.458086665140083
 21
5.749619736461133
 31
0.0
  0
LINE
  5
6E
102
{ACAD_XDICTIONARY
360
6C
102
}
330
1F
100
AcDbEntity
  8
0
  6
Continuous
 62
     7
100
AcDbLine
 10
-5.944115553520109
 20
-5.158238733149235
 30
0.0
 11
-5.944115553520109
 21
8.216021262271003
 31
0.0
  0
LINE
  5
71
102
{ACAD_XDICTIONARY
360
6F
102
}
330
1F
100
AcDbEntity
  8
0
  6
Continuous
 62
     7
100
AcDbLine
 10
-3.671168240457326
 20
6.852568952777894
 30
0.0
 11
-3.671168240457326
 21
7.409829785920403
 31
0.0
  0
CIRCLE
  5
72
102
{ACAD_REACTORS
330
73
102
}
330
1F
100
AcDbEntity
  8
0
  6
Continuous
 62
     7
370
     0
100
AcDbCircle
 10
-4.094582451623447
 20
6.429154741611773
 30
0.0
 40
0.0111452166628494
  0
HATCH
  5
73
330
1F
100
AcDbEntity
  8
0
  6
Continuous
 62
     7
100
AcDbHatch
 10
0.0
 20
0.0
 30
0.0
210
0.0
220
0.0
230
1.0
  2
SOLID
 70
     1
 71
     1
 91
        1
 92
        0
 93
        1
 72
     2
 10
-4.094582451623447
 20
6.429154741611773
 40
0.0111452166628494
 50
0.0
 51
360.0
 73
     1
 97
        1
330
72
 75
     0
 76
     1
 98
        0
  0
CIRCLE
  5
74
102
{ACAD_REACTORS
330
75
102
}
330
1F
100
AcDbEntity
  8
0
  6
Continuous
 62
     7
370
     0
100
AcDbCircle
 10
-4.228429073599836
 20
6.295308119635381
 30
0.0
 40
0.0111452166628503
  0
HATCH
  5
75
330
1F
100
AcDbEntity
  8
0
  6
Continuous
 62
     7
100
AcDbHatch
 10
0.0
 20
0.0
 30
0.0
210
0.0
220
0.0
230
1.0
  2
SOLID
 70
     1
 71
     1
 91
        1
 92
        0
 93
        1
 72
     2
 10
-4.228429073599836
 20
6.295308119635381
 40
0.0111452166628503
 50
0.0
 51
360.0
 73
     1
 97
        1
330
74
 75
     0
 76
     1
 98
        0
  0
CIRCLE
  5
76
102
{ACAD_REACTORS
330
77
102
}
330
1F
100
AcDbEntity
  8
0
  6
Continuous
 62
     7
370
     0
100
AcDbCircle
 10
-3.810877246398374
 20
6.712859946836844
 30
0.0
 40
0.011145216662851
  0
HATCH
  5
77
330
1F
100
AcDbEntity
  8
0
  6
Continuous
 62
     7
100
AcDbHatch
 10
0.0
 20
0.0
 30
0.0
210
0.0
220
0.0
230
1.0
  2
SOLID
 70
     1
 71
     1
 91
        1
 92
        0
 93
        1
 72
     2
 10
-3.810877246398374
 20
6.712859946836844
 40
0.011145216662851
 50
0.0
 51
360.0
 73
     1
 97
        1
330
76
 75
     0
 76
     1
 98
        0
  0
CIRCLE
  5
78
102
{ACAD_REACTORS
330
79
102
}
330
1F
100
AcDbEntity
  8
0
  6
Continuous
 62
     7
370
     0
100
AcDbCircle
 10
-3.949798657028581
 20
6.573938536206638
 30
0.0
 40
0.0111452166628503
  0
HATCH
  5
79
330
1F
100
AcDbEntity
  8
0
  6
Continuous
 62
     7
100
AcDbHatch
 10
0.0
 20
0.0
 30
0.0
210
0.0
220
0.0
230
1.0
  2
SOLID
 70
     1
 71
     1
 91
        1
 92
        0
 93
        1
 72
     2
 10
-3.949798657028581
 20
6.573938536206638
 40
0.0111452166628503
 50
0.0
 51
360.0
 73
     1
 97
        1
330
78
 75
     0
 76
     1
 98
        0
  0
CIRCLE
  5
7A
102
{ACAD_REACTORS
330
7B
102
}
330
1F
100
AcDbEntity
  8
0
  6
Continuous
 62
     7
370
     0
100
AcDbCircle
 10
-3.889143415891573
 20
6.4166186019094
 30
0.0
 40
0.0111452166628498
  0
HATCH
  5
7B
330
1F
100
AcDbEntity
  8
0
  6
Continuous
 62
     7
100
AcDbHatch
 10
0.0
 20
0.0
 30
0.0
210
0.0
220
0.0
230
1.0
  2
SOLID
 70
     1
 71
     1
 91
        1
 92
        0
 93
        1
 72
     2
 10
-3.889143415891573
 20
6.4166186019094
 40
0.0111452166628498
 50
0.0
 51
360.0
 73
     1
 97
        1
330
7A
 75
     0
 76
     1
 98
        0
  0
CIRCLE
  5
7C
102
{ACAD_REACTORS
330
7D
102
}
330
1F
100
AcDbEntity
  8
0
  6
Continuous
 62
     7
370
     0
100
AcDbCircle
 10
-3.810483448742954
 20
6.573938536206638
 30
0.0
 40
0.0111452166628501
  0
HATCH
  5
7D
330
1F
100
AcDbEntity
  8
0
  6
Continuous
 62
     7
100
AcDbHatch
 10
0.0
 20
0.0
 30
0.0
210
0.0
220
0.0
230
1.0
  2
SOLID
 70
     1
 71
     1
 91
        1
 92
        0
 93
        1
 72
     2
 10
-3.810483448742954
 20
6.573938536206638
 40
0.0111452166628501
 50
0.0
 51
360.0
 73
     1
 97
        1
330
7C
 75
     0
 76
     1
 98
        0
  0
CIRCLE
  5
7E
102
{ACAD_REACTORS
330
7F
102
}
330
1F
100
AcDbEntity
  8
0
  6
Continuous
 62
     7
370
     0
100
AcDbCircle
 10
-3.750863969741147
 20
6.693177494210252
 30
0.0
 40
0.0111452166628503
  0
HATCH
  5
7F
330
1F
100
AcDbEntity
  8
0
  6
Continuous
 62
     7
100
AcDbHatch
 10
0.0
 20
0.0
 30
0.0
210
0.0
220
0.0
230
1.0
  2
SOLID
 70
     1
 71
     1
 91
        1
 92
        0
 93
        1
 72
     2
 10
-3.750863969741147
 20
6.693177494210252
 40
0.0111452166628503
 50
0.0
 51
360.0
 73
     1
 97
        1
330
7E
 75
     0
 76
     1
 98
        0
  0
CIRCLE
  5
80
102
{ACAD_REACTORS
330
81
102
}
330
1F
100
AcDbEntity
  8
0
  6
Continuous
 62
     7
370
     0
100
AcDbCircle
 10
-3.591472511173505
 20
6.693177494210252
 30
0.0
 40
0.0111452166628503
  0
HATCH
  5
81
330
1F
100
AcDbEntity
  8
0
  6
Continuous
 62
     7
100
AcDbHatch
 10
0.0
 20
0.0
 30
0.0
210
0.0
220
0.0
230
1.0
  2
SOLID
 70
     1
 71
     1
 91
        1
 92
        0
 93
        1
 72
     2
 10
-3.591472511173505
 20
6.693177494210252
 40
0.0111452166628503
 50
0.0
 51
360.0
 73
     1
 97
        1
330
80
 75
     0
 76
     1
 98
        0
  0
CIRCLE
  5
82
102
{ACAD_REACTORS
330
83
102
}
330
1F
100
AcDbEntity
  8
0
  6
Continuous
 62
     7
370
     0
100
AcDbCircle
 10
-3.671168240457326
 20
6.675863028617291
 30
0.0
 40
0.0111452166628503
  0
HATCH
  5
83
330
1F
100
AcDbEntity
  8
0
  6
Continuous
 62
     7
100
AcDbHatch
 10
0.0
 20
0.0
 30
0.0
210
0.0
220
0.0
230
1.0
  2
SOLID
 70
     1
 71
     1
 91
        1
 92
        0
 93
        1
 72
     2
 10
-3.671168240457326
 20
6.675863028617291
 40
0.0111452166628503
 50
0.0
 51
360.0
 73
     1
 97
        1
330
82
 75
     0
 76
     1
 98
        0
  0
CIRCLE
  5
84
102
{ACAD_REACTORS
330
85
102
}
330
1F
100
AcDbEntity
  8
0
  6
Continuous
 62
     7
370
     0
100
AcDbCircle
 10
-3.671168240457326
 20
6.852568952777894
 30
0.0
 40
0.0111452166628503
  0
HATCH
  5
85
330
1F
100
AcDbEntity
  8
0
  6
Continuous
 62
     7
100
AcDbHatch
 10
0.0
 20
0.0
 30
0.0
210
0.0
220
0.0
230
1.0
  2
SOLID
 70
     1
 71
     1
 91
        1
 92
        0
 93
        1
 72
     2
 10
-3.671168240457326
 20
6.852568952777894
 40
0.0111452166628503
 50
0.0
 51
360.0
 73
     1
 97
        1
330
84
 75
     0
 76
     1
 98
        0
  0
CIRCLE
  5
86
102
{ACAD_REACTORS
330
87
102
}
330
1F
100
AcDbEntity
  8
0
  6
Continuous
 62
     7
370
     0
100
AcDbCircle
 10
-3.671168240457326
 20
6.573938536206638
 30
0.0
 40
0.0111452166628503
  0
HATCH
  5
87
330
1F
100
AcDbEntity
  8
0
  6
Continuous
 62
     7
100
AcDbHatch
 10
0.0
 20
0.0
 30
0.0
210
0.0
220
0.0
230
1.0
  2
SOLID
 70
     1
 71
     1
 91
        1
 92
        0
 93
        1
 72
     2
 10
-3.671168240457326
 20
6.573938536206638
 40
0.0111452166628503
 50
0.0
 51
360.0
 73
     1
 97
        1
330
86
 75
     0
 76
     1
 98
        0
  0
CIRCLE
  5
88
102
{ACAD_REACTORS
330
89
102
}
330
1F
100
AcDbEntity
  8
0
  6
Continuous
 62
     7
370
     0
100
AcDbCircle
 10
-3.949798657028581
 20
6.295308119635381
 30
0.0
 40
0.0111452166628503
  0
HATCH
  5
89
330
1F
100
AcDbEntity
  8
0
  6
Continuous
 62
     7
100
AcDbHatch
 10
0.0
 20
0.0
 30
0.0
210
0.0
220
0.0
230
1.0
  2
SOLID
 70
     1
 71
     1
 91
        1
 92
        0
 93
        1
 72
     2
 10
-3.949798657028581
 20
6.295308119635381
 40
0.0111452166628503
 50
0.0
 51
360.0
 73
     1
 97
        1
330
88
 75
     0
 76
     1
 98
        0
  0
CIRCLE
  5
8A
102
{ACAD_REACTORS
330
8B
102
}
330
1F
100
AcDbEntity
  8
0
  6
Continuous
 62
     7
370
     0
100
AcDbCircle
 10
-3.671168240457326
 20
6.295308119635381
 30
0.0
 40
0.0111452166628503
  0
HATCH
  5
8B
330
1F
100
AcDbEntity
  8
0
  6
Continuous
 62
     7
100
AcDbHatch
 10
0.0
 20
0.0
 30
0.0
210
0.0
220
0.0
230
1.0
  2
SOLID
 70
     1
 71
     1
 91
        1
 92
        0
 93
        1
 72
     2
 10
-3.671168240457326
 20
6.295308119635381
 40
0.0111452166628503
 50
0.0
 51
360.0
 73
     1
 97
        1
330
8A
 75
     0
 76
     1
 98
        0
  0
CIRCLE
  5
8C
102
{ACAD_REACTORS
330
8D
102
}
330
1F
100
AcDbEntity
  8
0
  6
Continuous
 62
     7
370
     0
100
AcDbCircle
 10
-3.671168240457326
 20
6.409973080720563
 30
0.0
 40
0.0111452166628503
  0
HATCH
  5
8D
330
1F
100
AcDbEntity
  8
0
  6
Continuous
 62
     7
100
AcDbHatch
 10
0.0
 20
0.0
 30
0.0
210
0.0
220
0.0
230
1.0
  2
SOLID
 70
     1
 71
     1
 91
        1
 92
        0
 93
        1
 72
     2
 10
-3.671168240457326
 20
6.409973080720563
 40
0.0111452166628503
 50
0.0
 51
360.0
 73
     1
 97
        1
330
8C
 75
     0
 76
     1
 98
        0
  0
CIRCLE
  5
8E
102
{ACAD_REACTORS
330
8F
102
}
330
1F
100
AcDbEntity
  8
0
  6
Continuous
 62
     7
370
     0
100
AcDbCircle
 10
-3.453193065023079
 20
6.4166186019094
 30
0.0
 40
0.0111452166628503
  0
HATCH
  5
8F
330
1F
100
AcDbEntity
  8
0
  6
Continuous
 62
     7
100
AcDbHatch
 10
0.0
 20
0.0
 30
0.0
210
0.0
220
0.0
230
1.0
  2
SOLID
 70
     1
 71
     1
 91
        1
 92
        0
 93
        1
 72
     2
 10
-3.453193065023079
 20
6.4166186019094
 40
0.0111452166628503
 50
0.0
 51
360.0
 73
     1
 97
        1
330
8E
 75
     0
 76
     1
 98
        0
  0
CIRCLE
  5
90
102
{ACAD_REACTORS
330
91
102
}
330
1F
100
AcDbEntity
  8
0
  6
Continuous
 62
     7
370
     0
100
AcDbCircle
 10
-3.392537823886071
 20
6.573938536206638
 30
0.0
 40
0.0111452166628503
  0
HATCH
  5
91
330
1F
100
AcDbEntity
  8
0
  6
Continuous
 62
     7
100
AcDbHatch
 10
0.0
 20
0.0
 30
0.0
210
0.0
220
0.0
230
1.0
  2
SOLID
 70
     1
 71
     1
 91
        1
 92
        0
 93
        1
 72
     2
 10
-3.392537823886071
 20
6.573938536206638
 40
0.0111452166628503
 50
0.0
 51
360.0
 73
     1
 97
        1
330
90
 75
     0
 76
     1
 98
        0
  0
CIRCLE
  5
92
102
{ACAD_REACTORS
330
93
102
}
330
1F
100
AcDbEntity
  8
0
  6
Continuous
 62
     7
370
     0
100
AcDbCircle
 10
-3.247754772305649
 20
6.429154741611773
 30
0.0
 40
0.0111452166628492
  0
HATCH
  5
93
330
1F
100
AcDbEntity
  8
0
  6
Continuous
 62
     7
100
AcDbHatch
 10
0.0
 20
0.0
 30
0.0
210
0.0
220
0.0
230
1.0
  2
SOLID
 70
     1
 71
     1
 91
        1
 92
        0
 93
        1
 72
     2
 10
-3.247754772305649
 20
6.429154741611773
 40
0.0111452166628492
 50
0.0
 51
360.0
 73
     1
 97
        1
330
92
 75
     0
 76
     1
 98
        0
  0
CIRCLE
  5
94
102
{ACAD_REACTORS
330
95
102
}
330
1F
100
AcDbEntity
  8
0
  6
Continuous
 62
     7
370
     0
100
AcDbCircle
 10
-3.392537823886071
 20
6.295308119635381
 30
0.0
 40
0.0111452166628503
  0
HATCH
  5
95
330
1F
100
AcDbEntity
  8
0
  6
Continuous
 62
     7
100
AcDbHatch
 10
0.0
 20
0.0
 30
0.0
210
0.0
220
0.0
230
1.0
  2
SOLID
 70
     1
 71
     1
 91
        1
 92
        0
 93
        1
 72
     2
 10
-3.392537823886071
 20
6.295308119635381
 40
0.0111452166628503
 50
0.0
 51
360.0
 73
     1
 97
        1
330
94
 75
     0
 76
     1
 98
        0
  0
CIRCLE
  5
96
102
{ACAD_REACTORS
330
97
102
}
330
1F
100
AcDbEntity
  8
0
  6
Continuous
 62
     7
370
     0
100
AcDbCircle
 10
-3.113907407314816
 20
6.295308119635381
 30
0.0
 40
0.0111452166628503
  0
HATCH
  5
97
330
1F
100
AcDbEntity
  8
0
  6
Continuous
 62
     7
100
AcDbHatch
 10
0.0
 20
0.0
 30
0.0
210
0.0
220
0.0
230
1.0
  2
SOLID
 70
     1
 71
     1
 91
        1
 92
        0
 93
        1
 72
     2
 10
-3.113907407314816
 20
6.295308119635381
 40
0.0111452166628503
 50
0.0
 51
360.0
 73
     1
 97
        1
330
96
 75
     0
 76
     1
 98
        0
  0
CIRCLE
  5
98
102
{ACAD_REACTORS
330
99
102
}
330
1F
100
AcDbEntity
  8
0
  6
Continuous
 62
     7
370
     0
100
AcDbCircle
 10
-3.531459234516278
 20
6.712859946836844
 30
0.0
 40
0.011145216662851
  0
HATCH
  5
99
330
1F
100
AcDbEntity
  8
0
  6
Continuous
 62
     7
100
AcDbHatch
 10
0.0
 20
0.0
 30
0.0
210
0.0
220
0.0
230
1.0
  2
SOLID
 70
     1
 71
     1
 91
        1
 92
        0
 93
        1
 72
     2
 10
-3.531459234516278
 20
6.712859946836844
 40
0.011145216662851
 50
0.0
 51
360.0
 73
     1
 97
        1
330
98
 75
     0
 76
     1
 98
        0
  0
CIRCLE
  5
9A
102
{ACAD_REACTORS
330
9B
102
}
330
1F
100
AcDbEntity
  8
0
  6
Continuous
 62
     7
370
     0
100
AcDbCircle
 10
-3.531853032171699
 20
6.573938536206638
 30
0.0
 40
0.0111452166628501
  0
HATCH
  5
9B
330
1F
100
AcDbEntity
  8
0
  6
Continuous
 62
     7
100
AcDbHatch
 10
0.0
 20
0.0
 30
0.0
210
0.0
220
0.0
230
1.0
  2
SOLID
 70
     1
 71
     1
 91
        1
 92
        0
 93
        1
 72
     2
 10
-3.531853032171699
 20
6.573938536206638
 40
0.0111452166628501
 50
0.0
 51
360.0
 73
     1
 97
        1
330
9A
 75
     0
 76
     1
 98
        0
  0
CIRCLE
  5
9C
102
{ACAD_REACTORS
330
9D
102
}
330
1F
100
AcDbEntity
  8
0
  6
Continuous
 62
     7
370
     0
100
AcDbCircle
 10
-1.068986026072838
 20
6.573938536206638
 30
0.0
 40
0.0111452166628502
  0
HATCH
  5
9D
330
1F
100
AcDbEntity
  8
0
  6
Continuous
 62
     7
100
AcDbHatch
 10
0.0
 20
0.0
 30
0.0
210
0.0
220
0.0
230
1.0
  2
SOLID
 70
     1
 71
     1
 91
        1
 92
        0
 93
        1
 72
     2
 10
-1.068986026072838
 20
6.573938536206638
 40
0.0111452166628502
 50
0.0
 51
360.0
 73
     1
 97
        1
330
9C
 75
     0
 76
     1
 98
        0
  0
CIRCLE
  5
9E
102
{ACAD_REACTORS
330
9F
102
}
330
1F
100
AcDbEntity
  8
0
  6
Continuous
 62
     7
370
     0
100
AcDbCircle
 10
-1.068592228417417
 20
6.712859946836844
 30
0.0
 40
0.0111452166628512
  0
HATCH
  5
9F
330
1F
100
AcDbEntity
  8
0
  6
Continuous
 62
     7
100
AcDbHatch
 10
0.0
 20
0.0
 30
0.0
210
0.0
220
0.0
230
1.0
  2
SOLID
 70
     1
 71
     1
 91
        1
 92
        0
 93
        1
 72
     2
 10
-1.068592228417417
 20
6.712859946836844
 40
0.0111452166628512
 50
0.0
 51
360.0
 73
     1
 97
        1
330
9E
 75
     0
 76
     1
 98
        0
  0
CIRCLE
  5
A0
102
{ACAD_REACTORS
330
A1
102
}
330
1F
100
AcDbEntity
  8
0
  6
Continuous
 62
     7
370
     0
100
AcDbCircle
 10
-0.6510404012159551
 20
6.295308119635381
 30
0.0
 40
0.0111452166628502
  0
HATCH
  5
A1
330
1F
100
AcDbEntity
  8
0
  6
Continuous
 62
     7
100
AcDbHatch
 10
0.0
 20
0.0
 30
0.0
210
0.0
220
0.0
230
1.0
  2
SOLID
 70
     1
 71
     1
 91
        1
 92
        0
 93
        1
 72
     2
 10
-0.6510404012159551
 20
6.295308119635381
 40
0.0111452166628502
 50
0.0
 51
360.0
 73
     1
 97
        1
330
A0
 75
     0
 76
     1
 98
        0
  0
CIRCLE
  5
A2
102
{ACAD_REACTORS
330
A3
102
}
330
1F
100
AcDbEntity
  8
0
  6
Continuous
 62
     7
370
     0
100
AcDbCircle
 10
-0.9296708177872101
 20
6.295308119635381
 30
0.0
 40
0.0111452166628502
  0
HATCH
  5
A3
330
1F
100
AcDbEntity
  8
0
  6
Continuous
 62
     7
100
AcDbHatch
 10
0.0
 20
0.0
 30
0.0
210
0.0
220
0.0
230
1.0
  2
SOLID
 70
     1
 71
     1
 91
        1
 92
        0
 93
        1
 72
     2
 10
-0.9296708177872101
 20
6.295308119635381
 40
0.0111452166628502
 50
0.0
 51
360.0
 73
     1
 97
        1
330
A2
 75
     0
 76
     1
 98
        0
  0
CIRCLE
  5
A4
102
{ACAD_REACTORS
330
A5
102
}
330
1F
100
AcDbEntity
  8
0
  6
Continuous
 62
     7
370
     0
100
AcDbCircle
 10
-0.784887023192344
 20
6.429154741611773
 30
0.0
 40
0.0111452166628493
  0
HATCH
  5
A5
330
1F
100
AcDbEntity
  8
0
  6
Continuous
 62
     7
100
AcDbHatch
 10
0.0
 20
0.0
 30
0.0
210
0.0
220
0.0
230
1.0
  2
SOLID
 70
     1
 71
     1
 91
        1
 92
        0
 93
        1
 72
     2
 10
-0.784887023192344
 20
6.429154741611773
 40
0.0111452166628493
 50
0.0
 51
360.0
 73
     1
 97
        1
330
A4
 75
     0
 76
     1
 98
        0
  0
CIRCLE
  5
A6
102
{ACAD_REACTORS
330
A7
102
}
330
1F
100
AcDbEntity
  8
0
  6
Continuous
 62
     7
370
     0
100
AcDbCircle
 10
-0.9296708177872101
 20
6.573938536206638
 30
0.0
 40
0.0111452166628502
  0
HATCH
  5
A7
330
1F
100
AcDbEntity
  8
0
  6
Continuous
 62
     7
100
AcDbHatch
 10
0.0
 20
0.0
 30
0.0
210
0.0
220
0.0
230
1.0
  2
SOLID
 70
     1
 71
     1
 91
        1
 92
        0
 93
        1
 72
     2
 10
-0.9296708177872101
 20
6.573938536206638
 40
0.0111452166628502
 50
0.0
 51
360.0
 73
     1
 97
        1
330
A6
 75
     0
 76
     1
 98
        0
  0
CIRCLE
  5
A8
102
{ACAD_REACTORS
330
A9
102
}
330
1F
100
AcDbEntity
  8
0
  6
Continuous
 62
     7
370
     0
100
AcDbCircle
 10
-0.9903260589242177
 20
6.4166186019094
 30
0.0
 40
0.0111452166628502
  0
HATCH
  5
A9
330
1F
100
AcDbEntity
  8
0
  6
Continuous
 62
     7
100
AcDbHatch
 10
0.0
 20
0.0
 30
0.0
210
0.0
220
0.0
230
1.0
  2
SOLID
 70
     1
 71
     1
 91
        1
 92
        0
 93
        1
 72
     2
 10
-0.9903260589242177
 20
6.4166186019094
 40
0.0111452166628502
 50
0.0
 51
360.0
 73
     1
 97
        1
330
A8
 75
     0
 76
     1
 98
        0
  0
CIRCLE
  5
AA
102
{ACAD_REACTORS
330
AB
102
}
330
1F
100
AcDbEntity
  8
0
  6
Continuous
 62
     7
370
     0
100
AcDbCircle
 10
-1.208301234358465
 20
6.409973080720563
 30
0.0
 40
0.0111452166628501
  0
HATCH
  5
AB
330
1F
100
AcDbEntity
  8
0
  6
Continuous
 62
     7
100
AcDbHatch
 10
0.0
 20
0.0
 30
0.0
210
0.0
220
0.0
230
1.0
  2
SOLID
 70
     1
 71
     1
 91
        1
 92
        0
 93
        1
 72
     2
 10
-1.208301234358465
 20
6.409973080720563
 40
0.0111452166628501
 50
0.0
 51
360.0
 73
     1
 97
        1
330
AA
 75
     0
 76
     1
 98
        0
  0
CIRCLE
  5
AC
102
{ACAD_REACTORS
330
AD
102
}
330
1F
100
AcDbEntity
  8
0
  6
Continuous
 62
     7
370
     0
100
AcDbCircle
 10
-1.208301234358465
 20
6.295308119635381
 30
0.0
 40
0.0111452166628501
  0
HATCH
  5
AD
330
1F
100
AcDbEntity
  8
0
  6
Continuous
 62
     7
100
AcDbHatch
 10
0.0
 20
0.0
 30
0.0
210
0.0
220
0.0
230
1.0
  2
SOLID
 70
     1
 71
     1
 91
        1
 92
        0
 93
        1
 72
     2
 10
-1.208301234358465
 20
6.295308119635381
 40
0.0111452166628501
 50
0.0
 51
360.0
 73
     1
 97
        1
330
AC
 75
     0
 76
     1
 98
        0
  0
CIRCLE
  5
AE
102
{ACAD_REACTORS
330
AF
102
}
330
1F
100
AcDbEntity
  8
0
  6
Continuous
 62
     7
370
     0
100
AcDbCircle
 10
-1.48693165092972
 20
6.295308119635381
 30
0.0
 40
0.0111452166628502
  0
HATCH
  5
AF
330
1F
100
AcDbEntity
  8
0
  6
Continuous
 62
     7
100
AcDbHatch
 10
0.0
 20
0.0
 30
0.0
210
0.0
220
0.0
230
1.0
  2
SOLID
 70
     1
 71
     1
 91
        1
 92
        0
 93
        1
 72
     2
 10
-1.48693165092972
 20
6.295308119635381
 40
0.0111452166628502
 50
0.0
 51
360.0
 73
     1
 97
        1
330
AE
 75
     0
 76
     1
 98
        0
  0
CIRCLE
  5
B0
102
{ACAD_REACTORS
330
B1
102
}
330
1F
100
AcDbEntity
  8
0
  6
Continuous
 62
     7
370
     0
100
AcDbCircle
 10
-1.208301234358465
 20
6.573938536206638
 30
0.0
 40
0.0111452166628501
  0
HATCH
  5
B1
330
1F
100
AcDbEntity
  8
0
  6
Continuous
 62
     7
100
AcDbHatch
 10
0.0
 20
0.0
 30
0.0
210
0.0
220
0.0
230
1.0
  2
SOLID
 70
     1
 71
     1
 91
        1
 92
        0
 93
        1
 72
     2
 10
-1.208301234358465
 20
6.573938536206638
 40
0.0111452166628501
 50
0.0
 51
360.0
 73
     1
 97
        1
330
B0
 75
     0
 76
     1
 98
        0
  0
CIRCLE
  5
B2
102
{ACAD_REACTORS
330
B3
102
}
330
1F
100
AcDbEntity
  8
0
  6
Continuous
 62
     7
370
     0
100
AcDbCircle
 10
-1.208301234358465
 20
6.852568952777894
 30
0.0
 40
0.0111452166628501
  0
HATCH
  5
B3
330
1F
100
AcDbEntity
  8
0
  6
Continuous
 62
     7
100
AcDbHatch
 10
0.0
 20
0.0
 30
0.0
210
0.0
220
0.0
230
1.0
  2
SOLID
 70
     1
 71
     1
 91
        1
 92
        0
 93
        1
 72
     2
 10
-1.208301234358465
 20
6.852568952777894
 40
0.0111452166628501
 50
0.0
 51
360.0
 73
     1
 97
        1
330
B2
 75
     0
 76
     1
 98
        0
  0
CIRCLE
  5
B4
102
{ACAD_REACTORS
330
B5
102
}
330
1F
100
AcDbEntity
  8
0
  6
Continuous
 62
     7
370
     0
100
AcDbCircle
 10
-1.208301234358465
 20
6.675863028617291
 30
0.0
 40
0.0111452166628501
  0
HATCH
  5
B5
330
1F
100
AcDbEntity
  8
0
  6
Continuous
 62
     7
100
AcDbHatch
 10
0.0
 20
0.0
 30
0.0
210
0.0
220
0.0
230
1.0
  2
SOLID
 70
     1
 71
     1
 91
        1
 92
        0
 93
        1
 72
     2
 10
-1.208301234358465
 20
6.675863028617291
 40
0.0111452166628501
 50
0.0
 51
360.0
 73
     1
 97
        1
330
B4
 75
     0
 76
     1
 98
        0
  0
CIRCLE
  5
B6
102
{ACAD_REACTORS
330
B7
102
}
330
1F
100
AcDbEntity
  8
0
  6
Continuous
 62
     7
370
     0
100
AcDbCircle
 10
-1.128605505074644
 20
6.693177494210252
 30
0.0
 40
0.0111452166628502
  0
HATCH
  5
B7
330
1F
100
AcDbEntity
  8
0
  6
Continuous
 62
     7
100
AcDbHatch
 10
0.0
 20
0.0
 30
0.0
210
0.0
220
0.0
230
1.0
  2
SOLID
 70
     1
 71
     1
 91
        1
 92
        0
 93
        1
 72
     2
 10
-1.128605505074644
 20
6.693177494210252
 40
0.0111452166628502
 50
0.0
 51
360.0
 73
     1
 97
        1
330
B6
 75
     0
 76
     1
 98
        0
  0
CIRCLE
  5
B8
102
{ACAD_REACTORS
330
B9
102
}
330
1F
100
AcDbEntity
  8
0
  6
Continuous
 62
     7
370
     0
100
AcDbCircle
 10
-1.287996963642286
 20
6.693177494210252
 30
0.0
 40
0.0111452166628502
  0
HATCH
  5
B9
330
1F
100
AcDbEntity
  8
0
  6
Continuous
 62
     7
100
AcDbHatch
 10
0.0
 20
0.0
 30
0.0
210
0.0
220
0.0
230
1.0
  2
SOLID
 70
     1
 71
     1
 91
        1
 92
        0
 93
        1
 72
     2
 10
-1.287996963642286
 20
6.693177494210252
 40
0.0111452166628502
 50
0.0
 51
360.0
 73
     1
 97
        1
330
B8
 75
     0
 76
     1
 98
        0
  0
CIRCLE
  5
BA
102
{ACAD_REACTORS
330
BB
102
}
330
1F
100
AcDbEntity
  8
0
  6
Continuous
 62
     7
370
     0
100
AcDbCircle
 10
-1.347616442644092
 20
6.573938536206638
 30
0.0
 40
0.0111452166628501
  0
HATCH
  5
BB
330
1F
100
AcDbEntity
  8
0
  6
Continuous
 62
     7
100
AcDbHatch
 10
0.0
 20
0.0
 30
0.0
210
0.0
220
0.0
230
1.0
  2
SOLID
 70
     1
 71
     1
 91
        1
 92
        0
 93
        1
 72
     2
 10
-1.347616442644092
 20
6.573938536206638
 40
0.0111452166628501
 50
0.0
 51
360.0
 73
     1
 97
        1
330
BA
 75
     0
 76
     1
 98
        0
  0
CIRCLE
  5
BC
102
{ACAD_REACTORS
330
BD
102
}
330
1F
100
AcDbEntity
  8
0
  6
Continuous
 62
     7
370
     0
100
AcDbCircle
 10
-1.426276409792713
 20
6.4166186019094
 30
0.0
 40
0.0111452166628502
  0
HATCH
  5
BD
330
1F
100
AcDbEntity
  8
0
  6
Continuous
 62
     7
100
AcDbHatch
 10
0.0
 20
0.0
 30
0.0
210
0.0
220
0.0
230
1.0
  2
SOLID
 70
     1
 71
     1
 91
        1
 92
        0
 93
        1
 72
     2
 10
-1.426276409792713
 20
6.4166186019094
 40
0.0111452166628502
 50
0.0
 51
360.0
 73
     1
 97
        1
330
BC
 75
     0
 76
     1
 98
        0
  0
CIRCLE
  5
BE
102
{ACAD_REACTORS
330
BF
102
}
330
1F
100
AcDbEntity
  8
0
  6
Continuous
 62
     7
370
     0
100
AcDbCircle
 10
-1.48693165092972
 20
6.573938536206638
 30
0.0
 40
0.0111452166628502
  0
HATCH
  5
BF
330
1F
100
AcDbEntity
  8
0
  6
Continuous
 62
     7
100
AcDbHatch
 10
0.0
 20
0.0
 30
0.0
210
0.0
220
0.0
230
1.0
  2
SOLID
 70
     1
 71
     1
 91
        1
 92
        0
 93
        1
 72
     2
 10
-1.48693165092972
 20
6.573938536206638
 40
0.0111452166628502
 50
0.0
 51
360.0
 73
     1
 97
        1
330
BE
 75
     0
 76
     1
 98
        0
  0
CIRCLE
  5
C0
102
{ACAD_REACTORS
330
C1
102
}
330
1F
100
AcDbEntity
  8
0
  6
Continuous
 62
     7
370
     0
100
AcDbCircle
 10
-1.348010240299514
 20
6.712859946836844
 30
0.0
 40
0.0111452166628512
  0
HATCH
  5
C1
330
1F
100
AcDbEntity
  8
0
  6
Continuous
 62
     7
100
AcDbHatch
 10
0.0
 20
0.0
 30
0.0
210
0.0
220
0.0
230
1.0
  2
SOLID
 70
     1
 71
     1
 91
        1
 92
        0
 93
        1
 72
     2
 10
-1.348010240299514
 20
6.712859946836844
 40
0.0111452166628512
 50
0.0
 51
360.0
 73
     1
 97
        1
330
C0
 75
     0
 76
     1
 98
        0
  0
CIRCLE
  5
C2
102
{ACAD_REACTORS
330
C3
102
}
330
1F
100
AcDbEntity
  8
0
  6
Continuous
 62
     7
370
     0
100
AcDbCircle
 10
-1.765562067500975
 20
6.295308119635381
 30
0.0
 40
0.0111452166628503
  0
HATCH
  5
C3
330
1F
100
AcDbEntity
  8
0
  6
Continuous
 62
     7
100
AcDbHatch
 10
0.0
 20
0.0
 30
0.0
210
0.0
220
0.0
230
1.0
  2
SOLID
 70
     1
 71
     1
 91
        1
 92
        0
 93
        1
 72
     2
 10
-1.765562067500975
 20
6.295308119635381
 40
0.0111452166628503
 50
0.0
 51
360.0
 73
     1
 97
        1
330
C2
 75
     0
 76
     1
 98
        0
  0
CIRCLE
  5
C4
102
{ACAD_REACTORS
330
C5
102
}
330
1F
100
AcDbEntity
  8
0
  6
Continuous
 62
     7
370
     0
100
AcDbCircle
 10
-1.631714702510142
 20
6.429154741611773
 30
0.0
 40
0.0111452166628494
  0
HATCH
  5
C5
330
1F
100
AcDbEntity
  8
0
  6
Continuous
 62
     7
100
AcDbHatch
 10
0.0
 20
0.0
 30
0.0
210
0.0
220
0.0
230
1.0
  2
SOLID
 70
     1
 71
     1
 91
        1
 92
        0
 93
        1
 72
     2
 10
-1.631714702510142
 20
6.429154741611773
 40
0.0111452166628494
 50
0.0
 51
360.0
 73
     1
 97
        1
330
C4
 75
     0
 76
     1
 98
        0
  0
LINE
  5
C8
102
{ACAD_XDICTIONARY
360
C6
102
}
330
1F
100
AcDbEntity
  8
0
  6
Continuous
 62
     7
100
AcDbLine
 10
-1.208301234358465
 20
6.852568952777894
 30
0.0
 11
-1.208301234358465
 21
7.409829785920403
 31
0.0
  0
LINE
  5
CB
102
{ACAD_XDICTIONARY
360
C9
102
}
330
1F
100
AcDbEntity
  8
0
  6
Continuous
 62
     7
100
AcDbLine
 10
1.204558670603075
 20
6.852568952777894
 30
0.0
 11
1.204558670603075
 21
7.409829785920403
 31
0.0
  0
CIRCLE
  5
CC
102
{ACAD_REACTORS
330
CD
102
}
330
1F
100
AcDbEntity
  8
0
  6
Continuous
 62
     7
370
     0
100
AcDbCircle
 10
0.7811452024513982
 20
6.429154741611773
 30
0.0
 40
0.0111452166628493
  0
HATCH
  5
CD
330
1F
100
AcDbEntity
  8
0
  6
Continuous
 62
     7
100
AcDbHatch
 10
0.0
 20
0.0
 30
0.0
210
0.0
220
0.0
230
1.0
  2
SOLID
 70
     1
 71
     1
 91
        1
 92
        0
 93
        1
 72
     2
 10
0.7811452024513982
 20
6.429154741611773
 40
0.0111452166628493
 50
0.0
 51
360.0
 73
     1
 97
        1
330
CC
 75
     0
 76
     1
 98
        0
  0
CIRCLE
  5
CE
102
{ACAD_REACTORS
330
CF
102
}
330
1F
100
AcDbEntity
  8
0
  6
Continuous
 62
     7
370
     0
100
AcDbCircle
 10
0.647297837460565
 20
6.295308119635381
 30
0.0
 40
0.0111452166628502
  0
HATCH
  5
CF
330
1F
100
AcDbEntity
  8
0
  6
Continuous
 62
     7
100
AcDbHatch
 10
0.0
 20
0.0
 30
0.0
210
0.0
220
0.0
230
1.0
  2
SOLID
 70
     1
 71
     1
 91
        1
 92
        0
 93
        1
 72
     2
 10
0.647297837460565
 20
6.295308119635381
 40
0.0111452166628502
 50
0.0
 51
360.0
 73
     1
 97
        1
330
CE
 75
     0
 76
     1
 98
        0
  0
CIRCLE
  5
D0
102
{ACAD_REACTORS
330
D1
102
}
330
1F
100
AcDbEntity
  8
0
  6
Continuous
 62
     7
370
     0
100
AcDbCircle
 10
1.064849664662027
 20
6.712859946836844
 30
0.0
 40
0.0111452166628512
  0
HATCH
  5
D1
330
1F
100
AcDbEntity
  8
0
  6
Continuous
 62
     7
100
AcDbHatch
 10
0.0
 20
0.0
 30
0.0
210
0.0
220
0.0
230
1.0
  2
SOLID
 70
     1
 71
     1
 91
        1
 92
        0
 93
        1
 72
     2
 10
1.064849664662027
 20
6.712859946836844
 40
0.0111452166628512
 50
0.0
 51
360.0
 73
     1
 97
        1
330
D0
 75
     0
 76
     1
 98
        0
  0
CIRCLE
  5
D2
102
{ACAD_REACTORS
330
D3
102
}
330
1F
100
AcDbEntity
  8
0
  6
Continuous
 62
     7
370
     0
100
AcDbCircle
 10
0.9259282540318201
 20
6.573938536206638
 30
0.0
 40
0.0111452166628502
  0
HATCH
  5
D3
330
1F
100
AcDbEntity
  8
0
  6
Continuous
 62
     7
100
AcDbHatch
 10
0.0
 20
0.0
 30
0.0
210
0.0
220
0.0
230
1.0
  2
SOLID
 70
     1
 71
     1
 91
        1
 92
        0
 93
        1
 72
     2
 10
0.9259282540318201
 20
6.573938536206638
 40
0.0111452166628502
 50
0.0
 51
360.0
 73
     1
 97
        1
330
D2
 75
     0
 76
     1
 98
        0
  0
CIRCLE
  5
D4
102
{ACAD_REACTORS
330
D5
102
}
330
1F
100
AcDbEntity
  8
0
  6
Continuous
 62
     7
370
     0
100
AcDbCircle
 10
0.9865834951688276
 20
6.4166186019094
 30
0.0
 40
0.0111452166628502
  0
HATCH
  5
D5
330
1F
100
AcDbEntity
  8
0
  6
Continuous
 62
     7
100
AcDbHatch
 10
0.0
 20
0.0
 30
0.0
210
0.0
220
0.0
230
1.0
  2
SOLID
 70
     1
 71
     1
 91
        1
 92
        0
 93
        1
 72
     2
 10
0.9865834951688276
 20
6.4166186019094
 40
0.0111452166628502
 50
0.0
 51
360.0
 73
     1
 97
        1
330
D4
 75
     0
 76
     1
 98
        0
  0
CIRCLE
  5
D6
102
{ACAD_REACTORS
330
D7
102
}
330
1F
100
AcDbEntity
  8
0
  6
Continuous
 62
     7
370
     0
100
AcDbCircle
 10
1.065243462317447
 20
6.573938536206638
 30
0.0
 40
0.0111452166628503
  0
HATCH
  5
D7
330
1F
100
AcDbEntity
  8
0
  6
Continuous
 62
     7
100
AcDbHatch
 10
0.0
 20
0.0
 30
0.0
210
0.0
220
0.0
230
1.0
  2
SOLID
 70
     1
 71
     1
 91
        1
 92
        0
 93
        1
 72
     2
 10
1.065243462317447
 20
6.573938536206638
 40
0.0111452166628503
 50
0.0
 51
360.0
 73
     1
 97
        1
330
D6
 75
     0
 76
     1
 98
        0
  0
CIRCLE
  5
D8
102
{ACAD_REACTORS
330
D9
102
}
330
1F
100
AcDbEntity
  8
0
  6
Continuous
 62
     7
370
     0
100
AcDbCircle
 10
1.124862941319254
 20
6.693177494210252
 30
0.0
 40
0.0111452166628501
  0
HATCH
  5
D9
330
1F
100
AcDbEntity
  8
0
  6
Continuous
 62
     7
100
AcDbHatch
 10
0.0
 20
0.0
 30
0.0
210
0.0
220
0.0
230
1.0
  2
SOLID
 70
     1
 71
     1
 91
        1
 92
        0
 93
        1
 72
     2
 10
1.124862941319254
 20
6.693177494210252
 40
0.0111452166628501
 50
0.0
 51
360.0
 73
     1
 97
        1
330
D8
 75
     0
 76
     1
 98
        0
  0
CIRCLE
  5
DA
102
{ACAD_REACTORS
330
DB
102
}
330
1F
100
AcDbEntity
  8
0
  6
Continuous
 62
     7
370
     0
100
AcDbCircle
 10
1.284254399886896
 20
6.693177494210252
 30
0.0
 40
0.0111452166628502
  0
HATCH
  5
DB
330
1F
100
AcDbEntity
  8
0
  6
Continuous
 62
     7
100
AcDbHatch
 10
0.0
 20
0.0
 30
0.0
210
0.0
220
0.0
230
1.0
  2
SOLID
 70
     1
 71
     1
 91
        1
 92
        0
 93
        1
 72
     2
 10
1.284254399886896
 20
6.693177494210252
 40
0.0111452166628502
 50
0.0
 51
360.0
 73
     1
 97
        1
330
DA
 75
     0
 76
     1
 98
        0
  0
CIRCLE
  5
DC
102
{ACAD_REACTORS
330
DD
102
}
330
1F
100
AcDbEntity
  8
0
  6
Continuous
 62
     7
370
     0
100
AcDbCircle
 10
1.204558670603075
 20
6.675863028617291
 30
0.0
 40
0.0111452166628503
  0
HATCH
  5
DD
330
1F
100
AcDbEntity
  8
0
  6
Continuous
 62
     7
100
AcDbHatch
 10
0.0
 20
0.0
 30
0.0
210
0.0
220
0.0
230
1.0
  2
SOLID
 70
     1
 71
     1
 91
        1
 92
        0
 93
        1
 72
     2
 10
1.204558670603075
 20
6.675863028617291
 40
0.0111452166628503
 50
0.0
 51
360.0
 73
     1
 97
        1
330
DC
 75
     0
 76
     1
 98
        0
  0
CIRCLE
  5
DE
102
{ACAD_REACTORS
330
DF
102
}
330
1F
100
AcDbEntity
  8
0
  6
Continuous
 62
     7
370
     0
100
AcDbCircle
 10
1.204558670603075
 20
6.852568952777894
 30
0.0
 40
0.0111452166628503
  0
HATCH
  5
DF
330
1F
100
AcDbEntity
  8
0
  6
Continuous
 62
     7
100
AcDbHatch
 10
0.0
 20
0.0
 30
0.0
210
0.0
220
0.0
230
1.0
  2
SOLID
 70
     1
 71
     1
 91
        1
 92
        0
 93
        1
 72
     2
 10
1.204558670603075
 20
6.852568952777894
 40
0.0111452166628503
 50
0.0
 51
360.0
 73
     1
 97
        1
330
DE
 75
     0
 76
     1
 98
        0
  0
CIRCLE
  5
E0
102
{ACAD_REACTORS
330
E1
102
}
330
1F
100
AcDbEntity
  8
0
  6
Continuous
 62
     7
370
     0
100
AcDbCircle
 10
1.204558670603075
 20
6.573938536206638
 30
0.0
 40
0.0111452166628503
  0
HATCH
  5
E1
330
1F
100
AcDbEntity
  8
0
  6
Continuous
 62
     7
100
AcDbHatch
 10
0.0
 20
0.0
 30
0.0
210
0.0
220
0.0
230
1.0
  2
SOLID
 70
     1
 71
     1
 91
        1
 92
        0
 93
        1
 72
     2
 10
1.204558670603075
 20
6.573938536206638
 40
0.0111452166628503
 50
0.0
 51
360.0
 73
     1
 97
        1
330
E0
 75
     0
 76
     1
 98
        0
  0
CIRCLE
  5
E2
102
{ACAD_REACTORS
330
E3
102
}
330
1F
100
AcDbEntity
  8
0
  6
Continuous
 62
     7
370
     0
100
AcDbCircle
 10
0.9259282540318201
 20
6.295308119635381
 30
0.0
 40
0.0111452166628502
  0
HATCH
  5
E3
330
1F
100
AcDbEntity
  8
0
  6
Continuous
 62
     7
100
AcDbHatch
 10
0.0
 20
0.0
 30
0.0
210
0.0
220
0.0
230
1.0
  2
SOLID
 70
     1
 71
     1
 91
        1
 92
        0
 93
        1
 72
     2
 10
0.9259282540318201
 20
6.295308119635381
 40
0.0111452166628502
 50
0.0
 51
360.0
 73
     1
 97
        1
330
E2
 75
     0
 76
     1
 98
        0
  0
CIRCLE
  5
E4
102
{ACAD_REACTORS
330
E5
102
}
330
1F
100
AcDbEntity
  8
0
  6
Continuous
 62
     7
370
     0
100
AcDbCircle
 10
1.204558670603075
 20
6.295308119635381
 30
0.0
 40
0.0111452166628503
  0
HATCH
  5
E5
330
1F
100
AcDbEntity
  8
0
  6
Continuous
 62
     7
100
AcDbHatch
 10
0.0
 20
0.0
 30
0.0
210
0.0
220
0.0
230
1.0
  2
SOLID
 70
     1
 71
     1
 91
        1
 92
        0
 93
        1
 72
     2
 10
1.204558670603075
 20
6.295308119635381
 40
0.0111452166628503
 50
0.0
 51
360.0
 73
     1
 97
        1
330
E4
 75
     0
 76
     1
 98
        0
  0
CIRCLE
  5
E6
102
{ACAD_REACTORS
330
E7
102
}
330
1F
100
AcDbEntity
  8
0
  6
Continuous
 62
     7
370
     0
100
AcDbCircle
 10
1.204558670603075
 20
6.409973080720563
 30
0.0
 40
0.0111452166628503
  0
HATCH
  5
E7
330
1F
100
AcDbEntity
  8
0
  6
Continuous
 62
     7
100
AcDbHatch
 10
0.0
 20
0.0
 30
0.0
210
0.0
220
0.0
230
1.0
  2
SOLID
 70
     1
 71
     1
 91
        1
 92
        0
 93
        1
 72
     2
 10
1.204558670603075
 20
6.409973080720563
 40
0.0111452166628503
 50
0.0
 51
360.0
 73
     1
 97
        1
330
E6
 75
     0
 76
     1
 98
        0
  0
CIRCLE
  5
E8
102
{ACAD_REACTORS
330
E9
102
}
330
1F
100
AcDbEntity
  8
0
  6
Continuous
 62
     7
370
     0
100
AcDbCircle
 10
1.422533846037322
 20
6.4166186019094
 30
0.0
 40
0.0111452166628503
  0
HATCH
  5
E9
330
1F
100
AcDbEntity
  8
0
  6
Continuous
 62
     7
100
AcDbHatch
 10
0.0
 20
0.0
 30
0.0
210
0.0
220
0.0
230
1.0
  2
SOLID
 70
     1
 71
     1
 91
        1
 92
        0
 93
        1
 72
     2
 10
1.422533846037322
 20
6.4166186019094
 40
0.0111452166628503
 50
0.0
 51
360.0
 73
     1
 97
        1
330
E8
 75
     0
 76
     1
 98
        0
  0
CIRCLE
  5
EA
102
{ACAD_REACTORS
330
EB
102
}
330
1F
100
AcDbEntity
  8
0
  6
Continuous
 62
     7
370
     0
100
AcDbCircle
 10
1.48318908717433
 20
6.573938536206638
 30
0.0
 40
0.0111452166628503
  0
HATCH
  5
EB
330
1F
100
AcDbEntity
  8
0
  6
Continuous
 62
     7
100
AcDbHatch
 10
0.0
 20
0.0
 30
0.0
210
0.0
220
0.0
230
1.0
  2
SOLID
 70
     1
 71
     1
 91
        1
 92
        0
 93
        1
 72
     2
 10
1.48318908717433
 20
6.573938536206638
 40
0.0111452166628503
 50
0.0
 51
360.0
 73
     1
 97
        1
330
EA
 75
     0
 76
     1
 98
        0
  0
CIRCLE
  5
EC
102
{ACAD_REACTORS
330
ED
102
}
330
1F
100
AcDbEntity
  8
0
  6
Continuous
 62
     7
370
     0
100
AcDbCircle
 10
1.627972881769196
 20
6.429154741611773
 30
0.0
 40
0.0111452166628494
  0
HATCH
  5
ED
330
1F
100
AcDbEntity
  8
0
  6
Continuous
 62
     7
100
AcDbHatch
 10
0.0
 20
0.0
 30
0.0
210
0.0
220
0.0
230
1.0
  2
SOLID
 70
     1
 71
     1
 91
        1
 92
        0
 93
        1
 72
     2
 10
1.627972881769196
 20
6.429154741611773
 40
0.0111452166628494
 50
0.0
 51
360.0
 73
     1
 97
        1
330
EC
 75
     0
 76
     1
 98
        0
  0
CIRCLE
  5
EE
102
{ACAD_REACTORS
330
EF
102
}
330
1F
100
AcDbEntity
  8
0
  6
Continuous
 62
     7
370
     0
100
AcDbCircle
 10
1.48318908717433
 20
6.295308119635381
 30
0.0
 40
0.0111452166628503
  0
HATCH
  5
EF
330
1F
100
AcDbEntity
  8
0
  6
Continuous
 62
     7
100
AcDbHatch
 10
0.0
 20
0.0
 30
0.0
210
0.0
220
0.0
230
1.0
  2
SOLID
 70
     1
 71
     1
 91
        1
 92
        0
 93
        1
 72
     2
 10
1.48318908717433
 20
6.295308119635381
 40
0.0111452166628503
 50
0.0
 51
360.0
 73
     1
 97
        1
330
EE
 75
     0
 76
     1
 98
        0
  0
CIRCLE
  5
F0
102
{ACAD_REACTORS
330
F1
102
}
330
1F
100
AcDbEntity
  8
0
  6
Continuous
 62
     7
370
     0
100
AcDbCircle
 10
1.761819503745585
 20
6.295308119635381
 30
0.0
 40
0.0111452166628503
  0
HATCH
  5
F1
330
1F
100
AcDbEntity
  8
0
  6
Continuous
 62
     7
100
AcDbHatch
 10
0.0
 20
0.0
 30
0.0
210
0.0
220
0.0
230
1.0
  2
SOLID
 70
     1
 71
     1
 91
        1
 92
        0
 93
        1
 72
     2
 10
1.761819503745585
 20
6.295308119635381
 40
0.0111452166628503
 50
0.0
 51
360.0
 73
     1
 97
        1
330
F0
 75
     0
 76
     1
 98
        0
  0
CIRCLE
  5
F2
102
{ACAD_REACTORS
330
F3
102
}
330
1F
100
AcDbEntity
  8
0
  6
Continuous
 62
     7
370
     0
100
AcDbCircle
 10
1.344267676544123
 20
6.712859946836844
 30
0.0
 40
0.0111452166628511
  0
HATCH
  5
F3
330
1F
100
AcDbEntity
  8
0
  6
Continuous
 62
     7
100
AcDbHatch
 10
0.0
 20
0.0
 30
0.0
210
0.0
220
0.0
230
1.0
  2
SOLID
 70
     1
 71
     1
 91
        1
 92
        0
 93
        1
 72
     2
 10
1.344267676544123
 20
6.712859946836844
 40
0.0111452166628511
 50
0.0
 51
360.0
 73
     1
 97
        1
330
F2
 75
     0
 76
     1
 98
        0
  0
CIRCLE
  5
F4
102
{ACAD_REACTORS
330
F5
102
}
330
1F
100
AcDbEntity
  8
0
  6
Continuous
 62
     7
370
     0
100
AcDbCircle
 10
1.343873878888703
 20
6.573938536206638
 30
0.0
 40
0.0111452166628503
  0
HATCH
  5
F5
330
1F
100
AcDbEntity
  8
0
  6
Continuous
 62
     7
100
AcDbHatch
 10
0.0
 20
0.0
 30
0.0
210
0.0
220
0.0
230
1.0
  2
SOLID
 70
     1
 71
     1
 91
        1
 92
        0
 93
        1
 72
     2
 10
1.343873878888703
 20
6.573938536206638
 40
0.0111452166628503
 50
0.0
 51
360.0
 73
     1
 97
        1
330
F4
 75
     0
 76
     1
 98
        0
  0
LINE
  5
F8
102
{ACAD_XDICTIONARY
360
F6
102
}
330
1F
100
AcDbEntity
  8
0
  6
Continuous
 62
     7
100
AcDbLine
 10
3.729935481891641
 20
6.852568952777894
 30
0.0
 11
3.729935481891641
 21
7.409829785920403
 31
0.0
  0
CIRCLE
  5
F9
102
{ACAD_REACTORS
330
FA
102
}
330
1F
100
AcDbEntity
  8
0
  6
Continuous
 62
     7
370
     0
100
AcDbCircle
 10
3.30652127072552
 20
6.429154741611773
 30
0.0
 40
0.0111452166628492
  0
HATCH
  5
FA
330
1F
100
AcDbEntity
  8
0
  6
Continuous
 62
     7
100
AcDbHatch
 10
0.0
 20
0.0
 30
0.0
210
0.0
220
0.0
230
1.0
  2
SOLID
 70
     1
 71
     1
 91
        1
 92
        0
 93
        1
 72
     2
 10
3.30652127072552
 20
6.429154741611773
 40
0.0111452166628492
 50
0.0
 51
360.0
 73
     1
 97
        1
330
F9
 75
     0
 76
     1
 98
        0
  0
CIRCLE
  5
FB
102
{ACAD_REACTORS
330
FC
102
}
330
1F
100
AcDbEntity
  8
0
  6
Continuous
 62
     7
370
     0
100
AcDbCircle
 10
3.172674648749131
 20
6.295308119635381
 30
0.0
 40
0.0111452166628503
  0
HATCH
  5
FC
330
1F
100
AcDbEntity
  8
0
  6
Continuous
 62
     7
100
AcDbHatch
 10
0.0
 20
0.0
 30
0.0
210
0.0
220
0.0
230
1.0
  2
SOLID
 70
     1
 71
     1
 91
        1
 92
        0
 93
        1
 72
     2
 10
3.172674648749131
 20
6.295308119635381
 40
0.0111452166628503
 50
0.0
 51
360.0
 73
     1
 97
        1
330
FB
 75
     0
 76
     1
 98
        0
  0
CIRCLE
  5
FD
102
{ACAD_REACTORS
330
FE
102
}
330
1F
100
AcDbEntity
  8
0
  6
Continuous
 62
     7
370
     0
100
AcDbCircle
 10
3.590226475950593
 20
6.712859946836844
 30
0.0
 40
0.011145216662851
  0
HATCH
  5
FE
330
1F
100
AcDbEntity
  8
0
  6
Continuous
 62
     7
100
AcDbHatch
 10
0.0
 20
0.0
 30
0.0
210
0.0
220
0.0
230
1.0
  2
SOLID
 70
     1
 71
     1
 91
        1
 92
        0
 93
        1
 72
     2
 10
3.590226475950593
 20
6.712859946836844
 40
0.011145216662851
 50
0.0
 51
360.0
 73
     1
 97
        1
330
FD
 75
     0
 76
     1
 98
        0
  0
CIRCLE
  5
FF
102
{ACAD_REACTORS
330
100
102
}
330
1F
100
AcDbEntity
  8
0
  6
Continuous
 62
     7
370
     0
100
AcDbCircle
 10
3.451305065320386
 20
6.573938536206638
 30
0.0
 40
0.0111452166628503
  0
HATCH
  5
100
330
1F
100
AcDbEntity
  8
0
  6
Continuous
 62
     7
100
AcDbHatch
 10
0.0
 20
0.0
 30
0.0
210
0.0
220
0.0
230
1.0
  2
SOLID
 70
     1
 71
     1
 91
        1
 92
        0
 93
        1
 72
     2
 10
3.451305065320386
 20
6.573938536206638
 40
0.0111452166628503
 50
0.0
 51
360.0
 73
     1
 97
        1
330
FF
 75
     0
 76
     1
 98
        0
  0
CIRCLE
  5
101
102
{ACAD_REACTORS
330
102
102
}
330
1F
100
AcDbEntity
  8
0
  6
Continuous
 62
     7
370
     0
100
AcDbCircle
 10
3.511960306457394
 20
6.4166186019094
 30
0.0
 40
0.0111452166628501
  0
HATCH
  5
102
330
1F
100
AcDbEntity
  8
0
  6
Continuous
 62
     7
100
AcDbHatch
 10
0.0
 20
0.0
 30
0.0
210
0.0
220
0.0
230
1.0
  2
SOLID
 70
     1
 71
     1
 91
        1
 92
        0
 93
        1
 72
     2
 10
3.511960306457394
 20
6.4166186019094
 40
0.0111452166628501
 50
0.0
 51
360.0
 73
     1
 97
        1
330
101
 75
     0
 76
     1
 98
        0
  0
CIRCLE
  5
103
102
{ACAD_REACTORS
330
104
102
}
330
1F
100
AcDbEntity
  8
0
  6
Continuous
 62
     7
370
     0
100
AcDbCircle
 10
3.590620273606014
 20
6.573938536206638
 30
0.0
 40
0.0111452166628501
  0
HATCH
  5
104
330
1F
100
AcDbEntity
  8
0
  6
Continuous
 62
     7
100
AcDbHatch
 10
0.0
 20
0.0
 30
0.0
210
0.0
220
0.0
230
1.0
  2
SOLID
 70
     1
 71
     1
 91
        1
 92
        0
 93
        1
 72
     2
 10
3.590620273606014
 20
6.573938536206638
 40
0.0111452166628501
 50
0.0
 51
360.0
 73
     1
 97
        1
330
103
 75
     0
 76
     1
 98
        0
  0
CIRCLE
  5
105
102
{ACAD_REACTORS
330
106
102
}
330
1F
100
AcDbEntity
  8
0
  6
Continuous
 62
     7
370
     0
100
AcDbCircle
 10
3.650239752607821
 20
6.693177494210252
 30
0.0
 40
0.0111452166628498
  0
HATCH
  5
106
330
1F
100
AcDbEntity
  8
0
  6
Continuous
 62
     7
100
AcDbHatch
 10
0.0
 20
0.0
 30
0.0
210
0.0
220
0.0
230
1.0
  2
SOLID
 70
     1
 71
     1
 91
        1
 92
        0
 93
        1
 72
     2
 10
3.650239752607821
 20
6.693177494210252
 40
0.0111452166628498
 50
0.0
 51
360.0
 73
     1
 97
        1
330
105
 75
     0
 76
     1
 98
        0
  0
CIRCLE
  5
107
102
{ACAD_REACTORS
330
108
102
}
330
1F
100
AcDbEntity
  8
0
  6
Continuous
 62
     7
370
     0
100
AcDbCircle
 10
3.809631211175462
 20
6.693177494210252
 30
0.0
 40
0.0111452166628501
  0
HATCH
  5
108
330
1F
100
AcDbEntity
  8
0
  6
Continuous
 62
     7
100
AcDbHatch
 10
0.0
 20
0.0
 30
0.0
210
0.0
220
0.0
230
1.0
  2
SOLID
 70
     1
 71
     1
 91
        1
 92
        0
 93
        1
 72
     2
 10
3.809631211175462
 20
6.693177494210252
 40
0.0111452166628501
 50
0.0
 51
360.0
 73
     1
 97
        1
330
107
 75
     0
 76
     1
 98
        0
  0
CIRCLE
  5
109
102
{ACAD_REACTORS
330
10A
102
}
330
1F
100
AcDbEntity
  8
0
  6
Continuous
 62
     7
370
     0
100
AcDbCircle
 10
3.729935481891641
 20
6.675863028617291
 30
0.0
 40
0.0111452166628501
  0
HATCH
  5
10A
330
1F
100
AcDbEntity
  8
0
  6
Continuous
 62
     7
100
AcDbHatch
 10
0.0
 20
0.0
 30
0.0
210
0.0
220
0.0
230
1.0
  2
SOLID
 70
     1
 71
     1
 91
        1
 92
        0
 93
        1
 72
     2
 10
3.729935481891641
 20
6.675863028617291
 40
0.0111452166628501
 50
0.0
 51
360.0
 73
     1
 97
        1
330
109
 75
     0
 76
     1
 98
        0
  0
CIRCLE
  5
10B
102
{ACAD_REACTORS
330
10C
102
}
330
1F
100
AcDbEntity
  8
0
  6
Continuous
 62
     7
370
     0
100
AcDbCircle
 10
3.729935481891641
 20
6.852568952777894
 30
0.0
 40
0.0111452166628501
  0
HATCH
  5
10C
330
1F
100
AcDbEntity
  8
0
  6
Continuous
 62
     7
100
AcDbHatch
 10
0.0
 20
0.0
 30
0.0
210
0.0
220
0.0
230
1.0
  2
SOLID
 70
     1
 71
     1
 91
        1
 92
        0
 93
        1
 72
     2
 10
3.729935481891641
 20
6.852568952777894
 40
0.0111452166628501
 50
0.0
 51
360.0
 73
     1
 97
        1
330
10B
 75
     0
 76
     1
 98
        0
  0
CIRCLE
  5
10D
102
{ACAD_REACTORS
330
10E
102
}
330
1F
100
AcDbEntity
  8
0
  6
Continuous
 62
     7
370
     0
100
AcDbCircle
 10
3.729935481891641
 20
6.573938536206638
 30
0.0
 40
0.0111452166628501
  0
HATCH
  5
10E
330
1F
100
AcDbEntity
  8
0
  6
Continuous
 62
     7
100
AcDbHatch
 10
0.0
 20
0.0
 30
0.0
210
0.0
220
0.0
230
1.0
  2
SOLID
 70
     1
 71
     1
 91
        1
 92
        0
 93
        1
 72
     2
 10
3.729935481891641
 20
6.573938536206638
 40
0.0111452166628501
 50
0.0
 51
360.0
 73
     1
 97
        1
330
10D
 75
     0
 76
     1
 98
        0
  0
CIRCLE
  5
10F
102
{ACAD_REACTORS
330
110
102
}
330
1F
100
AcDbEntity
  8
0
  6
Continuous
 62
     7
370
     0
100
AcDbCircle
 10
3.451305065320386
 20
6.295308119635381
 30
0.0
 40
0.0111452166628503
  0
HATCH
  5
110
330
1F
100
AcDbEntity
  8
0
  6
Continuous
 62
     7
100
AcDbHatch
 10
0.0
 20
0.0
 30
0.0
210
0.0
220
0.0
230
1.0
  2
SOLID
 70
     1
 71
     1
 91
        1
 92
        0
 93
        1
 72
     2
 10
3.451305065320386
 20
6.295308119635381
 40
0.0111452166628503
 50
0.0
 51
360.0
 73
     1
 97
        1
330
10F
 75
     0
 76
     1
 98
        0
  0
CIRCLE
  5
111
102
{ACAD_REACTORS
330
112
102
}
330
1F
100
AcDbEntity
  8
0
  6
Continuous
 62
     7
370
     0
100
AcDbCircle
 10
3.729935481891641
 20
6.295308119635381
 30
0.0
 40
0.0111452166628501
  0
HATCH
  5
112
330
1F
100
AcDbEntity
  8
0
  6
Continuous
 62
     7
100
AcDbHatch
 10
0.0
 20
0.0
 30
0.0
210
0.0
220
0.0
230
1.0
  2
SOLID
 70
     1
 71
     1
 91
        1
 92
        0
 93
        1
 72
     2
 10
3.729935481891641
 20
6.295308119635381
 40
0.0111452166628501
 50
0.0
 51
360.0
 73
     1
 97
        1
330
111
 75
     0
 76
     1
 98
        0
  0
CIRCLE
  5
113
102
{ACAD_REACTORS
330
114
102
}
330
1F
100
AcDbEntity
  8
0
  6
Continuous
 62
     7
370
     0
100
AcDbCircle
 10
3.729935481891641
 20
6.409973080720563
 30
0.0
 40
0.0111452166628501
  0
HATCH
  5
114
330
1F
100
AcDbEntity
  8
0
  6
Continuous
 62
     7
100
AcDbHatch
 10
0.0
 20
0.0
 30
0.0
210
0.0
220
0.0
230
1.0
  2
SOLID
 70
     1
 71
     1
 91
        1
 92
        0
 93
        1
 72
     2
 10
3.729935481891641
 20
6.409973080720563
 40
0.0111452166628501
 50
0.0
 51
360.0
 73
     1
 97
        1
330
113
 75
     0
 76
     1
 98
        0
  0
CIRCLE
  5
115
102
{ACAD_REACTORS
330
116
102
}
330
1F
100
AcDbEntity
  8
0
  6
Continuous
 62
     7
370
     0
100
AcDbCircle
 10
3.947910657325889
 20
6.4166186019094
 30
0.0
 40
0.0111452166628501
  0
HATCH
  5
116
330
1F
100
AcDbEntity
  8
0
  6
Continuous
 62
     7
100
AcDbHatch
 10
0.0
 20
0.0
 30
0.0
210
0.0
220
0.0
230
1.0
  2
SOLID
 70
     1
 71
     1
 91
        1
 92
        0
 93
        1
 72
     2
 10
3.947910657325889
 20
6.4166186019094
 40
0.0111452166628501
 50
0.0
 51
360.0
 73
     1
 97
        1
330
115
 75
     0
 76
     1
 98
        0
  0
CIRCLE
  5
117
102
{ACAD_REACTORS
330
118
102
}
330
1F
100
AcDbEntity
  8
0
  6
Continuous
 62
     7
370
     0
100
AcDbCircle
 10
4.008565898462897
 20
6.573938536206638
 30
0.0
 40
0.0111452166628498
  0
HATCH
  5
118
330
1F
100
AcDbEntity
  8
0
  6
Continuous
 62
     7
100
AcDbHatch
 10
0.0
 20
0.0
 30
0.0
210
0.0
220
0.0
230
1.0
  2
SOLID
 70
     1
 71
     1
 91
        1
 92
        0
 93
        1
 72
     2
 10
4.008565898462897
 20
6.573938536206638
 40
0.0111452166628498
 50
0.0
 51
360.0
 73
     1
 97
        1
330
117
 75
     0
 76
     1
 98
        0
  0
CIRCLE
  5
119
102
{ACAD_REACTORS
330
11A
102
}
330
1F
100
AcDbEntity
  8
0
  6
Continuous
 62
     7
370
     0
100
AcDbCircle
 10
4.153349693057763
 20
6.429154741611773
 30
0.0
 40
0.0111452166628494
  0
HATCH
  5
11A
330
1F
100
AcDbEntity
  8
0
  6
Continuous
 62
     7
100
AcDbHatch
 10
0.0
 20
0.0
 30
0.0
210
0.0
220
0.0
230
1.0
  2
SOLID
 70
     1
 71
     1
 91
        1
 92
        0
 93
        1
 72
     2
 10
4.153349693057763
 20
6.429154741611773
 40
0.0111452166628494
 50
0.0
 51
360.0
 73
     1
 97
        1
330
119
 75
     0
 76
     1
 98
        0
  0
CIRCLE
  5
11B
102
{ACAD_REACTORS
330
11C
102
}
330
1F
100
AcDbEntity
  8
0
  6
Continuous
 62
     7
370
     0
100
AcDbCircle
 10
4.008565898462897
 20
6.295308119635381
 30
0.0
 40
0.0111452166628498
  0
HATCH
  5
11C
330
1F
100
AcDbEntity
  8
0
  6
Continuous
 62
     7
100
AcDbHatch
 10
0.0
 20
0.0
 30
0.0
210
0.0
220
0.0
230
1.0
  2
SOLID
 70
     1
 71
     1
 91
        1
 92
        0
 93
        1
 72
     2
 10
4.008565898462897
 20
6.295308119635381
 40
0.0111452166628498
 50
0.0
 51
360.0
 73
     1
 97
        1
330
11B
 75
     0
 76
     1
 98
        0
  0
CIRCLE
  5
11D
102
{ACAD_REACTORS
330
11E
102
}
330
1F
100
AcDbEntity
  8
0
  6
Continuous
 62
     7
370
     0
100
AcDbCircle
 10
4.287196315034152
 20
6.295308119635381
 30
0.0
 40
0.0111452166628498
  0
HATCH
  5
11E
330
1F
100
AcDbEntity
  8
0
  6
Continuous
 62
     7
100
AcDbHatch
 10
0.0
 20
0.0
 30
0.0
210
0.0
220
0.0
230
1.0
  2
SOLID
 70
     1
 71
     1
 91
        1
 92
        0
 93
        1
 72
     2
 10
4.287196315034152
 20
6.295308119635381
 40
0.0111452166628498
 50
0.0
 51
360.0
 73
     1
 97
        1
330
11D
 75
     0
 76
     1
 98
        0
  0
CIRCLE
  5
11F
102
{ACAD_REACTORS
330
120
102
}
330
1F
100
AcDbEntity
  8
0
  6
Continuous
 62
     7
370
     0
100
AcDbCircle
 10
3.869644487832689
 20
6.712859946836844
 30
0.0
 40
0.0111452166628507
  0
HATCH
  5
120
330
1F
100
AcDbEntity
  8
0
  6
Continuous
 62
     7
100
AcDbHatch
 10
0.0
 20
0.0
 30
0.0
210
0.0
220
0.0
230
1.0
  2
SOLID
 70
     1
 71
     1
 91
        1
 92
        0
 93
        1
 72
     2
 10
3.869644487832689
 20
6.712859946836844
 40
0.0111452166628507
 50
0.0
 51
360.0
 73
     1
 97
        1
330
11F
 75
     0
 76
     1
 98
        0
  0
CIRCLE
  5
121
102
{ACAD_REACTORS
330
122
102
}
330
1F
100
AcDbEntity
  8
0
  6
Continuous
 62
     7
370
     0
100
AcDbCircle
 10
3.869250690177269
 20
6.573938536206638
 30
0.0
 40
0.0111452166628498
  0
HATCH
  5
122
330
1F
100
AcDbEntity
  8
0
  6
Continuous
 62
     7
100
AcDbHatch
 10
0.0
 20
0.0
 30
0.0
210
0.0
220
0.0
230
1.0
  2
SOLID
 70
     1
 71
     1
 91
        1
 92
        0
 93
        1
 72
     2
 10
3.869250690177269
 20
6.573938536206638
 40
0.0111452166628498
 50
0.0
 51
360.0
 73
     1
 97
        1
330
121
 75
     0
 76
     1
 98
        0
  0
LINE
  5
125
102
{ACAD_XDICTIONARY
360
123
102
}
330
1F
100
AcDbEntity
  8
0
  6
Continuous
 62
     7
100
AcDbLine
 10
-5.935588348251363
 20
8.168942381058237
 30
0.0
 11
-5.889406656979954
 21
8.409086506956562
 31
0.0
  0
LINE
  5
128
102
{ACAD_XDICTIONARY
360
126
102
}
330
1F
100
AcDbEntity
  8
0
  6
Continuous
 62
     7
100
AcDbLine
 10
-5.889406656979954
 20
8.409086506956562
 30
0.0
 11
-5.732389501068722
 21
8.630758179250652
 31
0.0
  0
LINE
  5
12B
102
{ACAD_XDICTIONARY
360
129
102
}
330
1F
100
AcDbEntity
  8
0
  6
Continuous
 62
     7
100
AcDbLine
 10
-5.732389501068722
 20
8.630758179250652
 30
0.0
 11
-5.381409539023353
 21
8.917083996420384
 31
0.0
  0
LINE
  5
12E
102
{ACAD_XDICTIONARY
360
12C
102
}
330
1F
100
AcDbEntity
  8
0
  6
Continuous
 62
     7
100
AcDbLine
 10
-5.381409539023353
 20
8.917083996420384
 30
0.0
 11
-4.984247885706576
 21
9.129518884651532
 31
0.0
  0
LINE
  5
131
102
{ACAD_XDICTIONARY
360
12F
102
}
330
1F
100
AcDbEntity
  8
0
  6
Continuous
 62
     7
100
AcDbLine
 10
-4.984247885706576
 20
9.129518884651532
 30
0.0
 11
-4.60555905750125
 21
9.277299999514259
 31
0.0
  0
LINE
  5
134
102
{ACAD_XDICTIONARY
360
132
102
}
330
1F
100
AcDbEntity
  8
0
  6
Continuous
 62
     7
100
AcDbLine
 10
-4.60555905750125
 20
9.277299999514259
 30
0.0
 11
-4.180688909531739
 21
9.41584470182126
 31
0.0
  0
LINE
  5
137
102
{ACAD_XDICTIONARY
360
135
102
}
330
1F
100
AcDbEntity
  8
0
  6
Continuous
 62
     7
100
AcDbLine
 10
-4.180688909531739
 20
9.41584470182126
 30
0.0
 11
-3.728109523895049
 21
9.535916950524033
 31
0.0
  0
LINE
  5
13A
102
{ACAD_XDICTIONARY
360
138
102
}
330
1F
100
AcDbEntity
  8
0
  6
Continuous
 62
     7
100
AcDbLine
 10
-3.728109523895049
 20
9.535916950524033
 30
0.0
 11
-3.17393071466704
 21
9.646752415163855
 31
0.0
  0
LINE
  5
13D
102
{ACAD_XDICTIONARY
360
13B
102
}
330
1F
100
AcDbEntity
  8
0
  6
Continuous
 62
     7
100
AcDbLine
 10
-3.17393071466704
 20
9.646752415163855
 30
0.0
 11
-2.702878503918898
 21
9.739115797706674
 31
0.0
  0
LINE
  5
140
102
{ACAD_XDICTIONARY
360
13E
102
}
330
1F
100
AcDbEntity
  8
0
  6
Continuous
 62
     7
100
AcDbLine
 10
-2.702878503918898
 20
9.739115797706674
 30
0.0
 11
-2.231826664677978
 21
9.803769942582312
 31
0.0
  0
LINE
  5
143
102
{ACAD_XDICTIONARY
360
141
102
}
330
1F
100
AcDbEntity
  8
0
  6
Continuous
 62
     7
100
AcDbLine
 10
-2.231826664677978
 20
9.803769942582312
 30
0.0
 11
-1.760774825437059
 21
9.84995163385372
 31
0.0
  0
LINE
  5
146
102
{ACAD_XDICTIONARY
360
144
102
}
330
1F
100
AcDbEntity
  8
0
  6
Continuous
 62
     7
100
AcDbLine
 10
-1.760774825437059
 20
9.84995163385372
 30
0.0
 11
-1.141941871333411
 21
9.886896912569402
 31
0.0
  0
LINE
  5
149
102
{ACAD_XDICTIONARY
360
147
102
}
330
1F
100
AcDbEntity
  8
0
  6
Continuous
 62
     7
100
AcDbLine
 10
-1.141941871333411
 20
9.886896912569402
 30
0.0
 11
-0.587763062105401
 21
9.923841819777861
 31
0.0
  0
LINE
  5
14C
102
{ACAD_XDICTIONARY
360
14A
102
}
330
1F
100
AcDbEntity
  8
0
  6
Continuous
 62
     7
100
AcDbLine
 10
-0.587763062105401
 20
9.923841819777861
 30
0.0
 11
-0.1628925426286675
 21
9.923841819777861
 31
0.0
  0
LINE
  5
14F
102
{ACAD_XDICTIONARY
360
14D
102
}
330
1F
100
AcDbEntity
  8
0
  6
Continuous
 62
     7
100
AcDbLine
 10
-0.1628925426286675
 20
9.923841819777861
 30
0.0
 11
0.2157962855766578
 21
9.923841819777861
 31
0.0
  0
LINE
  5
152
102
{ACAD_XDICTIONARY
360
150
102
}
330
1F
100
AcDbEntity
  8
0
  6
Continuous
 62
     7
100
AcDbLine
 10
0.2157962855766578
 20
9.923841819777861
 30
0.0
 11
0.576012660177753
 21
9.923841819777861
 31
0.0
  0
LINE
  5
155
102
{ACAD_XDICTIONARY
360
153
102
}
330
1F
100
AcDbEntity
  8
0
  6
Continuous
 62
     7
100
AcDbLine
 10
0.576012660177753
 20
9.923841819777861
 30
0.0
 11
1.324153904032678
 21
9.886896912569402
 31
0.0
  0
LINE
  5
158
102
{ACAD_XDICTIONARY
360
156
102
}
330
1F
100
AcDbEntity
  8
0
  6
Continuous
 62
     7
100
AcDbLine
 10
1.324153904032678
 20
9.886896912569402
 30
0.0
 11
2.183130984034648
 21
9.803769942582312
 31
0.0
  0
LINE
  5
15B
102
{ACAD_XDICTIONARY
360
159
102
}
330
1F
100
AcDbEntity
  8
0
  6
Continuous
 62
     7
100
AcDbLine
 10
2.183130984034648
 20
9.803769942582312
 30
0.0
 11
3.236070870170756
 21
9.646752415163855
 31
0.0
  0
LINE
  5
15E
102
{ACAD_XDICTIONARY
360
15C
102
}
330
1F
100
AcDbEntity
  8
0
  6
Continuous
 62
     7
100
AcDbLine
 10
3.236070870170756
 20
9.646752415163855
 30
0.0
 11
4.048866258901319
 21
9.462026393092668
 31
0.0
  0
LINE
  5
161
102
{ACAD_XDICTIONARY
360
15F
102
}
330
1F
100
AcDbEntity
  8
0
  6
Continuous
 62
     7
100
AcDbLine
 10
4.048866258901319
 20
9.462026393092668
 30
0.0
 11
4.4552639532666
 21
9.332718103341392
 31
0.0
  0
LINE
  5
164
102
{ACAD_XDICTIONARY
360
162
102
}
330
1F
100
AcDbEntity
  8
0
  6
Continuous
 62
     7
100
AcDbLine
 10
4.4552639532666
 20
9.332718103341392
 30
0.0
 11
4.833952781471925
 21
9.194173401034389
 31
0.0
  0
LINE
  5
167
102
{ACAD_XDICTIONARY
360
165
102
}
330
1F
100
AcDbEntity
  8
0
  6
Continuous
 62
     7
100
AcDbLine
 10
4.833952781471925
 20
9.194173401034389
 30
0.0
 11
5.259418455518455
 21
9.010998050108224
 31
0.0
  0
LINE
  5
16A
102
{ACAD_XDICTIONARY
360
168
102
}
330
1F
100
AcDbEntity
  8
0
  6
Continuous
 62
     7
100
AcDbLine
 10
5.25882330094866
 20
9.009447007455979
 30
0.0
 11
5.591330437882577
 21
8.769302881557655
 31
0.0
  0
LINE
  5
16D
102
{ACAD_XDICTIONARY
360
16B
102
}
330
1F
100
AcDbEntity
  8
0
  6
Continuous
 62
     7
100
AcDbLine
 10
5.591330437882577
 20
8.769302881557655
 30
0.0
 11
5.807300588839176
 21
8.53296559016414
 31
0.0
  0
LINE
  5
170
102
{ACAD_XDICTIONARY
360
16E
102
}
330
1F
100
AcDbEntity
  8
0
  6
Continuous
 62
     7
100
AcDbLine
 10
5.809483193768986
 20
8.5286000087973
 30
0.0
 11
5.932201316907519
 21
8.296043174895825
 31
0.0
  0
LINE
  5
173
102
{ACAD_XDICTIONARY
360
171
102
}
330
1F
100
AcDbEntity
  8
0
  6
Continuous
 62
     7
100
AcDbLine
 10
5.932201316907519
 20
8.29817525484343
 30
0.0
 11
5.942633982718391
 21
8.207728849566623
 31
0.0
  0
TEXT
  5
176
102
{ACAD_XDICTIONARY
360
174
102
}
330
1F
100
AcDbEntity
  8
0
  6
Continuous
 62
     7
100
AcDbText
 10
0.0
 20
-14.74045259488996
 30
0.0
 40
1.270019960403442
  1
Tag
 41
1.166666667809669
  7
_TCW_TXTSTY_1
 72
     5
 11
3.810059884943104
 21
-14.74045259488996
 31
0.0
100
AcDbText
  0
VIEWPORT
  5
177
330
1B
100
AcDbEntity
 67
     1
  8
0
100
AcDbViewport
 10
148.5
 20
105.0
 30
0.0
 40
297.0
 41
210.0
 68
     1
 69
     1
 12
148.5
 22
105.0
 13
0.0
 23
0.0
 14
5.0
 24
5.0
 15
5.0
 25
5.0
 16
0.0
 26
0.0
 36
1.0
 17
0.0
 27
0.0
 37
0.0
 42
50.0
 43
0.0
 44
0.0
 45
210.0
 50
0.0
 51
0.0
 72
  1000
 90
    33312
  1

281
     0
 71
     1
 74
     0
110
0.0
120
0.0
130
0.0
111
1.0
121
0.0
131
0.0
112
0.0
122
1.0
132
0.0
 79
     0
146
0.0
170
     0
 61
     5
292
     1
282
     1
141
0.0
142
0.0
 63
   256
  0
ENDSEC
  0
SECTION
  2
OBJECTS
  0
DICTIONARY
  5
C
330
0
100
AcDbDictionary
281
     1
  3
ACAD_GROUP
350
D
  3
ACAD_LAYOUT
350
1A
  3
ACAD_MLINESTYLE
350
17
  3
ACAD_PLOTSETTINGS
350
19
  3
ACAD_PLOTSTYLENAME
350
E
  3
ACAD_TABLESTYLE
350
178
  3
ACAD_VISUALSTYLE
350
2A
  0
DICTIONARY
  5
4B
330
4D
100
AcDbDictionary
280
     1
281
     1
  3
TC_OPTIONAL_DATA
360
4C
  0
DICTIONARY
  5
4E
330
50
100
AcDbDictionary
280
     1
281
     1
  3
TC_OPTIONAL_DATA
360
4F
  0
DICTIONARY
  5
51
330
53
100
AcDbDictionary
280
     1
281
     1
  3
TC_OPTIONAL_DATA
360
52
  0
DICTIONARY
  5
54
330
56
100
AcDbDictionary
280
     1
281
     1
  3
TC_OPTIONAL_DATA
360
55
  0
DICTIONARY
  5
57
330
59
100
AcDbDictionary
280
     1
281
     1
  3
TC_OPTIONAL_DATA
360
58
  0
DICTIONARY
  5
5A
330
5C
100
AcDbDictionary
280
     1
281
     1
  3
TC_OPTIONAL_DATA
360
5B
  0
DICTIONARY
  5
5D
330
5F
100
AcDbDictionary
280
     1
281
     1
  3
TC_OPTIONAL_DATA
360
5E
  0
DICTIONARY
  5
60
330
62
100
AcDbDictionary
280
     1
281
     1
  3
TC_OPTIONAL_DATA
360
61
  0
DICTIONARY
  5
63
330
65
100
AcDbDictionary
280
     1
281
     1
  3
TC_OPTIONAL_DATA
360
64
  0
DICTIONARY
  5
66
330
68
100
AcDbDictionary
280
     1
281
     1
  3
TC_OPTIONAL_DATA
360
67
  0
DICTIONARY
  5
69
330
6B
100
AcDbDictionary
280
     1
281
     1
  3
TC_OPTIONAL_DATA
360
6A
  0
DICTIONARY
  5
6C
330
6E
100
AcDbDictionary
280
     1
281
     1
  3
TC_OPTIONAL_DATA
360
6D
  0
DICTIONARY
  5
6F
330
71
100
AcDbDictionary
280
     1
281
     1
  3
TC_OPTIONAL_DATA
360
70
  0
DICTIONARY
  5
C6
330
C8
100
AcDbDictionary
280
     1
281
     1
  3
TC_OPTIONAL_DATA
360
C7
  0
DICTIONARY
  5
C9
330
CB
100
AcDbDictionary
280
     1
281
     1
  3
TC_OPTIONAL_DATA
360
CA
  0
DICTIONARY
  5
F6
330
F8
100
AcDbDictionary
280
     1
281
     1
  3
TC_OPTIONAL_DATA
360
F7
  0
DICTIONARY
  5
123
330
125
100
AcDbDictionary
280
     1
281
     1
  3
TC_OPTIONAL_DATA
360
124
  0
DICTIONARY
  5
126
330
128
100
AcDbDictionary
280
     1
281
     1
  3
TC_OPTIONAL_DATA
360
127
  0
DICTIONARY
  5
129
330
12B
100
AcDbDictionary
280
     1
281
     1
  3
TC_OPTIONAL_DATA
360
12A
  0
DICTIONARY
  5
12C
330
12E
100
AcDbDictionary
280
     1
281
     1
  3
TC_OPTIONAL_DATA
360
12D
  0
DICTIONARY
  5
12F
330
131
100
AcDbDictionary
280
     1
281
     1
  3
TC_OPTIONAL_DATA
360
130
  0
DICTIONARY
  5
132
330
134
100
AcDbDictionary
280
     1
281
     1
  3
TC_OPTIONAL_DATA
360
133
  0
DICTIONARY
  5
135
330
137
100
AcDbDictionary
280
     1
281
     1
  3
TC_OPTIONAL_DATA
360
136
  0
DICTIONARY
  5
138
330
13A
100
AcDbDictionary
280
     1
281
     1
  3
TC_OPTIONAL_DATA
360
139
  0
DICTIONARY
  5
13B
330
13D
100
AcDbDictionary
280
     1
281
     1
  3
TC_OPTIONAL_DATA
360
13C
  0
DICTIONARY
  5
13E
330
140
100
AcDbDictionary
280
     1
281
     1
  3
TC_OPTIONAL_DATA
360
13F
  0
DICTIONARY
  5
141
330
143
100
AcDbDictionary
280
     1
281
     1
  3
TC_OPTIONAL_DATA
360
142
  0
DICTIONARY
  5
144
330
146
100
AcDbDictionary
280
     1
281
     1
  3
TC_OPTIONAL_DATA
360
145
  0
DICTIONARY
  5
147
330
149
100
AcDbDictionary
280
     1
281
     1
  3
TC_OPTIONAL_DATA
360
148
  0
DICTIONARY
  5
14A
330
14C
100
AcDbDictionary
280
     1
281
     1
  3
TC_OPTIONAL_DATA
360
14B
  0
DICTIONARY
  5
14D
330
14F
100
AcDbDictionary
280
     1
281
     1
  3
TC_OPTIONAL_DATA
360
14E
  0
DICTIONARY
  5
150
330
152
100
AcDbDictionary
280
     1
281
     1
  3
TC_OPTIONAL_DATA
360
151
  0
DICTIONARY
  5
153
330
155
100
AcDbDictionary
280
     1
281
     1
  3
TC_OPTIONAL_DATA
360
154
  0
DICTIONARY
  5
156
330
158
100
AcDbDictionary
280
     1
281
     1
  3
TC_OPTIONAL_DATA
360
157
  0
DICTIONARY
  5
159
330
15B
100
AcDbDictionary
280
     1
281
     1
  3
TC_OPTIONAL_DATA
360
15A
  0
DICTIONARY
  5
15C
330
15E
100
AcDbDictionary
280
     1
281
     1
  3
TC_OPTIONAL_DATA
360
15D
  0
DICTIONARY
  5
15F
330
161
100
AcDbDictionary
280
     1
281
     1
  3
TC_OPTIONAL_DATA
360
160
  0
DICTIONARY
  5
162
330
164
100
AcDbDictionary
280
     1
281
     1
  3
TC_OPTIONAL_DATA
360
163
  0
DICTIONARY
  5
165
330
167
100
AcDbDictionary
280
     1
281
     1
  3
TC_OPTIONAL_DATA
360
166
  0
DICTIONARY
  5
168
330
16A
100
AcDbDictionary
280
     1
281
     1
  3
TC_OPTIONAL_DATA
360
169
  0
DICTIONARY
  5
16B
330
16D
100
AcDbDictionary
280
     1
281
     1
  3
TC_OPTIONAL_DATA
360
16C
  0
DICTIONARY
  5
16E
330
170
100
AcDbDictionary
280
     1
281
     1
  3
TC_OPTIONAL_DATA
360
16F
  0
DICTIONARY
  5
171
330
173
100
AcDbDictionary
280
     1
281
     1
  3
TC_OPTIONAL_DATA
360
172
  0
DICTIONARY
  5
174
330
176
100
AcDbDictionary
280
     1
281
     1
  3
TC_OPTIONAL_DATA
360
175
  0
DICTIONARY
  5
D
102
{ACAD_REACTORS
330
C
102
}
330
C
100
AcDbDictionary
281
     1
  0
DICTIONARY
  5
1A
102
{ACAD_REACTORS
330
C
102
}
330
C
100
AcDbDictionary
281
     1
  3
Layout1
350
1E
  3
Model
350
22
  0
DICTIONARY
  5
17
102
{ACAD_REACTORS
330
C
102
}
330
C
100
AcDbDictionary
281
     1
  3
Standard
350
18
  0
DICTIONARY
  5
19
102
{ACAD_REACTORS
330
C
102
}
330
C
100
AcDbDictionary
281
     1
  0
ACDBDICTIONARYWDFLT
  5
E
102
{ACAD_REACTORS
330
C
102
}
330
C
100
AcDbDictionary
281
     1
  3
Normal
350
F
100
AcDbDictionaryWithDefault
340
F
  0
DICTIONARY
  5
178
102
{ACAD_REACTORS
330
C
102
}
330
C
100
AcDbDictionary
281
     1
  0
DICTIONARY
  5
2A
102
{ACAD_REACTORS
330
C
102
}
330
C
100
AcDbDictionary
281
     1
  3
2dWireframe
350
2F
  3
3D Hidden
350
31
  3
3dWireframe
350
30
  3
Basic
350
32
  3
Brighten
350
36
  3
ColorChange
350
3A
  3
Conceptual
350
34
  3
Dim
350
35
  3
Facepattern
350
39
  3
Flat
350
2B
  3
FlatWithEdges
350
2C
  3
Gouraud
350
2D
  3
GouraudWithEdges
350
2E
  3
Linepattern
350
38
  3
Realistic
350
33
  3
Thicken
350
37
  0
TCOPTIONALDATA
  5
4C
102
{ACAD_REACTORS
330
4B
102
}
330
4B
100
TcOptionalData
 70
     1
 70
    32
 40
-3.0
  0
TCOPTIONALDATA
  5
4F
102
{ACAD_REACTORS
330
4E
102
}
330
4E
100
TcOptionalData
 70
     1
 70
    32
 40
-3.0
  0
TCOPTIONALDATA
  5
52
102
{ACAD_REACTORS
330
51
102
}
330
51
100
TcOptionalData
 70
     1
 70
    32
 40
-3.0
  0
TCOPTIONALDATA
  5
55
102
{ACAD_REACTORS
330
54
102
}
330
54
100
TcOptionalData
 70
     1
 70
    32
 40
-3.0
  0
TCOPTIONALDATA
  5
58
102
{ACAD_REACTORS
330
57
102
}
330
57
100
TcOptionalData
 70
     1
 70
    32
 40
-3.0
  0
TCOPTIONALDATA
  5
5B
102
{ACAD_REACTORS
330
5A
102
}
330
5A
100
TcOptionalData
 70
     1
 70
    32
 40
-3.0
  0
TCOPTIONALDATA
  5
5E
102
{ACAD_REACTORS
330
5D
102
}
330
5D
100
TcOptionalData
 70
     1
 70
    32
 40
-3.0
  0
TCOPTIONALDATA
  5
61
102
{ACAD_REACTORS
330
60
102
}
330
60
100
TcOptionalData
 70
     1
 70
    32
 40
-3.0
  0
TCOPTIONALDATA
  5
64
102
{ACAD_REACTORS
330
63
102
}
330
63
100
TcOptionalData
 70
     1
 70
    32
 40
-3.0
  0
TCOPTIONALDATA
  5
67
102
{ACAD_REACTORS
330
66
102
}
330
66
100
TcOptionalData
 70
     1
 70
    32
 40
-3.0
  0
TCOPTIONALDATA
  5
6A
102
{ACAD_REACTORS
330
69
102
}
330
69
100
TcOptionalData
 70
     1
 70
    32
 40
-3.0
  0
TCOPTIONALDATA
  5
6D
102
{ACAD_REACTORS
330
6C
102
}
330
6C
100
TcOptionalData
 70
     1
 70
    32
 40
-3.0
  0
TCOPTIONALDATA
  5
70
102
{ACAD_REACTORS
330
6F
102
}
330
6F
100
TcOptionalData
 70
     1
 70
    32
 40
-3.0
  0
TCOPTIONALDATA
  5
C7
102
{ACAD_REACTORS
330
C6
102
}
330
C6
100
TcOptionalData
 70
     1
 70
    32
 40
-3.0
  0
TCOPTIONALDATA
  5
CA
102
{ACAD_REACTORS
330
C9
102
}
330
C9
100
TcOptionalData
 70
     1
 70
    32
 40
-3.0
  0
TCOPTIONALDATA
  5
F7
102
{ACAD_REACTORS
330
F6
102
}
330
F6
100
TcOptionalData
 70
     1
 70
    32
 40
-3.0
  0
TCOPTIONALDATA
  5
124
102
{ACAD_REACTORS
330
123
102
}
330
123
100
TcOptionalData
 70
     1
 70
    32
 40
-3.0
  0
TCOPTIONALDATA
  5
127
102
{ACAD_REACTORS
330
126
102
}
330
126
100
TcOptionalData
 70
     1
 70
    32
 40
-3.0
  0
TCOPTIONALDATA
  5
12A
102
{ACAD_REACTORS
330
129
102
}
330
129
100
TcOptionalData
 70
     1
 70
    32
 40
-3.0
  0
TCOPTIONALDATA
  5
12D
102
{ACAD_REACTORS
330
12C
102
}
330
12C
100
TcOptionalData
 70
     1
 70
    32
 40
-3.0
  0
TCOPTIONALDATA
  5
130
102
{ACAD_REACTORS
330
12F
102
}
330
12F
100
TcOptionalData
 70
     1
 70
    32
 40
-3.0
  0
TCOPTIONALDATA
  5
133
102
{ACAD_REACTORS
330
132
102
}
330
132
100
TcOptionalData
 70
     1
 70
    32
 40
-3.0
  0
TCOPTIONALDATA
  5
136
102
{ACAD_REACTORS
330
135
102
}
330
135
100
TcOptionalData
 70
     1
 70
    32
 40
-3.0
  0
TCOPTIONALDATA
  5
139
102
{ACAD_REACTORS
330
138
102
}
330
138
100
TcOptionalData
 70
     1
 70
    32
 40
-3.0
  0
TCOPTIONALDATA
  5
13C
102
{ACAD_REACTORS
330
13B
102
}
330
13B
100
TcOptionalData
 70
     1
 70
    32
 40
-3.0
  0
TCOPTIONALDATA
  5
13F
102
{ACAD_REACTORS
330
13E
102
}
330
13E
100
TcOptionalData
 70
     1
 70
    32
 40
-3.0
  0
TCOPTIONALDATA
  5
142
102
{ACAD_REACTORS
330
141
102
}
330
141
100
TcOptionalData
 70
     1
 70
    32
 40
-3.0
  0
TCOPTIONALDATA
  5
145
102
{ACAD_REACTORS
330
144
102
}
330
144
100
TcOptionalData
 70
     1
 70
    32
 40
-3.0
  0
TCOPTIONALDATA
  5
148
102
{ACAD_REACTORS
330
147
102
}
330
147
100
TcOptionalData
 70
     1
 70
    32
 40
-3.0
  0
TCOPTIONALDATA
  5
14B
102
{ACAD_REACTORS
330
14A
102
}
330
14A
100
TcOptionalData
 70
     1
 70
    32
 40
-3.0
  0
TCOPTIONALDATA
  5
14E
102
{ACAD_REACTORS
330
14D
102
}
330
14D
100
TcOptionalData
 70
     1
 70
    32
 40
-3.0
  0
TCOPTIONALDATA
  5
151
102
{ACAD_REACTORS
330
150
102
}
330
150
100
TcOptionalData
 70
     1
 70
    32
 40
-3.0
  0
TCOPTIONALDATA
  5
154
102
{ACAD_REACTORS
330
153
102
}
330
153
100
TcOptionalData
 70
     1
 70
    32
 40
-3.0
  0
TCOPTIONALDATA
  5
157
102
{ACAD_REACTORS
330
156
102
}
330
156
100
TcOptionalData
 70
     1
 70
    32
 40
-3.0
  0
TCOPTIONALDATA
  5
15A
102
{ACAD_REACTORS
330
159
102
}
330
159
100
TcOptionalData
 70
     1
 70
    32
 40
-3.0
  0
TCOPTIONALDATA
  5
15D
102
{ACAD_REACTORS
330
15C
102
}
330
15C
100
TcOptionalData
 70
     1
 70
    32
 40
-3.0
  0
TCOPTIONALDATA
  5
160
102
{ACAD_REACTORS
330
15F
102
}
330
15F
100
TcOptionalData
 70
     1
 70
    32
 40
-3.0
  0
TCOPTIONALDATA
  5
163
102
{ACAD_REACTORS
330
162
102
}
330
162
100
TcOptionalData
 70
     1
 70
    32
 40
-3.0
  0
TCOPTIONALDATA
  5
166
102
{ACAD_REACTORS
330
165
102
}
330
165
100
TcOptionalData
 70
     1
 70
    32
 40
-3.0
  0
TCOPTIONALDATA
  5
169
102
{ACAD_REACTORS
330
168
102
}
330
168
100
TcOptionalData
 70
     1
 70
    32
 40
-3.0
  0
TCOPTIONALDATA
  5
16C
102
{ACAD_REACTORS
330
16B
102
}
330
16B
100
TcOptionalData
 70
     1
 70
    32
 40
-3.0
  0
TCOPTIONALDATA
  5
16F
102
{ACAD_REACTORS
330
16E
102
}
330
16E
100
TcOptionalData
 70
     1
 70
    32
 40
-3.0
  0
TCOPTIONALDATA
  5
172
102
{ACAD_REACTORS
330
171
102
}
330
171
100
TcOptionalData
 70
     1
 70
    32
 40
-3.0
  0
TCOPTIONALDATA
  5
175
102
{ACAD_REACTORS
330
174
102
}
330
174
100
TcOptionalData
 70
     1
 70
   128
 90
        1
  1
#$AUX@_ToolInfo Properties
 70
     8
  1
CMD_TEXT@
  0
LAYOUT
  5
1E
102
{ACAD_REACTORS
330
1A
102
}
330
1A
100
AcDbPlotSettings
  1

  2
none_device
  4
ISO_A4_(210.00_x_297.00_MM)
  6

 40
0.0
 41
0.0
 42
0.0
 43
0.0
 44
210.0
 45
297.0
 46
0.0
 47
0.0
 48
0.0
 49
0.0
140
0.0
141
0.0
142
1.0
143
1.0
 70
   672
 72
     1
 73
     1
 74
     5
  7

 75
    16
 76
     0
 77
     2
 78
   300
147
1.0
148
0.0
149
0.0
100
AcDbLayout
  1
Layout1
 70
     1
 71
     1
 10
0.0
 20
0.0
 11
12.0
 21
9.0
 12
0.0
 22
0.0
 32
0.0
 14
0.0
 24
0.0
 34
0.0
 15
12.0
 25
9.0
 35
0.0
146
0.0
 13
0.0
 23
0.0
 33
0.0
 16
1.0
 26
0.0
 36
0.0
 17
0.0
 27
1.0
 37
0.0
 76
     0
330
1B
331
177
  0
LAYOUT
  5
22
102
{ACAD_REACTORS
330
1A
102
}
330
1A
100
AcDbPlotSettings
  1

  2
none_device
  4
ISO_C5_(229.00_x_162.00_MM)
  6

 40
0.0
 41
0.0
 42
0.0
 43
0.0
 44
229.0
 45
162.0
 46
16.0
 47
28.542089
 48
0.0
 49
0.0
140
0.0
141
0.0
142
1.0
143
0.3374886913580247
 70
  1712
 72
     1
 73
     0
 74
     0
  7

 75
     0
 76
     0
 77
     2
 78
   300
147
2.963062246548434
148
0.0
149
0.0
100
AcDbLayout
  1
Model
 70
     1
 71
     0
 10
-16.0
 20
-28.542089
 11
16.0
 21
25.059056
 12
0.0
 22
0.0
 32
0.0
 14
-16.0
 24
-28.542089
 34
0.0
 15
16.0
 25
25.059056
 35
0.0
146
0.0
 13
0.0
 23
0.0
 33
0.0
 16
1.0
 26
0.0
 36
0.0
 17
0.0
 27
1.0
 37
0.0
 76
     0
330
1F
331
29
  0
MLINESTYLE
  5
18
102
{ACAD_REACTORS
330
17
102
}
330
17
100
AcDbMlineStyle
  2
Standard
 70
     0
  3

 62
   256
 51
90.0
 52
90.0
 71
     4
 49
0.5
 62
   256
  6
BYLAYER
 49
-0.5
 62
   256
  6
BYLAYER
 49
0.5
 62
   256
  6
BYLAYER
 49
-0.5
 62
   256
  6
BYLAYER
  0
ACDBPLACEHOLDER
  5
F
102
{ACAD_REACTORS
330
E
102
}
330
E
  0
VISUALSTYLE
  5
2F
102
{ACAD_REACTORS
330
2A
102
}
330
2A
100
AcDbVisualStyle
  2
2dWireframe
 70
     4
 71
     0
 72
     2
 73
     0
 90
        0
 40
-0.6
 41
-30.0
 62
     5
 63
     7
421
 16777215
 74
     1
 91
        4
 64
     7
 65
   257
 75
     1
175
     1
 42
1.0
 92
        0
 66
   257
 43
1.0
 76
     1
 77
     6
 78
     2
 67
     7
 79
     5
170
     0
171
     0
290
     0
174
     0
 93
        1
 44
0.0
173
     0
291
     0
 45
0.0
  0
VISUALSTYLE
  5
31
102
{ACAD_REACTORS
330
2A
102
}
330
2A
100
AcDbVisualStyle
  2
3D Hidden
 70
     6
 71
     1
 72
     2
 73
     2
 90
        0
 40
-0.6
 41
-30.0
 62
     5
 63
     7
421
 16777215
 74
     2
 91
        2
 64
     7
 65
   257
 75
     2
175
     1
 42
40.0
 92
        0
 66
   257
 43
1.0
 76
     1
 77
     6
 78
     2
 67
     7
 79
     3
170
     0
171
     0
290
     0
174
     0
 93
        1
 44
0.0
173
     0
291
     0
 45
0.0
  0
VISUALSTYLE
  5
30
102
{ACAD_REACTORS
330
2A
102
}
330
2A
100
AcDbVisualStyle
  2
3dWireframe
 70
     5
 71
     0
 72
     2
 73
     0
 90
        0
 40
-0.6
 41
-30.0
 62
     5
 63
     7
421
 16777215
 74
     1
 91
        4
 64
     7
 65
   257
 75
     1
175
     1
 42
1.0
 92
        0
 66
   257
 43
1.0
 76
     1
 77
     6
 78
     2
 67
     7
 79
     5
170
     0
171
     0
290
     0
174
     0
 93
        1
 44
0.0
173
     0
291
     0
 45
0.0
  0
VISUALSTYLE
  5
32
102
{ACAD_REACTORS
330
2A
102
}
330
2A
100
AcDbVisualStyle
  2
Basic
 70
     7
 71
     1
 72
     0
 73
     1
 90
        0
 40
-0.6
 41
-30.0
 62
     5
 63
     7
421
 16777215
 74
     0
 91
        4
 64
     7
 65
   257
 75
     1
175
     1
 42
1.0
 92
        8
 66
     7
 43
1.0
 76
     1
 77
     6
 78
     2
 67
     7
 79
     5
170
     0
171
     0
290
     0
174
     0
 93
        1
 44
0.0
173
     0
291
     1
 45
0.0
  0
VISUALSTYLE
  5
36
102
{ACAD_REACTORS
330
2A
102
}
330
2A
100
AcDbVisualStyle
  2
Brighten
 70
    12
 71
     2
 72
     2
 73
     0
 90
        0
 40
-0.6
 41
-30.0
 62
     5
 63
     7
421
 16777215
 74
     1
 91
        4
 64
     7
 65
   257
 75
     1
175
     1
 42
1.0
 92
        8
 66
     7
 43
1.0
 76
     1
 77
     6
 78
     2
 67
     7
 79
     5
170
     0
171
     0
290
     0
174
     0
 93
        1
 44
50.0
173
     0
291
     1
 45
0.0
  0
VISUALSTYLE
  5
3A
102
{ACAD_REACTORS
330
2A
102
}
330
2A
100
AcDbVisualStyle
  2
ColorChange
 70
    16
 71
     2
 72
     2
 73
     3
 90
        0
 40
-0.6
 41
-30.0
 62
     5
 63
     8
421
  8421504
 74
     1
 91
        4
 64
     7
 65
   257
 75
     1
175
     1
 42
1.0
 92
        8
 66
     8
424
  8421504
 43
1.0
 76
     1
 77
     6
 78
     2
 67
     7
 79
     5
170
     0
171
     0
290
     0
174
     0
 93
        1
 44
0.0
173
     0
291
     1
 45
0.0
  0
VISUALSTYLE
  5
34
102
{ACAD_REACTORS
330
2A
102
}
330
2A
100
AcDbVisualStyle
  2
Conceptual
 70
     9
 71
     3
 72
     2
 73
     0
 90
        0
 40
-0.6
 41
-30.0
 62
     5
 63
     7
421
 16777215
 74
     2
 91
        2
 64
     7
 65
   257
 75
     1
175
     1
 42
40.0
 92
        8
 66
     7
 43
1.0
 76
     1
 77
     6
 78
     2
 67
     7
 79
     3
170
     0
171
     0
290
     0
174
     0
 93
        1
 44
0.0
173
     0
291
     0
 45
0.0
  0
VISUALSTYLE
  5
35
102
{ACAD_REACTORS
330
2A
102
}
330
2A
100
AcDbVisualStyle
  2
Dim
 70
    11
 71
     2
 72
     2
 73
     0
 90
        0
 40
-0.6
 41
-30.0
 62
     5
 63
     7
421
 16777215
 74
     1
 91
        4
 64
     7
 65
   257
 75
     1
175
     1
 42
1.0
 92
        8
 66
     7
 43
1.0
 76
     1
 77
     6
 78
     2
 67
     7
 79
     5
170
     0
171
     0
290
     0
174
     0
 93
        1
 44
-50.0
173
     0
291
     1
 45
0.0
  0
VISUALSTYLE
  5
39
102
{ACAD_REACTORS
330
2A
102
}
330
2A
100
AcDbVisualStyle
  2
Facepattern
 70
    15
 71
     2
 72
     2
 73
     0
 90
        0
 40
-0.6
 41
-30.0
 62
     5
 63
     7
421
 16777215
 74
     1
 91
        4
 64
     7
 65
   257
 75
     1
175
     1
 42
1.0
 92
        8
 66
     7
 43
1.0
 76
     1
 77
     6
 78
     2
 67
     7
 79
     5
170
     0
171
     0
290
     0
174
     0
 93
        1
 44
0.0
173
     0
291
     1
 45
0.0
  0
VISUALSTYLE
  5
2B
102
{ACAD_REACTORS
330
2A
102
}
330
2A
100
AcDbVisualStyle
  2
Flat
 70
     0
 71
     2
 72
     1
 73
     1
 90
        2
 40
-0.6
 41
30.0
 62
     5
 63
     7
421
 16777215
 74
     0
 91
        4
 64
     7
 65
   257
 75
     1
175
     1
 42
1.0
 92
        8
 66
     7
 43
1.0
 76
     1
 77
     6
 78
     2
 67
     7
 79
     5
170
     0
171
     0
290
     0
174
     0
 93
       13
 44
0.0
173
     0
291
     1
 45
0.0
  0
VISUALSTYLE
  5
2C
102
{ACAD_REACTORS
330
2A
102
}
330
2A
100
AcDbVisualStyle
  2
FlatWithEdges
 70
     1
 71
     2
 72
     1
 73
     1
 90
        2
 40
-0.6
 41
30.0
 62
     5
 63
     7
421
 16777215
 74
     1
 91
        4
 64
     7
 65
   257
 75
     1
175
     1
 42
1.0
 92
        0
 66
   257
 43
1.0
 76
     1
 77
     6
 78
     2
 67
     7
 79
     5
170
     0
171
     0
290
     0
174
     0
 93
       13
 44
0.0
173
     0
291
     1
 45
0.0
  0
VISUALSTYLE
  5
2D
102
{ACAD_REACTORS
330
2A
102
}
330
2A
100
AcDbVisualStyle
  2
Gouraud
 70
     2
 71
     2
 72
     2
 73
     1
 90
        2
 40
-0.6
 41
30.0
 62
     5
 63
     7
421
 16777215
 74
     0
 91
        4
 64
     7
 65
   257
 75
     1
175
     1
 42
1.0
 92
        0
 66
     7
 43
1.0
 76
     1
 77
     6
 78
     2
 67
     7
 79
     5
170
     0
171
     0
290
     0
174
     0
 93
       13
 44
0.0
173
     0
291
     1
 45
0.0
  0
VISUALSTYLE
  5
2E
102
{ACAD_REACTORS
330
2A
102
}
330
2A
100
AcDbVisualStyle
  2
GouraudWithEdges
 70
     3
 71
     2
 72
     2
 73
     1
 90
        2
 40
-0.6
 41
30.0
 62
     5
 63
     7
421
 16777215
 74
     1
 91
        4
 64
     7
 65
   257
 75
     1
175
     1
 42
1.0
 92
        0
 66
   257
 43
1.0
 76
     1
 77
     6
 78
     2
 67
     7
 79
     5
170
     0
171
     0
290
     0
174
     0
 93
       13
 44
0.0
173
     0
291
     1
 45
0.0
  0
VISUALSTYLE
  5
38
102
{ACAD_REACTORS
330
2A
102
}
330
2A
100
AcDbVisualStyle
  2
Linepattern
 70
    14
 71
     2
 72
     2
 73
     0
 90
        0
 40
-0.6
 41
-30.0
 62
     5
 63
     7
421
 16777215
 74
     1
 91
        4
 64
     7
 65
   257
 75
     7
175
     7
 42
1.0
 92
        8
 66
     7
 43
1.0
 76
     1
 77
     6
 78
     2
 67
     7
 79
     5
170
     0
171
     0
290
     0
174
     0
 93
        1
 44
0.0
173
     0
291
     1
 45
0.0
  0
VISUALSTYLE
  5
33
102
{ACAD_REACTORS
330
2A
102
}
330
2A
100
AcDbVisualStyle
  2
Realistic
 70
     8
 71
     2
 72
     2
 73
     0
 90
        0
 40
-0.6
 41
-30.0
 62
     5
 63
     7
421
 16777215
 74
     1
 91
        0
 64
     7
 65
   257
 75
     1
175
     1
 42
1.0
 92
        8
 66
     8
424
  7895160
 43
1.0
 76
     1
 77
     6
 78
     2
 67
     7
 79
     5
170
     0
171
     0
290
     0
174
     0
 93
       13
 44
0.0
173
     0
291
     0
 45
0.0
  0
VISUALSTYLE
  5
37
102
{ACAD_REACTORS
330
2A
102
}
330
2A
100
AcDbVisualStyle
  2
Thicken
 70
    13
 71
     2
 72
     2
 73
     0
 90
        0
 40
-0.6
 41
-30.0
 62
     5
 63
     7
421
 16777215
 74
     1
 91
        4
 64
     7
 65
   257
 75
     1
175
     1
 42
1.0
 92
       12
 66
     7
 43
1.0
 76
     1
 77
     6
 78
     2
 67
     7
 79
     5
170
     0
171
     0
290
     0
174
     0
 93
        1
 44
0.0
173
     0
291
     1
 45
0.0
  0
ENDSEC
  0
SECTION
  2
THUMBNAILIMAGE
 90
    16364
310
28000000B40000005500000001000800000000000000000000000000000000000000000000000000FFFFFF000000FF0000FFFF0000FF0000FFFF0000FF000000FF00FF000000000080808000C0C0C0000000FF007F7FFF000000A5005252A50000007F003F3F7F0000004C0026264C000000260013132600003FFF007F9FFF
310
000029A5005267A500001F7F003F4F7F0000134C00262F4C000009260013172600007FFF007FBFFF000052A500527CA500003F7F003F5F7F0000264C0026394C0000132600131C260000BFFF007FDFFF00007CA5005291A500005F7F003F6F7F0000394C0026424C00001C26001321260000FFFF007FFFFF0000A5A50052A5
310
A500007F7F003F7F7F00004C4C00264C4C00002626001326260000FFBF007FFFDF0000A57C0052A59100007F5F003F7F6F00004C3900264C420000261C001326210000FF7F007FFFBF0000A5520052A57C00007F3F003F7F5F00004C2600264C39000026130013261C0000FF3F007FFF9F0000A5290052A56700007F1F003F
310
7F4F00004C1300264C2F00002609001326170000FF00007FFF7F0000A5000052A55200007F00003F7F3F00004C0000264C260000260000132613003FFF00009FFF7F0029A5000067A552001F7F00004F7F3F00134C00002F4C260009260000172613007FFF0000BFFF7F0052A500007CA552003F7F00005F7F3F00264C0000
310
394C2600132600001C261300BFFF0000DFFF7F007CA5000091A552005F7F00006F7F3F00394C0000424C26001C26000021261300FFFF0000FFFF7F00A5A50000A5A552007F7F00007F7F3F004C4C00004C4C26002626000026261300FFBF0000FFDF7F00A57C0000A59152007F5F00007F6F3F004C3900004C422600261C00
310
0026211300FF7F0000FFBF7F00A5520000A57C52007F3F00007F5F3F004C2600004C39260026130000261C1300FF3F0000FF9F7F00A5290000A56752007F1F00007F4F3F004C1300004C2F26002609000026171300FF000000FF7F7F00A5000000A55252007F0000007F3F3F004C0000004C2626002600000026131300FF00
310
3F00FF7F9F00A5002900A55267007F001F007F3F4F004C0013004C262F002600090026131700FF007F00FF7FBF00A5005200A5527C007F003F007F3F5F004C0026004C2639002600130026131C00FF00BF00FF7FDF00A5007C00A55291007F005F007F3F6F004C0039004C26420026001C0026132100FF00FF00FF7FFF00A5
310
00A500A552A5007F007F007F3F7F004C004C004C264C002600260026132600BF00FF00DF7FFF007C00A5009152A5005F007F006F3F7F0039004C0042264C001C002600211326007F00FF00BF7FFF005200A5007C52A5003F007F005F3F7F0026004C0039264C00130026001C1326003F00FF009F7FFF002900A5006752A500
310
1F007F004F3F7F0013004C002F264C000900260017132600000000002D2D2D005B5B5B0089898900B7B7B700B3B3B30000000000000000000000000000000000000000000000000000000000000000000000000000000000000000000000000000000000000000000000000000000000000000000000000000000000000000
310
00000000000000000000000000000000000000000000000000000000000000000000000000000000000000000000000000000000000000000000000000000000000000000000000000000000000000000000000000000000000000000000000000000000000000000000000000000000000000000000000000000000000000
310
00000000000000000000000000000000000000000000000000000000000000000000000000000000000000000000000000000000000000000000000000000000000000000000000000000000000000000000000000000000000000000000000000000000000000000000000000000000000000000000000000000000000000
310
00000000000000000000000000000000000000000000000000000000000000000000000000000000000000000000000000000000000000000000000000000000000000000000000000000000000000000000000000000000000000000000000000000000000000000000000000000000000000000000000000000000000000
310
00000000000000000000000000000000000000000000000000000000000000000000000000000000000000000000000000000000000000000000000000000000000000000000000000000000000000000000000000000000000000000000000000000000000000000000000000000000000000000000000000000000000000
310
00000000000000000000000000000000000000000000000000000000000000000000000000000000000000000000000000000000000000000000000000000000000000000000000000000000000000000000000000000000000000000000000000000000000000000000000000000000000000000000000000000000000000
310
00000000000000000000000000000000000000000000000000000000000000000000000000000000000000000000000000000000000000000000000000000000000000000000000000000000000000000000000000000000000000000000000000000000000000000000000000000000000000000000000000000000000000
310
00000000000000000000000000000000000000000000000000000000000000000000000000000000000000000000000000000000000000000000000000000000000000000000000000000000000000000000000000000000000000000000000000000000000000000000000000000000000000000000000000000000000000
310
00000000000000000000000000000000000000000000000000000000000000000000000000000000000000000000000000000000000000000000000000000000000000000000000000000000000000000000000000000000000000000000000000000000000000000000000000000000000000000000000000000000000000
310
00000000000000000000000000000000000000000000000000000000000000000000000000000000000000000000000000000000000000000000000000000000000000000000000000000000000000000000000000000000000000000000000000000000000000000000000000000000000000000000000000000000000000
310
00000000000000000000000000000000000000000000000000000000000000000000000000000000000000000000000000000000000000000000000000000000000000000000000000000000000000000000000000000000000000000000000000000000000000000000000000000000000000000000000000000000000000
310
00000000000707000000000000000000000000000000000000000000000000000000000000000000000000000000000000000000000000000000000000000000000000000000000000000000000000000000000000000000000000000000000000000000000000000000000000000000000000000000000000000000000000
310
00000000000000000000000000000000000000000000000000000000000000000000000000000000000000000000000000000000000000070707070700000000000000000000000000000000000000000000000000000000000000000000000000000000000000000000000000000000000000000000000000000000000000
310
00000000000000000000000000000000000000000000000000000000000000000000000000000000000000000000000000000000000000000000000000000000000000000000000000000000000000000000000000000000000000000000000000000000000000000000000007070707070000000000000000000000000000
310
00000000000000000000000000000000000000000000000000000000000000000000000000000000000000000000000000000000000000000000000000000000000000000000000000000000000000000000000000000000000000000000000000000000000000000000000000000000000000000000000000000000000000
310
00000000000000000000000000000000000000000000000000000000000000000007070700000000000000000000000000000000000000000000000000000000000000000000000000000000000000000000000000000000000000000000000000000000000000000000000000000000000000000000000000000000000000
310
00000000000000000000000000000000000000000000000000000000000000000000000000000000000000000000000000000000000000000000000000000000000000000000000000000000000000000000000000000000000000000000000000000000000000000000000000000000000000000000000000000000000000
310
00000000000000000000000000000000000000000000000000000000000000000000000000000000000000000000000000000000000000000000000000000000000000000000000000000000000000000000000000000000000000000000000000000000000000000000000000000000000000000000000000000000000000
310
00000000000000000000000000000000000000000000000000000000000000000000000000000000000000000000000000000000000000000000000000000000000000000000000000000000000000000000000000000000000000000000000000000000000000000000000000000000000000000000000000000000000000
310
00000000000000000000000000000000000000000000000000000000000000000000000000000000000000000000000000000000000000000000000000000000000000000000000000000000000000000000000000000000000000000000000000000000000000000000000000000000000000000000000000000000000000
310
00000000000000000000000000000000000000000000000000000000000000000000000000000000000000000000000000000000000000000000000000000000000000000000000000000000000000000000000000000000000000000000000000000000000000000000000000000000000000000000000000000000000000
310
00000000000000000000000000000000000000000000000000000000000000000000000000000000000000000000000000000000000000000000000000000000000000000000000000000000000000000000000000000000000000000000000000000000000000000000000000000000000000000000000000000000000000
310
00000000000000000000000000000000000000000000000000000000000000000000000000000000000000000700000000000000000000000000000000000000000000000000000000000000000000000000000000000000000000000000000000000000000000000000000000000000000000000000000000000000000000
310
00000000000000000000000000000000000000000000000000000000000000000000000000000000000000000000000000000000000000000000000000000000000000000000000000000000000000000000000000000000000000000000000007000700000000000000000000000000000000000000000000000000000000
310
00000000000000000000000000000000000000000000000000000000000000000000000000000000000000000000000000000000000000000000000000000000000000000000000000000000000000000000000000000000000000000000000000000000000000000000000000000000000000000000000000000000000000
310
00000000000000000000000000000000000000000007000000070000000000000000000000000000000000000000000000000000000000000000000000000000000000000000000000000000000000000000000000000000000000000000000000000000000000000000000000000000000000000000000000000000000000
310
00000000000000000000000000000000000000000000000000000000000000000000000000000000000000000000000000000000000000000000000000000000000000000000000000070000000000070000000000000000000000000000000000000000000000000000000000000000000000000000000000000000000000
310
00000000000000000000000000000000000000000000000000000000000000000000000000000000000000000000000000000000000000000000000000000000000000000000000000000000000000000000000000000000000000000000000000000000000000000000000000000000000000000000000000000000070700
310
00000000000007070000000000000000000000000000000000000000000000000000000000000000000000000000000000000000000000000000000000000000000000000000000000000000000000000000000000000000000000000000000000000000000000000000000000000000000000000000000000000000000000
310
00000000000000000000000000000000000000000000000000000000000000000000000000000000000000000000000000070000000000000000000000070000000000000000000000000000000000000000000000000000000000000000000000000000000000000000000000000000000000000000000000000000000000
310
00000000000000000000000000000000000000000000000000000000000000000000000000000000000000000000000000000000000000000000000000000000000000000000000000000000000000000000000000000000000000000000000000000000000700000000000000000000000000070000000000000000000000
310
00000000000000000000000000000000000000000000000000000000000000000000000000000000000000000000000000000000000000000000000000000000000000000000000000000000000000000000000000000000000000000000000000000000000000000000000000000000000000000000000000000000000000
310
00000000000000000000000000000000000000000000000000000700000000000000000000000000000007000000000000000000000000000000000000000000000000000000000000000000000000000000000000000000000000000000000000000000000000000000000000000000000000000000000000000000000000
310
00000000000000000000000000000000000000000000000000000000000000000000000000000000000000000000000000000000000000000000000000000000000000000000000000000000000007000000000000000000000000000000000007000000000000000000000000000000000000000000000000000000000000
310
00000000000000000000000000000000000000000000000000000000000000000000000000000000000000000000000000000000000000000000000000000000000000000000000000000000000000000000000000000000000000000000000000000000000000000000000000000000000000000000000000000000000000
310
00000000070000000000000000000000000000000000070000000000000000000000000000000000000000000000000000000000000000000000000000000000000000000000000000000000000000000000000000000000000000000000000000000000000000000000000000000000000000000000000000000000000000
310
00000000000000000000000000000000000000000000000000000000000000000000000000000000000000000000000000000000000000000007000700070000070007000700000700070007000000000000000000000000000000000000000000000000000000000000000000000000000000000000000000000000000000
310
00000000000000000000000000000000000000000000000000000000000000000000000000000000000000000000000000000000000000000000000000000000000000000000000000000000000000000000000000000000000000000000000000000000000000000000000000000700070007000007000700070000070007
310
00070000000000000000000000000000000000000000000000000000000000000000000000000000000000000000000000000000000000000000000000000000000000000000000000000000000000000000000000000000000000000000000000000000000000000000000000000000000000000000000000000000000000
310
00000000000000000000000000000000000000000000000000000000000000000000000007000700070000070007000700000700070007000000000000000000000000000000000000000000000000000000000000000000000000000000000000000000000000000000000000000000000000000000000000000000000000
310
00000000000000000000000000000000000000000000000000000000000000000000000000000000000000000000000000000000000000000000000000000000000000000000000000000000000000000000000000000000000700070007000007000700070000070007000700000000000000000000000000000000000000
310
00000000000000000000000000000000000000000000000000000000000000000000000000000000000000000000000000000000000000000000000000000000000000000000000000000000000000000000000000000000000000000000000000000000000000000000000000000000000000000000000000000000000000
310
00000000000000000000000000000007000700070000070007000700000700070007000000000000000000000000000000000000000000000000000000000000000000000000000000000000000000000000000000000000000000000000000000000000000000000000000000000000000000000000000000000000000000
310
00000000000000000000000000000000000000000000000000000000000000000000000000000000000000000000000000000000000000000000000000000000000000000700070007000007000700070000070007000700000000000000000000000000000000000000000000000000000000000000000000000000000000
310
00000000000000000000000000000000000000000000000000000000000000000000000000000000000000000000000000000000000000000000000000000000000000000000000000000000000000000000000000000000000000000000000000000000000000000000000000000000000000000000000000070007000700
310
00070007000700000700070007000000000000000000000000000000000000000000000000000000000000000000000000000000000000000000000000000000000000000000000000000000000000000000000000000000000000000000000000000000000000000000000000000000000000000000000000000000000000
310
00000000000000000000000000000000000000000000000000000000000000000000000000000000000000000000000700070007000007000700070000070007000700000000000000000000000000000000000000000000000000000000000000000000000000000000000000000000000000000000000000000000000000
310
00000000000000000000000000000000000000000000000000000000000000000000000000000000000000000000000000000000000000000000000000000000000000000000000000000000000000000000000000000000000000000000000000000000070007000700000700070007000007000700070000000000000000
310
00000000000000000000000000000000000000000000000000000000000000000000000000000000000000000000000000000000000000000000000000000000000000000000000000000000000000000000000000000000000000000000000000000000000000000000000000000000000000000000000000000000000000
310
00000000000000000000000000000000000000000000000000000700070007000007000700070000070007000700000000000000000000000000000000000000000000000000000000000000000000000000000000000000000000000000000000000000000000000000000000000000000000000000000000000000000000
310
00000000000000000000000000000000000000000000000000000000000000000000000000000000000000000000000000000000000000000000000000000000000000000000000000000000000000070007000700000700070007000007000700070000000000000000000000000000000000000000000000000000000000
310
00000000000000000000000000000000000000000000000000000000000000000000000000000000000000000000000000000000000000000000000000000000000000000000000000000000000000000000000000000000000000000000000000000000000000000000000000000000000000000000000000000000000000
310
00000000000700070007000007000700070000070007000700000000000000000000000000000000000000000000000000000000000000000000000000000000000000000000000000000000000000000000000000000000000000000000000000000000000000000000000000000000000000000000000000000000000000
310
00000000000000000000000000000000000000000000000000000000000000000000000000000000000000000000000000000000000000000000070007000700000700070007000007000700070000000000000000000000000000000000000000000000000000000000000000000000000000000000000000000000000000
310
00000000000000000000000000000000000000000000000000000000000000000000000000000000000000000000000000000000000000000000000000000000000000000000000000000000000000000000000000000000000000000000000000000000000000000000000000000007000700070000070007000700000700
310
07000700000000000000000000000000000000000000000000000000000000000000000000000000000000000000000000000000000000000000000000000000000000000000000000000000000000000000000000000000000000000000000000000000000000000000000000000000000000000000000000000000000000
310
00000000000000000000000000000000000000000000000000000000000000000000000000070007000700000700070007000007000700070000000000000000000000000000000000000000000000000000000000000000000000000000000000000000000000000000000000000000000000000000000000000000000000
310
00000000000000000000000000000000000000000000000000000000000000000000000000000000000000000000000000000000000000000000000000000000000000000000000000000000000000000000000000000000000007000700070000070007000700000700070007000000000000000000000000000000000000
310
00000000000000000000000000000000000000000000000000000000000000000000000000000000000000000000000000000000000000000000000000000000000000000000000000000000000000000000000000000000000000000000000000000000000000000000000000000000000000000000000000000000000000
310
00000000000000000000000000000000070007070700070707000707070007070700070000000000000000000000000000000000000000000000000000000000000000000000000000000000000000000000000000000000000000000000000000000000000000000000000000000000000000000000000000000000000000
310
00000000000000000000000000000000000000000000000000000000000000000000000000000000000000000000000000000000000000000000000000000000000000000007000007000000070000000700000007000007000000000000000000000000000000000000000000000000000000000000000000000000000000
310
00000000000000000000000000000000000000000000000000000000000000000000000000000000000000000000000000000000000000000000000000000000000000000000000000000000000000000000000000000000000000000000000000000000000000000000000000000000000000000000000000000707070707
310
07070707070707070707070707070000000000000000000000000000000000000000000000000000000000000000000000000000000000000000000000000000000000000000000000000000000000000000000000000000000000000000000000000000000000000000000000000000000000000000000000000000000000
310
00000000000000000000000000000000000000000000000000000000000000000000000000000000000000000000000007000000000000000000000000000000000007000000000000000000000000000000000000000000000000000000000000000000000000000000000000000000000000000000000000000000000000
310
00000000000000000000000000000000000000000000000000000000000000000000000000000000000000000000000000000000000000000000000000000000000000000000000000000000000000000000000000000000000000000000000000000000000007070000000000000000000000000007070700000000000000
310
00000000000000000000000000000000000000000000000000000000000000000000000000000000000000000000000000000000000000000000000000000000000000000000000000000000000000000000000000000000000000000000000000000000000000000000000000000000000000000000000000000000000000
310
00000000000000000000000000000000000000000000000000000000000007070707070707070707070707000000000000000000000000000000000000000000000000000000000000000000000000000000000000000000000000000000000000000000000000000000000000000000000000000000000000000000000000
310
00000000000000000000000000000000000000000000000000000000000000000000000000000000000000000000000000000000000000000000000000000000000000000000000000000000000000000000000000000000000000000000000000000000000000000000000000000000000000000000000000000000000000
310
00000000000000000000000000000000000000000000000000000000000000000000000000000000000000000000000000000000000000000000000000000000000000000000000000000000000000000000000000000000000000000000000000000000000000000000000000000000000000000000000000000000000000
310
00000000000000000000000000000000000000000000000000000000000000000000000000000000000000000000000000000000000000000000000000000000000000000000000000000000000000000000000000000000000000000000000000000000000000000000000000000000000000000000000000000000000000
310
00000000000000000000000000000000000000000000000000000000000000000000000000000000000000000000000000000000000000000000000000000000000000000000000000000000000000000000000000000000000000000000000000000000000000000000000000000000000000000000000000000000000000
310
00000000000000000000000000000000000000000000000000000000000000000000000000000000000000000000000000000000000000000000000000000000000000000000000000000000000000000000000000000000000000000000000000000000000000000000000000000000000000000000000000000000000000
310
00000000000000000000000000000000000000000000000000000000000000000000000000000000000000000000000000000000000000000000000000000000000000000000000000000000000000000000000000000000000000000000000000000000000000000000000000000000000000000000000000000000000000
310
00000000000000000000000000000000000000000000000000000000000000000000000000000000000000000000000000000000000000000000000000000000000000000000000000000000000000000000000000000000000000000000000000000000000000000000000000000000000000000000000000000000000000
310
00000000000000000000000000000000000000000000000000000000000000000000000000000000000000000000000000000000000000000000000000000000000000000000000000000000000000000000000000000000000000000000000000000000000000000000000000000000000000000000000000000000000000
310
00000000000000000000000000000000000000000000000000000000000000000000000000000000000000000000000000000000000000000000000000000000000000000000000000000000000000000000000000000000000000000000000000000000000000000000000000000000000000000000000000000000000000
310
00000000000000000000000000000000000000000000000000000000000000000000000000000000000000000000000000000000000000000000000000000000000000000000000000000000000000000000000000000000000000000000000000000000000000000000000000000000000000000000000000000000000000
310
00000000000000000000000000000000000000000000000000000000000000000000000000000000000000000000000000000000000000000000000000000000000000000000000000000000000000000000000000000000000000000000000000000000000000000000000000000000000000000000000000000000000000
310
00000000000000000000000000000000000000000000000000000000000000000000000000000000000000000000000000000000000000000000000000000000000000000000000000000000000000000000000000000000000000000000000000000000000000000000000000000000000000000000000000000000000000
310
00000000000000000000000000000000000000000000000000000000000000000000000000000000000000000000000000000000000000000000000000000000000000000000000000000000000000000000000000000000000000000000000000000000000000000000000000000000000000000000000000000000000000
310
00000000000000000000000000000000000000000000000000000000000000000000000000000000000000000000000000000000000000000000000000000000000000000000000000000000000000000000000000000000000000000000000000000000000000000000000000000000000000000000000000000000000000
310
00000000000000000000000000000000000000000000000000000000000000000000000000000000000000000000000000000000000000000000000000000000000000000000000000000000000000000000000000000000000000000000000000000000000000000000000000000000000000000000000000000000000000
310
00000000000000000000000000000000000000000000000000000000000000000000000000000000000000000000000000000000000000000000000000000000000000000000000000000000000000000000000000000000000000000000000000000000000000000000000000000000000000000000000000000000000000
310
00000000000000000000000000000000000000000000000000000000000000000000000000000000000000000000000000000000000000000000000000000000000000000000000000000000000000000000000000000000000000000000000000000000000000000000000000000000000000000000000000000000000000
310
00000000000000000000000000000000000000000000000000000000000000000000000000000000000000000000000000000000000000000000000000000000000000000000000000000000000000000000000000000000000000000000000000000000000000000000000000000000000000000000000000000000000000
310
00000000000000000000000000000000000000000000000000000000000000000000000000000000000000000000000000000000000000000000000000000000000000000000000000000000000000000000000000000000000000000000000000000000000000000000000000000000000000000000000000000000000000
310
00000000000000000000000000000000000000000000000000000000000000000000000000000000000000000000000000000000000000000000000000000000000000000000000000000000000000000000000000000000000000000000000000000000000000000000000000000000000000000000000000000000000000
310
00000000000000000000000000000000000000000000000000000000000000000000000000000000000000000000000000000000000000000000000000000000000000000000000000000000000000000000000000000000000000000000000000000000000000000000000000000000000000000000000000000000000000
310
00000000000000000000000000000000000000000000000000000000000000000000000000000000000000000000000000000000000000000000000000000000000000000000000000000000000000000000000000000000000000000000000000000000000000000000000000000000000000000000000000000000000000
310
00000000000000000000000000000000000000000000000000000000000000000000000000000000000000000000000000000000000000000000000000000000000000000000000000000000000000000000000000000000000000000000000000000000000000000000000000000000000000000000000000000000000000
310
00000000000000000000000000000000000000000000000000000000000000000000000000000000000000000000000000000000000000000000000000000000000000000000000000000000000000000000000000000000000000000000000000000000000000000000000000000000000000000000000000000000000000
310
00000000000000000000000000000000000000000000000000000000000000000000000000000000000000000000000000000000000000000000000000000000000000000000000000000000000000000000000000000000000000000000000000000000000000000000000000000000000000000000000000000000000000
310
00000000000000000000000000000000000000000000000000000000000000000000000000000000000000000000000000000000000000000000000000000000000000000000000000000000000000000000000000000000000000000000000000000000000000000000000000000000000000000000000000000000000000
310
00000000000000000000000000000000000000000000000000000000000000000000000000000000000000000000000000000000000000000000000000000000000000000000000000000000000000000000000000000000000000000000000000000000000000000000000000000000000000000000000000000000000000
310
00000000000000000000000000000000000000000000000000000000000000000000000000000000000000000000000000000000000000000000000000000000000000000000000000000000000000000000000000000000000000000000000000000000000000000000000000000000000000000000000000000000000000
310
00000000000000000000000000000000000000000000000000000000000000000000000000000000000000000000000000000000000000000000000000000000000000000000000000000000000000000000000000000000000000000000000000000000000000000000000000000000000000000000000000000000000000
310
00000000000000000000000000000000000000000000000000000000000000000000000000000000000000000000000000000000000000000000000000000000000000000000000000000000000000000000000000000000000000000000000000000000000000000000000000000000000000000000000000000000000000
310
00000000000000000000000000000000000000000000000000000000000000000000000000000000000000000000000000000000000000000000000000000000000000000000000000000000000000000000000000000000000000000000000000000000000000000000000000000000000000000000000000000000000000
310
00000000000000000000000000000000000000000000000000000000000000000000000000000000000000000000000000000000000000000000000000000000000000000000000000000000000000000000000000000000000000000000000000000000000000000000000000000000000000000000000000000000000000
310
00000000000000000000000000000000000000000000000000000000000000000000000000000000000000000000000000000000000000000000000000000000000000000000000000000000000000000000000000000000000000000000000000000000000000000000000000000000000000000000000000000000000000
310
00000000000000000000000000000000000000000000000000000000000000000000000000000000000000000000000000000000000000000000000000000000000000000000000000000000000000000000000000000000000000000000000000000000000000000000000000000000000000000000000000000000000000
310
00000000000000000000000000000000000000000000000000000000000000000000000000000000000000000000000000000000000000000000000000000000000000000000000000000000000000000000000000000000000000000000000000000000000000000000000000000000000000000000000000000000000000
310
00000000000000000000000000000000000000000000000000000000000000000000000000000000000000000000000000000000000000000000000000000000000000000000000000000000000000000000000000000000000000000000000000000000000000000000000000000000000000000000000000000000000000
310
00000000000000000000000000000000000000000000000000000000000000000000000000000000000000000000000000000000000000000000000000000000000000000000000000000000000000000000000000000000000000000000000000000000000000000000000000000000000000000000000000000000000000
310
00000000000000000000000000000000000000000000000000000000000000000000000000000000000000000000000000000000000000000000000000000000000000000000000000000000000000000000000000000000000000000000000000000000000000000000000000000000000000000000000000000000000000
310
00000000000000000000000000000000000000000000000000000000000000000000000000000000000000000000000000000000000000000000000000000000000000000000000000000000000000000000000000000000000000000000000000000000000000000000000000000000000000000000000000000000000000
310
00000000000000000000000000000000000000000000000000000000000000000000000000000000000000000000000000000000000000000000000000000000000000000000000000000000000000000000000000000000000000000000000000000000000000000000000000000000000000000000000000000000000000
310
00000000000000000000000000000000000000000000000000000000000000000000000000000000000000000000000000000000000000000000000000000000000000000000000000000000000000000000000000000000000000000000000000000000000000000000000000000000000000000000000000000000000000
310
00000000000000000000000000000000000000000000000000000000000000000000000000000000000000000000000000000000000000000000000000000000000000000000000000000000000000000000000000000000000000000000000000000000000000000000000000000000000000000000000000000000000000
310
00000000000000000000000000000000000000000000000000000000000000000000000000000000000000000000000000000000000000000000000000000000000000000000000000000000000000000000000000000000000000000000000000000000000000000000000000000000000000000000000000000000000000
310
00000000000000000000000000000000000000000000000000000000000000000000000000000000000000000000000000000000000000000000000000000000000000000000000000000000000000000000000000000000000000000000000000000000000000000000000000000000000000000000000000000000000000
310
00000000000000000000000000000000000000000000000000000000000000000000000000000000000000000000000000000000000000000000000000000000000000000000000000000000000000000000000000000000000000000000000000000000000000000000000000000000000000000000000000000000000000
310
00000000000000000000000000000000000000000000000000000000000000000000000000000000000000000000000000000000000000000000000000000000000000000000000000000000000000000000000000000000000000000000000000000000000000000000000000000000000000000000000000000000000000
310
00000000000000000000000000000000000000000000000000000000000000000000000000000000000000000000000000000000000000000000000000000000000000000000000000000000000000000000000000000000000000000000000000000000000000000000000000000000000000000000000000000000000000
310
00000000000000000000000000000000000000000000000000000000000000000000000000000000000000000000000000000000000000000000000000000000000000000000000000000000000000000000000000000000000000000000000000000000000000000000000000000000000000000000000000000000000000
310
00000000000000000000000000000000000000000000000000000000000000000000000000000000000000000000000000000000000000000000000000000000000000000000000000000000000000000000000000000000000000000000000000000000000000000000000000000000000000000000000000000000000000
310
00000000000000000000000000000000000000000000000000000000000000000000000000000000000000000000000000000000000000000000000000000000000000000000000000000000000000000000000000000000000000000000000000000000000000000000000000000000000000000000000000000000000000
310
00000000000000000000000000000000000000000000000000000000000000000000000000000000000000000000000000000000000000000000000000000000000000000000000000000000000000000000000000000000000000000000000000000000000000000000000000000000000000000000000000000000000000
310
00000000000000000000000000000000000000000000000000000000000000000000000000000000000000000000000000000000000000000000000000000000000000000000000000000000000000000000000000000000000000000000000000000000000000000000000000000000000000000000000000000000000000
310
00000000000000000000000000000000000000000000000000000000000000000000000000000000000000000000000000000000000000000000000000000000000000000000000000000000000000000000000000000000000000000000000000000000000000000000000000000000000000000000000000000000000000
310
000000000000000000000000000000000000000000000000000000000000000000000000000000000000000000000000000000000000000000000000000000000000000000000000000000000000000000000000000000000000000000000000000000000000000000000000
  0
ENDSEC
  0
EOF
