  0
SECTION
  2
HEADER
  9
$ACADVER
  1
AC1009
  9
$INSBASE
 10
0.0
 20
0.0
 30
0.0
  9
$EXTMAX
 10
20.663
 20
16.63
 30
0.0
  9
$EXTMIN
 10
-15.664
 20
-16.399
 30
0.0
  9
$LIMMAX
 10
12.0
 20
9.0
  9
$LIMMIN
 10
0.0
 20
0.0
  9
$ORTHOMODE
 70
0
  9
$REGENMODE
 70
1
  9
$FILLMODE
 70
1
  9
$QTEXTMODE
 70
0
  9
$MIRRTEXT
 70
1
  9
$DRAGMODE
 70
2
  9
$LTSCALE
 40
1.0
  9
$OSMODE
 70
0
  9
$ATTMODE
 70
1
  9
$TEXTSIZE
 40
0.2
  9
$TRACEWID
 40
0.05
  9
$TEXTSTYLE
  7
STANDARD
  9
$CLAYER
  8
0
  9
$CELTYPE
  6
CONTINUOUS
  9
$CECOLOR
 62
256
  9
$DIMSCALE
 40
1.0
  9
$DIMASZ
 40
0.18
  9
$DIMEXO
 40
0.0625
  9
$DIMDLI
 40
0.38
  9
$DIMRND
 40
0.0
  9
$DIMDLE
 40
0.0
  9
$DIMEXE
 40
0.18
  9
$DIMTP
 40
0.0
  9
$DIMTM
 40
0.0
  9
$DIMTXT
 40
0.18
  9
$DIMCEN
 40
0.09
  9
$DIMTSZ
 40
0.0
  9
$DIMTOL
 70
0
  9
$DIMLIM
 70
0
  9
$DIMTIH
 70
1
  9
$DIMTOH
 70
1
  9
$DIMSE1
 70
0
  9
$DIMSE2
 70
0
  9
$DIMTAD
 70
0
  9
$DIMZIN
 70
0
  9
$DIMBLK
  1

  9
$DIMASO
 70
1
  9
$DIMSHO
 70
1
  9
$DIMPOST
  1

  9
$DIMAPOST
  1

  9
$DIMALT
 70
0
  9
$DIMALTD
 70
2
  9
$DIMALTF
 40
25.4
  9
$DIMLFAC
 40
1.0
  9
$DIMTOFL
 70
0
  9
$DIMTVP
 40
0.0
  9
$DIMTIX
 70
0
  9
$DIMSOXD
 70
0
  9
$DIMSAH
 70
0
  9
$DIMBLK1
  1

  9
$DIMBLK2
  1

  9
$DIMSTYLE
  2
*UNNAMED
  9
$DIMCLRD
 70
0
  9
$DIMCLRE
 70
0
  9
$DIMCLRT
 70
0
  9
$DIMTFAC
 40
1.0
  9
$DIMGAP
 40
0.09
  9
$LUNITS
 70
2
  9
$LUPREC
 70
4
  9
$AXISMODE
 70
0
  9
$AXISUNIT
 10
0.0
 20
0.0
  9
$SKETCHINC
 40
0.1
  9
$FILLETRAD
 40
0.0
  9
$AUNITS
 70
0
  9
$AUPREC
 70
0
  9
$MENU
  1
acad
  9
$ELEVATION
 40
0.0
  9
$PELEVATION
 40
0.0
  9
$THICKNESS
 40
0.0
  9
$LIMCHECK
 70
0
  9
$BLIPMODE
 70
1
  9
$CHAMFERA
 40
0.0
  9
$CHAMFERB
 40
0.0
  9
$SKPOLY
 70
0
  9
$TDCREATE
 40
0.0
  9
$TDUPDATE
 40
0.0
  9
$TDINDWG
 40
0.0
  9
$TDUSRTIMER
 40
0.0
  9
$USRTIMER
 70
1
  9
$ANGBASE
 50
0.0
  9
$ANGDIR
 70
0
  9
$PDMODE
 70
0
  9
$PDSIZE
 40
0.0
  9
$PLINEWID
 40
0.0
  9
$COORDS
 70
0
  9
$SPLFRAME
 70
0
  9
$SPLINETYPE
 70
6
  9
$SPLINESEGS
 70
10
  9
$ATTDIA
 70
0
  9
$ATTREQ
 70
1
  9
$HANDLING
 70
1
  9
$HANDSEED
  5
168
  9
$SURFTAB1
 70
6
  9
$SURFTAB2
 70
6
  9
$SURFTYPE
 70
6
  9
$SURFU
 70
10
  9
$SURFV
 70
10
  9
$UCSNAME
  2

  9
$UCSORG
 10
0.0
 20
0.0
 30
0.0
  9
$UCSXDIR
 10
1.0
 20
0.0
 30
0.0
  9
$UCSYDIR
 10
0.0
 20
1.0
 30
0.0
  9
$PUCSNAME
  2
 
  9
$PUCSORG
 10
0.0
 20
0.0
 30
0.0
  9
$PUCSXDIR
 10
1.0
 20
0.0
 30
0.0
  9
$PUCSYDIR
 10
0.0
 20
1.0
 30
0.0
  9
$USERI1
 70
0
  9
$USERI2
 70
0
  9
$USERI3
 70
0
  9
$USERI4
 70
0
  9
$USERI5
 70
0
  9
$USERR1
 40
0.0
  9
$USERR2
 40
0.0
  9
$USERR3
 40
0.0
  9
$USERR4
 40
0.0
  9
$USERR5
 40
0.0
  9
$WORLDVIEW
 70
1
  9
$SHADEDGE
 70
3
  9
$SHADEDIF
 70
70
  9
$TILEMODE
 70
1
  9
$MAXACTVP
 70
16
  9
$PINSBASE
 10
0.0
 20
0.0
 30
0.0
  9
$PLIMCHECK
 70
0
  9
$PEXTMIN
 10
-1.000000E+020
 20
-1.000000E+020
 30
-1.000000E+020
  9
$PEXTMAX
 10
-1.000000E+020
 20
-1.000000E+020
 30
-1.000000E+020
  9
$PLIMMIN
 10
0.0
 20
0.0
  9
$PLIMMAX
 10
12.0
 20
9.0
  9
$UNITMODE
 70
0
  9
$VISRETAIN
 70
0
  0
ENDSEC
  0
SECTION
  2
TABLES
  0
TABLE
  2
LTYPE
 70
7
  0
LTYPE
  2
CONTINUOUS
 70
64
  3
Solid line
 72
65
 73
0
 40
0.0
  0
LTYPE
  2
DOT
 70
64
  3
. . . . . . . . . . . . . . . . . . . . . . . . . . . . . . . . .
 72
65
 73
2
 40
0.25
 49
0.0
 49
-0.25
  0
LTYPE
  2
HIDDEN
 70
64
  3
__ __ __ __ __ __ __ __ __ __ __ __ __ __ __ __ __ __ __ __ __ 
 72
65
 73
2
 40
0.375
 49
0.25
 49
-0.125
  0
LTYPE
  2
DASHED
 70
64
  3
__ __ __ __ __ __ __ __ __ __ __ __ __ __ __ __ __ __ __ __ __
 72
65
 73
2
 40
0.75
 49
0.5
 49
-0.25
  0
LTYPE
  2
DASHDOT
 70
64
  3
__ . __ . __ . __ . __ . __ . __ . __ . __ . __ . __ . __ . _
 72
65
 73
4
 40
1.0
 49
0.5
 49
-0.25
 49
0.0
 49
-0.25
  0
LTYPE
  2
DIVIDE
 70
64
  3
____ . . ____ . . ____ . . ____ . . ____ . . ____ . . ____ . .
 72
65
 73
6
 40
1.25
 49
0.5
 49
-0.25
 49
0.0
 49
-0.25
 49
0.0
 49
-0.25
  0
LTYPE
  2
CENTER
 70
64
  3
____ _ ____ _ ____ _ ____ _ ____ _ ____ _ ____ _ ____ _ ____ _
 72
65
 73
4
 40
2.0
 49
1.25
 49
-0.25
 49
0.25
 49
-0.25
  0
ENDTAB
  0
TABLE
  2
APPID
 70
1
  0
APPID
  2
ACAD
 70
0
  0
ENDTAB
  0
TABLE
  2
DIMSTYLE
 70
0
  0
ENDTAB
  0
TABLE
  2
LAYER
 70
4
  0
LAYER
  2
0
 70
0
 62
7
  6
CONTINUOUS
  0
LAYER
  2
CONSTRUCTION_CLASS
 70
0
 62
7
  6
CONTINUOUS
  0
LAYER
  2
PATTERN_CLASS
 70
0
 62
7
  6
CONTINUOUS
  0
LAYER
  2
0
 70
0
 62
7
  6
CONTINUOUS
  0
ENDTAB
  0
TABLE
  2
STYLE
 70
1
  0
STYLE
  2
STANDARD
 70
0
 40
0.2
 41
1.0
 50
0.0
 71
0
 42
0.0
  3
txt
  4

  0
ENDTAB
  0
TABLE
  2
UCS
 70
0
  0
ENDTAB
  0
TABLE
  2
VIEW
 70
0
  0
ENDTAB
  0
TABLE
  2
VPORT
 70
1
  0
VPORT
  2
*ACTIVE
 70
0
 10
0.0
 20
0.0
 11
1.0
 21
1.0
 12
0.0
 22
0.0
 13
0.0
 23
0.0
 14
0.0
 24
0.0
 15
0.0
 25
0.0
 16
0.0
 26
0.0
 36
1.0
 17
1.533488
 27
0.1235
 37
0.0
 40
33.871
 41
1.336039
 42
50.0
 43
0.004
 44
0.0
 50
0.0
 51
0.0
 71
0
 72
100
 73
1
 74
0
 75
0
 76
0
 77
0
 78
0
  0
ENDTAB
  0
ENDSEC
  0
SECTION
  2
BLOCKS
  0
ENDSEC
  0
SECTION
  2
ENTITIES
  0
LINE
  8
0
  5
2
  6
CONTINUOUS
 62
7
 10
5.802
 20
16.63
 30
0.0
 11
8.583
 21
13.574
 31
0.0
  0
LINE
  8
0
  5
4
  6
CONTINUOUS
 62
7
 10
5.068
 20
15.962
 30
0.0
 11
7.306
 21
13.502
 31
0.0
  0
LINE
  8
0
  5
6
  6
CONTINUOUS
 62
7
 10
2.588
 20
2.985
 30
0.0
 11
13.914
 21
-9.576
 31
0.0
  0
LINE
  8
0
  5
8
  6
CONTINUOUS
 62
7
 10
7.306
 20
13.502
 30
0.0
 11
2.389
 21
4.728
 31
0.0
  0
LINE
  8
0
  5
A
  6
CONTINUOUS
 62
7
 10
8.757
 20
7.348
 30
0.0
 11
3.566
 21
2.626
 31
0.0
  0
LINE
  8
0
  5
C
  6
CONTINUOUS
 62
7
 10
2.872
 20
3.388
 30
0.0
 11
14.565
 21
-9.576
 31
0.0
  0
LINE
  8
0
  5
E
  6
CONTINUOUS
 62
7
 10
8.094
 20
8.138
 30
0.0
 11
2.519
 21
3.066
 31
0.0
  0
LINE
  8
0
  5
10
  6
CONTINUOUS
 62
7
 10
6.435
 20
-1.356
 30
0.0
 11
2.546
 21
-6.13
 31
0.0
  0
LINE
  8
0
  5
12
  6
CONTINUOUS
 62
7
 10
6.867
 20
-1.816
 30
0.0
 11
3.031
 21
-6.526
 31
0.0
  0
LINE
  8
0
  5
14
  6
CONTINUOUS
 62
7
 10
-1.418
 20
-10.778
 30
0.0
 11
15.798
 21
-10.778
 31
0.0
  0
ARC
  8
0
  5
16
  6
CONTINUOUS
 62
7
 10
7.324704
 20
-13.852556
 30
0.0
 40
2.393486
 50
235.8136277778
 51
17.4224277778
  0
CIRCLE
  8
0
  5
18
  6
CONTINUOUS
 62
7
 10
7.324704
 20
-13.852556
 30
0.0
 40
1.263091
  0
CIRCLE
  8
0
  5
1A
  6
CONTINUOUS
 62
7
 10
7.324704
 20
-13.852556
 30
0.0
 40
1.421296
  0
CIRCLE
  8
0
  5
1C
  6
CONTINUOUS
 62
7
 10
7.324704
 20
-13.852556
 30
0.0
 40
2.544716
  0
ARC
  8
0
  5
1E
  6
CONTINUOUS
 62
7
 10
7.324704
 20
-13.852556
 30
0.0
 40
2.393486
 50
80.6929222222
 51
134.0969833333
  0
LINE
  8
0
  5
20
  6
CONTINUOUS
 62
7
 10
-12.344
 20
-3.444
 30
0.0
 11
-9.848
 21
-3.444
 31
0.0
  0
LINE
  8
0
  5
22
  6
CONTINUOUS
 62
7
 10
-12.138
 20
-6.273
 30
0.0
 11
-9.307
 21
-6.273
 31
0.0
  0
LINE
  8
0
  5
24
  6
CONTINUOUS
 62
7
 10
-6.677
 20
-3.148
 30
0.0
 11
-12.348
 21
-3.148
 31
0.0
  0
LINE
  8
0
  5
26
  6
CONTINUOUS
 62
7
 10
-15.184
 20
-9.596
 30
0.0
 11
-6.234
 21
-9.596
 31
0.0
  0
LINE
  8
0
  5
28
  6
CONTINUOUS
 62
7
 10
-11.674
 20
-2.983
 30
0.0
 11
-6.649
 21
-2.983
 31
0.0
  0
ARC
  8
0
  5
2A
  6
CONTINUOUS
 62
7
 10
-9.548351
 20
-33.322758
 30
0.0
 40
30.599463
 50
84.8108027778
 51
97.3144444444
  0
LINE
  8
0
  5
2C
  6
CONTINUOUS
 62
7
 10
-11.934
 20
-6.512
 30
0.0
 11
-6.175
 21
-6.512
 31
0.0
  0
CIRCLE
  8
0
  5
2E
  6
CONTINUOUS
 62
7
 10
-9.007465
 20
-13.855275
 30
0.0
 40
1.421296
  0
ARC
  8
0
  5
30
  6
CONTINUOUS
 62
7
 10
-9.007465
 20
-13.855275
 30
0.0
 40
2.393486
 50
235.8136277778
 51
17.4224277778
  0
ARC
  8
0
  5
32
  6
CONTINUOUS
 62
7
 10
-9.052995
 20
-13.018741
 30
0.0
 40
3.376073
 50
2.2378888889
 51
176.9378694444
  0
ARC
  8
0
  5
34
  6
CONTINUOUS
 62
7
 10
-9.03434
 20
-13.610745
 30
0.0
 40
3.030269
 50
12.7947638889
 51
166.4927138889
  0
CIRCLE
  8
0
  5
36
  6
CONTINUOUS
 62
7
 10
-9.007465
 20
-13.855275
 30
0.0
 40
2.544716
  0
ARC
  8
0
  5
38
  6
CONTINUOUS
 62
7
 10
-9.007465
 20
-13.855275
 30
0.0
 40
2.393486
 50
80.6929222222
 51
134.0969833333
  0
LINE
  8
0
  5
3A
  6
CONTINUOUS
 62
7
 10
-13.058
 20
-6.512
 30
0.0
 11
-12.802
 21
-10.834
 31
0.0
  0
ARC
  8
0
  5
3C
  6
CONTINUOUS
 62
7
 10
-15.13987
 20
-10.21565
 30
0.0
 40
0.236773
 50
100.646175
 51
190.8583083333
  0
LINE
  8
0
  5
3E
  6
CONTINUOUS
 62
7
 10
-15.574
 20
-10.86
 30
0.0
 11
-11.649
 21
-10.86
 31
0.0
  0
LINE
  8
0
  5
40
  6
CONTINUOUS
 62
7
 10
-14.824
 20
-11.174
 30
0.0
 11
-11.88
 21
-11.174
 31
0.0
  0
LINE
  8
0
  5
42
  6
CONTINUOUS
 62
7
 10
-15.574
 20
-13.463
 30
0.0
 11
-12.932
 21
-13.463
 31
0.0
  0
LINE
  8
0
  5
44
  6
CONTINUOUS
 62
7
 10
-15.372
 20
-10.26
 30
0.0
 11
-15.428
 21
-10.86
 31
0.0
  0
ARC
  8
0
  5
46
  6
CONTINUOUS
 62
7
 10
-15.573696
 20
-10.950542
 30
0.0
 40
0.09
 50
90.0
 51
180.0
  0
ARC
  8
0
  5
48
  6
CONTINUOUS
 62
7
 10
-15.573696
 20
-13.37297
 30
0.0
 40
0.09
 50
180.0
 51
270.0
  0
LINE
  8
0
  5
4A
  6
CONTINUOUS
 62
7
 10
-15.664
 20
-10.95
 30
0.0
 11
-15.664
 21
-13.373
 31
0.0
  0
ARC
  8
0
  5
4C
  6
CONTINUOUS
 62
7
 10
-12.19957
 20
-12.850414
 30
0.0
 40
0.225
 50
176.9378694444
 51
346.4927138889
  0
ARC
  8
0
  5
4E
  6
CONTINUOUS
 62
7
 10
-12.931617
 20
-13.37297
 30
0.0
 40
0.09
 50
270.0
 51
360.0
  0
LINE
  8
0
  5
50
  6
CONTINUOUS
 62
7
 10
-12.842
 20
-13.165
 30
0.0
 11
-11.254
 21
-13.003
 31
0.0
  0
LINE
  8
0
  5
52
  6
CONTINUOUS
 62
7
 10
-12.842
 20
-13.373
 30
0.0
 11
-12.842
 21
-11.172
 31
0.0
  0
LINE
  8
0
  5
54
  6
CONTINUOUS
 62
7
 10
-12.222
 20
-3.469
 30
0.0
 11
-12.18
 21
-3.826
 31
0.0
  0
LINE
  8
0
  5
56
  6
CONTINUOUS
 62
7
 10
-12.421
 20
-3.537
 30
0.0
 11
-12.421
 21
-3.673
 31
0.0
  0
LINE
  8
0
  5
58
  6
CONTINUOUS
 62
7
 10
-13.954
 20
-3.426
 30
0.0
 11
-13.29
 21
-6.048
 31
0.0
  0
ARC
  8
0
  5
5A
  6
CONTINUOUS
 62
7
 10
-13.211375
 20
-3.598175
 30
0.0
 40
0.09
 50
94.1927305556
 51
194.2156166667
  0
LINE
  8
0
  5
5C
  6
CONTINUOUS
 62
7
 10
-15.184
 20
-9.983
 30
0.0
 11
-12.993
 21
-9.983
 31
0.0
  0
LINE
  8
0
  5
5E
  6
CONTINUOUS
 62
7
 10
-14.468
 20
-6.273
 30
0.0
 11
-13.232
 21
-6.273
 31
0.0
  0
ARC
  8
0
  5
60
  6
CONTINUOUS
 62
7
 10
-14.283612
 20
-7.412218
 30
0.0
 40
0.9
 50
90.0
 51
180.0
  0
ARC
  8
0
  5
62
  6
CONTINUOUS
 62
7
 10
-14.247893
 20
-7.39625
 30
0.0
 40
0.200251
 50
127.6393361111
 51
239.3446888889
  0
LINE
  8
0
  5
64
  6
CONTINUOUS
 62
7
 10
-15.184
 20
-7.412
 30
0.0
 11
-15.184
 21
-9.983
 31
0.0
  0
LINE
  8
0
  5
66
  6
CONTINUOUS
 62
7
 10
-14.492
 20
-6.536
 30
0.0
 11
-14.468
 21
-6.273
 31
0.0
  0
LINE
  8
0
  5
68
  6
CONTINUOUS
 62
7
 10
-12.436
 20
-3.64
 30
0.0
 11
-12.591
 21
-3.64
 31
0.0
  0
LINE
  8
0
  5
6A
  6
CONTINUOUS
 62
7
 10
-12.591
 20
-3.64
 30
0.0
 11
-12.591
 21
-6.194
 31
0.0
  0
LINE
  8
0
  5
6C
  6
CONTINUOUS
 62
7
 10
-12.591
 20
-6.194
 30
0.0
 11
-12.365
 21
-6.194
 31
0.0
  0
LINE
  8
0
  5
6E
  6
CONTINUOUS
 62
7
 10
-12.308
 20
-6.074
 30
0.0
 11
-12.436
 21
-6.074
 31
0.0
  0
LINE
  8
0
  5
70
  6
CONTINUOUS
 62
7
 10
-12.436
 20
-6.074
 30
0.0
 11
-12.436
 21
-3.64
 31
0.0
  0
LINE
  8
0
  5
72
  6
CONTINUOUS
 62
7
 10
-12.18
 20
-3.826
 30
0.0
 11
-12.18
 21
-6.194
 31
0.0
  0
LINE
  8
0
  5
74
  6
CONTINUOUS
 62
7
 10
-12.18
 20
-3.81
 30
0.0
 11
-11.968
 21
-3.81
 31
0.0
  0
LINE
  8
0
  5
76
  6
CONTINUOUS
 62
7
 10
-11.968
 20
-3.81
 30
0.0
 11
-11.968
 21
-3.929
 31
0.0
  0
LINE
  8
0
  5
78
  6
CONTINUOUS
 62
7
 10
-11.968
 20
-3.929
 30
0.0
 11
-12.166
 21
-3.929
 31
0.0
  0
LINE
  8
0
  5
7A
  6
CONTINUOUS
 62
7
 10
-12.421
 20
-3.673
 30
0.0
 11
-12.124
 21
-3.673
 31
0.0
  0
LINE
  8
0
  5
7C
  6
CONTINUOUS
 62
7
 10
-13.738
 20
-3.821
 30
0.0
 11
-13.146
 21
-6.161
 31
0.0
  0
ARC
  8
0
  5
7E
  6
CONTINUOUS
 62
7
 10
-13.377129
 20
-6.070378
 30
0.0
 40
0.09
 50
270.0
 51
14.2156166667
  0
LINE
  8
0
  5
80
  6
CONTINUOUS
 62
7
 10
-14.389
 20
-6.16
 30
0.0
 11
-13.377
 21
-6.16
 31
0.0
  0
LINE
  8
0
  5
82
  6
CONTINUOUS
 62
7
 10
-12.626
 20
-6.273
 30
0.0
 11
-12.302
 21
-6.273
 31
0.0
  0
ARC
  8
0
  5
84
  6
CONTINUOUS
 62
7
 10
-11.7837
 20
-6.803966
 30
0.0
 40
0.078086
 50
223.6046583333
 51
56.8389722222
  0
LINE
  8
0
  5
86
  6
CONTINUOUS
 62
7
 10
-14.37
 20
-7.238
 30
0.0
 11
-14.35
 21
-7.568
 31
0.0
  0
LINE
  8
0
  5
88
  6
CONTINUOUS
 62
7
 10
-14.35
 20
-7.568
 30
0.0
 11
-14.056
 21
-7.45
 31
0.0
  0
LINE
  8
0
  5
8A
  6
CONTINUOUS
 62
7
 10
-14.056
 20
-7.45
 30
0.0
 11
-14.076
 21
-7.333
 31
0.0
  0
LINE
  8
0
  5
8C
  6
CONTINUOUS
 62
7
 10
-14.076
 20
-7.333
 30
0.0
 11
-14.37
 21
-7.238
 31
0.0
  0
LINE
  8
0
  5
8E
  6
CONTINUOUS
 62
7
 10
-14.284
 20
-6.512
 30
0.0
 11
-12.113
 21
-6.512
 31
0.0
  0
LINE
  8
0
  5
90
  6
CONTINUOUS
 62
7
 10
-14.37
 20
-6.273
 30
0.0
 11
-13.796
 21
-4.048
 31
0.0
  0
LINE
  8
0
  5
92
  6
CONTINUOUS
 62
7
 10
-13.298
 20
-3.62
 30
0.0
 11
-12.626
 21
-6.273
 31
0.0
  0
ARC
  8
0
  5
94
  6
CONTINUOUS
 62
7
 10
-13.232576
 20
-6.182878
 30
0.0
 40
0.09
 50
270.0
 51
14.2156166667
  0
LINE
  8
0
  5
96
  6
CONTINUOUS
 62
7
 10
-12.365
 20
-6.194
 30
0.0
 11
-11.84
 21
-6.858
 31
0.0
  0
LINE
  8
0
  5
98
  6
CONTINUOUS
 62
7
 10
-11.741
 20
-6.738
 30
0.0
 11
-12.308
 21
-6.074
 31
0.0
  0
LINE
  8
0
  5
9A
  6
CONTINUOUS
 62
7
 10
-12.222
 20
-3.537
 30
0.0
 11
-12.421
 21
-3.537
 31
0.0
  0
ARC
  8
0
  5
9C
  6
CONTINUOUS
 62
7
 10
-13.823482
 20
-3.392201
 30
0.0
 40
0.135
 50
94.1927305556
 51
194.2156166667
  0
ARC
  8
0
  5
9E
  6
CONTINUOUS
 62
7
 10
-13.468762
 20
-3.43271
 30
0.0
 40
0.456261
 50
86.8249138889
 51
160.463875
  0
LINE
  8
0
  5
A0
  6
CONTINUOUS
 62
7
 10
-12.348
 20
-3.148
 30
0.0
 11
-13.834
 21
-3.258
 31
0.0
  0
LINE
  8
0
  5
A2
  6
CONTINUOUS
 62
7
 10
-11.674
 20
-2.983
 30
0.0
 11
-13.602
 21
-3.124
 31
0.0
  0
LINE
  8
0
  5
A4
  6
CONTINUOUS
 62
7
 10
-12.344
 20
-3.444
 30
0.0
 11
-13.218
 21
-3.508
 31
0.0
  0
LINE
  8
0
  5
A6
  6
CONTINUOUS
 62
7
 10
-1.18
 20
-9.869
 30
0.0
 11
-0.064
 21
-10.778
 31
0.0
  0
LINE
  8
0
  5
A8
  6
CONTINUOUS
 62
7
 10
3.57
 20
-6.964
 30
0.0
 11
0.463
 21
-10.778
 31
0.0
  0
LINE
  8
0
  5
AA
  6
CONTINUOUS
 62
7
 10
-6.098
 20
-10.849
 30
0.0
 11
-6.098
 21
-9.732
 31
0.0
  0
LINE
  8
0
  5
AC
  6
CONTINUOUS
 62
7
 10
-1.824
 20
-10.544
 30
0.0
 11
-2.188
 21
-10.544
 31
0.0
  0
LINE
  8
0
  5
AE
  6
CONTINUOUS
 62
7
 10
-2.188
 20
-13.463
 30
0.0
 11
-1.824
 21
-13.463
 31
0.0
  0
LINE
  8
0
  5
B0
  6
CONTINUOUS
 62
7
 10
-6.528
 20
-10.778
 30
0.0
 11
-5.271
 21
-10.778
 31
0.0
  0
LINE
  8
0
  5
B2
  6
CONTINUOUS
 62
7
 10
-6.097
 20
-12.866
 30
0.0
 11
-6.702
 21
-12.779
 31
0.0
  0
CIRCLE
  8
0
  5
B4
  6
CONTINUOUS
 62
7
 10
-9.007465
 20
-13.855275
 30
0.0
 40
0.349246
  0
CIRCLE
  8
0
  5
B6
  6
CONTINUOUS
 62
7
 10
-9.007465
 20
-13.855275
 30
0.0
 40
1.263091
  0
CIRCLE
  8
0
  5
B8
  6
CONTINUOUS
 62
7
 10
-9.007465
 20
-13.855275
 30
0.0
 40
0.446118
  0
LINE
  8
0
  5
BA
  6
CONTINUOUS
 62
7
 10
-4.182
 20
-10.544
 30
0.0
 11
-3.77
 21
-10.544
 31
0.0
  0
LINE
  8
0
  5
BC
  6
CONTINUOUS
 62
7
 10
-5.031
 20
-10.632
 30
0.0
 11
-4.838
 21
-10.632
 31
0.0
  0
ARC
  8
0
  5
BE
  6
CONTINUOUS
 62
7
 10
-5.031171
 20
-10.902662
 30
0.0
 40
0.27
 50
90.0
 51
180.0
  0
LINE
  8
0
  5
C0
  6
CONTINUOUS
 62
7
 10
-4.475
 20
-10.544
 30
0.0
 11
-4.838
 21
-10.544
 31
0.0
  0
LINE
  8
0
  5
C2
  6
CONTINUOUS
 62
7
 10
-4.475
 20
-10.632
 30
0.0
 11
-2.188
 21
-10.632
 31
0.0
  0
LINE
  8
0
  5
C4
  6
CONTINUOUS
 62
7
 10
-5.031
 20
-13.347
 30
0.0
 11
-4.838
 21
-13.347
 31
0.0
  0
ARC
  8
0
  5
C6
  6
CONTINUOUS
 62
7
 10
-5.031171
 20
-13.076918
 30
0.0
 40
0.27
 50
180.0
 51
270.0
  0
LINE
  8
0
  5
C8
  6
CONTINUOUS
 62
7
 10
-4.838
 20
-13.463
 30
0.0
 11
-4.475
 21
-13.463
 31
0.0
  0
LINE
  8
0
  5
CA
  6
CONTINUOUS
 62
7
 10
-5.301
 20
-12.98
 30
0.0
 11
-5.682
 21
-12.926
 31
0.0
  0
ARC
  8
0
  5
CC
  6
CONTINUOUS
 62
7
 10
-5.881842
 20
-12.894818
 30
0.0
 40
0.2025
 50
192.7947638889
 51
2.2378888889
  0
LINE
  8
0
  5
CE
  6
CONTINUOUS
 62
7
 10
-4.475
 20
-13.347
 30
0.0
 11
-2.188
 21
-13.347
 31
0.0
  0
LINE
  8
0
  5
D0
  6
CONTINUOUS
 62
7
 10
-5.301
 20
-10.902
 30
0.0
 11
-5.301
 21
-13.077
 31
0.0
  0
LINE
  8
0
  5
D2
  6
CONTINUOUS
 62
7
 10
-4.838
 20
-10.544
 30
0.0
 11
-4.838
 21
-13.463
 31
0.0
  0
LINE
  8
0
  5
D4
  6
CONTINUOUS
 62
7
 10
-4.475
 20
-13.463
 30
0.0
 11
-4.475
 21
-10.544
 31
0.0
  0
LINE
  8
0
  5
D6
  6
CONTINUOUS
 62
7
 10
-2.188
 20
-10.544
 30
0.0
 11
-2.188
 21
-13.463
 31
0.0
  0
LINE
  8
0
  5
D8
  6
CONTINUOUS
 62
7
 10
5.046
 20
-12.72
 30
0.0
 11
-1.216
 21
-12.53
 31
0.0
  0
LINE
  8
0
  5
DA
  6
CONTINUOUS
 62
7
 10
-1.216
 20
-12.53
 30
0.0
 11
5.151
 21
-12.53
 31
0.0
  0
LINE
  8
0
  5
DC
  6
CONTINUOUS
 62
7
 10
4.818
 20
-13.417
 30
0.0
 11
-1.388
 21
-13.074
 31
0.0
  0
LINE
  8
0
  5
DE
  6
CONTINUOUS
 62
7
 10
-0.77
 20
-10.203
 30
0.0
 11
-1.238
 21
-10.778
 31
0.0
  0
LINE
  8
0
  5
E0
  6
CONTINUOUS
 62
7
 10
-0.286
 20
-10.598
 30
0.0
 11
-0.432
 21
-10.778
 31
0.0
  0
ARC
  8
0
  5
E2
  6
CONTINUOUS
 62
7
 10
-1.657465
 20
-10.902662
 30
0.0
 40
0.27
 50
0.0
 51
90.0
  0
LINE
  8
0
  5
E4
  6
CONTINUOUS
 62
7
 10
-1.824
 20
-10.632
 30
0.0
 11
-1.658
 21
-10.632
 31
0.0
  0
ARC
  8
0
  5
E6
  6
CONTINUOUS
 62
7
 10
-1.657465
 20
-13.076918
 30
0.0
 40
0.27
 50
270.0
 51
360.0
  0
LINE
  8
0
  5
E8
  6
CONTINUOUS
 62
7
 10
-1.824
 20
-13.347
 30
0.0
 11
-1.658
 21
-13.347
 31
0.0
  0
LINE
  8
0
  5
EA
  6
CONTINUOUS
 62
7
 10
-1.388
 20
-10.902
 30
0.0
 11
-1.388
 21
-13.077
 31
0.0
  0
LINE
  8
0
  5
EC
  6
CONTINUOUS
 62
7
 10
-1.824
 20
-13.463
 30
0.0
 11
-1.824
 21
-10.544
 31
0.0
  0
LINE
  8
0
  5
EE
  6
CONTINUOUS
 62
7
 10
-7.16
 20
-3.516
 30
0.0
 11
-6.62
 21
-6.165
 31
0.0
  0
LINE
  8
0
  5
F0
  6
CONTINUOUS
 62
7
 10
-9.379
 20
-3.552
 30
0.0
 11
-8.838
 21
-6.201
 31
0.0
  0
LINE
  8
0
  5
F2
  6
CONTINUOUS
 62
7
 10
-9.76
 20
-3.516
 30
0.0
 11
-9.219
 21
-6.165
 31
0.0
  0
LINE
  8
0
  5
F4
  6
CONTINUOUS
 62
7
 10
-6.285
 20
-6.298
 30
0.0
 11
-6.362
 21
-3.464
 31
0.0
  0
LINE
  8
0
  5
F6
  6
CONTINUOUS
 62
7
 10
-9.623
 20
-3.148
 30
0.0
 11
-8.969
 21
-6.35
 31
0.0
  0
ARC
  8
0
  5
F8
  6
CONTINUOUS
 62
7
 10
-6.23371
 20
-9.731319
 30
0.0
 40
0.135
 50
0.0
 51
90.0
  0
ARC
  8
0
  5
FA
  6
CONTINUOUS
 62
7
 10
-6.390291
 20
-6.487609
 30
0.0
 40
0.216556
 50
353.47465
 51
82.5547138889
  0
LINE
  8
0
  5
FC
  6
CONTINUOUS
 62
7
 10
-8.969
 20
-6.35
 30
0.0
 11
-8.969
 21
-9.568
 31
0.0
  0
LINE
  8
0
  5
FE
  6
CONTINUOUS
 62
7
 10
-9.702
 20
-6.884
 30
0.0
 11
-9.662
 21
-6.814
 31
0.0
  0
LINE
  8
0
  5
100
  6
CONTINUOUS
 62
7
 10
-9.662
 20
-6.814
 30
0.0
 11
-9.212
 21
-6.814
 31
0.0
  0
LINE
  8
0
  5
102
  6
CONTINUOUS
 62
7
 10
-9.212
 20
-6.814
 30
0.0
 11
-9.212
 21
-6.908
 31
0.0
  0
LINE
  8
0
  5
104
  6
CONTINUOUS
 62
7
 10
-8.75
 20
-6.273
 30
0.0
 11
-6.708
 21
-6.273
 31
0.0
  0
ARC
  8
0
  5
106
  6
CONTINUOUS
 62
7
 10
-6.70752
 20
-6.182878
 30
0.0
 40
0.09
 50
270.0
 51
11.5437305556
  0
ARC
  8
0
  5
108
  6
CONTINUOUS
 62
7
 10
-9.306983
 20
-6.182878
 30
0.0
 40
0.09
 50
270.0
 51
11.5437305556
  0
ARC
  8
0
  5
10A
  6
CONTINUOUS
 62
7
 10
-8.749778
 20
-6.182878
 30
0.0
 40
0.09
 50
191.5437305556
 51
270.0
  0
LINE
  8
0
  5
10C
  6
CONTINUOUS
 62
7
 10
-6.175
 20
-9.596
 30
0.0
 11
-6.175
 21
-6.463
 31
0.0
  0
LINE
  8
0
  5
10E
  6
CONTINUOUS
 62
7
 10
-6.175
 20
-7.494
 30
0.0
 11
-5.952
 21
-7.494
 31
0.0
  0
LINE
  8
0
  5
110
  6
CONTINUOUS
 62
7
 10
-5.952
 20
-7.494
 30
0.0
 11
-5.952
 21
-8.043
 31
0.0
  0
LINE
  8
0
  5
112
  6
CONTINUOUS
 62
7
 10
-5.952
 20
-8.043
 30
0.0
 11
-6.175
 21
-8.043
 31
0.0
  0
LINE
  8
0
  5
114
  6
CONTINUOUS
 62
7
 10
-5.862
 20
-7.623
 30
0.0
 11
-5.936
 21
-7.524
 31
0.0
  0
ARC
  8
0
  5
116
  6
CONTINUOUS
 62
7
 10
-6.67723
 20
-3.463651
 30
0.0
 40
0.315
 50
0.0
 51
90.0
  0
ARC
  8
0
  5
118
  6
CONTINUOUS
 62
7
 10
-7.248485
 20
-3.534302
 30
0.0
 40
0.09
 50
11.5437305556
 51
90.0
  0
LINE
  8
0
  5
11A
  6
CONTINUOUS
 62
7
 10
-6.517
 20
-3.02
 30
0.0
 11
-6.498
 21
-3.204
 31
0.0
  0
ARC
  8
0
  5
11C
  6
CONTINUOUS
 62
7
 10
-6.741292
 20
-3.076513
 30
0.0
 40
0.231204
 50
14.0789472222
 51
99.836175
  0
ARC
  8
0
  5
11E
  6
CONTINUOUS
 62
7
 10
-9.847948
 20
-3.534302
 30
0.0
 40
0.09
 50
11.5437305556
 51
90.0
  0
ARC
  8
0
  5
120
  6
CONTINUOUS
 62
7
 10
-9.290742
 20
-3.534302
 30
0.0
 40
0.09
 50
90.0
 51
191.5437305556
  0
LINE
  8
0
  5
122
  6
CONTINUOUS
 62
7
 10
-9.29
 20
-3.444
 30
0.0
 11
-7.248
 21
-3.444
 31
0.0
  0
LINE
  8
0
  5
124
  6
CONTINUOUS
 62
7
 10
2.136
 20
-5.796
 30
0.0
 11
-1.18
 21
-9.869
 31
0.0
  0
LINE
  8
0
  5
126
  6
CONTINUOUS
 62
7
 10
2.136
 20
-5.796
 30
0.0
 11
3.57
 21
-6.964
 31
0.0
  0
ARC
  8
0
  5
128
  6
CONTINUOUS
 62
7
 10
3.697281
 20
3.994256
 30
0.0
 40
1.5
 50
150.7304222222
 51
222.2954722222
  0
LINE
  8
0
  5
12A
  6
CONTINUOUS
 62
7
 10
5.802
 20
16.63
 30
0.0
 11
5.068
 21
15.962
 31
0.0
  0
LINE
  8
0
  5
12C
  6
CONTINUOUS
 62
7
 10
8.086
 20
8.086
 30
0.0
 11
20.663
 21
-5.85
 31
0.0
  0
LINE
  8
0
  5
12E
  6
CONTINUOUS
 62
7
 10
7.586
 20
7.676
 30
0.0
 11
20.185
 21
-6.285
 31
0.0
  0
LINE
  8
0
  5
130
  6
CONTINUOUS
 62
7
 10
15.706
 20
-10.806
 30
0.0
 11
15.817
 21
-9.576
 31
0.0
  0
LINE
  8
0
  5
132
  6
CONTINUOUS
 62
7
 10
20.44
 20
-6.054
 30
0.0
 11
20.44
 21
-11.03
 31
0.0
  0
LINE
  8
0
  5
134
  6
CONTINUOUS
 62
7
 10
20.663
 20
-5.85
 30
0.0
 11
20.663
 21
-11.03
 31
0.0
  0
LINE
  8
0
  5
136
  6
CONTINUOUS
 62
7
 10
20.663
 20
-5.85
 30
0.0
 11
15.75
 21
-10.32
 31
0.0
  0
LINE
  8
0
  5
138
  6
CONTINUOUS
 62
7
 10
13.804
 20
-9.576
 30
0.0
 11
12.127
 21
-10.806
 31
0.0
  0
ARC
  8
0
  5
13A
  6
CONTINUOUS
 62
7
 10
12.648855
 20
-13.852556
 30
0.0
 40
2.393486
 50
235.8136277778
 51
17.4224277778
  0
CIRCLE
  8
0
  5
13C
  6
CONTINUOUS
 62
7
 10
12.648855
 20
-13.852556
 30
0.0
 40
2.544716
  0
LINE
  8
0
  5
13E
  6
CONTINUOUS
 62
7
 10
10.37
 20
-12.72
 30
0.0
 11
9.446
 21
-12.53
 31
0.0
  0
LINE
  8
0
  5
140
  6
CONTINUOUS
 62
7
 10
9.446
 20
-12.53
 30
0.0
 11
10.475
 21
-12.53
 31
0.0
  0
LINE
  8
0
  5
142
  6
CONTINUOUS
 62
7
 10
9.498
 20
-12.53
 30
0.0
 11
10.474
 21
-12.53
 31
0.0
  0
CIRCLE
  8
0
  5
144
  6
CONTINUOUS
 62
7
 10
7.324704
 20
-13.852556
 30
0.0
 40
0.349246
  0
CIRCLE
  8
0
  5
146
  6
CONTINUOUS
 62
7
 10
7.324704
 20
-13.852556
 30
0.0
 40
0.446118
  0
CIRCLE
  8
0
  5
148
  6
CONTINUOUS
 62
7
 10
12.648855
 20
-13.852556
 30
0.0
 40
0.349246
  0
CIRCLE
  8
0
  5
14A
  6
CONTINUOUS
 62
7
 10
12.648855
 20
-13.852556
 30
0.0
 40
0.446118
  0
CIRCLE
  8
0
  5
14C
  6
CONTINUOUS
 62
7
 10
12.648855
 20
-13.852556
 30
0.0
 40
1.263091
  0
CIRCLE
  8
0
  5
14E
  6
CONTINUOUS
 62
7
 10
12.648855
 20
-13.852556
 30
0.0
 40
1.421296
  0
ARC
  8
0
  5
150
  6
CONTINUOUS
 62
7
 10
12.648855
 20
-13.852556
 30
0.0
 40
2.393486
 50
80.6929222222
 51
134.0969833333
  0
LINE
  8
0
  5
152
  6
CONTINUOUS
 62
7
 10
15.712
 20
-14.642
 30
0.0
 11
15.65
 21
-12.53
 31
0.0
  0
LINE
  8
0
  5
154
  6
CONTINUOUS
 62
7
 10
14.822
 20
-12.53
 30
0.0
 11
15.798
 21
-12.53
 31
0.0
  0
LINE
  8
0
  5
156
  6
CONTINUOUS
 62
7
 10
15.798
 20
-12.53
 30
0.0
 11
15.798
 21
-10.778
 31
0.0
  0
LINE
  8
0
  5
158
  6
CONTINUOUS
 62
7
 10
20.44
 20
-11.03
 30
0.0
 11
20.663
 21
-11.03
 31
0.0
  0
LINE
  8
0
  5
15A
  6
CONTINUOUS
 62
7
 10
16.302
 20
-2.162
 30
0.0
 11
11.661
 21
-6.385
 31
0.0
  0
LINE
  8
0
  5
15C
  6
CONTINUOUS
 62
7
 10
15.632
 20
-1.38
 30
0.0
 11
10.968
 21
-5.623
 31
0.0
  0
LINE
  8
0
  5
15E
  6
CONTINUOUS
 62
7
 10
15.817
 20
-9.576
 30
0.0
 11
13.804
 21
-9.576
 31
0.0
  0
LINE
  8
0
  5
160
  6
CONTINUOUS
 62
7
 10
12.053
 20
2.642
 30
0.0
 11
7.345
 21
-1.641
 31
0.0
  0
LINE
  8
0
  5
162
  6
CONTINUOUS
 62
7
 10
12.724
 20
1.86
 30
0.0
 11
8.038
 21
-2.403
 31
0.0
  0
LINE
  8
0
  5
164
  6
CONTINUOUS
 62
7
 10
8.831
 20
12.743
 30
0.0
 11
8.086
 21
8.086
 31
0.0
  0
ARC
  8
0
  5
166
  6
CONTINUOUS
 62
7
 10
7.843519
 20
12.900908
 30
0.0
 40
1.0
 50
350.9122361111
 51
42.2954722222
  0
ENDSEC
  0
EOF
