  0
SECTION
  2
HEADER
  9
$ACADVER
  1
AC1009
  9
$INSBASE
 10
0.0
 20
0.0
 30
0.0
  9
$EXTMIN
 10
-18.444374
 20
-7.51078
 30
0.0
  9
$EXTMAX
 10
14.308771
 20
9.846
 30
0.0
  9
$LIMMIN
 10
-50.0
 20
-50.0
  9
$LIMMAX
 10
50.0
 20
50.0
  9
$ORTHOMODE
 70
     1
  9
$REGENMODE
 70
     1
  9
$FILLMODE
 70
     1
  9
$QTEXTMODE
 70
     0
  9
$MIRRTEXT
 70
     1
  9
$DRAGMODE
 70
     2
  9
$LTSCALE
 40
1.0
  9
$OSMODE
 70
     0
  9
$ATTMODE
 70
     1
  9
$TEXTSIZE
 40
0.2
  9
$TRACEWID
 40
0.05
  9
$TEXTSTYLE
  7
STANDARD
  9
$CLAYER
  8
0
  9
$CELTYPE
  6
BYLAYER
  9
$CECOLOR
 62
   256
  9
$DIMSCALE
 40
1.0
  9
$DIMASZ
 40
0.18
  9
$DIMEXO
 40
0.0625
  9
$DIMDLI
 40
0.38
  9
$DIMRND
 40
0.0
  9
$DIMDLE
 40
0.0
  9
$DIMEXE
 40
0.18
  9
$DIMTP
 40
0.0
  9
$DIMTM
 40
0.0
  9
$DIMTXT
 40
0.18
  9
$DIMCEN
 40
0.09
  9
$DIMTSZ
 40
0.0
  9
$DIMTOL
 70
     0
  9
$DIMLIM
 70
     0
  9
$DIMTIH
 70
     1
  9
$DIMTOH
 70
     1
  9
$DIMSE1
 70
     0
  9
$DIMSE2
 70
     0
  9
$DIMTAD
 70
     0
  9
$DIMZIN
 70
     0
  9
$DIMBLK
  1

  9
$DIMASO
 70
     1
  9
$DIMSHO
 70
     1
  9
$DIMPOST
  1

  9
$DIMAPOST
  1

  9
$DIMALT
 70
     0
  9
$DIMALTD
 70
     2
  9
$DIMALTF
 40
25.4
  9
$DIMLFAC
 40
1.0
  9
$DIMTOFL
 70
     0
  9
$DIMTVP
 40
0.0
  9
$DIMTIX
 70
     0
  9
$DIMSOXD
 70
     0
  9
$DIMSAH
 70
     0
  9
$DIMBLK1
  1

  9
$DIMBLK2
  1

  9
$DIMSTYLE
  2
*UNNAMED
  9
$DIMCLRD
 70
     0
  9
$DIMCLRE
 70
     0
  9
$DIMCLRT
 70
     0
  9
$DIMTFAC
 40
1.0
  9
$DIMGAP
 40
0.09
  9
$LUNITS
 70
     2
  9
$LUPREC
 70
     4
  9
$SKETCHINC
 40
0.1
  9
$FILLETRAD
 40
0.0
  9
$AUNITS
 70
     0
  9
$AUPREC
 70
     0
  9
$MENU
  1
acad
  9
$ELEVATION
 40
0.0
  9
$PELEVATION
 40
0.0
  9
$THICKNESS
 40
0.0
  9
$LIMCHECK
 70
     0
  9
$BLIPMODE
 70
     1
  9
$CHAMFERA
 40
0.0
  9
$CHAMFERB
 40
0.0
  9
$SKPOLY
 70
     0
  9
$TDCREATE
 40
2450773.329958449
  9
$TDUPDATE
 40
2450773.330903125
  9
$TDINDWG
 40
0.0009344907
  9
$TDUSRTIMER
 40
0.0009344907
  9
$USRTIMER
 70
     1
  9
$ANGBASE
 50
0.0
  9
$ANGDIR
 70
     0
  9
$PDMODE
 70
     0
  9
$PDSIZE
 40
0.0
  9
$PLINEWID
 40
0.0
  9
$COORDS
 70
     0
  9
$SPLFRAME
 70
     0
  9
$SPLINETYPE
 70
     6
  9
$SPLINESEGS
 70
    10
  9
$ATTDIA
 70
     0
  9
$ATTREQ
 70
     1
  9
$HANDLING
 70
     1
  9
$HANDSEED
  5
6C
  9
$SURFTAB1
 70
     6
  9
$SURFTAB2
 70
     6
  9
$SURFTYPE
 70
     6
  9
$SURFU
 70
    10
  9
$SURFV
 70
    10
  9
$UCSNAME
  2

  9
$UCSORG
 10
0.0
 20
0.0
 30
0.0
  9
$UCSXDIR
 10
1.0
 20
0.0
 30
0.0
  9
$UCSYDIR
 10
0.0
 20
1.0
 30
0.0
  9
$PUCSNAME
  2

  9
$PUCSORG
 10
0.0
 20
0.0
 30
0.0
  9
$PUCSXDIR
 10
1.0
 20
0.0
 30
0.0
  9
$PUCSYDIR
 10
0.0
 20
1.0
 30
0.0
  9
$USERI1
 70
     0
  9
$USERI2
 70
     0
  9
$USERI3
 70
     0
  9
$USERI4
 70
     0
  9
$USERI5
 70
     0
  9
$USERR1
 40
0.0
  9
$USERR2
 40
0.0
  9
$USERR3
 40
0.0
  9
$USERR4
 40
0.0
  9
$USERR5
 40
0.0
  9
$WORLDVIEW
 70
     1
  9
$SHADEDGE
 70
     3
  9
$SHADEDIF
 70
    70
  9
$TILEMODE
 70
     1
  9
$MAXACTVP
 70
    16
  9
$PINSBASE
 10
0.0
 20
0.0
 30
0.0
  9
$PLIMCHECK
 70
     0
  9
$PEXTMIN
 10
-1.000000E+20
 20
-1.000000E+20
 30
-1.000000E+20
  9
$PEXTMAX
 10
-1.000000E+20
 20
-1.000000E+20
 30
-1.000000E+20
  9
$PLIMMIN
 10
0.0
 20
0.0
  9
$PLIMMAX
 10
12.0
 20
9.0
  9
$UNITMODE
 70
     0
  9
$VISRETAIN
 70
     0
  9
$PLINEGEN
 70
     0
  9
$PSLTSCALE
 70
     0
  9
$TREEDEPTH
 70
  3020
  9
$DWGCODEPAGE
  3
undefined
  0
ENDSEC
  0
SECTION
  2
TABLES
  0
TABLE
  2
VPORT
 70
     2
  0
VPORT
  2
*ACTIVE
 70
     0
 10
0.0
 20
0.0
 11
1.0
 21
1.0
 12
26.846245
 22
-1.16765
 13
0.0
 23
0.0
 14
1.25
 24
1.25
 15
10.0
 25
10.0
 16
0.0
 26
0.0
 36
1.0
 17
-3.000091
 27
1.16765
 37
0.0
 40
100.0
 41
1.476923
 42
50.0
 43
0.0
 44
0.0
 50
0.0
 51
0.0
 71
     0
 72
   100
 73
     1
 74
     0
 75
     1
 76
     1
 77
     0
 78
     0
  0
ENDTAB
  0
TABLE
  2
LTYPE
 70
     1
  0
LTYPE
  2
CONTINUOUS
 70
    64
  3
Solid line
 72
    65
 73
     0
 40
0.0
  0
ENDTAB
  0
TABLE
  2
LAYER
 70
     1
  0
LAYER
  2
0
 70
    64
 62
     7
  6
CONTINUOUS
  0
ENDTAB
  0
TABLE
  2
STYLE
 70
     1
  0
STYLE
  2
STANDARD
 70
     0
 40
0.2
 41
1.0
 50
0.0
 71
     0
 42
0.0
  3
txt
  4

  0
ENDTAB
  0
TABLE
  2
VIEW
 70
     0
  0
ENDTAB
  0
TABLE
  2
UCS
 70
     0
  0
ENDTAB
  0
TABLE
  2
APPID
 70
     1
  0
APPID
  2
ACAD
 70
    64
  0
ENDTAB
  0
TABLE
  2
DIMSTYLE
 70
     0
  0
ENDTAB
  0
ENDSEC
  0
SECTION
  2
BLOCKS
  0
ENDSEC
  0
SECTION
  2
ENTITIES
  0
ARC
  8
0
  5
2
 10
-3.221559
 20
4.239221
 30
0.0
 40
0.75
 50
90.0
 51
180.0
  0
LINE
  8
0
  5
4
 10
-5.222
 20
-4.386
 30
0.0
 11
1.028
 21
-4.386
 31
0.0
  0
LINE
  8
0
  5
6
 10
-5.846
 20
-5.011
 30
0.0
 11
1.654
 21
-5.011
 31
0.0
  0
LINE
  8
0
  5
8
 10
-6.722
 20
-0.636
 30
0.0
 11
3.166
 21
-0.636
 31
0.0
  0
LINE
  8
0
  5
12
 10
-18.092
 20
8.572
 30
0.0
 11
-11.586
 21
9.846
 31
0.0
  0
CIRCLE
  8
0
  5
14
 10
-8.346559
 20
-5.01078
 30
0.0
 40
2.5
  0
CIRCLE
  8
0
  5
16
 10
-8.346559
 20
-5.01078
 30
0.0
 40
2.1875
  0
ARC
  8
0
  5
18
 10
-8.346559
 20
-5.01078
 30
0.0
 40
3.186887
 50
11.309933
 51
180.0
  0
CIRCLE
  8
0
  5
1A
 10
-8.346559
 20
-5.01078
 30
0.0
 40
0.3125
  0
LINE
  8
0
  5
1C
 10
-11.472
 20
-5.011
 30
0.0
 11
-10.846
 21
-5.011
 31
0.0
  0
LINE
  8
0
  5
1E
 10
-4.29
 20
0.258
 30
0.0
 11
-12.18
 21
6.901
 31
0.0
  0
LINE
  8
0
  5
20
 10
-4.942
 20
-0.011
 30
0.0
 11
-12.692
 21
6.515
 31
0.0
  0
LINE
  8
0
  5
22
 10
-3.972
 20
4.239
 30
0.0
 11
-3.972
 21
0.989
 31
0.0
  0
ARC
  8
0
  5
24
 10
-6.721559
 20
-1.63578
 30
0.0
 40
1.0
 50
90.0
 51
180.0
  0
ARC
  8
0
  5
26
 10
-7.346559
 20
-1.01078
 30
0.0
 40
1.0
 50
90.0
 51
180.0
  0
LINE
  8
0
  5
28
 10
-8.346
 20
-1.011
 30
0.0
 11
-8.346
 21
-1.886
 31
0.0
  0
ARC
  8
0
  5
2A
 10
-4.971559
 20
0.98922
 30
0.0
 40
1.0
 50
270.0
 51
360.0
  0
LINE
  8
0
  5
2C
 10
-4.972
 20
-0.011
 30
0.0
 11
-7.346
 21
-0.011
 31
0.0
  0
LINE
  8
0
  5
2E
 10
-7.722
 20
-1.886
 30
0.0
 11
-7.722
 21
-1.636
 31
0.0
  0
LINE
  8
0
  5
30
 10
14.154
 20
-0.011
 30
0.0
 11
4.911
 21
2.3
 31
0.0
  0
LINE
  8
0
  5
32
 10
5.396
 20
1.554
 30
0.0
 11
12.771
 21
-0.29
 31
0.0
  0
LINE
  8
0
  5
34
 10
7.278
 20
-4.386
 30
0.0
 11
12.778
 21
-4.386
 31
0.0
  0
LINE
  8
0
  5
36
 10
6.654
 20
-5.011
 30
0.0
 11
13.404
 21
-5.011
 31
0.0
  0
CIRCLE
  8
0
  5
38
 10
4.153441
 20
-5.01078
 30
0.0
 40
2.5
  0
ARC
  8
0
  5
3A
 10
4.153441
 20
-5.01078
 30
0.0
 40
3.186887
 50
11.309933
 51
168.690069
  0
CIRCLE
  8
0
  5
3C
 10
4.153441
 20
-5.01078
 30
0.0
 40
2.1875
  0
CIRCLE
  8
0
  5
3E
 10
4.153441
 20
-5.01078
 30
0.0
 40
0.3125
  0
ARC
  8
0
  5
40
 10
5.153441
 20
0.583444
 30
0.0
 40
1.0
 50
75.963758
 51
186.292939
  0
ARC
  8
0
  5
42
 10
5.153441
 20
3.269997
 30
0.0
 40
1.0
 50
180.0
 51
255.963758
  0
LINE
  8
0
  5
44
 10
3.528
 20
3.364
 30
0.0
 11
3.528
 21
0.989
 31
0.0
  0
LINE
  8
0
  5
46
 10
-3.346
 20
0.989
 30
0.0
 11
-3.346
 21
3.614
 31
0.0
  0
LINE
  8
0
  5
48
 10
2.528
 20
-0.011
 30
0.0
 11
-2.346
 21
-0.011
 31
0.0
  0
ARC
  8
0
  5
4A
 10
-2.346559
 20
0.98922
 30
0.0
 40
1.0
 50
180.0
 51
270.0
  0
ARC
  8
0
  5
4C
 10
3.165492
 20
0.364221
 30
0.0
 40
1.0
 50
270.0
 51
6.292939
  0
ARC
  8
0
  5
4E
 10
2.528441
 20
0.98922
 30
0.0
 40
1.0
 50
270.0
 51
360.0
  0
LINE
  8
0
  5
50
 10
4.154
 20
0.21
 30
0.0
 11
4.154
 21
0.584
 31
0.0
  0
LINE
  8
0
  5
52
 10
3.154
 20
4.989
 30
0.0
 11
-3.222
 21
4.989
 31
0.0
  0
LINE
  8
0
  5
54
 10
-2.596
 20
4.364
 30
0.0
 11
2.528
 21
4.364
 31
0.0
  0
ARC
  8
0
  5
56
 10
-2.596559
 20
3.614221
 30
0.0
 40
0.75
 50
90.0
 51
180.0
  0
ARC
  8
0
  5
58
 10
3.153441
 20
3.989221
 30
0.0
 40
1.0
 50
0.0
 51
90.0
  0
ARC
  8
0
  5
5A
 10
2.528441
 20
3.36422
 30
0.0
 40
1.0
 50
0.0
 51
90.0
  0
LINE
  8
0
  5
5C
 10
4.154
 20
3.27
 30
0.0
 11
4.154
 21
3.989
 31
0.0
  0
LINE
  8
0
  5
5E
 10
14.154
 20
-4.261
 30
0.0
 11
14.154
 21
-0.011
 31
0.0
  0
LINE
  8
0
  5
60
 10
13.528
 20
-1.26
 30
0.0
 11
13.528
 21
-3.636
 31
0.0
  0
ARC
  8
0
  5
62
 10
12.778441
 20
-3.63578
 30
0.0
 40
0.75
 50
270.0
 51
360.0
  0
ARC
  8
0
  5
64
 10
13.403441
 20
-4.26078
 30
0.0
 40
0.75
 50
270.0
 51
360.0
  0
ARC
  8
0
  5
66
 10
12.528441
 20
-1.260306
 30
0.0
 40
1.0
 50
0.0
 51
75.963758
  0
ARC
  8
0
  5
68
 10
-14.014501
 20
11.054763
 30
0.0
 40
4.774313
 50
211.341613
 51
283.816896
  0
LINE
  8
0
  5
69
 10
-12.8743
 20
6.4186
 30
0.0
 11
-12.8743
 21
6.4186
 31
0.0
  0
LINE
  8
0
  5
6A
 10
-12.8743
 20
6.4186
 30
0.0
 11
-12.87433
 21
6.418621
 31
0.0
  0
ARC
  8
0
  5
6B
 10
-14.014001
 20
8.802303
 30
0.0
 40
2.642118
 50
295.553111
 51
23.261522
  0
ENDSEC
  0
EOF
