  0
SECTION
  2
HEADER
  9
$ACADVER
  1
AC1014
  9
$ACADMAINTVER
 70
     0
  9
$DWGCODEPAGE
  3
ISO8859-1
  9
$INSBASE
 10
0.0
 20
0.0
 30
0.0
  9
$EXTMIN
 10
-0.522623
 20
-0.05985
 30
0.0
  9
$EXTMAX
 10
92.599297
 20
38.828976
 30
0.0
  9
$LIMMIN
 10
0.0
 20
0.0
  9
$LIMMAX
 10
420.0
 20
297.0
  9
$ORTHOMODE
 70
     0
  9
$REGENMODE
 70
     1
  9
$FILLMODE
 70
     1
  9
$QTEXTMODE
 70
     0
  9
$MIRRTEXT
 70
     1
  9
$DRAGMODE
 70
     2
  9
$LTSCALE
 40
1.0
  9
$OSMODE
 70
     0
  9
$ATTMODE
 70
     1
  9
$TEXTSIZE
 40
3.0
  9
$TRACEWID
 40
10.0
  9
$TEXTSTYLE
  7
STANDARD
  9
$CLAYER
  8
0
  9
$CELTYPE
  6
BYLAYER
  9
$CECOLOR
 62
   256
  9
$CELTSCALE
 40
1.0
  9
$DELOBJ
 70
     1
  9
$DISPSILH
 70
     0
  9
$DIMSCALE
 40
1.0
  9
$DIMASZ
 40
3.0
  9
$DIMEXO
 40
2.5
  9
$DIMDLI
 40
10.0
  9
$DIMRND
 40
0.0
  9
$DIMDLE
 40
1.25
  9
$DIMEXE
 40
2.5
  9
$DIMTP
 40
0.0
  9
$DIMTM
 40
0.0
  9
$DIMTXT
 40
3.0
  9
$DIMCEN
 40
-3.0
  9
$DIMTSZ
 40
0.0
  9
$DIMTOL
 70
     0
  9
$DIMLIM
 70
     0
  9
$DIMTIH
 70
     0
  9
$DIMTOH
 70
     0
  9
$DIMSE1
 70
     0
  9
$DIMSE2
 70
     0
  9
$DIMTAD
 70
     0
  9
$DIMZIN
 70
     0
  9
$DIMBLK
  1

  9
$DIMASO
 70
     1
  9
$DIMSHO
 70
     0
  9
$DIMPOST
  1

  9
$DIMAPOST
  1

  9
$DIMALT
 70
     0
  9
$DIMALTD
 70
     2
  9
$DIMALTF
 40
0.039
  9
$DIMLFAC
 40
1.0
  9
$DIMTOFL
 70
     0
  9
$DIMTVP
 40
1.5
  9
$DIMTIX
 70
     0
  9
$DIMSOXD
 70
     0
  9
$DIMSAH
 70
     0
  9
$DIMBLK1
  1

  9
$DIMBLK2
  1

  9
$DIMSTYLE
  2

  9
$DIMCLRD
 70
     0
  9
$DIMCLRE
 70
     0
  9
$DIMCLRT
 70
     0
  9
$DIMTFAC
 40
0.75
  9
$DIMGAP
 40
1.5
  9
$DIMJUST
 70
     0
  9
$DIMSD1
 70
     0
  9
$DIMSD2
 70
     0
  9
$DIMTOLJ
 70
     1
  9
$DIMTZIN
 70
     0
  9
$DIMALTZ
 70
     0
  9
$DIMALTTZ
 70
     0
  9
$DIMFIT
 70
     3
  9
$DIMUPT
 70
     0
  9
$DIMUNIT
 70
     2
  9
$DIMDEC
 70
     4
  9
$DIMTDEC
 70
     4
  9
$DIMALTU
 70
     2
  9
$DIMALTTD
 70
     2
  9
$DIMTXSTY
  7
STANDARD
  9
$DIMAUNIT
 70
     0
  9
$LUNITS
 70
     2
  9
$LUPREC
 70
     2
  9
$SKETCHINC
 40
1.0
  9
$FILLETRAD
 40
0.0
  9
$AUNITS
 70
     0
  9
$AUPREC
 70
     4
  9
$MENU
  1
acad
  9
$ELEVATION
 40
0.0
  9
$PELEVATION
 40
0.0
  9
$THICKNESS
 40
0.0
  9
$LIMCHECK
 70
     0
  9
$BLIPMODE
 70
     0
  9
$CHAMFERA
 40
0.0
  9
$CHAMFERB
 40
0.0
  9
$CHAMFERC
 40
0.0
  9
$CHAMFERD
 40
0.0
  9
$SKPOLY
 70
     0
  9
$TDCREATE
 40
2450746.336629028
  9
$TDUPDATE
 40
2453117.577754630
  9
$TDINDWG
 40
0.0069443981
  9
$TDUSRTIMER
 40
0.0069443981
  9
$USRTIMER
 70
     1
  9
$ANGBASE
 50
0.0
  9
$ANGDIR
 70
     0
  9
$PDMODE
 70
     0
  9
$PDSIZE
 40
0.0
  9
$PLINEWID
 40
0.0
  9
$COORDS
 70
     1
  9
$SPLFRAME
 70
     0
  9
$SPLINETYPE
 70
     6
  9
$SPLINESEGS
 70
     8
  9
$ATTDIA
 70
     0
  9
$ATTREQ
 70
     1
  9
$HANDLING
 70
     1
  9
$HANDSEED
  5
3F4
  9
$SURFTAB1
 70
    18
  9
$SURFTAB2
 70
    18
  9
$SURFTYPE
 70
     6
  9
$SURFU
 70
    18
  9
$SURFV
 70
    18
  9
$UCSNAME
  2

  9
$UCSORG
 10
0.0
 20
0.0
 30
0.0
  9
$UCSXDIR
 10
1.0
 20
0.0
 30
0.0
  9
$UCSYDIR
 10
0.0
 20
1.0
 30
0.0
  9
$PUCSNAME
  2

  9
$PUCSORG
 10
0.0
 20
0.0
 30
0.0
  9
$PUCSXDIR
 10
1.0
 20
0.0
 30
0.0
  9
$PUCSYDIR
 10
0.0
 20
1.0
 30
0.0
  9
$USERI1
 70
     0
  9
$USERI2
 70
     0
  9
$USERI3
 70
     0
  9
$USERI4
 70
     0
  9
$USERI5
 70
     0
  9
$USERR1
 40
0.0
  9
$USERR2
 40
0.0
  9
$USERR3
 40
0.0
  9
$USERR4
 40
0.0
  9
$USERR5
 40
0.0
  9
$WORLDVIEW
 70
     1
  9
$SHADEDGE
 70
     3
  9
$SHADEDIF
 70
    70
  9
$TILEMODE
 70
     1
  9
$MAXACTVP
 70
    16
  9
$PINSBASE
 10
0.0
 20
0.0
 30
0.0
  9
$PLIMCHECK
 70
     0
  9
$PEXTMIN
 10
1.000000E+20
 20
1.000000E+20
 30
1.000000E+20
  9
$PEXTMAX
 10
-1.000000E+20
 20
-1.000000E+20
 30
-1.000000E+20
  9
$PLIMMIN
 10
0.0
 20
0.0
  9
$PLIMMAX
 10
420.0
 20
297.0
  9
$UNITMODE
 70
     0
  9
$VISRETAIN
 70
     0
  9
$PLINEGEN
 70
     0
  9
$PSLTSCALE
 70
     1
  9
$TREEDEPTH
 70
  3020
  9
$PICKSTYLE
 70
     1
  9
$CMLSTYLE
  2
STANDARD
  9
$CMLJUST
 70
     0
  9
$CMLSCALE
 40
1.0
  9
$PROXYGRAPHICS
 70
     0
  9
$MEASUREMENT
 70
     0
  0
ENDSEC
  0
SECTION
  2
CLASSES
  0
CLASS
  1
LWPOLYLINE
  2
AcDbPolyline
  3
"AutoCAD"
 90
        0
280
     0
281
     1
  0
CLASS
  1
IMAGE
  2
AcDbRasterImage
  3
ISM
 90
      127
280
     0
281
     1
  0
CLASS
  1
OLE2FRAME
  2
AcDbOle2Frame
  3
""
 90
        0
280
     0
281
     1
  0
CLASS
  1
HATCH
  2
AcDbHatch
  3
"ACAD_SEDONA"
 90
        0
280
     0
281
     1
  0
CLASS
  1
DICTIONARYVAR
  2
AcDbDictionaryVar
  3
"AutoCAD"
 90
        0
280
     0
281
     0
  0
CLASS
  1
RASTERVARIABLES
  2
AcDbRasterVariables
  3
ISM
 90
        0
280
     0
281
     0
  0
CLASS
  1
IMAGEDEF
  2
AcDbRasterImageDef
  3
ISM
 90
        0
280
     0
281
     0
  0
CLASS
  1
IMAGEDEF_REACTOR
  2
AcDbRasterImageDefReactor
  3
ISM
 90
        1
280
     0
281
     0
  0
CLASS
  1
IDBUFFER
  2
AcDbIdBuffer
  3
"Acad"
 90
        0
280
     0
281
     0
  0
CLASS
  1
SPATIAL_FILTER
  2
AcDbSpatialFilter
  3
"Acad"
 90
        0
280
     0
281
     0
  0
CLASS
  1
XRECORD
  2
AcDbXrecord
  3
"<Built In>"
 90
        0
280
     0
281
     0
  0
CLASS
  1
SORTENTSTABLE
  2
AcDbSortentsTable
  3
"AutoCAD"
 90
        0
280
     0
281
     0
  0
CLASS
  1
LAYER_INDEX
  2
AcDbLayerIndex
  3
"Acad"
 90
        0
280
     0
281
     0
  0
CLASS
  1
SPATIAL_INDEX
  2
AcDbSpatialIndex
  3
"Acad"
 90
        0
280
     0
281
     0
  0
CLASS
  1
OBJECT_PTR
  2
CAseDLPNTableRecord
  3
"ASE-LPNTableRecord"
 90
        1
280
     0
281
     0
  0
ENDSEC
  0
SECTION
  2
TABLES
  0
TABLE
  2
VPORT
  5
7
100
AcDbSymbolTable
 70
     1
  0
VPORT
  5
11
100
AcDbSymbolTableRecord
100
AcDbViewportTableRecord
  2
*ACTIVE
 70
     0
 10
0.0
 20
0.0
 11
1.0
 21
1.0
 12
43.124743
 22
21.812558
 13
0.0
 23
0.0
 14
0.63
 24
0.63
 15
10.0
 25
10.0
 16
0.0
 26
0.0
 36
1.0
 17
0.0
 27
0.0
 37
0.0
 40
131.111747
 41
1.757238
 42
50.0
 43
0.0
 44
0.0
 50
0.0
 51
0.0
 71
     0
 72
   100
 73
     1
 74
     1
 75
     0
 76
     1
 77
     0
 78
     0
  0
ENDTAB
  0
TABLE
  2
LTYPE
  5
4
100
AcDbSymbolTable
 70
     3
  0
LTYPE
  5
D
100
AcDbSymbolTableRecord
100
AcDbLinetypeTableRecord
  2
BYBLOCK
 70
    64
  3

 72
    65
 73
     0
 40
0.0
  0
LTYPE
  5
E
100
AcDbSymbolTableRecord
100
AcDbLinetypeTableRecord
  2
BYLAYER
 70
    64
  3

 72
    65
 73
     0
 40
0.0
  0
LTYPE
  5
F
100
AcDbSymbolTableRecord
100
AcDbLinetypeTableRecord
  2
CONTINUOUS
 70
    64
  3
Solid line
 72
    65
 73
     0
 40
0.0
  0
ENDTAB
  0
TABLE
  2
LAYER
  5
2
100
AcDbSymbolTable
 70
     1
  0
LAYER
  5
10
100
AcDbSymbolTableRecord
100
AcDbLayerTableRecord
  2
0
 70
    64
 62
     7
  6
CONTINUOUS
  0
ENDTAB
  0
TABLE
  2
STYLE
  5
3
100
AcDbSymbolTable
 70
     1
  0
STYLE
  5
13
100
AcDbSymbolTableRecord
100
AcDbTextStyleTableRecord
  2
STANDARD
 70
    64
 40
0.0
 41
1.0
 50
0.0
 71
     0
 42
3.0
  3
txt.shx
  4

  0
ENDTAB
  0
TABLE
  2
VIEW
  5
5
100
AcDbSymbolTable
 70
     0
  0
ENDTAB
  0
TABLE
  2
UCS
  5
6
100
AcDbSymbolTable
 70
     0
  0
ENDTAB
  0
TABLE
  2
APPID
  5
8
100
AcDbSymbolTable
 70
     1
  0
APPID
  5
12
100
AcDbSymbolTableRecord
100
AcDbRegAppTableRecord
  2
ACAD
 70
    64
  0
ENDTAB
  0
TABLE
  2
DIMSTYLE
  5
9
100
AcDbSymbolTable
 70
     1
  0
DIMSTYLE
105
14
100
AcDbSymbolTableRecord
100
AcDbDimStyleTableRecord
  2
STANDARD
 70
    64
  3

  4

  5

  6

  7

 40
1.0
 41
3.0
 42
2.5
 43
10.0
 44
2.5
 45
0.0
 46
1.25
 47
0.0
 48
0.0
140
3.0
141
-3.0
142
0.0
143
0.039
144
1.0
145
1.5
146
0.75
147
1.5
 71
     0
 72
     0
 73
     0
 74
     0
 75
     0
 76
     0
 77
     0
 78
     0
170
     0
171
     2
172
     0
173
     0
174
     0
175
     0
176
     0
177
     0
178
     0
270
     2
271
     4
272
     4
273
     2
274
     2
340
13
275
     0
280
     0
281
     0
282
     0
283
     1
284
     0
285
     0
286
     0
287
     0
288
     0
  0
ENDTAB
  0
TABLE
  2
BLOCK_RECORD
  5
17
100
AcDbSymbolTable
 70
     0
  0
BLOCK_RECORD
  5
15
100
AcDbSymbolTableRecord
100
AcDbBlockTableRecord
  2
*MODEL_SPACE
  0
BLOCK_RECORD
  5
16
100
AcDbSymbolTableRecord
100
AcDbBlockTableRecord
  2
*PAPER_SPACE
  0
ENDTAB
  0
ENDSEC
  0
SECTION
  2
BLOCKS
  0
BLOCK
  5
18
100
AcDbEntity
  8
0
100
AcDbBlockBegin
  2
*MODEL_SPACE
 70
     0
 10
0.0
 20
0.0
 30
0.0
  3
*MODEL_SPACE
  1

  0
ENDBLK
  5
19
100
AcDbEntity
  8
0
100
AcDbBlockEnd
  0
BLOCK
  5
1A
100
AcDbEntity
 67
     1
  8
0
100
AcDbBlockBegin
  2
*PAPER_SPACE
 70
     0
 10
0.0
 20
0.0
 30
0.0
  3
*PAPER_SPACE
  1

  0
ENDBLK
  5
1B
100
AcDbEntity
 67
     1
  8
0
100
AcDbBlockEnd
  0
ENDSEC
  0
SECTION
  2
ENTITIES
  0
LINE
  5
1C
100
AcDbEntity
  8
0
100
AcDbLine
 10
-0.522623
 20
-0.05985
 30
0.0
 11
51.131429
 21
-0.05985
 31
0.0
  0
LINE
  5
C5
100
AcDbEntity
  8
0
100
AcDbLine
 10
48.422743
 20
3.953562
 30
0.0
 11
72.439297
 21
3.944414
 31
0.0
  0
LINE
  5
118
100
AcDbEntity
  8
0
100
AcDbLine
 10
69.292271
 20
8.984414
 30
0.0
 11
92.599297
 21
8.984414
 31
0.0
  0
LINE
  5
34D
100
AcDbEntity
  8
0
100
AcDbLine
 10
40.714434
 20
13.914733
 30
0.0
 11
41.098599
 21
15.323336
 31
0.0
  0
LINE
  5
34E
100
AcDbEntity
  8
0
100
AcDbLine
 10
41.098599
 20
15.323336
 30
0.0
 11
41.605109
 21
17.180538
 31
0.0
  0
LINE
  5
34F
100
AcDbEntity
  8
0
100
AcDbLine
 10
41.605109
 20
17.180538
 30
0.0
 11
42.955801
 21
19.206576
 31
0.0
  0
LINE
  5
350
100
AcDbEntity
  8
0
100
AcDbLine
 10
42.955801
 20
19.206576
 30
0.0
 11
43.462311
 21
21.063778
 31
0.0
  0
LINE
  5
351
100
AcDbEntity
  8
0
100
AcDbLine
 10
43.462311
 20
21.063778
 30
0.0
 11
43.968821
 21
22.92098
 31
0.0
  0
LINE
  5
352
100
AcDbEntity
  8
0
100
AcDbLine
 10
36.41071
 20
19.125194
 30
0.0
 11
36.855395
 21
20.014564
 31
0.0
  0
LINE
  5
353
100
AcDbEntity
  8
0
100
AcDbLine
 10
36.855395
 20
20.014564
 30
0.0
 11
38.003263
 21
22.310298
 31
0.0
  0
LINE
  5
354
100
AcDbEntity
  8
0
100
AcDbLine
 10
38.003263
 20
22.310298
 30
0.0
 11
40.298999
 21
24.606034
 31
0.0
  0
LINE
  5
355
100
AcDbEntity
  8
0
100
AcDbLine
 10
40.298999
 20
24.606034
 30
0.0
 11
41.446865
 21
26.90177
 31
0.0
  0
LINE
  5
356
100
AcDbEntity
  8
0
100
AcDbLine
 10
41.446865
 20
26.90177
 30
0.0
 11
42.594733
 21
29.197506
 31
0.0
  0
LINE
  5
357
100
AcDbEntity
  8
0
100
AcDbLine
 10
33.745533
 20
22.977783
 30
0.0
 11
34.559659
 21
24.606034
 31
0.0
  0
LINE
  5
358
100
AcDbEntity
  8
0
100
AcDbLine
 10
34.559659
 20
24.606034
 30
0.0
 11
36.855395
 21
25.753902
 31
0.0
  0
LINE
  5
359
100
AcDbEntity
  8
0
100
AcDbLine
 10
36.855395
 20
25.753902
 30
0.0
 11
38.003263
 21
28.049638
 31
0.0
  0
LINE
  5
35A
100
AcDbEntity
  8
0
100
AcDbLine
 10
38.003263
 20
28.049638
 30
0.0
 11
40.298999
 21
30.345374
 31
0.0
  0
LINE
  5
35B
100
AcDbEntity
  8
0
100
AcDbLine
 10
40.298999
 20
30.345374
 30
0.0
 11
42.594733
 21
32.641108
 31
0.0
  0
LINE
  5
35C
100
AcDbEntity
  8
0
100
AcDbLine
 10
42.594733
 20
32.641108
 30
0.0
 11
44.890469
 21
33.788976
 31
0.0
  0
LINE
  5
35D
100
AcDbEntity
  8
0
100
AcDbLine
 10
44.890469
 20
33.788976
 30
0.0
 11
46.038337
 21
33.788976
 31
0.0
  0
LINE
  5
35E
100
AcDbEntity
  8
0
100
AcDbLine
 10
46.038337
 20
33.788976
 30
0.0
 11
48.334073
 21
32.641108
 31
0.0
  0
LINE
  5
35F
100
AcDbEntity
  8
0
100
AcDbLine
 10
48.334073
 20
32.641108
 30
0.0
 11
50.629809
 21
30.345374
 31
0.0
  0
LINE
  5
360
100
AcDbEntity
  8
0
100
AcDbLine
 10
50.629809
 20
30.345374
 30
0.0
 11
52.925543
 21
28.049638
 31
0.0
  0
LINE
  5
361
100
AcDbEntity
  8
0
100
AcDbLine
 10
52.925543
 20
28.049638
 30
0.0
 11
55.221279
 21
26.90177
 31
0.0
  0
LINE
  5
362
100
AcDbEntity
  8
0
100
AcDbLine
 10
55.221279
 20
26.90177
 30
0.0
 11
56.369147
 21
24.606034
 31
0.0
  0
LINE
  5
363
100
AcDbEntity
  8
0
100
AcDbLine
 10
56.369147
 20
24.606034
 30
0.0
 11
57.517015
 21
23.458166
 31
0.0
  0
LINE
  5
364
100
AcDbEntity
  8
0
100
AcDbLine
 10
57.517015
 20
23.458166
 30
0.0
 11
59.812751
 21
21.16243
 31
0.0
  0
LINE
  5
365
100
AcDbEntity
  8
0
100
AcDbLine
 10
59.812751
 20
21.16243
 30
0.0
 11
60.960619
 21
18.866696
 31
0.0
  0
LINE
  5
366
100
AcDbEntity
  8
0
100
AcDbLine
 10
60.960619
 20
18.866696
 30
0.0
 11
63.256355
 21
16.57096
 31
0.0
  0
LINE
  5
367
100
AcDbEntity
  8
0
100
AcDbLine
 10
63.256355
 20
16.57096
 30
0.0
 11
65.552089
 21
14.275224
 31
0.0
  0
LINE
  5
368
100
AcDbEntity
  8
0
100
AcDbLine
 10
65.552089
 20
14.275224
 30
0.0
 11
67.847825
 21
11.979488
 31
0.0
  0
LINE
  5
369
100
AcDbEntity
  8
0
100
AcDbLine
 10
67.847825
 20
11.979488
 30
0.0
 11
68.995693
 21
9.683752
 31
0.0
  0
LINE
  5
36A
100
AcDbEntity
  8
0
100
AcDbLine
 10
68.995693
 20
9.683752
 30
0.0
 11
70.143561
 21
7.388018
 31
0.0
  0
LINE
  5
36B
100
AcDbEntity
  8
0
100
AcDbLine
 10
70.143561
 20
7.388018
 30
0.0
 11
71.291429
 21
6.24015
 31
0.0
  0
LINE
  5
36C
100
AcDbEntity
  8
0
100
AcDbLine
 10
71.291429
 20
6.24015
 30
0.0
 11
72.439297
 21
3.944414
 31
0.0
  0
LINE
  5
36D
100
AcDbEntity
  8
0
100
AcDbLine
 10
60.874434
 20
18.954733
 30
0.0
 11
61.258599
 21
20.363336
 31
0.0
  0
LINE
  5
36E
100
AcDbEntity
  8
0
100
AcDbLine
 10
61.258599
 20
20.363336
 30
0.0
 11
61.765109
 21
22.220538
 31
0.0
  0
LINE
  5
36F
100
AcDbEntity
  8
0
100
AcDbLine
 10
61.765109
 20
22.220538
 30
0.0
 11
63.115801
 21
24.246576
 31
0.0
  0
LINE
  5
370
100
AcDbEntity
  8
0
100
AcDbLine
 10
63.115801
 20
24.246576
 30
0.0
 11
63.622311
 21
26.103778
 31
0.0
  0
LINE
  5
371
100
AcDbEntity
  8
0
100
AcDbLine
 10
63.622311
 20
26.103778
 30
0.0
 11
64.128821
 21
27.96098
 31
0.0
  0
LINE
  5
372
100
AcDbEntity
  8
0
100
AcDbLine
 10
56.57071
 20
24.165194
 30
0.0
 11
57.015395
 21
25.054564
 31
0.0
  0
LINE
  5
373
100
AcDbEntity
  8
0
100
AcDbLine
 10
57.015395
 20
25.054564
 30
0.0
 11
58.163263
 21
27.350298
 31
0.0
  0
LINE
  5
374
100
AcDbEntity
  8
0
100
AcDbLine
 10
58.163263
 20
27.350298
 30
0.0
 11
60.458999
 21
29.646034
 31
0.0
  0
LINE
  5
375
100
AcDbEntity
  8
0
100
AcDbLine
 10
60.458999
 20
29.646034
 30
0.0
 11
61.606865
 21
31.94177
 31
0.0
  0
LINE
  5
376
100
AcDbEntity
  8
0
100
AcDbLine
 10
61.606865
 20
31.94177
 30
0.0
 11
62.754733
 21
34.237506
 31
0.0
  0
LINE
  5
377
100
AcDbEntity
  8
0
100
AcDbLine
 10
53.905533
 20
28.017783
 30
0.0
 11
54.719659
 21
29.646034
 31
0.0
  0
LINE
  5
378
100
AcDbEntity
  8
0
100
AcDbLine
 10
54.719659
 20
29.646034
 30
0.0
 11
57.015395
 21
30.793902
 31
0.0
  0
LINE
  5
379
100
AcDbEntity
  8
0
100
AcDbLine
 10
57.015395
 20
30.793902
 30
0.0
 11
58.163263
 21
33.089638
 31
0.0
  0
LINE
  5
37A
100
AcDbEntity
  8
0
100
AcDbLine
 10
58.163263
 20
33.089638
 30
0.0
 11
60.458999
 21
35.385374
 31
0.0
  0
LINE
  5
37B
100
AcDbEntity
  8
0
100
AcDbLine
 10
60.458999
 20
35.385374
 30
0.0
 11
62.754733
 21
37.681108
 31
0.0
  0
LINE
  5
37C
100
AcDbEntity
  8
0
100
AcDbLine
 10
62.754733
 20
37.681108
 30
0.0
 11
65.050469
 21
38.828976
 31
0.0
  0
LINE
  5
37D
100
AcDbEntity
  8
0
100
AcDbLine
 10
65.050469
 20
38.828976
 30
0.0
 11
66.198337
 21
38.828976
 31
0.0
  0
LINE
  5
37E
100
AcDbEntity
  8
0
100
AcDbLine
 10
66.198337
 20
38.828976
 30
0.0
 11
68.494073
 21
37.681108
 31
0.0
  0
LINE
  5
37F
100
AcDbEntity
  8
0
100
AcDbLine
 10
68.494073
 20
37.681108
 30
0.0
 11
70.789809
 21
35.385374
 31
0.0
  0
LINE
  5
380
100
AcDbEntity
  8
0
100
AcDbLine
 10
70.789809
 20
35.385374
 30
0.0
 11
73.085543
 21
33.089638
 31
0.0
  0
LINE
  5
381
100
AcDbEntity
  8
0
100
AcDbLine
 10
73.085543
 20
33.089638
 30
0.0
 11
75.381279
 21
31.94177
 31
0.0
  0
LINE
  5
382
100
AcDbEntity
  8
0
100
AcDbLine
 10
75.381279
 20
31.94177
 30
0.0
 11
76.529147
 21
29.646034
 31
0.0
  0
LINE
  5
383
100
AcDbEntity
  8
0
100
AcDbLine
 10
76.529147
 20
29.646034
 30
0.0
 11
77.677015
 21
28.498166
 31
0.0
  0
LINE
  5
384
100
AcDbEntity
  8
0
100
AcDbLine
 10
77.677015
 20
28.498166
 30
0.0
 11
79.972751
 21
26.20243
 31
0.0
  0
LINE
  5
385
100
AcDbEntity
  8
0
100
AcDbLine
 10
79.972751
 20
26.20243
 30
0.0
 11
81.120619
 21
23.906696
 31
0.0
  0
LINE
  5
386
100
AcDbEntity
  8
0
100
AcDbLine
 10
81.120619
 20
23.906696
 30
0.0
 11
83.416355
 21
21.61096
 31
0.0
  0
LINE
  5
387
100
AcDbEntity
  8
0
100
AcDbLine
 10
83.416355
 20
21.61096
 30
0.0
 11
85.712089
 21
19.315224
 31
0.0
  0
LINE
  5
388
100
AcDbEntity
  8
0
100
AcDbLine
 10
85.712089
 20
19.315224
 30
0.0
 11
88.007825
 21
17.019488
 31
0.0
  0
LINE
  5
389
100
AcDbEntity
  8
0
100
AcDbLine
 10
88.007825
 20
17.019488
 30
0.0
 11
89.155693
 21
14.723752
 31
0.0
  0
LINE
  5
38A
100
AcDbEntity
  8
0
100
AcDbLine
 10
89.155693
 20
14.723752
 30
0.0
 11
90.303561
 21
12.428018
 31
0.0
  0
LINE
  5
38B
100
AcDbEntity
  8
0
100
AcDbLine
 10
90.303561
 20
12.428018
 30
0.0
 11
91.451429
 21
11.28015
 31
0.0
  0
LINE
  5
38C
100
AcDbEntity
  8
0
100
AcDbLine
 10
91.451429
 20
11.28015
 30
0.0
 11
92.599297
 21
8.984414
 31
0.0
  0
LINE
  5
38D
100
AcDbEntity
  8
0
100
AcDbLine
 10
83.416355
 20
11.28015
 30
0.0
 11
82.268487
 21
13.575886
 31
0.0
  0
LINE
  5
38E
100
AcDbEntity
  8
0
100
AcDbLine
 10
82.268487
 20
13.575886
 30
0.0
 11
77.677015
 21
19.315224
 31
0.0
  0
LINE
  5
38F
100
AcDbEntity
  8
0
100
AcDbLine
 10
77.677015
 20
19.315224
 30
0.0
 11
76.529147
 21
21.61096
 31
0.0
  0
LINE
  5
390
100
AcDbEntity
  8
0
100
AcDbLine
 10
76.529147
 20
21.61096
 30
0.0
 11
75.381279
 21
22.758828
 31
0.0
  0
LINE
  5
391
100
AcDbEntity
  8
0
100
AcDbLine
 10
75.381279
 20
22.758828
 30
0.0
 11
74.233411
 21
25.054564
 31
0.0
  0
LINE
  5
392
100
AcDbEntity
  8
0
100
AcDbLine
 10
74.233411
 20
25.054564
 30
0.0
 11
73.085543
 21
27.350298
 31
0.0
  0
LINE
  5
393
100
AcDbEntity
  8
0
100
AcDbLine
 10
73.085543
 20
27.350298
 30
0.0
 11
70.789809
 21
29.646034
 31
0.0
  0
LINE
  5
394
100
AcDbEntity
  8
0
100
AcDbLine
 10
70.789809
 20
29.646034
 30
0.0
 11
69.641941
 21
31.94177
 31
0.0
  0
LINE
  5
395
100
AcDbEntity
  8
0
100
AcDbLine
 10
69.641941
 20
31.94177
 30
0.0
 11
68.494073
 21
34.237506
 31
0.0
  0
LINE
  5
396
100
AcDbEntity
  8
0
100
AcDbLine
 10
75.121471
 20
12.739786
 30
0.0
 11
74.419991
 21
14.53246
 31
0.0
  0
LINE
  5
397
100
AcDbEntity
  8
0
100
AcDbLine
 10
74.419991
 20
14.53246
 30
0.0
 11
73.640569
 21
15.467768
 31
0.0
  0
LINE
  5
398
100
AcDbEntity
  8
0
100
AcDbLine
 10
73.640569
 20
15.467768
 30
0.0
 11
72.939087
 21
17.26044
 31
0.0
  0
LINE
  5
399
100
AcDbEntity
  8
0
100
AcDbLine
 10
72.939087
 20
17.26044
 30
0.0
 11
72.159665
 21
18.195748
 31
0.0
  0
LINE
  5
39A
100
AcDbEntity
  8
0
100
AcDbLine
 10
72.159665
 20
18.195748
 30
0.0
 11
71.458183
 21
19.98842
 31
0.0
  0
LINE
  5
39B
100
AcDbEntity
  8
0
100
AcDbLine
 10
71.458183
 20
19.98842
 30
0.0
 11
70.756703
 21
21.781094
 31
0.0
  0
LINE
  5
39C
100
AcDbEntity
  8
0
100
AcDbLine
 10
70.756703
 20
21.781094
 30
0.0
 11
69.197857
 21
23.651708
 31
0.0
  0
LINE
  5
39D
100
AcDbEntity
  8
0
100
AcDbLine
 10
69.197857
 20
23.651708
 30
0.0
 11
68.496377
 21
25.444382
 31
0.0
  0
LINE
  5
39E
100
AcDbEntity
  8
0
100
AcDbLine
 10
68.496377
 20
25.444382
 30
0.0
 11
67.794895
 21
27.237054
 31
0.0
  0
LINE
  5
39F
100
AcDbEntity
  8
0
100
AcDbLine
 10
63.256355
 20
6.24015
 30
0.0
 11
62.108487
 21
8.535886
 31
0.0
  0
LINE
  5
3A0
100
AcDbEntity
  8
0
100
AcDbLine
 10
62.108487
 20
8.535886
 30
0.0
 11
57.517015
 21
14.275224
 31
0.0
  0
LINE
  5
3A1
100
AcDbEntity
  8
0
100
AcDbLine
 10
57.517015
 20
14.275224
 30
0.0
 11
56.369147
 21
16.57096
 31
0.0
  0
LINE
  5
3A2
100
AcDbEntity
  8
0
100
AcDbLine
 10
56.369147
 20
16.57096
 30
0.0
 11
55.221279
 21
17.718828
 31
0.0
  0
LINE
  5
3A3
100
AcDbEntity
  8
0
100
AcDbLine
 10
55.221279
 20
17.718828
 30
0.0
 11
54.073411
 21
20.014564
 31
0.0
  0
LINE
  5
3A4
100
AcDbEntity
  8
0
100
AcDbLine
 10
54.073411
 20
20.014564
 30
0.0
 11
52.925543
 21
22.310298
 31
0.0
  0
LINE
  5
3A5
100
AcDbEntity
  8
0
100
AcDbLine
 10
52.925543
 20
22.310298
 30
0.0
 11
50.629809
 21
24.606034
 31
0.0
  0
LINE
  5
3A6
100
AcDbEntity
  8
0
100
AcDbLine
 10
50.629809
 20
24.606034
 30
0.0
 11
49.481941
 21
26.90177
 31
0.0
  0
LINE
  5
3A7
100
AcDbEntity
  8
0
100
AcDbLine
 10
49.481941
 20
26.90177
 30
0.0
 11
48.334073
 21
29.197506
 31
0.0
  0
LINE
  5
3A8
100
AcDbEntity
  8
0
100
AcDbLine
 10
54.961471
 20
7.699786
 30
0.0
 11
54.259991
 21
9.49246
 31
0.0
  0
LINE
  5
3A9
100
AcDbEntity
  8
0
100
AcDbLine
 10
54.259991
 20
9.49246
 30
0.0
 11
53.480569
 21
10.427768
 31
0.0
  0
LINE
  5
3AA
100
AcDbEntity
  8
0
100
AcDbLine
 10
53.480569
 20
10.427768
 30
0.0
 11
52.779087
 21
12.22044
 31
0.0
  0
LINE
  5
3AB
100
AcDbEntity
  8
0
100
AcDbLine
 10
52.779087
 20
12.22044
 30
0.0
 11
51.999665
 21
13.155748
 31
0.0
  0
LINE
  5
3AC
100
AcDbEntity
  8
0
100
AcDbLine
 10
51.999665
 20
13.155748
 30
0.0
 11
51.298183
 21
14.94842
 31
0.0
  0
LINE
  5
3AD
100
AcDbEntity
  8
0
100
AcDbLine
 10
51.298183
 20
14.94842
 30
0.0
 11
50.596703
 21
16.741094
 31
0.0
  0
LINE
  5
3AE
100
AcDbEntity
  8
0
100
AcDbLine
 10
50.596703
 20
16.741094
 30
0.0
 11
49.037857
 21
18.611708
 31
0.0
  0
LINE
  5
3AF
100
AcDbEntity
  8
0
100
AcDbLine
 10
49.037857
 20
18.611708
 30
0.0
 11
48.336377
 21
20.404382
 31
0.0
  0
LINE
  5
3B0
100
AcDbEntity
  8
0
100
AcDbLine
 10
48.336377
 20
20.404382
 30
0.0
 11
47.634895
 21
22.197054
 31
0.0
  0
LINE
  5
3B1
100
AcDbEntity
  8
0
100
AcDbLine
 10
33.653603
 20
3.695522
 30
0.0
 11
32.952123
 21
5.488196
 31
0.0
  0
LINE
  5
3B2
100
AcDbEntity
  8
0
100
AcDbLine
 10
32.952123
 20
5.488196
 30
0.0
 11
32.172701
 21
6.423504
 31
0.0
  0
LINE
  5
3B3
100
AcDbEntity
  8
0
100
AcDbLine
 10
32.172701
 20
6.423504
 30
0.0
 11
31.471219
 21
8.216176
 31
0.0
  0
LINE
  5
3B4
100
AcDbEntity
  8
0
100
AcDbLine
 10
31.471219
 20
8.216176
 30
0.0
 11
30.691797
 21
9.151484
 31
0.0
  0
LINE
  5
3B5
100
AcDbEntity
  8
0
100
AcDbLine
 10
30.691797
 20
9.151484
 30
0.0
 11
29.990315
 21
10.944156
 31
0.0
  0
LINE
  5
3B6
100
AcDbEntity
  8
0
100
AcDbLine
 10
29.990315
 20
10.944156
 30
0.0
 11
29.288835
 21
12.73683
 31
0.0
  0
LINE
  5
3B7
100
AcDbEntity
  8
0
100
AcDbLine
 10
29.288835
 20
12.73683
 30
0.0
 11
27.729989
 21
14.607444
 31
0.0
  0
LINE
  5
3B8
100
AcDbEntity
  8
0
100
AcDbLine
 10
27.729989
 20
14.607444
 30
0.0
 11
27.028509
 21
16.400118
 31
0.0
  0
LINE
  5
3B9
100
AcDbEntity
  8
0
100
AcDbLine
 10
27.028509
 20
16.400118
 30
0.0
 11
26.327027
 21
18.19279
 31
0.0
  0
LINE
  5
3BA
100
AcDbEntity
  8
0
100
AcDbLine
 10
41.948487
 20
2.235886
 30
0.0
 11
40.800619
 21
4.531622
 31
0.0
  0
LINE
  5
3BB
100
AcDbEntity
  8
0
100
AcDbLine
 10
40.800619
 20
4.531622
 30
0.0
 11
36.209147
 21
10.27096
 31
0.0
  0
LINE
  5
3BC
100
AcDbEntity
  8
0
100
AcDbLine
 10
36.209147
 20
10.27096
 30
0.0
 11
35.061279
 21
12.566696
 31
0.0
  0
LINE
  5
3BD
100
AcDbEntity
  8
0
100
AcDbLine
 10
35.061279
 20
12.566696
 30
0.0
 11
33.913411
 21
13.714564
 31
0.0
  0
LINE
  5
3BE
100
AcDbEntity
  8
0
100
AcDbLine
 10
33.913411
 20
13.714564
 30
0.0
 11
32.765543
 21
16.0103
 31
0.0
  0
LINE
  5
3BF
100
AcDbEntity
  8
0
100
AcDbLine
 10
32.765543
 20
16.0103
 30
0.0
 11
31.617675
 21
18.306034
 31
0.0
  0
LINE
  5
3C0
100
AcDbEntity
  8
0
100
AcDbLine
 10
31.617675
 20
18.306034
 30
0.0
 11
29.321941
 21
20.60177
 31
0.0
  0
LINE
  5
3C1
100
AcDbEntity
  8
0
100
AcDbLine
 10
29.321941
 20
20.60177
 30
0.0
 11
28.174073
 21
22.897506
 31
0.0
  0
LINE
  5
3C2
100
AcDbEntity
  8
0
100
AcDbLine
 10
28.174073
 20
22.897506
 30
0.0
 11
27.026205
 21
25.193242
 31
0.0
  0
LINE
  5
3C3
100
AcDbEntity
  8
0
100
AcDbLine
 10
16.920509
 20
3.721426
 30
0.0
 11
17.427019
 21
5.578628
 31
0.0
  0
LINE
  5
3C4
100
AcDbEntity
  8
0
100
AcDbLine
 10
17.427019
 20
5.578628
 30
0.0
 11
18.102365
 21
6.591648
 31
0.0
  0
LINE
  5
3C5
100
AcDbEntity
  8
0
100
AcDbLine
 10
18.102365
 20
6.591648
 30
0.0
 11
18.608875
 21
8.44885
 31
0.0
  0
LINE
  5
3C6
100
AcDbEntity
  8
0
100
AcDbLine
 10
18.608875
 20
8.44885
 30
0.0
 11
19.284221
 21
9.46187
 31
0.0
  0
LINE
  5
3C7
100
AcDbEntity
  8
0
100
AcDbLine
 10
19.284221
 20
9.46187
 30
0.0
 11
19.790731
 21
11.319072
 31
0.0
  0
LINE
  5
3C8
100
AcDbEntity
  8
0
100
AcDbLine
 10
19.790731
 20
11.319072
 30
0.0
 11
20.297241
 21
13.176274
 31
0.0
  0
LINE
  5
3C9
100
AcDbEntity
  8
0
100
AcDbLine
 10
20.297241
 20
13.176274
 30
0.0
 11
21.647933
 21
15.202312
 31
0.0
  0
LINE
  5
3CA
100
AcDbEntity
  8
0
100
AcDbLine
 10
21.647933
 20
15.202312
 30
0.0
 11
22.154443
 21
17.059514
 31
0.0
  0
LINE
  5
3CB
100
AcDbEntity
  8
0
100
AcDbLine
 10
22.154443
 20
17.059514
 30
0.0
 11
22.660953
 21
18.916716
 31
0.0
  0
LINE
  5
3CC
100
AcDbEntity
  8
0
100
AcDbLine
 10
6.364585
 20
1.088018
 30
0.0
 11
10.956055
 21
9.123092
 31
0.0
  0
LINE
  5
3CD
100
AcDbEntity
  8
0
100
AcDbLine
 10
10.956055
 20
9.123092
 30
0.0
 11
12.103923
 21
10.27096
 31
0.0
  0
LINE
  5
3CE
100
AcDbEntity
  8
0
100
AcDbLine
 10
12.103923
 20
10.27096
 30
0.0
 11
13.251791
 21
12.566696
 31
0.0
  0
LINE
  5
3CF
100
AcDbEntity
  8
0
100
AcDbLine
 10
13.251791
 20
12.566696
 30
0.0
 11
14.399659
 21
13.714564
 31
0.0
  0
LINE
  5
3D0
100
AcDbEntity
  8
0
100
AcDbLine
 10
14.399659
 20
13.714564
 30
0.0
 11
15.547527
 21
16.0103
 31
0.0
  0
LINE
  5
3D1
100
AcDbEntity
  8
0
100
AcDbLine
 10
15.547527
 20
16.0103
 30
0.0
 11
16.695395
 21
18.306034
 31
0.0
  0
LINE
  5
3D2
100
AcDbEntity
  8
0
100
AcDbLine
 10
16.695395
 20
18.306034
 30
0.0
 11
18.991131
 21
20.60177
 31
0.0
  0
LINE
  5
3D3
100
AcDbEntity
  8
0
100
AcDbLine
 10
18.991131
 20
20.60177
 30
0.0
 11
20.138997
 21
22.897506
 31
0.0
  0
LINE
  5
3D4
100
AcDbEntity
  8
0
100
AcDbLine
 10
20.138997
 20
22.897506
 30
0.0
 11
21.286865
 21
25.193242
 31
0.0
  0
LINE
  5
3D5
100
AcDbEntity
  8
0
100
AcDbLine
 10
-0.522623
 20
-0.05985
 30
0.0
 11
0.625245
 21
1.088018
 31
0.0
  0
LINE
  5
3D6
100
AcDbEntity
  8
0
100
AcDbLine
 10
0.625245
 20
1.088018
 30
0.0
 11
1.773113
 21
3.383754
 31
0.0
  0
LINE
  5
3D7
100
AcDbEntity
  8
0
100
AcDbLine
 10
1.773113
 20
3.383754
 30
0.0
 11
2.920981
 21
5.679488
 31
0.0
  0
LINE
  5
3D8
100
AcDbEntity
  8
0
100
AcDbLine
 10
2.920981
 20
5.679488
 30
0.0
 11
4.068849
 21
6.827356
 31
0.0
  0
LINE
  5
3D9
100
AcDbEntity
  8
0
100
AcDbLine
 10
4.068849
 20
6.827356
 30
0.0
 11
5.216717
 21
9.123092
 31
0.0
  0
LINE
  5
3DA
100
AcDbEntity
  8
0
100
AcDbLine
 10
5.216717
 20
9.123092
 30
0.0
 11
6.364585
 21
11.418828
 31
0.0
  0
LINE
  5
3DB
100
AcDbEntity
  8
0
100
AcDbLine
 10
6.364585
 20
11.418828
 30
0.0
 11
8.660319
 21
14.862432
 31
0.0
  0
LINE
  5
3DC
100
AcDbEntity
  8
0
100
AcDbLine
 10
8.660319
 20
14.862432
 30
0.0
 11
10.956055
 21
16.0103
 31
0.0
  0
LINE
  5
3DD
100
AcDbEntity
  8
0
100
AcDbLine
 10
10.956055
 20
16.0103
 30
0.0
 11
12.103923
 21
18.306034
 31
0.0
  0
LINE
  5
3DE
100
AcDbEntity
  8
0
100
AcDbLine
 10
12.103923
 20
18.306034
 30
0.0
 11
13.251791
 21
20.60177
 31
0.0
  0
LINE
  5
3DF
100
AcDbEntity
  8
0
100
AcDbLine
 10
13.251791
 20
20.60177
 30
0.0
 11
15.547527
 21
21.749638
 31
0.0
  0
LINE
  5
3E0
100
AcDbEntity
  8
0
100
AcDbLine
 10
15.547527
 20
21.749638
 30
0.0
 11
16.695395
 21
24.045374
 31
0.0
  0
LINE
  5
3E1
100
AcDbEntity
  8
0
100
AcDbLine
 10
16.695395
 20
24.045374
 30
0.0
 11
18.991131
 21
26.34111
 31
0.0
  0
LINE
  5
3E2
100
AcDbEntity
  8
0
100
AcDbLine
 10
18.991131
 20
26.34111
 30
0.0
 11
21.286865
 21
28.636844
 31
0.0
  0
LINE
  5
3E3
100
AcDbEntity
  8
0
100
AcDbLine
 10
21.286865
 20
28.636844
 30
0.0
 11
23.582601
 21
29.784712
 31
0.0
  0
LINE
  5
3E4
100
AcDbEntity
  8
0
100
AcDbLine
 10
23.582601
 20
29.784712
 30
0.0
 11
24.730469
 21
29.784712
 31
0.0
  0
LINE
  5
3E5
100
AcDbEntity
  8
0
100
AcDbLine
 10
24.730469
 20
29.784712
 30
0.0
 11
27.026205
 21
28.636844
 31
0.0
  0
LINE
  5
3E6
100
AcDbEntity
  8
0
100
AcDbLine
 10
27.026205
 20
28.636844
 30
0.0
 11
29.321941
 21
26.34111
 31
0.0
  0
LINE
  5
3E7
100
AcDbEntity
  8
0
100
AcDbLine
 10
29.321941
 20
26.34111
 30
0.0
 11
31.617675
 21
24.045374
 31
0.0
  0
LINE
  5
3E8
100
AcDbEntity
  8
0
100
AcDbLine
 10
31.617675
 20
24.045374
 30
0.0
 11
33.913411
 21
22.897506
 31
0.0
  0
LINE
  5
3E9
100
AcDbEntity
  8
0
100
AcDbLine
 10
33.913411
 20
22.897506
 30
0.0
 11
35.061279
 21
20.60177
 31
0.0
  0
LINE
  5
3EA
100
AcDbEntity
  8
0
100
AcDbLine
 10
35.061279
 20
20.60177
 30
0.0
 11
36.209147
 21
19.453902
 31
0.0
  0
LINE
  5
3EB
100
AcDbEntity
  8
0
100
AcDbLine
 10
36.209147
 20
19.453902
 30
0.0
 11
38.504883
 21
17.158166
 31
0.0
  0
LINE
  5
3EC
100
AcDbEntity
  8
0
100
AcDbLine
 10
38.504883
 20
17.158166
 30
0.0
 11
39.652751
 21
14.862432
 31
0.0
  0
LINE
  5
3ED
100
AcDbEntity
  8
0
100
AcDbLine
 10
39.652751
 20
14.862432
 30
0.0
 11
41.948487
 21
12.566696
 31
0.0
  0
LINE
  5
3EE
100
AcDbEntity
  8
0
100
AcDbLine
 10
41.948487
 20
12.566696
 30
0.0
 11
44.244221
 21
10.27096
 31
0.0
  0
LINE
  5
3EF
100
AcDbEntity
  8
0
100
AcDbLine
 10
44.244221
 20
10.27096
 30
0.0
 11
46.539957
 21
7.975224
 31
0.0
  0
LINE
  5
3F0
100
AcDbEntity
  8
0
100
AcDbLine
 10
46.539957
 20
7.975224
 30
0.0
 11
47.687825
 21
5.679488
 31
0.0
  0
LINE
  5
3F1
100
AcDbEntity
  8
0
100
AcDbLine
 10
47.687825
 20
5.679488
 30
0.0
 11
48.835693
 21
3.383754
 31
0.0
  0
LINE
  5
3F2
100
AcDbEntity
  8
0
100
AcDbLine
 10
48.835693
 20
3.383754
 30
0.0
 11
49.983561
 21
2.235886
 31
0.0
  0
LINE
  5
3F3
100
AcDbEntity
  8
0
100
AcDbLine
 10
49.983561
 20
2.235886
 30
0.0
 11
51.131429
 21
-0.05985
 31
0.0
  0
ENDSEC
  0
SECTION
  2
OBJECTS
  0
DICTIONARY
  5
6F
100
AcDbDictionary
  3
ACAD_GROUP
350
70
  3
ACAD_MLINESTYLE
350
71
  0
DICTIONARY
  5
70
102
{ACAD_REACTORS
330
6F
102
}
100
AcDbDictionary
  0
DICTIONARY
  5
71
102
{ACAD_REACTORS
330
6F
102
}
100
AcDbDictionary
  3
STANDARD
350
72
  0
MLINESTYLE
  5
72
102
{ACAD_REACTORS
330
71
102
}
100
AcDbMlineStyle
  2
STANDARD
 70
     0
  3

 62
     0
 51
90.0
 52
90.0
 71
     2
 49
0.5
 62
   256
  6
BYLAYER
 49
-0.5
 62
   256
  6
BYLAYER
  0
ENDSEC
  0
EOF
