  0
SECTION
  2
HEADER
  9
$ACADVER
  1
AC1009
  9
$INSBASE
 10
0.0
 20
0.0
 30
0.0
  9
$EXTMAX
 10
17.992
 20
4.012
 30
0.0
  9
$EXTMIN
 10
-24.138
 20
-9.744
 30
0.0
  9
$LIMMAX
 10
12.0
 20
9.0
  9
$LIMMIN
 10
0.0
 20
0.0
  9
$ORTHOMODE
 70
0
  9
$REGENMODE
 70
1
  9
$FILLMODE
 70
1
  9
$QTEXTMODE
 70
0
  9
$MIRRTEXT
 70
1
  9
$DRAGMODE
 70
2
  9
$LTSCALE
 40
1.0
  9
$OSMODE
 70
0
  9
$ATTMODE
 70
1
  9
$TEXTSIZE
 40
0.2
  9
$TRACEWID
 40
0.05
  9
$TEXTSTYLE
  7
STANDARD
  9
$CLAYER
  8
0
  9
$CELTYPE
  6
CONTINUOUS
  9
$CECOLOR
 62
256
  9
$DIMSCALE
 40
1.0
  9
$DIMASZ
 40
0.18
  9
$DIMEXO
 40
0.0625
  9
$DIMDLI
 40
0.38
  9
$DIMRND
 40
0.0
  9
$DIMDLE
 40
0.0
  9
$DIMEXE
 40
0.18
  9
$DIMTP
 40
0.0
  9
$DIMTM
 40
0.0
  9
$DIMTXT
 40
0.18
  9
$DIMCEN
 40
0.09
  9
$DIMTSZ
 40
0.0
  9
$DIMTOL
 70
0
  9
$DIMLIM
 70
0
  9
$DIMTIH
 70
1
  9
$DIMTOH
 70
1
  9
$DIMSE1
 70
0
  9
$DIMSE2
 70
0
  9
$DIMTAD
 70
0
  9
$DIMZIN
 70
0
  9
$DIMBLK
  1

  9
$DIMASO
 70
1
  9
$DIMSHO
 70
1
  9
$DIMPOST
  1

  9
$DIMAPOST
  1

  9
$DIMALT
 70
0
  9
$DIMALTD
 70
2
  9
$DIMALTF
 40
25.4
  9
$DIMLFAC
 40
1.0
  9
$DIMTOFL
 70
0
  9
$DIMTVP
 40
0.0
  9
$DIMTIX
 70
0
  9
$DIMSOXD
 70
0
  9
$DIMSAH
 70
0
  9
$DIMBLK1
  1

  9
$DIMBLK2
  1

  9
$DIMSTYLE
  2
*UNNAMED
  9
$DIMCLRD
 70
0
  9
$DIMCLRE
 70
0
  9
$DIMCLRT
 70
0
  9
$DIMTFAC
 40
1.0
  9
$DIMGAP
 40
0.09
  9
$LUNITS
 70
2
  9
$LUPREC
 70
4
  9
$AXISMODE
 70
0
  9
$AXISUNIT
 10
0.0
 20
0.0
  9
$SKETCHINC
 40
0.1
  9
$FILLETRAD
 40
0.0
  9
$AUNITS
 70
0
  9
$AUPREC
 70
0
  9
$MENU
  1
acad
  9
$ELEVATION
 40
0.0
  9
$PELEVATION
 40
0.0
  9
$THICKNESS
 40
0.0
  9
$LIMCHECK
 70
0
  9
$BLIPMODE
 70
1
  9
$CHAMFERA
 40
0.0
  9
$CHAMFERB
 40
0.0
  9
$SKPOLY
 70
0
  9
$TDCREATE
 40
0.0
  9
$TDUPDATE
 40
0.0
  9
$TDINDWG
 40
0.0
  9
$TDUSRTIMER
 40
0.0
  9
$USRTIMER
 70
1
  9
$ANGBASE
 50
0.0
  9
$ANGDIR
 70
0
  9
$PDMODE
 70
0
  9
$PDSIZE
 40
0.0
  9
$PLINEWID
 40
0.0
  9
$COORDS
 70
0
  9
$SPLFRAME
 70
0
  9
$SPLINETYPE
 70
6
  9
$SPLINESEGS
 70
10
  9
$ATTDIA
 70
0
  9
$ATTREQ
 70
1
  9
$HANDLING
 70
1
  9
$HANDSEED
  5
146
  9
$SURFTAB1
 70
6
  9
$SURFTAB2
 70
6
  9
$SURFTYPE
 70
6
  9
$SURFU
 70
10
  9
$SURFV
 70
10
  9
$UCSNAME
  2

  9
$UCSORG
 10
0.0
 20
0.0
 30
0.0
  9
$UCSXDIR
 10
1.0
 20
0.0
 30
0.0
  9
$UCSYDIR
 10
0.0
 20
1.0
 30
0.0
  9
$PUCSNAME
  2
 
  9
$PUCSORG
 10
0.0
 20
0.0
 30
0.0
  9
$PUCSXDIR
 10
1.0
 20
0.0
 30
0.0
  9
$PUCSYDIR
 10
0.0
 20
1.0
 30
0.0
  9
$USERI1
 70
0
  9
$USERI2
 70
0
  9
$USERI3
 70
0
  9
$USERI4
 70
0
  9
$USERI5
 70
0
  9
$USERR1
 40
0.0
  9
$USERR2
 40
0.0
  9
$USERR3
 40
0.0
  9
$USERR4
 40
0.0
  9
$USERR5
 40
0.0
  9
$WORLDVIEW
 70
1
  9
$SHADEDGE
 70
3
  9
$SHADEDIF
 70
70
  9
$TILEMODE
 70
1
  9
$MAXACTVP
 70
16
  9
$PINSBASE
 10
0.0
 20
0.0
 30
0.0
  9
$PLIMCHECK
 70
0
  9
$PEXTMIN
 10
-1.000000E+020
 20
-1.000000E+020
 30
-1.000000E+020
  9
$PEXTMAX
 10
-1.000000E+020
 20
-1.000000E+020
 30
-1.000000E+020
  9
$PLIMMIN
 10
0.0
 20
0.0
  9
$PLIMMAX
 10
12.0
 20
9.0
  9
$UNITMODE
 70
0
  9
$VISRETAIN
 70
0
  0
ENDSEC
  0
SECTION
  2
TABLES
  0
TABLE
  2
LTYPE
 70
7
  0
LTYPE
  2
CONTINUOUS
 70
64
  3
Solid line
 72
65
 73
0
 40
0.0
  0
LTYPE
  2
DOT
 70
64
  3
. . . . . . . . . . . . . . . . . . . . . . . . . . . . . . . . .
 72
65
 73
2
 40
0.25
 49
0.0
 49
-0.25
  0
LTYPE
  2
HIDDEN
 70
64
  3
__ __ __ __ __ __ __ __ __ __ __ __ __ __ __ __ __ __ __ __ __ 
 72
65
 73
2
 40
0.375
 49
0.25
 49
-0.125
  0
LTYPE
  2
DASHED
 70
64
  3
__ __ __ __ __ __ __ __ __ __ __ __ __ __ __ __ __ __ __ __ __
 72
65
 73
2
 40
0.75
 49
0.5
 49
-0.25
  0
LTYPE
  2
DASHDOT
 70
64
  3
__ . __ . __ . __ . __ . __ . __ . __ . __ . __ . __ . __ . _
 72
65
 73
4
 40
1.0
 49
0.5
 49
-0.25
 49
0.0
 49
-0.25
  0
LTYPE
  2
DIVIDE
 70
64
  3
____ . . ____ . . ____ . . ____ . . ____ . . ____ . . ____ . .
 72
65
 73
6
 40
1.25
 49
0.5
 49
-0.25
 49
0.0
 49
-0.25
 49
0.0
 49
-0.25
  0
LTYPE
  2
CENTER
 70
64
  3
____ _ ____ _ ____ _ ____ _ ____ _ ____ _ ____ _ ____ _ ____ _
 72
65
 73
4
 40
2.0
 49
1.25
 49
-0.25
 49
0.25
 49
-0.25
  0
ENDTAB
  0
TABLE
  2
APPID
 70
1
  0
APPID
  2
ACAD
 70
0
  0
ENDTAB
  0
TABLE
  2
DIMSTYLE
 70
0
  0
ENDTAB
  0
TABLE
  2
LAYER
 70
4
  0
LAYER
  2
0
 70
0
 62
7
  6
CONTINUOUS
  0
LAYER
  2
CONSTRUCTION_CLASS
 70
0
 62
7
  6
CONTINUOUS
  0
LAYER
  2
PATTERN_CLASS
 70
0
 62
7
  6
CONTINUOUS
  0
LAYER
  2
0
 70
0
 62
7
  6
CONTINUOUS
  0
ENDTAB
  0
TABLE
  2
STYLE
 70
1
  0
STYLE
  2
STANDARD
 70
0
 40
0.2
 41
1.0
 50
0.0
 71
0
 42
0.0
  3
txt
  4

  0
ENDTAB
  0
TABLE
  2
UCS
 70
0
  0
ENDTAB
  0
TABLE
  2
VIEW
 70
0
  0
ENDTAB
  0
TABLE
  2
VPORT
 70
1
  0
VPORT
  2
*ACTIVE
 70
0
 10
0.0
 20
0.0
 11
1.0
 21
1.0
 12
0.0
 22
0.0
 13
0.0
 23
0.0
 14
0.0
 24
0.0
 15
0.0
 25
0.0
 16
0.0
 26
0.0
 36
1.0
 17
-3.957064
 27
-2.8585
 37
0.0
 40
30.999
 41
1.336039
 42
50.0
 43
0.004
 44
0.0
 50
0.0
 51
0.0
 71
0
 72
100
 73
1
 74
0
 75
0
 76
0
 77
0
 78
0
  0
ENDTAB
  0
ENDSEC
  0
SECTION
  2
BLOCKS
  0
ENDSEC
  0
SECTION
  2
ENTITIES
  0
ARC
  8
0
  5
2
  6
CONTINUOUS
 62
7
 10
-9.97585
 20
0.027856
 30
0.0
 40
3.75
 50
90.0
 51
270.0
  0
LINE
  8
0
  5
4
  6
CONTINUOUS
 62
7
 10
-12.949
 20
-3.897
 30
0.0
 11
-10.662
 21
-3.897
 31
0.0
  0
LINE
  8
0
  5
6
  6
CONTINUOUS
 62
7
 10
-12.656
 20
-3.808
 30
0.0
 11
-12.244
 21
-3.808
 31
0.0
  0
LINE
  8
0
  5
8
  6
CONTINUOUS
 62
7
 10
-12.949
 20
-6.612
 30
0.0
 11
-10.662
 21
-6.612
 31
0.0
  0
LINE
  8
0
  5
A
  6
CONTINUOUS
 62
7
 10
-22.844
 20
0.463
 30
0.0
 11
-22.27
 21
2.688
 31
0.0
  0
LINE
  8
0
  5
C
  6
CONTINUOUS
 62
7
 10
-21.773
 20
3.116
 30
0.0
 11
-21.101
 21
0.463
 31
0.0
  0
LINE
  8
0
  5
E
  6
CONTINUOUS
 62
7
 10
-20.91
 20
0.662
 30
0.0
 11
-20.91
 21
3.096
 31
0.0
  0
LINE
  8
0
  5
10
  6
CONTINUOUS
 62
7
 10
-21.066
 20
3.096
 30
0.0
 11
-21.066
 21
0.542
 31
0.0
  0
LINE
  8
0
  5
12
  6
CONTINUOUS
 62
7
 10
-22.428
 20
3.31
 30
0.0
 11
-21.764
 21
0.688
 31
0.0
  0
LINE
  8
0
  5
14
  6
CONTINUOUS
 62
7
 10
-22.212
 20
2.914
 30
0.0
 11
-21.62
 21
0.575
 31
0.0
  0
LINE
  8
0
  5
16
  6
CONTINUOUS
 62
7
 10
-20.654
 20
2.909
 30
0.0
 11
-20.654
 21
0.542
 31
0.0
  0
LINE
  8
0
  5
18
  6
CONTINUOUS
 62
7
 10
-18.097
 20
3.587
 30
0.0
 11
-17.443
 21
0.386
 31
0.0
  0
LINE
  8
0
  5
1A
  6
CONTINUOUS
 62
7
 10
-14.759
 20
0.437
 30
0.0
 11
-14.836
 21
3.272
 31
0.0
  0
LINE
  8
0
  5
1C
  6
CONTINUOUS
 62
7
 10
-18.234
 20
3.22
 30
0.0
 11
-17.693
 21
0.571
 31
0.0
  0
LINE
  8
0
  5
1E
  6
CONTINUOUS
 62
7
 10
-17.853
 20
3.184
 30
0.0
 11
-17.312
 21
0.535
 31
0.0
  0
LINE
  8
0
  5
20
  6
CONTINUOUS
 62
7
 10
-15.634
 20
3.22
 30
0.0
 11
-15.094
 21
0.571
 31
0.0
  0
ARC
  8
0
  5
22
  6
CONTINUOUS
 62
7
 10
-17.481597
 20
-7.119617
 30
0.0
 40
2.393486
 50
235.8136277778
 51
17.4224277778
  0
CIRCLE
  8
0
  5
24
  6
CONTINUOUS
 62
7
 10
-17.481597
 20
-7.119617
 30
0.0
 40
2.544716
  0
LINE
  8
0
  5
26
  6
CONTINUOUS
 62
7
 10
-20.215
 20
-0.003
 30
0.0
 11
-20.782
 21
0.662
 31
0.0
  0
LINE
  8
0
  5
28
  6
CONTINUOUS
 62
7
 10
-20.839
 20
0.542
 30
0.0
 11
-20.314
 21
-0.122
 31
0.0
  0
LINE
  8
0
  5
2A
  6
CONTINUOUS
 62
7
 10
-21.316
 20
-6.43
 30
0.0
 11
-19.728
 21
-6.267
 31
0.0
  0
ARC
  8
0
  5
2C
  6
CONTINUOUS
 62
7
 10
-20.673703
 20
-6.114756
 30
0.0
 40
0.225
 50
176.9378694444
 51
346.4927138889
  0
LINE
  8
0
  5
2E
  6
CONTINUOUS
 62
7
 10
-23.298
 20
-4.438
 30
0.0
 11
-20.355
 21
-4.438
 31
0.0
  0
LINE
  8
0
  5
30
  6
CONTINUOUS
 62
7
 10
-24.048
 20
-4.125
 30
0.0
 11
-20.124
 21
-4.125
 31
0.0
  0
ARC
  8
0
  5
32
  6
CONTINUOUS
 62
7
 10
-17.527129
 20
-6.283082
 30
0.0
 40
3.376073
 50
2.2378888889
 51
176.9378694444
  0
LINE
  8
0
  5
34
  6
CONTINUOUS
 62
7
 10
-23.658
 20
-2.86
 30
0.0
 11
-14.708
 21
-2.86
 31
0.0
  0
LINE
  8
0
  5
36
  6
CONTINUOUS
 62
7
 10
-20.612
 20
0.463
 30
0.0
 11
-17.781
 21
0.463
 31
0.0
  0
LINE
  8
0
  5
38
  6
CONTINUOUS
 62
7
 10
-23.658
 20
-0.676
 30
0.0
 11
-23.658
 21
-3.248
 31
0.0
  0
LINE
  8
0
  5
3A
  6
CONTINUOUS
 62
7
 10
-21.532
 20
0.224
 30
0.0
 11
-21.276
 21
-4.098
 31
0.0
  0
ARC
  8
0
  5
3C
  6
CONTINUOUS
 62
7
 10
-23.614003
 20
-3.479992
 30
0.0
 40
0.236773
 50
100.646175
 51
190.8583083333
  0
LINE
  8
0
  5
3E
  6
CONTINUOUS
 62
7
 10
-23.658
 20
-3.248
 30
0.0
 11
-21.467
 21
-3.248
 31
0.0
  0
LINE
  8
0
  5
40
  6
CONTINUOUS
 62
7
 10
-21.316
 20
-6.638
 30
0.0
 11
-21.316
 21
-4.436
 31
0.0
  0
LINE
  8
0
  5
42
  6
CONTINUOUS
 62
7
 10
-24.138
 20
-4.215
 30
0.0
 11
-24.138
 21
-6.638
 31
0.0
  0
ARC
  8
0
  5
44
  6
CONTINUOUS
 62
7
 10
-21.40575
 20
-6.637313
 30
0.0
 40
0.09
 50
270.0
 51
360.0
  0
ARC
  8
0
  5
46
  6
CONTINUOUS
 62
7
 10
-24.047829
 20
-6.637313
 30
0.0
 40
0.09
 50
180.0
 51
270.0
  0
LINE
  8
0
  5
48
  6
CONTINUOUS
 62
7
 10
-24.048
 20
-6.728
 30
0.0
 11
-21.406
 21
-6.728
 31
0.0
  0
ARC
  8
0
  5
4A
  6
CONTINUOUS
 62
7
 10
-24.047829
 20
-4.214884
 30
0.0
 40
0.09
 50
90.0
 51
180.0
  0
LINE
  8
0
  5
4C
  6
CONTINUOUS
 62
7
 10
-23.846
 20
-3.524
 30
0.0
 11
-23.903
 21
-4.125
 31
0.0
  0
ARC
  8
0
  5
4E
  6
CONTINUOUS
 62
7
 10
-21.706709
 20
0.55278
 30
0.0
 40
0.09
 50
270.0
 51
14.2156166667
  0
LINE
  8
0
  5
50
  6
CONTINUOUS
 62
7
 10
-21.101
 20
0.463
 30
0.0
 11
-20.776
 21
0.463
 31
0.0
  0
LINE
  8
0
  5
52
  6
CONTINUOUS
 62
7
 10
-22.942
 20
0.463
 30
0.0
 11
-21.706
 21
0.463
 31
0.0
  0
LINE
  8
0
  5
54
  6
CONTINUOUS
 62
7
 10
-20.782
 20
0.662
 30
0.0
 11
-20.91
 21
0.662
 31
0.0
  0
LINE
  8
0
  5
56
  6
CONTINUOUS
 62
7
 10
-21.066
 20
0.542
 30
0.0
 11
-20.839
 21
0.542
 31
0.0
  0
LINE
  8
0
  5
58
  6
CONTINUOUS
 62
7
 10
-22.863
 20
0.576
 30
0.0
 11
-21.852
 21
0.576
 31
0.0
  0
ARC
  8
0
  5
5A
  6
CONTINUOUS
 62
7
 10
-21.851263
 20
0.66528
 30
0.0
 40
0.09
 50
270.0
 51
14.2156166667
  0
LINE
  8
0
  5
5C
  6
CONTINUOUS
 62
7
 10
-22.758
 20
0.224
 30
0.0
 11
-20.588
 21
0.224
 31
0.0
  0
LINE
  8
0
  5
5E
  6
CONTINUOUS
 62
7
 10
-22.55
 20
-0.598
 30
0.0
 11
-22.844
 21
-0.502
 31
0.0
  0
LINE
  8
0
  5
60
  6
CONTINUOUS
 62
7
 10
-22.53
 20
-0.715
 30
0.0
 11
-22.55
 21
-0.598
 31
0.0
  0
LINE
  8
0
  5
62
  6
CONTINUOUS
 62
7
 10
-22.824
 20
-0.833
 30
0.0
 11
-22.53
 21
-0.715
 31
0.0
  0
LINE
  8
0
  5
64
  6
CONTINUOUS
 62
7
 10
-22.844
 20
-0.502
 30
0.0
 11
-22.824
 21
-0.833
 31
0.0
  0
ARC
  8
0
  5
66
  6
CONTINUOUS
 62
7
 10
-22.722026
 20
-0.660592
 30
0.0
 40
0.200251
 50
127.6393361111
 51
239.3446888889
  0
LINE
  8
0
  5
68
  6
CONTINUOUS
 62
7
 10
-22.966
 20
0.199
 30
0.0
 11
-22.942
 21
0.463
 31
0.0
  0
ARC
  8
0
  5
6A
  6
CONTINUOUS
 62
7
 10
-22.757745
 20
-0.67656
 30
0.0
 40
0.9
 50
90.0
 51
180.0
  0
LINE
  8
0
  5
6C
  6
CONTINUOUS
 62
7
 10
-14.573
 20
-4.114
 30
0.0
 11
-14.573
 21
-2.996
 31
0.0
  0
CIRCLE
  8
0
  5
6E
  6
CONTINUOUS
 62
7
 10
-17.481597
 20
-7.119617
 30
0.0
 40
1.263091
  0
CIRCLE
  8
0
  5
70
  6
CONTINUOUS
 62
7
 10
-17.481597
 20
-7.119617
 30
0.0
 40
1.421296
  0
ARC
  8
0
  5
72
  6
CONTINUOUS
 62
7
 10
-17.508474
 20
-6.875086
 30
0.0
 40
3.030269
 50
12.7947638889
 51
166.4927138889
  0
ARC
  8
0
  5
74
  6
CONTINUOUS
 62
7
 10
-17.481597
 20
-7.119617
 30
0.0
 40
2.393486
 50
80.6929222222
 51
134.0969833333
  0
CIRCLE
  8
0
  5
76
  6
CONTINUOUS
 62
7
 10
-17.481597
 20
-7.119617
 30
0.0
 40
0.446118
  0
CIRCLE
  8
0
  5
78
  6
CONTINUOUS
 62
7
 10
-17.481597
 20
-7.119617
 30
0.0
 40
0.349246
  0
LINE
  8
0
  5
7A
  6
CONTINUOUS
 62
7
 10
-14.571
 20
-6.13
 30
0.0
 11
-15.176
 21
-6.044
 31
0.0
  0
ARC
  8
0
  5
7C
  6
CONTINUOUS
 62
7
 10
-14.355976
 20
-6.159159
 30
0.0
 40
0.2025
 50
192.7947638889
 51
2.2378888889
  0
LINE
  8
0
  5
7E
  6
CONTINUOUS
 62
7
 10
-12.949
 20
-6.728
 30
0.0
 11
-12.949
 21
-3.808
 31
0.0
  0
LINE
  8
0
  5
80
  6
CONTINUOUS
 62
7
 10
-13.312
 20
-3.808
 30
0.0
 11
-13.312
 21
-6.728
 31
0.0
  0
LINE
  8
0
  5
82
  6
CONTINUOUS
 62
7
 10
-13.776
 20
-4.167
 30
0.0
 11
-13.776
 21
-6.342
 31
0.0
  0
LINE
  8
0
  5
84
  6
CONTINUOUS
 62
7
 10
-13.506
 20
-6.612
 30
0.0
 11
-13.312
 21
-6.612
 31
0.0
  0
LINE
  8
0
  5
86
  6
CONTINUOUS
 62
7
 10
-13.312
 20
-6.728
 30
0.0
 11
-12.949
 21
-6.728
 31
0.0
  0
LINE
  8
0
  5
88
  6
CONTINUOUS
 62
7
 10
-13.506
 20
-3.897
 30
0.0
 11
-13.312
 21
-3.897
 31
0.0
  0
LINE
  8
0
  5
8A
  6
CONTINUOUS
 62
7
 10
-12.949
 20
-3.808
 30
0.0
 11
-13.312
 21
-3.808
 31
0.0
  0
LINE
  8
0
  5
8C
  6
CONTINUOUS
 62
7
 10
-13.776
 20
-6.244
 30
0.0
 11
-14.156
 21
-6.19
 31
0.0
  0
ARC
  8
0
  5
8E
  6
CONTINUOUS
 62
7
 10
-13.505304
 20
-6.341259
 30
0.0
 40
0.27
 50
180.0
 51
270.0
  0
LINE
  8
0
  5
90
  6
CONTINUOUS
 62
7
 10
-15.002
 20
-4.042
 30
0.0
 11
-13.745
 21
-4.042
 31
0.0
  0
ARC
  8
0
  5
92
  6
CONTINUOUS
 62
7
 10
-13.505304
 20
-4.167004
 30
0.0
 40
0.27
 50
90.0
 51
180.0
  0
LINE
  8
0
  5
94
  6
CONTINUOUS
 62
7
 10
-17.224
 20
0.463
 30
0.0
 11
-15.182
 21
0.463
 31
0.0
  0
LINE
  8
0
  5
96
  6
CONTINUOUS
 62
7
 10
-20.408
 20
0.224
 30
0.0
 11
-14.65
 21
0.224
 31
0.0
  0
ARC
  8
0
  5
98
  6
CONTINUOUS
 62
7
 10
-20.257834
 20
-0.068309
 30
0.0
 40
0.078086
 50
223.6046583333
 51
56.8389722222
  0
ARC
  8
0
  5
9A
  6
CONTINUOUS
 62
7
 10
-17.22391
 20
0.55278
 30
0.0
 40
0.09
 50
191.5437305556
 51
270.0
  0
ARC
  8
0
  5
9C
  6
CONTINUOUS
 62
7
 10
-17.781116
 20
0.55278
 30
0.0
 40
0.09
 50
270.0
 51
11.5437305556
  0
LINE
  8
0
  5
9E
  6
CONTINUOUS
 62
7
 10
-17.686
 20
-0.078
 30
0.0
 11
-17.686
 21
-0.173
 31
0.0
  0
LINE
  8
0
  5
A0
  6
CONTINUOUS
 62
7
 10
-18.136
 20
-0.078
 30
0.0
 11
-17.686
 21
-0.078
 31
0.0
  0
LINE
  8
0
  5
A2
  6
CONTINUOUS
 62
7
 10
-18.176
 20
-0.148
 30
0.0
 11
-18.136
 21
-0.078
 31
0.0
  0
LINE
  8
0
  5
A4
  6
CONTINUOUS
 62
7
 10
-17.443
 20
0.386
 30
0.0
 11
-17.443
 21
-2.832
 31
0.0
  0
ARC
  8
0
  5
A6
  6
CONTINUOUS
 62
7
 10
-15.181654
 20
0.55278
 30
0.0
 40
0.09
 50
270.0
 51
11.5437305556
  0
LINE
  8
0
  5
A8
  6
CONTINUOUS
 62
7
 10
-14.336
 20
-0.888
 30
0.0
 11
-14.41
 21
-0.788
 31
0.0
  0
LINE
  8
0
  5
AA
  6
CONTINUOUS
 62
7
 10
-14.426
 20
-1.308
 30
0.0
 11
-14.65
 21
-1.308
 31
0.0
  0
LINE
  8
0
  5
AC
  6
CONTINUOUS
 62
7
 10
-14.426
 20
-0.758
 30
0.0
 11
-14.426
 21
-1.308
 31
0.0
  0
LINE
  8
0
  5
AE
  6
CONTINUOUS
 62
7
 10
-14.65
 20
-0.758
 30
0.0
 11
-14.426
 21
-0.758
 31
0.0
  0
ARC
  8
0
  5
B0
  6
CONTINUOUS
 62
7
 10
-14.707843
 20
-2.99566
 30
0.0
 40
0.135
 50
0.0
 51
90.0
  0
LINE
  8
0
  5
B2
  6
CONTINUOUS
 62
7
 10
-14.65
 20
-2.86
 30
0.0
 11
-14.65
 21
0.272
 31
0.0
  0
ARC
  8
0
  5
B4
  6
CONTINUOUS
 62
7
 10
-14.864425
 20
0.24805
 30
0.0
 40
0.216556
 50
353.47465
 51
82.5547138889
  0
LINE
  8
0
  5
B6
  6
CONTINUOUS
 62
7
 10
-20.148
 20
3.752
 30
0.0
 11
-22.076
 21
3.611
 31
0.0
  0
LINE
  8
0
  5
B8
  6
CONTINUOUS
 62
7
 10
-20.442
 20
2.806
 30
0.0
 11
-20.64
 21
2.806
 31
0.0
  0
LINE
  8
0
  5
BA
  6
CONTINUOUS
 62
7
 10
-20.654
 20
2.926
 30
0.0
 11
-20.442
 21
2.926
 31
0.0
  0
LINE
  8
0
  5
BC
  6
CONTINUOUS
 62
7
 10
-20.818
 20
3.292
 30
0.0
 11
-18.322
 21
3.292
 31
0.0
  0
LINE
  8
0
  5
BE
  6
CONTINUOUS
 62
7
 10
-15.152
 20
3.587
 30
0.0
 11
-20.822
 21
3.587
 31
0.0
  0
ARC
  8
0
  5
C0
  6
CONTINUOUS
 62
7
 10
-18.022485
 20
-26.587099
 30
0.0
 40
30.599463
 50
84.8108027778
 51
97.3144444444
  0
LINE
  8
0
  5
C2
  6
CONTINUOUS
 62
7
 10
-20.896
 20
3.062
 30
0.0
 11
-20.598
 21
3.062
 31
0.0
  0
LINE
  8
0
  5
C4
  6
CONTINUOUS
 62
7
 10
-20.697
 20
3.198
 30
0.0
 11
-20.896
 21
3.198
 31
0.0
  0
LINE
  8
0
  5
C6
  6
CONTINUOUS
 62
7
 10
-20.896
 20
3.198
 30
0.0
 11
-20.896
 21
3.062
 31
0.0
  0
LINE
  8
0
  5
C8
  6
CONTINUOUS
 62
7
 10
-20.91
 20
3.096
 30
0.0
 11
-21.066
 21
3.096
 31
0.0
  0
ARC
  8
0
  5
CA
  6
CONTINUOUS
 62
7
 10
-21.942895
 20
3.302949
 30
0.0
 40
0.456261
 50
86.8249138889
 51
160.463875
  0
ARC
  8
0
  5
CC
  6
CONTINUOUS
 62
7
 10
-21.685509
 20
3.137483
 30
0.0
 40
0.09
 50
94.1927305556
 51
194.2156166667
  0
ARC
  8
0
  5
CE
  6
CONTINUOUS
 62
7
 10
-22.297615
 20
3.343458
 30
0.0
 40
0.135
 50
94.1927305556
 51
194.2156166667
  0
LINE
  8
0
  5
D0
  6
CONTINUOUS
 62
7
 10
-20.818
 20
3.292
 30
0.0
 11
-21.692
 21
3.227
 31
0.0
  0
LINE
  8
0
  5
D2
  6
CONTINUOUS
 62
7
 10
-20.822
 20
3.587
 30
0.0
 11
-22.308
 21
3.478
 31
0.0
  0
LINE
  8
0
  5
D4
  6
CONTINUOUS
 62
7
 10
-20.697
 20
3.267
 30
0.0
 11
-20.654
 21
2.909
 31
0.0
  0
LINE
  8
0
  5
D6
  6
CONTINUOUS
 62
7
 10
-17.765
 20
3.292
 30
0.0
 11
-15.722
 21
3.292
 31
0.0
  0
LINE
  8
0
  5
D8
  6
CONTINUOUS
 62
7
 10
-20.148
 20
3.752
 30
0.0
 11
-15.124
 21
3.752
 31
0.0
  0
LINE
  8
0
  5
DA
  6
CONTINUOUS
 62
7
 10
-20.442
 20
2.926
 30
0.0
 11
-20.442
 21
2.806
 31
0.0
  0
ARC
  8
0
  5
DC
  6
CONTINUOUS
 62
7
 10
-17.764875
 20
3.201356
 30
0.0
 40
0.09
 50
90.0
 51
191.5437305556
  0
ARC
  8
0
  5
DE
  6
CONTINUOUS
 62
7
 10
-18.322081
 20
3.201356
 30
0.0
 40
0.09
 50
11.5437305556
 51
90.0
  0
ARC
  8
0
  5
E0
  6
CONTINUOUS
 62
7
 10
-15.215425
 20
3.659146
 30
0.0
 40
0.231204
 50
14.0789472222
 51
99.836175
  0
LINE
  8
0
  5
E2
  6
CONTINUOUS
 62
7
 10
-14.991
 20
3.716
 30
0.0
 11
-14.972
 21
3.532
 31
0.0
  0
ARC
  8
0
  5
E4
  6
CONTINUOUS
 62
7
 10
-15.722618
 20
3.201356
 30
0.0
 40
0.09
 50
11.5437305556
 51
90.0
  0
ARC
  8
0
  5
E6
  6
CONTINUOUS
 62
7
 10
-15.151363
 20
3.272007
 30
0.0
 40
0.315
 50
0.0
 51
90.0
  0
LINE
  8
0
  5
E8
  6
CONTINUOUS
 62
7
 10
-9.976
 20
3.778
 30
0.0
 11
-9.976
 21
-3.722
 31
0.0
  0
LINE
  8
0
  5
EA
  6
CONTINUOUS
 62
7
 10
14.242
 20
3.778
 30
0.0
 11
14.242
 21
-3.722
 31
0.0
  0
ARC
  8
0
  5
EC
  6
CONTINUOUS
 62
7
 10
14.24268
 20
0.027856
 30
0.0
 40
3.75
 50
270.0
 51
90.0
  0
LINE
  8
0
  5
EE
  6
CONTINUOUS
 62
7
 10
4.542
 20
-6.764
 30
0.0
 11
3.674
 21
-6.422
 31
0.0
  0
LINE
  8
0
  5
F0
  6
CONTINUOUS
 62
7
 10
3.846
 20
-5.876
 30
0.0
 11
4.875
 21
-5.876
 31
0.0
  0
LINE
  8
0
  5
F2
  6
CONTINUOUS
 62
7
 10
4.77
 20
-6.067
 30
0.0
 11
3.846
 21
-5.876
 31
0.0
  0
LINE
  8
0
  5
F4
  6
CONTINUOUS
 62
7
 10
-5.848
 20
-4.052
 30
0.0
 11
11.652
 21
-4.052
 31
0.0
  0
LINE
  8
0
  5
F6
  6
CONTINUOUS
 62
7
 10
-10.298
 20
-4.052
 30
0.0
 11
14.777
 21
-4.052
 31
0.0
  0
LINE
  8
0
  5
F8
  6
CONTINUOUS
 62
7
 10
-9.976
 20
-3.722
 30
0.0
 11
14.242
 21
-3.722
 31
0.0
  0
LINE
  8
0
  5
FA
  6
CONTINUOUS
 62
7
 10
3.674
 20
-4.125
 30
0.0
 11
15.522
 21
-4.125
 31
0.0
  0
LINE
  8
0
  5
FC
  6
CONTINUOUS
 62
7
 10
-9.862
 20
-6.136
 30
0.0
 11
3.237
 21
-6.136
 31
0.0
  0
LINE
  8
0
  5
FE
  6
CONTINUOUS
 62
7
 10
-10.662
 20
-3.808
 30
0.0
 11
-10.662
 21
-6.728
 31
0.0
  0
LINE
  8
0
  5
100
  6
CONTINUOUS
 62
7
 10
-10.298
 20
-6.728
 30
0.0
 11
-10.298
 21
-3.808
 31
0.0
  0
LINE
  8
0
  5
102
  6
CONTINUOUS
 62
7
 10
-9.862
 20
-4.167
 30
0.0
 11
-9.862
 21
-6.342
 31
0.0
  0
LINE
  8
0
  5
104
  6
CONTINUOUS
 62
7
 10
-10.298
 20
-6.612
 30
0.0
 11
-10.132
 21
-6.612
 31
0.0
  0
LINE
  8
0
  5
106
  6
CONTINUOUS
 62
7
 10
-10.662
 20
-6.728
 30
0.0
 11
-10.298
 21
-6.728
 31
0.0
  0
ARC
  8
0
  5
108
  6
CONTINUOUS
 62
7
 10
-10.131598
 20
-6.341259
 30
0.0
 40
0.27
 50
270.0
 51
360.0
  0
LINE
  8
0
  5
10A
  6
CONTINUOUS
 62
7
 10
-10.298
 20
-3.897
 30
0.0
 11
-10.132
 21
-3.897
 31
0.0
  0
LINE
  8
0
  5
10C
  6
CONTINUOUS
 62
7
 10
-10.298
 20
-3.808
 30
0.0
 11
-10.662
 21
-3.808
 31
0.0
  0
ARC
  8
0
  5
10E
  6
CONTINUOUS
 62
7
 10
-10.131598
 20
-4.167004
 30
0.0
 40
0.27
 50
0.0
 51
90.0
  0
LINE
  8
0
  5
110
  6
CONTINUOUS
 62
7
 10
3.237
 20
-6.81
 30
0.0
 11
3.237
 21
-3.892
 31
0.0
  0
LINE
  8
0
  5
112
  6
CONTINUOUS
 62
7
 10
3.237
 20
-6.694
 30
0.0
 11
3.404
 21
-6.694
 31
0.0
  0
LINE
  8
0
  5
114
  6
CONTINUOUS
 62
7
 10
3.237
 20
-3.98
 30
0.0
 11
3.404
 21
-3.98
 31
0.0
  0
LINE
  8
0
  5
116
  6
CONTINUOUS
 62
7
 10
3.674
 20
-4.125
 30
0.0
 11
3.674
 21
-6.424
 31
0.0
  0
ARC
  8
0
  5
118
  6
CONTINUOUS
 62
7
 10
3.403888
 20
-6.42392
 30
0.0
 40
0.27
 50
270.0
 51
360.0
  0
ARC
  8
0
  5
11A
  6
CONTINUOUS
 62
7
 10
3.403888
 20
-4.249665
 30
0.0
 40
0.27
 50
0.0
 51
90.0
  0
CIRCLE
  8
0
  5
11C
  6
CONTINUOUS
 62
7
 10
12.372724
 20
-7.199559
 30
0.0
 40
2.544716
  0
CIRCLE
  8
0
  5
11E
  6
CONTINUOUS
 62
7
 10
7.048573
 20
-7.199559
 30
0.0
 40
2.544716
  0
ARC
  8
0
  5
120
  6
CONTINUOUS
 62
7
 10
7.048573
 20
-7.199559
 30
0.0
 40
2.393486
 50
235.8136277778
 51
17.4224277778
  0
ARC
  8
0
  5
122
  6
CONTINUOUS
 62
7
 10
12.372724
 20
-7.199559
 30
0.0
 40
2.393486
 50
235.8136277778
 51
17.4224277778
  0
ARC
  8
0
  5
124
  6
CONTINUOUS
 62
7
 10
12.372724
 20
-7.199559
 30
0.0
 40
2.393486
 50
80.6929222222
 51
134.0969833333
  0
CIRCLE
  8
0
  5
126
  6
CONTINUOUS
 62
7
 10
12.372724
 20
-7.199559
 30
0.0
 40
0.349246
  0
CIRCLE
  8
0
  5
128
  6
CONTINUOUS
 62
7
 10
12.372724
 20
-7.199559
 30
0.0
 40
0.446118
  0
CIRCLE
  8
0
  5
12A
  6
CONTINUOUS
 62
7
 10
12.372724
 20
-7.199559
 30
0.0
 40
1.421296
  0
CIRCLE
  8
0
  5
12C
  6
CONTINUOUS
 62
7
 10
12.372724
 20
-7.199559
 30
0.0
 40
1.263091
  0
CIRCLE
  8
0
  5
12E
  6
CONTINUOUS
 62
7
 10
7.048573
 20
-7.199559
 30
0.0
 40
1.421296
  0
CIRCLE
  8
0
  5
130
  6
CONTINUOUS
 62
7
 10
7.048573
 20
-7.199559
 30
0.0
 40
1.263091
  0
ARC
  8
0
  5
132
  6
CONTINUOUS
 62
7
 10
7.048573
 20
-7.199559
 30
0.0
 40
2.393486
 50
80.6929222222
 51
134.0969833333
  0
CIRCLE
  8
0
  5
134
  6
CONTINUOUS
 62
7
 10
7.048573
 20
-7.199559
 30
0.0
 40
0.446118
  0
CIRCLE
  8
0
  5
136
  6
CONTINUOUS
 62
7
 10
7.048573
 20
-7.199559
 30
0.0
 40
0.349246
  0
LINE
  8
0
  5
138
  6
CONTINUOUS
 62
7
 10
10.094
 20
-6.067
 30
0.0
 11
9.17
 21
-5.876
 31
0.0
  0
LINE
  8
0
  5
13A
  6
CONTINUOUS
 62
7
 10
9.17
 20
-5.876
 30
0.0
 11
10.199
 21
-5.876
 31
0.0
  0
LINE
  8
0
  5
13C
  6
CONTINUOUS
 62
7
 10
9.222
 20
-5.876
 30
0.0
 11
10.198
 21
-5.876
 31
0.0
  0
LINE
  8
0
  5
13E
  6
CONTINUOUS
 62
7
 10
15.522
 20
-5.876
 30
0.0
 11
15.522
 21
-4.125
 31
0.0
  0
LINE
  8
0
  5
140
  6
CONTINUOUS
 62
7
 10
15.436
 20
-7.988
 30
0.0
 11
15.374
 21
-5.876
 31
0.0
  0
LINE
  8
0
  5
142
  6
CONTINUOUS
 62
7
 10
14.546
 20
-5.876
 30
0.0
 11
15.522
 21
-5.876
 31
0.0
  0
LINE
  8
0
  5
144
  6
CONTINUOUS
 62
7
 10
-9.976
 20
3.778
 30
0.0
 11
14.242
 21
3.778
 31
0.0
  0
ENDSEC
  0
EOF
