  0
SECTION
  2
HEADER
  9
$ACADVER
  1
AC1009
  9
$INSBASE
 10
0.0
 20
0.0
 30
0.0
  9
$EXTMIN
 10
-27.5
 20
-52.5
 30
0.0
  9
$EXTMAX
 10
25.0
 20
52.5
 30
0.0
  9
$LIMMIN
 10
-60.0
 20
-60.0
  9
$LIMMAX
 10
60.0
 20
60.0
  9
$ORTHOMODE
 70
     0
  9
$REGENMODE
 70
     1
  9
$FILLMODE
 70
     1
  9
$QTEXTMODE
 70
     0
  9
$MIRRTEXT
 70
     1
  9
$DRAGMODE
 70
     2
  9
$LTSCALE
 40
1.0
  9
$OSMODE
 70
     0
  9
$ATTMODE
 70
     1
  9
$TEXTSIZE
 40
0.2
  9
$TRACEWID
 40
0.05
  9
$TEXTSTYLE
  7
STANDARD
  9
$CLAYER
  8
0
  9
$CELTYPE
  6
BYLAYER
  9
$CECOLOR
 62
   256
  9
$DIMSCALE
 40
1.0
  9
$DIMASZ
 40
0.18
  9
$DIMEXO
 40
0.0625
  9
$DIMDLI
 40
0.38
  9
$DIMRND
 40
0.0
  9
$DIMDLE
 40
0.0
  9
$DIMEXE
 40
0.18
  9
$DIMTP
 40
0.0
  9
$DIMTM
 40
0.0
  9
$DIMTXT
 40
0.18
  9
$DIMCEN
 40
0.09
  9
$DIMTSZ
 40
0.0
  9
$DIMTOL
 70
     0
  9
$DIMLIM
 70
     0
  9
$DIMTIH
 70
     1
  9
$DIMTOH
 70
     1
  9
$DIMSE1
 70
     0
  9
$DIMSE2
 70
     0
  9
$DIMTAD
 70
     0
  9
$DIMZIN
 70
     0
  9
$DIMBLK
  1

  9
$DIMASO
 70
     1
  9
$DIMSHO
 70
     1
  9
$DIMPOST
  1

  9
$DIMAPOST
  1

  9
$DIMALT
 70
     0
  9
$DIMALTD
 70
     2
  9
$DIMALTF
 40
25.4
  9
$DIMLFAC
 40
1.0
  9
$DIMTOFL
 70
     0
  9
$DIMTVP
 40
0.0
  9
$DIMTIX
 70
     0
  9
$DIMSOXD
 70
     0
  9
$DIMSAH
 70
     0
  9
$DIMBLK1
  1

  9
$DIMBLK2
  1

  9
$DIMSTYLE
  2
*UNNAMED
  9
$DIMCLRD
 70
     0
  9
$DIMCLRE
 70
     0
  9
$DIMCLRT
 70
     0
  9
$DIMTFAC
 40
1.0
  9
$DIMGAP
 40
0.09
  9
$LUNITS
 70
     2
  9
$LUPREC
 70
     4
  9
$SKETCHINC
 40
0.1
  9
$FILLETRAD
 40
0.0
  9
$AUNITS
 70
     0
  9
$AUPREC
 70
     0
  9
$MENU
  1
acad
  9
$ELEVATION
 40
0.0
  9
$PELEVATION
 40
0.0
  9
$THICKNESS
 40
0.0
  9
$LIMCHECK
 70
     0
  9
$BLIPMODE
 70
     1
  9
$CHAMFERA
 40
0.0
  9
$CHAMFERB
 40
0.0
  9
$SKPOLY
 70
     0
  9
$TDCREATE
 40
2450773.343283680
  9
$TDUPDATE
 40
2450773.344601504
  9
$TDINDWG
 40
0.0013070602
  9
$TDUSRTIMER
 40
0.0013070602
  9
$USRTIMER
 70
     1
  9
$ANGBASE
 50
0.0
  9
$ANGDIR
 70
     0
  9
$PDMODE
 70
     0
  9
$PDSIZE
 40
0.0
  9
$PLINEWID
 40
0.0
  9
$COORDS
 70
     2
  9
$SPLFRAME
 70
     0
  9
$SPLINETYPE
 70
     6
  9
$SPLINESEGS
 70
    10
  9
$ATTDIA
 70
     0
  9
$ATTREQ
 70
     1
  9
$HANDLING
 70
     1
  9
$HANDSEED
  5
70
  9
$SURFTAB1
 70
     6
  9
$SURFTAB2
 70
     6
  9
$SURFTYPE
 70
     6
  9
$SURFU
 70
    10
  9
$SURFV
 70
    10
  9
$UCSNAME
  2

  9
$UCSORG
 10
0.0
 20
0.0
 30
0.0
  9
$UCSXDIR
 10
1.0
 20
0.0
 30
0.0
  9
$UCSYDIR
 10
0.0
 20
1.0
 30
0.0
  9
$PUCSNAME
  2

  9
$PUCSORG
 10
0.0
 20
0.0
 30
0.0
  9
$PUCSXDIR
 10
1.0
 20
0.0
 30
0.0
  9
$PUCSYDIR
 10
0.0
 20
1.0
 30
0.0
  9
$USERI1
 70
     0
  9
$USERI2
 70
     0
  9
$USERI3
 70
     0
  9
$USERI4
 70
     0
  9
$USERI5
 70
     0
  9
$USERR1
 40
0.0
  9
$USERR2
 40
0.0
  9
$USERR3
 40
0.0
  9
$USERR4
 40
0.0
  9
$USERR5
 40
0.0
  9
$WORLDVIEW
 70
     1
  9
$SHADEDGE
 70
     3
  9
$SHADEDIF
 70
    70
  9
$TILEMODE
 70
     1
  9
$MAXACTVP
 70
    16
  9
$PINSBASE
 10
0.0
 20
0.0
 30
0.0
  9
$PLIMCHECK
 70
     0
  9
$PEXTMIN
 10
-1.000000E+20
 20
-1.000000E+20
 30
-1.000000E+20
  9
$PEXTMAX
 10
-1.000000E+20
 20
-1.000000E+20
 30
-1.000000E+20
  9
$PLIMMIN
 10
0.0
 20
0.0
  9
$PLIMMAX
 10
12.0
 20
9.0
  9
$UNITMODE
 70
     0
  9
$VISRETAIN
 70
     0
  9
$PLINEGEN
 70
     0
  9
$PSLTSCALE
 70
     0
  9
$TREEDEPTH
 70
  3020
  9
$DWGCODEPAGE
  3
undefined
  0
ENDSEC
  0
SECTION
  2
TABLES
  0
TABLE
  2
VPORT
 70
     2
  0
VPORT
  2
*ACTIVE
 70
     0
 10
0.0
 20
0.0
 11
1.0
 21
1.0
 12
35.288509
 22
0.0
 13
0.0
 23
0.0
 14
1.25
 24
1.25
 15
10.0
 25
10.0
 16
0.0
 26
0.0
 36
1.0
 17
-6.673125
 27
0.0
 37
0.0
 40
120.0
 41
1.476923
 42
50.0
 43
0.0
 44
0.0
 50
0.0
 51
0.0
 71
     0
 72
   100
 73
     1
 74
     0
 75
     1
 76
     1
 77
     0
 78
     0
  0
ENDTAB
  0
TABLE
  2
LTYPE
 70
     1
  0
LTYPE
  2
CONTINUOUS
 70
    64
  3
Solid line
 72
    65
 73
     0
 40
0.0
  0
ENDTAB
  0
TABLE
  2
LAYER
 70
     2
  0
LAYER
  2
0
 70
    64
 62
     7
  6
CONTINUOUS
  0
LAYER
  2
1
 70
    64
 62
     7
  6
CONTINUOUS
  0
ENDTAB
  0
TABLE
  2
STYLE
 70
     1
  0
STYLE
  2
STANDARD
 70
     0
 40
0.2
 41
1.0
 50
0.0
 71
     0
 42
0.0
  3
txt
  4

  0
ENDTAB
  0
TABLE
  2
VIEW
 70
     0
  0
ENDTAB
  0
TABLE
  2
UCS
 70
     0
  0
ENDTAB
  0
TABLE
  2
APPID
 70
     1
  0
APPID
  2
ACAD
 70
    64
  0
ENDTAB
  0
TABLE
  2
DIMSTYLE
 70
     0
  0
ENDTAB
  0
ENDSEC
  0
SECTION
  2
BLOCKS
  0
BLOCK
  8
0
  5
6A
  2
ARROW
 70
    64
 10
0.0
 20
0.0
 30
0.0
  3
ARROW
  0
SOLID
  8
1
  6
CONTINUOUS
 62
     7
  5
6C
 10
0.0
 20
0.0
 30
0.0
 11
-2.5
 21
0.625
 31
0.0
 12
-2.5
 22
-0.625
 32
0.0
 13
-2.5
 23
-0.625
 33
0.0
  0
ENDBLK
  8
0
  5
6D
  0
ENDSEC
  0
SECTION
  2
ENTITIES
  0
LINE
  8
0
  5
2
 10
2.5
 20
43.75
 30
0.0
 11
10.0
 21
43.75
 31
0.0
  0
LINE
  8
0
  5
4
 10
10.0
 20
43.75
 30
0.0
 11
1.744
 21
51.791
 31
0.0
  0
LINE
  8
0
  5
6
 10
2.5
 20
50.0
 30
0.0
 11
2.5
 21
-50.0
 31
0.0
  0
LINE
  8
0
  5
8
 10
-2.5
 20
50.0
 30
0.0
 11
-2.5
 21
-50.0
 31
0.0
  0
CIRCLE
  8
0
  5
A
 10
0.0
 20
-50.0
 30
0.0
 40
2.5
  0
CIRCLE
  8
0
  5
C
 10
0.0
 20
50.0
 30
0.0
 40
2.5
  0
LINE
  8
0
  5
E
 10
7.5
 20
37.5
 30
0.0
 11
7.5
 21
40.0
 31
0.0
  0
LINE
  8
0
  5
10
 10
7.5
 20
40.0
 30
0.0
 11
25.0
 21
40.0
 31
0.0
  0
LINE
  8
0
  5
12
 10
25.0
 20
40.0
 30
0.0
 11
25.0
 21
37.5
 31
0.0
  0
LINE
  8
0
  5
14
 10
25.0
 20
37.5
 30
0.0
 11
7.5
 21
37.5
 31
0.0
  0
LINE
  8
0
  5
16
 10
-27.5
 20
-35.0
 30
0.0
 11
-27.5
 21
-40.0
 31
0.0
  0
LINE
  8
0
  5
18
 10
-27.5
 20
-40.0
 30
0.0
 11
-7.5
 21
-40.0
 31
0.0
  0
LINE
  8
0
  5
1A
 10
-7.5
 20
-40.0
 30
0.0
 11
-7.5
 21
-35.0
 31
0.0
  0
LINE
  8
0
  5
1C
 10
-7.5
 20
-35.0
 30
0.0
 11
-27.5
 21
-35.0
 31
0.0
  0
LINE
  8
0
  5
1E
 10
-25.0
 20
-35.0
 30
0.0
 11
-25.0
 21
-25.0
 31
0.0
  0
LINE
  8
0
  5
20
 10
-25.0
 20
-25.0
 30
0.0
 11
-18.75
 21
-25.0
 31
0.0
  0
LINE
  8
0
  5
22
 10
-18.75
 20
-25.0
 30
0.0
 11
-18.75
 21
-35.0
 31
0.0
  0
LINE
  8
0
  5
24
 10
-18.75
 20
-25.0
 30
0.0
 11
-20.0
 21
-21.25
 31
0.0
  0
LINE
  8
0
  5
26
 10
-20.0
 20
-21.25
 30
0.0
 11
-23.75
 21
-21.25
 31
0.0
  0
LINE
  8
0
  5
28
 10
-23.75
 20
-21.25
 30
0.0
 11
-25.0
 21
-25.0
 31
0.0
  0
LINE
  8
0
  5
2A
 10
-25.0
 20
-30.625
 30
0.0
 11
-23.75
 21
-33.125
 31
0.0
  0
LINE
  8
0
  5
2C
 10
-23.75
 20
-33.125
 30
0.0
 11
-23.75
 21
-34.375
 31
0.0
  0
LINE
  8
0
  5
2E
 10
-18.75
 20
-30.625
 30
0.0
 11
-20.0
 21
-33.125
 31
0.0
  0
LINE
  8
0
  5
30
 10
-20.0
 20
-33.125
 30
0.0
 11
-20.0
 21
-34.375
 31
0.0
  0
LINE
  8
0
  5
32
 10
-26.25
 20
-35.0
 30
0.0
 11
-25.0
 21
-36.25
 31
0.0
  0
LINE
  8
0
  5
34
 10
-10.0
 20
-36.25
 30
0.0
 11
-8.75
 21
-35.0
 31
0.0
  0
LINE
  8
0
  5
36
 10
-18.125
 20
-35.625
 30
0.0
 11
-16.875
 21
-36.875
 31
0.0
  0
LINE
  8
0
  5
38
 10
-16.875
 20
-35.625
 30
0.0
 11
-18.125
 21
-36.875
 31
0.0
  0
LINE
  8
0
  5
3A
 10
-25.0
 20
-36.25
 30
0.0
 11
-18.75
 21
-36.25
 31
0.0
  0
LINE
  8
0
  5
3C
 10
-16.25
 20
-36.25
 30
0.0
 11
-10.0
 21
-36.25
 31
0.0
  0
LINE
  8
0
  5
3E
 10
-2.5
 20
-43.75
 30
0.0
 11
-10.0
 21
-43.75
 31
0.0
  0
LINE
  8
0
  5
40
 10
-10.0
 20
-43.75
 30
0.0
 11
-1.744
 21
-51.791
 31
0.0
  0
LINE
  8
0
  5
42
 10
-2.5
 20
-30.0
 30
0.0
 11
-3.75
 21
-30.0
 31
0.0
  0
LINE
  8
0
  5
44
 10
-4.375
 20
-28.75
 30
0.0
 11
-4.375
 21
-29.375
 31
0.0
  0
LINE
  8
0
  5
46
 10
-4.375
 20
-31.25
 30
0.0
 11
-4.375
 21
-30.625
 31
0.0
  0
ARC
  8
0
  5
48
 10
-4.375
 20
-30.0
 30
0.0
 40
0.625
 50
90.0
 51
270.0
  0
LINE
  8
0
  5
4A
 10
-3.75
 20
-28.75
 30
0.0
 11
-3.75
 21
-31.25
 31
0.0
  0
LINE
  8
0
  5
4C
 10
-5.625
 20
-31.25
 30
0.0
 11
-5.625
 21
-28.75
 31
0.0
  0
LINE
  8
0
  5
4E
 10
-2.5
 20
15.0
 30
0.0
 11
-3.75
 21
15.0
 31
0.0
  0
LINE
  8
0
  5
50
 10
-4.375
 20
16.25
 30
0.0
 11
-4.375
 21
15.625
 31
0.0
  0
LINE
  8
0
  5
52
 10
-4.375
 20
13.75
 30
0.0
 11
-4.375
 21
14.375
 31
0.0
  0
ARC
  8
0
  5
54
 10
-4.375
 20
15.0
 30
0.0
 40
0.625
 50
90.0
 51
270.0
  0
LINE
  8
0
  5
56
 10
-3.75
 20
16.25
 30
0.0
 11
-3.75
 21
13.75
 31
0.0
  0
LINE
  8
0
  5
58
 10
-5.625
 20
13.75
 30
0.0
 11
-5.625
 21
16.25
 31
0.0
  0
LINE
  8
0
  5
5A
 10
-6.25
 20
-43.75
 30
0.0
 11
-10.0
 21
-40.0
 31
0.0
  0
LINE
  8
0
  5
5C
 10
6.25
 20
43.75
 30
0.0
 11
10.0
 21
40.0
 31
0.0
  0
CIRCLE
  8
0
  5
5E
 10
8.75
 20
36.25
 30
0.0
 40
1.25
  0
LINE
  8
0
  5
60
 10
22.5
 20
37.5
 30
0.0
 11
22.5
 21
30.0
 31
0.0
  0
INSERT
  8
0
  5
64
  2
ARROW
 10
10.0
 20
40.0
 30
0.0
 41
1.000002
 42
1.000002
 50
315.0
  0
INSERT
  8
0
  5
66
  2
ARROW
 10
-6.25
 20
-43.75
 30
0.0
 41
1.000002
 42
1.000002
 50
315.0
  0
LINE
  8
0
  5
68
 10
-20.0
 20
-34.375
 30
0.0
 11
-23.75
 21
-34.375
 31
0.0
  0
SOLID
  8
0
  5
6F
 10
22.5
 20
30.0
 30
0.0
 11
23.125
 21
32.5
 31
0.0
 12
21.875
 22
32.5
 32
0.0
 13
21.875
 23
32.5
 33
0.0
  0
ENDSEC
  0
EOF
