  0
SECTION
  2
HEADER
  9
$ACADVER
  1
AC1009
  9
$INSBASE
 10
0.0
 20
0.0
 30
0.0
  9
$EXTMAX
 10
11.25
 20
22.5
 30
0.0
  9
$EXTMIN
 10
-11.25
 20
-20.0
 30
0.0
  9
$LIMMAX
 10
12.0
 20
9.0
  9
$LIMMIN
 10
0.0
 20
0.0
  9
$ORTHOMODE
 70
0
  9
$REGENMODE
 70
1
  9
$FILLMODE
 70
1
  9
$QTEXTMODE
 70
0
  9
$MIRRTEXT
 70
1
  9
$DRAGMODE
 70
2
  9
$LTSCALE
 40
1.0
  9
$OSMODE
 70
0
  9
$ATTMODE
 70
1
  9
$TEXTSIZE
 40
0.2
  9
$TRACEWID
 40
0.05
  9
$TEXTSTYLE
  7
STANDARD
  9
$CLAYER
  8
0
  9
$CELTYPE
  6
CONTINUOUS
  9
$CECOLOR
 62
256
  9
$DIMSCALE
 40
1.0
  9
$DIMASZ
 40
0.18
  9
$DIMEXO
 40
0.0625
  9
$DIMDLI
 40
0.38
  9
$DIMRND
 40
0.0
  9
$DIMDLE
 40
0.0
  9
$DIMEXE
 40
0.18
  9
$DIMTP
 40
0.0
  9
$DIMTM
 40
0.0
  9
$DIMTXT
 40
0.18
  9
$DIMCEN
 40
0.09
  9
$DIMTSZ
 40
0.0
  9
$DIMTOL
 70
0
  9
$DIMLIM
 70
0
  9
$DIMTIH
 70
1
  9
$DIMTOH
 70
1
  9
$DIMSE1
 70
0
  9
$DIMSE2
 70
0
  9
$DIMTAD
 70
0
  9
$DIMZIN
 70
0
  9
$DIMBLK
  1

  9
$DIMASO
 70
1
  9
$DIMSHO
 70
1
  9
$DIMPOST
  1

  9
$DIMAPOST
  1

  9
$DIMALT
 70
0
  9
$DIMALTD
 70
2
  9
$DIMALTF
 40
25.4
  9
$DIMLFAC
 40
1.0
  9
$DIMTOFL
 70
0
  9
$DIMTVP
 40
0.0
  9
$DIMTIX
 70
0
  9
$DIMSOXD
 70
0
  9
$DIMSAH
 70
0
  9
$DIMBLK1
  1

  9
$DIMBLK2
  1

  9
$DIMSTYLE
  2
*UNNAMED
  9
$DIMCLRD
 70
0
  9
$DIMCLRE
 70
0
  9
$DIMCLRT
 70
0
  9
$DIMTFAC
 40
1.0
  9
$DIMGAP
 40
0.09
  9
$LUNITS
 70
2
  9
$LUPREC
 70
4
  9
$AXISMODE
 70
0
  9
$AXISUNIT
 10
0.0
 20
0.0
  9
$SKETCHINC
 40
0.1
  9
$FILLETRAD
 40
0.0
  9
$AUNITS
 70
0
  9
$AUPREC
 70
0
  9
$MENU
  1
acad
  9
$ELEVATION
 40
0.0
  9
$PELEVATION
 40
0.0
  9
$THICKNESS
 40
0.0
  9
$LIMCHECK
 70
0
  9
$BLIPMODE
 70
1
  9
$CHAMFERA
 40
0.0
  9
$CHAMFERB
 40
0.0
  9
$SKPOLY
 70
0
  9
$TDCREATE
 40
0.0
  9
$TDUPDATE
 40
0.0
  9
$TDINDWG
 40
0.0
  9
$TDUSRTIMER
 40
0.0
  9
$USRTIMER
 70
1
  9
$ANGBASE
 50
0.0
  9
$ANGDIR
 70
0
  9
$PDMODE
 70
0
  9
$PDSIZE
 40
0.0
  9
$PLINEWID
 40
0.0
  9
$COORDS
 70
0
  9
$SPLFRAME
 70
0
  9
$SPLINETYPE
 70
6
  9
$SPLINESEGS
 70
10
  9
$ATTDIA
 70
0
  9
$ATTREQ
 70
1
  9
$HANDLING
 70
1
  9
$HANDSEED
  5
7C
  9
$SURFTAB1
 70
6
  9
$SURFTAB2
 70
6
  9
$SURFTYPE
 70
6
  9
$SURFU
 70
10
  9
$SURFV
 70
10
  9
$UCSNAME
  2

  9
$UCSORG
 10
0.0
 20
0.0
 30
0.0
  9
$UCSXDIR
 10
1.0
 20
0.0
 30
0.0
  9
$UCSYDIR
 10
0.0
 20
1.0
 30
0.0
  9
$PUCSNAME
  2
 
  9
$PUCSORG
 10
0.0
 20
0.0
 30
0.0
  9
$PUCSXDIR
 10
1.0
 20
0.0
 30
0.0
  9
$PUCSYDIR
 10
0.0
 20
1.0
 30
0.0
  9
$USERI1
 70
0
  9
$USERI2
 70
0
  9
$USERI3
 70
0
  9
$USERI4
 70
0
  9
$USERI5
 70
0
  9
$USERR1
 40
0.0
  9
$USERR2
 40
0.0
  9
$USERR3
 40
0.0
  9
$USERR4
 40
0.0
  9
$USERR5
 40
0.0
  9
$WORLDVIEW
 70
1
  9
$SHADEDGE
 70
3
  9
$SHADEDIF
 70
70
  9
$TILEMODE
 70
1
  9
$MAXACTVP
 70
16
  9
$PINSBASE
 10
0.0
 20
0.0
 30
0.0
  9
$PLIMCHECK
 70
0
  9
$PEXTMIN
 10
-1.000000E+020
 20
-1.000000E+020
 30
-1.000000E+020
  9
$PEXTMAX
 10
-1.000000E+020
 20
-1.000000E+020
 30
-1.000000E+020
  9
$PLIMMIN
 10
0.0
 20
0.0
  9
$PLIMMAX
 10
12.0
 20
9.0
  9
$UNITMODE
 70
0
  9
$VISRETAIN
 70
0
  0
ENDSEC
  0
SECTION
  2
TABLES
  0
TABLE
  2
LTYPE
 70
7
  0
LTYPE
  2
CONTINUOUS
 70
64
  3
Solid line
 72
65
 73
0
 40
0.0
  0
LTYPE
  2
DOT
 70
64
  3
. . . . . . . . . . . . . . . . . . . . . . . . . . . . . . . . .
 72
65
 73
2
 40
0.25
 49
0.0
 49
-0.25
  0
LTYPE
  2
HIDDEN
 70
64
  3
__ __ __ __ __ __ __ __ __ __ __ __ __ __ __ __ __ __ __ __ __ 
 72
65
 73
2
 40
0.375
 49
0.25
 49
-0.125
  0
LTYPE
  2
DASHED
 70
64
  3
__ __ __ __ __ __ __ __ __ __ __ __ __ __ __ __ __ __ __ __ __
 72
65
 73
2
 40
0.75
 49
0.5
 49
-0.25
  0
LTYPE
  2
DASHDOT
 70
64
  3
__ . __ . __ . __ . __ . __ . __ . __ . __ . __ . __ . __ . _
 72
65
 73
4
 40
1.0
 49
0.5
 49
-0.25
 49
0.0
 49
-0.25
  0
LTYPE
  2
DIVIDE
 70
64
  3
____ . . ____ . . ____ . . ____ . . ____ . . ____ . . ____ . .
 72
65
 73
6
 40
1.25
 49
0.5
 49
-0.25
 49
0.0
 49
-0.25
 49
0.0
 49
-0.25
  0
LTYPE
  2
CENTER
 70
64
  3
____ _ ____ _ ____ _ ____ _ ____ _ ____ _ ____ _ ____ _ ____ _
 72
65
 73
4
 40
2.0
 49
1.25
 49
-0.25
 49
0.25
 49
-0.25
  0
ENDTAB
  0
TABLE
  2
APPID
 70
1
  0
APPID
  2
ACAD
 70
0
  0
ENDTAB
  0
TABLE
  2
DIMSTYLE
 70
0
  0
ENDTAB
  0
TABLE
  2
LAYER
 70
4
  0
LAYER
  2
0
 70
0
 62
7
  6
CONTINUOUS
  0
LAYER
  2
CONSTRUCTION_CLASS
 70
0
 62
7
  6
CONTINUOUS
  0
LAYER
  2
PATTERN_CLASS
 70
0
 62
7
  6
CONTINUOUS
  0
LAYER
  2
1
 70
0
 62
7
  6
CONTINUOUS
  0
ENDTAB
  0
TABLE
  2
STYLE
 70
1
  0
STYLE
  2
STANDARD
 70
0
 40
0.2
 41
1.0
 50
0.0
 71
0
 42
0.0
  3
txt
  4

  0
ENDTAB
  0
TABLE
  2
UCS
 70
0
  0
ENDTAB
  0
TABLE
  2
VIEW
 70
0
  0
ENDTAB
  0
TABLE
  2
VPORT
 70
1
  0
VPORT
  2
*ACTIVE
 70
0
 10
0.0
 20
0.0
 11
1.0
 21
1.0
 12
0.0
 22
0.0
 13
0.0
 23
0.0
 14
0.0
 24
0.0
 15
0.0
 25
0.0
 16
0.0
 26
0.0
 36
1.0
 17
-1.242707
 27
1.2605
 37
0.0
 40
43.583
 41
1.336039
 42
50.0
 43
0.004
 44
0.0
 50
0.0
 51
0.0
 71
0
 72
100
 73
1
 74
0
 75
0
 76
0
 77
0
 78
0
  0
ENDTAB
  0
ENDSEC
  0
SECTION
  2
BLOCKS
  0
BLOCK
  8
1
  5
77
 70
0
 10
0.0
 20
0.0
 30
0.0
  2
ARROW
  3
ARROW
  0
SOLID
  8
1
  5
79
  6
CONTINUOUS
 62
7
 10
0.0
 20
0.0
 30
0.0
 11
-2.5
 21
0.625
 31
0.0
 12
-2.5
 22
-0.625
 32
0.0
 13
-2.5
 23
-0.625
 33
0.0
  0
ENDBLK
  8
1
  5
7A
  0
ENDSEC
  0
SECTION
  2
ENTITIES
  0
POLYLINE
  8
1
  5
2
  6
CONTINUOUS
 62
7
 10
0.0
 20
0.0
 30
0.0
 66
1
 70
1
  0
VERTEX
  8
1
  5
3
  6
CONTINUOUS
 62
7
 10
-2.5
 20
20.0
 30
0.0
  0
VERTEX
  8
1
  5
4
  6
CONTINUOUS
 62
7
 10
2.5
 20
20.0
 30
0.0
  0
VERTEX
  8
1
  5
5
  6
CONTINUOUS
 62
7
 10
2.5
 20
15.0
 30
0.0
  0
VERTEX
  8
1
  5
6
  6
CONTINUOUS
 62
7
 10
-2.5
 20
15.0
 30
0.0
  0
SEQEND
  8
1
  5
7
  0
LINE
  8
1
  5
9
  6
CONTINUOUS
 62
7
 10
-5.0
 20
-11.25
 30
0.0
 11
-5.0
 21
-17.5
 31
0.0
  0
LINE
  8
1
  5
B
  6
CONTINUOUS
 62
7
 10
-5.0
 20
-17.5
 30
0.0
 11
10.0
 21
-20.0
 31
0.0
  0
LINE
  8
1
  5
D
  6
CONTINUOUS
 62
7
 10
10.0
 20
-20.0
 30
0.0
 11
10.0
 21
-11.25
 31
0.0
  0
LINE
  8
1
  5
F
  6
CONTINUOUS
 62
7
 10
-10.0
 20
-11.25
 30
0.0
 11
-10.0
 21
-20.0
 31
0.0
  0
LINE
  8
1
  5
11
  6
CONTINUOUS
 62
7
 10
5.0
 20
-17.5
 30
0.0
 11
-10.0
 21
-20.0
 31
0.0
  0
LINE
  8
1
  5
13
  6
CONTINUOUS
 62
7
 10
5.0
 20
-17.5
 30
0.0
 11
5.0
 21
-11.25
 31
0.0
  0
LINE
  8
1
  5
15
  6
CONTINUOUS
 62
7
 10
-2.5
 20
15.0
 30
0.0
 11
-7.5
 21
10.0
 31
0.0
  0
LINE
  8
1
  5
17
  6
CONTINUOUS
 62
7
 10
2.5
 20
15.0
 30
0.0
 11
7.5
 21
10.0
 31
0.0
  0
INSERT
  8
1
  5
19
  6
CONTINUOUS
 62
7
  2
ARROW
 10
-10.0
 20
-20.0
 30
0.0
 41
1.0
 42
1.0
 43
1.0
 50
270.0
 70
1
 71
1
  0
INSERT
  8
1
  5
1B
  6
CONTINUOUS
 62
7
  2
ARROW
 10
-5.0
 20
-17.5
 30
0.0
 41
1.0
 42
1.0
 43
1.0
 50
270.0
 70
1
 71
1
  0
INSERT
  8
1
  5
1D
  6
CONTINUOUS
 62
7
  2
ARROW
 10
5.0
 20
-17.5
 30
0.0
 41
1.0
 42
1.0
 43
1.0
 50
270.0
 70
1
 71
1
  0
INSERT
  8
1
  5
1F
  6
CONTINUOUS
 62
7
  2
ARROW
 10
10.0
 20
-20.0
 30
0.0
 41
1.0
 42
1.0
 43
1.0
 50
270.0
 70
1
 71
1
  0
INSERT
  8
1
  5
21
  6
CONTINUOUS
 62
7
  2
ARROW
 10
7.5
 20
10.0
 30
0.0
 41
1.000002
 42
1.000002
 43
1.0
 50
315.0
 70
1
 71
1
  0
INSERT
  8
1
  5
23
  6
CONTINUOUS
 62
7
  2
ARROW
 10
-7.5
 20
10.0
 30
0.0
 41
1.000002
 42
-1.000002
 43
1.0
 50
225.0
 70
1
 71
1
  0
INSERT
  8
1
  5
25
  6
CONTINUOUS
 62
7
  2
ARROW
 10
0.0
 20
20.0
 30
0.0
 41
1.0
 42
1.0
 43
1.0
 50
270.0
 70
1
 71
1
  0
LINE
  8
1
  5
27
  6
CONTINUOUS
 62
7
 10
-11.25
 20
9.017
 30
0.0
 11
-10.267
 21
10.0
 31
0.0
  0
LINE
  8
1
  5
29
  6
CONTINUOUS
 62
7
 10
-11.25
 20
7.249
 30
0.0
 11
-8.499
 21
10.0
 31
0.0
  0
LINE
  8
1
  5
2B
  6
CONTINUOUS
 62
7
 10
-11.25
 20
5.481
 30
0.0
 11
-6.731
 21
10.0
 31
0.0
  0
LINE
  8
1
  5
2D
  6
CONTINUOUS
 62
7
 10
-11.25
 20
3.713
 30
0.0
 11
-4.963
 21
10.0
 31
0.0
  0
LINE
  8
1
  5
2F
  6
CONTINUOUS
 62
7
 10
-11.25
 20
1.945
 30
0.0
 11
-3.75
 21
9.445
 31
0.0
  0
LINE
  8
1
  5
31
  6
CONTINUOUS
 62
7
 10
-11.25
 20
0.178
 30
0.0
 11
-3.75
 21
7.678
 31
0.0
  0
LINE
  8
1
  5
33
  6
CONTINUOUS
 62
7
 10
-11.25
 20
-1.59
 30
0.0
 11
-3.75
 21
5.91
 31
0.0
  0
LINE
  8
1
  5
35
  6
CONTINUOUS
 62
7
 10
-11.25
 20
-3.358
 30
0.0
 11
-3.75
 21
4.142
 31
0.0
  0
LINE
  8
1
  5
37
  6
CONTINUOUS
 62
7
 10
-11.25
 20
-5.126
 30
0.0
 11
-3.75
 21
2.374
 31
0.0
  0
LINE
  8
1
  5
39
  6
CONTINUOUS
 62
7
 10
-11.25
 20
-6.893
 30
0.0
 11
-3.75
 21
0.607
 31
0.0
  0
LINE
  8
1
  5
3B
  6
CONTINUOUS
 62
7
 10
-11.25
 20
-8.661
 30
0.0
 11
-3.75
 21
-1.161
 31
0.0
  0
LINE
  8
1
  5
3D
  6
CONTINUOUS
 62
7
 10
-11.25
 20
-10.429
 30
0.0
 11
-3.75
 21
-2.929
 31
0.0
  0
LINE
  8
1
  5
3F
  6
CONTINUOUS
 62
7
 10
-10.303
 20
-11.25
 30
0.0
 11
-3.75
 21
-4.697
 31
0.0
  0
LINE
  8
1
  5
41
  6
CONTINUOUS
 62
7
 10
-8.536
 20
-11.25
 30
0.0
 11
-3.75
 21
-6.464
 31
0.0
  0
LINE
  8
1
  5
43
  6
CONTINUOUS
 62
7
 10
-6.768
 20
-11.25
 30
0.0
 11
-3.75
 21
-8.232
 31
0.0
  0
LINE
  8
1
  5
45
  6
CONTINUOUS
 62
7
 10
-5.0
 20
-11.25
 30
0.0
 11
-3.75
 21
-10.0
 31
0.0
  0
POLYLINE
  8
1
  5
47
  6
CONTINUOUS
 62
7
 10
0.0
 20
0.0
 30
0.0
 66
1
 70
1
  0
VERTEX
  8
1
  5
48
  6
CONTINUOUS
 62
7
 10
-11.25
 20
10.0
 30
0.0
  0
VERTEX
  8
1
  5
49
  6
CONTINUOUS
 62
7
 10
-3.75
 20
10.0
 30
0.0
  0
VERTEX
  8
1
  5
4A
  6
CONTINUOUS
 62
7
 10
-3.75
 20
-11.25
 30
0.0
  0
VERTEX
  8
1
  5
4B
  6
CONTINUOUS
 62
7
 10
-11.25
 20
-11.25
 30
0.0
  0
SEQEND
  8
1
  5
4C
  0
LINE
  8
1
  5
4E
  6
CONTINUOUS
 62
7
 10
3.75
 20
9.874
 30
0.0
 11
3.876
 21
10.0
 31
0.0
  0
LINE
  8
1
  5
50
  6
CONTINUOUS
 62
7
 10
3.75
 20
8.107
 30
0.0
 11
5.643
 21
10.0
 31
0.0
  0
LINE
  8
1
  5
52
  6
CONTINUOUS
 62
7
 10
3.75
 20
6.339
 30
0.0
 11
7.411
 21
10.0
 31
0.0
  0
LINE
  8
1
  5
54
  6
CONTINUOUS
 62
7
 10
3.75
 20
4.571
 30
0.0
 11
9.179
 21
10.0
 31
0.0
  0
LINE
  8
1
  5
56
  6
CONTINUOUS
 62
7
 10
3.75
 20
2.803
 30
0.0
 11
10.947
 21
10.0
 31
0.0
  0
LINE
  8
1
  5
58
  6
CONTINUOUS
 62
7
 10
3.75
 20
1.036
 30
0.0
 11
11.25
 21
8.536
 31
0.0
  0
LINE
  8
1
  5
5A
  6
CONTINUOUS
 62
7
 10
3.75
 20
-0.732
 30
0.0
 11
11.25
 21
6.768
 31
0.0
  0
LINE
  8
1
  5
5C
  6
CONTINUOUS
 62
7
 10
3.75
 20
-2.5
 30
0.0
 11
11.25
 21
5.0
 31
0.0
  0
LINE
  8
1
  5
5E
  6
CONTINUOUS
 62
7
 10
3.75
 20
-4.268
 30
0.0
 11
11.25
 21
3.232
 31
0.0
  0
LINE
  8
1
  5
60
  6
CONTINUOUS
 62
7
 10
3.75
 20
-6.036
 30
0.0
 11
11.25
 21
1.464
 31
0.0
  0
LINE
  8
1
  5
62
  6
CONTINUOUS
 62
7
 10
3.75
 20
-7.803
 30
0.0
 11
11.25
 21
-0.303
 31
0.0
  0
LINE
  8
1
  5
64
  6
CONTINUOUS
 62
7
 10
3.75
 20
-9.571
 30
0.0
 11
11.25
 21
-2.071
 31
0.0
  0
LINE
  8
1
  5
66
  6
CONTINUOUS
 62
7
 10
3.839
 20
-11.25
 30
0.0
 11
11.25
 21
-3.839
 31
0.0
  0
LINE
  8
1
  5
68
  6
CONTINUOUS
 62
7
 10
5.607
 20
-11.25
 30
0.0
 11
11.25
 21
-5.607
 31
0.0
  0
LINE
  8
1
  5
6A
  6
CONTINUOUS
 62
7
 10
7.374
 20
-11.25
 30
0.0
 11
11.25
 21
-7.374
 31
0.0
  0
LINE
  8
1
  5
6C
  6
CONTINUOUS
 62
7
 10
9.142
 20
-11.25
 30
0.0
 11
11.25
 21
-9.142
 31
0.0
  0
LINE
  8
1
  5
6E
  6
CONTINUOUS
 62
7
 10
10.91
 20
-11.25
 30
0.0
 11
11.25
 21
-10.91
 31
0.0
  0
POLYLINE
  8
1
  5
70
  6
CONTINUOUS
 62
7
 10
0.0
 20
0.0
 30
0.0
 66
1
 70
1
  0
VERTEX
  8
1
  5
71
  6
CONTINUOUS
 62
7
 10
3.75
 20
10.0
 30
0.0
  0
VERTEX
  8
1
  5
72
  6
CONTINUOUS
 62
7
 10
11.25
 20
10.0
 30
0.0
  0
VERTEX
  8
1
  5
73
  6
CONTINUOUS
 62
7
 10
11.25
 20
-11.25
 30
0.0
  0
VERTEX
  8
1
  5
74
  6
CONTINUOUS
 62
7
 10
3.75
 20
-11.25
 30
0.0
  0
SEQEND
  8
1
  5
75
  0
ENDSEC
  0
EOF
