  0
SECTION
  2
HEADER
  9
$ACADVER
  1
AC1014
  9
$ACADMAINTVER
 70
     0
  9
$DWGCODEPAGE
  3
ANSI_1252
  9
$INSBASE
 10
0.0
 20
0.0
 30
0.0
  9
$EXTMIN
 10
-0.452523
 20
-1.207405
 30
0.0
  9
$EXTMAX
 10
840.957155
 20
594.048639
 30
0.0
  9
$LIMMIN
 10
0.0
 20
0.0
  9
$LIMMAX
 10
12.0
 20
9.0
  9
$ORTHOMODE
 70
     1
  9
$REGENMODE
 70
     1
  9
$FILLMODE
 70
     1
  9
$QTEXTMODE
 70
     0
  9
$MIRRTEXT
 70
     1
  9
$DRAGMODE
 70
     2
  9
$LTSCALE
 40
1.0
  9
$OSMODE
 70
     0
  9
$ATTMODE
 70
     1
  9
$TEXTSIZE
 40
0.2
  9
$TRACEWID
 40
0.05
  9
$TEXTSTYLE
  7
STANDARD
  9
$CLAYER
  8
63
  9
$CELTYPE
  6
BYLAYER
  9
$CECOLOR
 62
   256
  9
$CELTSCALE
 40
1.0
  9
$DELOBJ
 70
     1
  9
$DISPSILH
 70
     0
  9
$DIMSCALE
 40
1.0
  9
$DIMASZ
 40
0.18
  9
$DIMEXO
 40
0.0625
  9
$DIMDLI
 40
0.38
  9
$DIMRND
 40
0.0
  9
$DIMDLE
 40
0.0
  9
$DIMEXE
 40
0.18
  9
$DIMTP
 40
0.0
  9
$DIMTM
 40
0.0
  9
$DIMTXT
 40
0.18
  9
$DIMCEN
 40
0.09
  9
$DIMTSZ
 40
0.0
  9
$DIMTOL
 70
     0
  9
$DIMLIM
 70
     0
  9
$DIMTIH
 70
     1
  9
$DIMTOH
 70
     1
  9
$DIMSE1
 70
     0
  9
$DIMSE2
 70
     0
  9
$DIMTAD
 70
     0
  9
$DIMZIN
 70
     0
  9
$DIMBLK
  1

  9
$DIMASO
 70
     1
  9
$DIMSHO
 70
     1
  9
$DIMPOST
  1

  9
$DIMAPOST
  1

  9
$DIMALT
 70
     0
  9
$DIMALTD
 70
     2
  9
$DIMALTF
 40
25.4
  9
$DIMLFAC
 40
1.0
  9
$DIMTOFL
 70
     0
  9
$DIMTVP
 40
0.0
  9
$DIMTIX
 70
     0
  9
$DIMSOXD
 70
     0
  9
$DIMSAH
 70
     0
  9
$DIMBLK1
  1

  9
$DIMBLK2
  1

  9
$DIMSTYLE
  2
STANDARD
  9
$DIMCLRD
 70
     0
  9
$DIMCLRE
 70
     0
  9
$DIMCLRT
 70
     0
  9
$DIMTFAC
 40
1.0
  9
$DIMGAP
 40
0.09
  9
$DIMJUST
 70
     0
  9
$DIMSD1
 70
     0
  9
$DIMSD2
 70
     0
  9
$DIMTOLJ
 70
     1
  9
$DIMTZIN
 70
     0
  9
$DIMALTZ
 70
     0
  9
$DIMALTTZ
 70
     0
  9
$DIMFIT
 70
     3
  9
$DIMUPT
 70
     0
  9
$DIMUNIT
 70
     2
  9
$DIMDEC
 70
     4
  9
$DIMTDEC
 70
     4
  9
$DIMALTU
 70
     2
  9
$DIMALTTD
 70
     2
  9
$DIMTXSTY
  7
STANDARD
  9
$DIMAUNIT
 70
     0
  9
$LUNITS
 70
     2
  9
$LUPREC
 70
     4
  9
$SKETCHINC
 40
0.1
  9
$FILLETRAD
 40
0.5
  9
$AUNITS
 70
     0
  9
$AUPREC
 70
     0
  9
$MENU
  1
.
  9
$ELEVATION
 40
0.0
  9
$PELEVATION
 40
0.0
  9
$THICKNESS
 40
0.0
  9
$LIMCHECK
 70
     0
  9
$BLIPMODE
 70
     0
  9
$CHAMFERA
 40
0.5
  9
$CHAMFERB
 40
0.5
  9
$CHAMFERC
 40
1.0
  9
$CHAMFERD
 40
0.0
  9
$SKPOLY
 70
     0
  9
$TDCREATE
 40
2452894.368587940
  9
$TDUPDATE
 40
2453495.403831019
  9
$TDINDWG
 40
0.1630661458
  9
$TDUSRTIMER
 40
0.1630661458
  9
$USRTIMER
 70
     1
  9
$ANGBASE
 50
0.0
  9
$ANGDIR
 70
     0
  9
$PDMODE
 70
     0
  9
$PDSIZE
 40
0.0
  9
$PLINEWID
 40
0.0
  9
$COORDS
 70
     1
  9
$SPLFRAME
 70
     0
  9
$SPLINETYPE
 70
     6
  9
$SPLINESEGS
 70
     8
  9
$ATTDIA
 70
     0
  9
$ATTREQ
 70
     1
  9
$HANDLING
 70
     1
  9
$HANDSEED
  5
2EF
  9
$SURFTAB1
 70
     6
  9
$SURFTAB2
 70
     6
  9
$SURFTYPE
 70
     6
  9
$SURFU
 70
     6
  9
$SURFV
 70
     6
  9
$UCSNAME
  2

  9
$UCSORG
 10
0.0
 20
0.0
 30
0.0
  9
$UCSXDIR
 10
1.0
 20
0.0
 30
0.0
  9
$UCSYDIR
 10
0.0
 20
1.0
 30
0.0
  9
$PUCSNAME
  2

  9
$PUCSORG
 10
0.0
 20
0.0
 30
0.0
  9
$PUCSXDIR
 10
1.0
 20
0.0
 30
0.0
  9
$PUCSYDIR
 10
0.0
 20
1.0
 30
0.0
  9
$USERI1
 70
     0
  9
$USERI2
 70
     0
  9
$USERI3
 70
     0
  9
$USERI4
 70
     0
  9
$USERI5
 70
     0
  9
$USERR1
 40
0.0
  9
$USERR2
 40
0.0
  9
$USERR3
 40
0.0
  9
$USERR4
 40
0.0
  9
$USERR5
 40
0.0
  9
$WORLDVIEW
 70
     1
  9
$SHADEDGE
 70
     3
  9
$SHADEDIF
 70
    70
  9
$TILEMODE
 70
     1
  9
$MAXACTVP
 70
    48
  9
$PINSBASE
 10
0.0
 20
0.0
 30
0.0
  9
$PLIMCHECK
 70
     0
  9
$PEXTMIN
 10
1.000000E+20
 20
1.000000E+20
 30
1.000000E+20
  9
$PEXTMAX
 10
-1.000000E+20
 20
-1.000000E+20
 30
-1.000000E+20
  9
$PLIMMIN
 10
0.0
 20
0.0
  9
$PLIMMAX
 10
12.0
 20
9.0
  9
$UNITMODE
 70
     0
  9
$VISRETAIN
 70
     1
  9
$PLINEGEN
 70
     0
  9
$PSLTSCALE
 70
     1
  9
$TREEDEPTH
 70
  3020
  9
$PICKSTYLE
 70
     1
  9
$CMLSTYLE
  2
STANDARD
  9
$CMLJUST
 70
     0
  9
$CMLSCALE
 40
1.0
  9
$PROXYGRAPHICS
 70
     1
  9
$MEASUREMENT
 70
     0
  0
ENDSEC
  0
SECTION
  2
CLASSES
  0
CLASS
  1
LWPOLYLINE
  2
AcDbPolyline
  3
"AutoCAD"
 90
        0
280
     0
281
     1
  0
CLASS
  1
IMAGE
  2
AcDbRasterImage
  3
ISM
 90
      127
280
     0
281
     1
  0
CLASS
  1
OLE2FRAME
  2
AcDbOle2Frame
  3
""
 90
        0
280
     0
281
     1
  0
CLASS
  1
HATCH
  2
AcDbHatch
  3
"ACAD_SEDONA"
 90
        0
280
     0
281
     1
  0
CLASS
  1
DICTIONARYVAR
  2
AcDbDictionaryVar
  3
"AutoCAD"
 90
        0
280
     0
281
     0
  0
CLASS
  1
RASTERVARIABLES
  2
AcDbRasterVariables
  3
ISM
 90
        0
280
     0
281
     0
  0
CLASS
  1
IMAGEDEF
  2
AcDbRasterImageDef
  3
ISM
 90
        0
280
     0
281
     0
  0
CLASS
  1
IMAGEDEF_REACTOR
  2
AcDbRasterImageDefReactor
  3
ISM
 90
        1
280
     0
281
     0
  0
CLASS
  1
IDBUFFER
  2
AcDbIdBuffer
  3
"Acad"
 90
        0
280
     0
281
     0
  0
CLASS
  1
SPATIAL_FILTER
  2
AcDbSpatialFilter
  3
"Acad"
 90
        0
280
     0
281
     0
  0
CLASS
  1
XRECORD
  2
AcDbXrecord
  3
"<Built In>"
 90
        0
280
     0
281
     0
  0
CLASS
  1
SORTENTSTABLE
  2
AcDbSortentsTable
  3
"AutoCAD"
 90
        0
280
     0
281
     0
  0
CLASS
  1
LAYER_INDEX
  2
AcDbLayerIndex
  3
"Acad"
 90
        0
280
     0
281
     0
  0
CLASS
  1
SPATIAL_INDEX
  2
AcDbSpatialIndex
  3
"Acad"
 90
        0
280
     0
281
     0
  0
CLASS
  1
OBJECT_PTR
  2
CAseDLPNTableRecord
  3
"ASE-LPNTableRecord"
 90
        1
280
     0
281
     0
  0
ENDSEC
  0
SECTION
  2
TABLES
  0
TABLE
  2
VPORT
  5
8
100
AcDbSymbolTable
 70
     1
  0
VPORT
  5
25
100
AcDbSymbolTableRecord
100
AcDbViewportTableRecord
  2
*ACTIVE
 70
    64
 10
0.0
 20
0.0
 11
1.0
 21
1.0
 12
420.047477
 22
295.792595
 13
0.0
 23
0.0
 14
0.5
 24
0.5
 15
0.5
 25
0.5
 16
0.0
 26
0.0
 36
1.0
 17
0.0
 27
0.0
 37
0.0
 40
605.88
 41
1.997783
 42
50.0
 43
0.0
 44
0.0
 50
0.0
 51
0.0
 71
     0
 72
   100
 73
     1
 74
     1
 75
     0
 76
     0
 77
     0
 78
     0
  0
ENDTAB
  0
TABLE
  2
LTYPE
  5
5
100
AcDbSymbolTable
 70
     3
  0
LTYPE
  5
12
100
AcDbSymbolTableRecord
100
AcDbLinetypeTableRecord
  2
BYBLOCK
 70
    64
  3

 72
    65
 73
     0
 40
0.0
  0
LTYPE
  5
13
100
AcDbSymbolTableRecord
100
AcDbLinetypeTableRecord
  2
BYLAYER
 70
    64
  3

 72
    65
 73
     0
 40
0.0
  0
LTYPE
  5
14
100
AcDbSymbolTableRecord
100
AcDbLinetypeTableRecord
  2
CONTINUOUS
 70
    64
  3
Solid line
 72
    65
 73
     0
 40
0.0
  0
ENDTAB
  0
TABLE
  2
LAYER
  5
2
100
AcDbSymbolTable
 70
     5
  0
LAYER
  5
E
100
AcDbSymbolTableRecord
100
AcDbLayerTableRecord
  2
0
 70
    64
 62
     7
  6
CONTINUOUS
  0
LAYER
  5
31
100
AcDbSymbolTableRecord
100
AcDbLayerTableRecord
  2
63
 70
    64
 62
   206
  6
CONTINUOUS
  0
LAYER
  5
3A
100
AcDbSymbolTableRecord
100
AcDbLayerTableRecord
  2
A1-CS
 70
    64
 62
     7
  6
CONTINUOUS
  0
LAYER
  5
DD
100
AcDbSymbolTableRecord
100
AcDbLayerTableRecord
  2
-CS
 70
    64
 62
     7
  6
CONTINUOUS
  0
LAYER
  5
182
100
AcDbSymbolTableRecord
100
AcDbLayerTableRecord
  2
DEFPOINTS
 70
    64
 62
     7
  6
CONTINUOUS
  0
ENDTAB
  0
TABLE
  2
STYLE
  5
3
100
AcDbSymbolTable
 70
     1
  0
STYLE
  5
F
100
AcDbSymbolTableRecord
100
AcDbTextStyleTableRecord
  2
STANDARD
 70
    64
 40
0.0
 41
1.0
 50
0.0
 71
     0
 42
0.2
  3
txt.shx
  4

  0
ENDTAB
  0
TABLE
  2
VIEW
  5
6
100
AcDbSymbolTable
 70
     0
  0
ENDTAB
  0
TABLE
  2
UCS
  5
7
100
AcDbSymbolTable
 70
     0
  0
ENDTAB
  0
TABLE
  2
APPID
  5
9
100
AcDbSymbolTable
 70
     1
  0
APPID
  5
10
100
AcDbSymbolTableRecord
100
AcDbRegAppTableRecord
  2
ACAD
 70
    64
  0
ENDTAB
  0
TABLE
  2
DIMSTYLE
  5
A
100
AcDbSymbolTable
 70
     1
  0
DIMSTYLE
105
1D
100
AcDbSymbolTableRecord
100
AcDbDimStyleTableRecord
  2
STANDARD
 70
    64
  3

  4

  5

  6

  7

 40
1.0
 41
0.18
 42
0.0625
 43
0.38
 44
0.18
 45
0.0
 46
0.0
 47
0.0
 48
0.0
140
0.18
141
0.09
142
0.0
143
25.4
144
1.0
145
0.0
146
1.0
147
0.09
 71
     0
 72
     0
 73
     1
 74
     1
 75
     0
 76
     0
 77
     0
 78
     0
170
     0
171
     2
172
     0
173
     0
174
     0
175
     0
176
     0
177
     0
178
     0
270
     2
271
     4
272
     4
273
     2
274
     2
340
F
275
     0
280
     0
281
     0
282
     0
283
     1
284
     0
285
     0
286
     0
287
     3
288
     0
  0
ENDTAB
  0
TABLE
  2
BLOCK_RECORD
  5
1
100
AcDbSymbolTable
 70
     0
  0
BLOCK_RECORD
  5
18
100
AcDbSymbolTableRecord
100
AcDbBlockTableRecord
  2
*MODEL_SPACE
  0
BLOCK_RECORD
  5
15
100
AcDbSymbolTableRecord
100
AcDbBlockTableRecord
  2
*PAPER_SPACE
  0
ENDTAB
  0
ENDSEC
  0
SECTION
  2
BLOCKS
  0
BLOCK
  5
19
100
AcDbEntity
  8
0
100
AcDbBlockBegin
  2
*MODEL_SPACE
 70
     0
 10
0.0
 20
0.0
 30
0.0
  3
*MODEL_SPACE
  1

  0
ENDBLK
  5
1A
100
AcDbEntity
  8
0
100
AcDbBlockEnd
  0
BLOCK
  5
16
100
AcDbEntity
 67
     1
  8
0
100
AcDbBlockBegin
  2
*PAPER_SPACE
 70
     0
 10
0.0
 20
0.0
 30
0.0
  3
*PAPER_SPACE
  1

  0
ENDBLK
  5
17
100
AcDbEntity
 67
     1
  8
0
100
AcDbBlockEnd
  0
ENDSEC
  0
SECTION
  2
ENTITIES
  0
LINE
  5
2B
100
AcDbEntity
  8
63
100
AcDbLine
 10
38.105699
 20
541.251003
 30
0.0
 11
802.299678
 21
541.256044
 31
0.0
  0
LINE
  5
2C
100
AcDbEntity
  8
63
100
AcDbLine
 10
38.105699
 20
541.251003
 30
0.0
 11
38.105699
 21
141.256044
 31
0.0
  0
LINE
  5
17F
100
AcDbEntity
  8
63
100
AcDbLine
 10
802.299678
 20
541.256044
 30
0.0
 11
802.299678
 21
141.256044
 31
0.0
  0
LINE
  5
19D
100
AcDbEntity
  8
63
100
AcDbLine
 10
38.105699
 20
141.256044
 30
0.0
 11
802.299678
 21
141.256044
 31
0.0
  0
TEXT
  5
19F
100
AcDbEntity
  8
A1-CS
  6
CONTINUOUS
 62
   212
100
AcDbText
 10
368.507155
 20
72.998639
 30
0.0
 40
2.0
  1
SCALE
 11
368.507155
 21
73.998639
 31
0.0
100
AcDbText
 73
     2
  0
TEXT
  5
1A0
100
AcDbEntity
  8
A1-CS
  6
CONTINUOUS
 62
   212
100
AcDbText
 10
792.270488
 20
23.458639
 30
0.0
 40
4.99
  1
A1
 72
     1
 11
795.597155
 21
23.458639
 31
0.0
100
AcDbText
  0
TEXT
  5
1A1
100
AcDbEntity
  8
A1-CS
  6
CONTINUOUS
 62
   212
100
AcDbText
 10
103.317155
 20
23.548639
 30
0.0
 40
2.0
  1
REFERENCE DRAWINGS
 41
1.25
 11
103.317155
 21
24.548639
 31
0.0
100
AcDbText
 73
     2
  0
TEXT
  5
1A2
100
AcDbEntity
  8
A1-CS
  6
CONTINUOUS
 62
   212
100
AcDbText
 10
792.140488
 20
576.548639
 30
0.0
 40
2.0
  1
12
 41
1.25
 72
     4
 11
793.807155
 21
577.548639
 31
0.0
100
AcDbText
  0
TEXT
  5
1A3
100
AcDbEntity
  8
A1-CS
  6
CONTINUOUS
 62
   212
100
AcDbText
 10
724.167155
 20
576.548639
 30
0.0
 40
2.0
  1
11
 41
1.25
 72
     4
 11
725.417155
 21
577.548639
 31
0.0
100
AcDbText
  0
TEXT
  5
1A4
100
AcDbEntity
  8
A1-CS
  6
CONTINUOUS
 62
   212
100
AcDbText
 10
656.718821
 20
576.548639
 30
0.0
 40
2.0
  1
10
 41
1.25
 72
     4
 11
658.177155
 21
577.548639
 31
0.0
100
AcDbText
  0
TEXT
  5
1A5
100
AcDbEntity
  8
A1-CS
  6
CONTINUOUS
 62
   212
100
AcDbText
 10
589.163821
 20
576.548639
 30
0.0
 40
2.0
  1
9
 41
1.25
 72
     4
 11
589.997155
 21
577.548639
 31
0.0
100
AcDbText
  0
TEXT
  5
1A6
100
AcDbEntity
  8
A1-CS
  6
CONTINUOUS
 62
   212
100
AcDbText
 10
521.263821
 20
576.548639
 30
0.0
 40
2.0
  1
8
 41
1.25
 72
     4
 11
522.097155
 21
577.548639
 31
0.0
100
AcDbText
  0
TEXT
  5
1A7
100
AcDbEntity
  8
A1-CS
  6
CONTINUOUS
 62
   212
100
AcDbText
 10
453.303821
 20
576.548639
 30
0.0
 40
2.0
  1
7
 41
1.25
 72
     4
 11
454.137155
 21
577.548639
 31
0.0
100
AcDbText
  0
TEXT
  5
1A8
100
AcDbEntity
  8
A1-CS
  6
CONTINUOUS
 62
   212
100
AcDbText
 10
385.433821
 20
576.548639
 30
0.0
 40
2.0
  1
6
 41
1.25
 72
     4
 11
386.267155
 21
577.548639
 31
0.0
100
AcDbText
  0
TEXT
  5
1A9
100
AcDbEntity
  8
A1-CS
  6
CONTINUOUS
 62
   212
100
AcDbText
 10
317.563821
 20
576.548639
 30
0.0
 40
2.0
  1
5
 41
1.25
 72
     4
 11
318.397155
 21
577.548639
 31
0.0
100
AcDbText
  0
TEXT
  5
1AA
100
AcDbEntity
  8
A1-CS
  6
CONTINUOUS
 62
   212
100
AcDbText
 10
249.663821
 20
576.548639
 30
0.0
 40
2.0
  1
4
 41
1.25
 72
     4
 11
250.497155
 21
577.548639
 31
0.0
100
AcDbText
  0
TEXT
  5
1AB
100
AcDbEntity
  8
A1-CS
  6
CONTINUOUS
 62
   212
100
AcDbText
 10
181.793821
 20
576.548639
 30
0.0
 40
2.0
  1
3
 41
1.25
 72
     4
 11
182.627155
 21
577.548639
 31
0.0
100
AcDbText
  0
TEXT
  5
1AC
100
AcDbEntity
  8
A1-CS
  6
CONTINUOUS
 62
   212
100
AcDbText
 10
113.823821
 20
576.553639
 30
0.0
 40
1.99
  1
2
 72
     4
 11
114.487155
 21
577.548639
 31
0.0
100
AcDbText
  0
TEXT
  5
1AD
100
AcDbEntity
  8
A1-CS
  6
CONTINUOUS
 62
   212
100
AcDbText
 10
46.275488
 20
576.553639
 30
0.0
 40
1.99
  1
1
 72
     4
 11
46.607155
 21
577.548639
 31
0.0
100
AcDbText
  0
TEXT
  5
1AE
100
AcDbEntity
  8
A1-CS
  6
CONTINUOUS
 62
   212
100
AcDbText
 10
808.267155
 20
34.998639
 30
0.0
 40
2.5
  1
REV
 72
     4
 11
812.017155
 21
36.248639
 31
0.0
100
AcDbText
  0
TEXT
  5
1AF
100
AcDbEntity
  8
A1-CS
  6
CONTINUOUS
 62
   212
100
AcDbText
 10
789.973828
 20
31.361387
 30
0.0
 40
2.5
  1
SIZE
 72
     4
 11
794.140495
 21
32.611387
 31
0.0
100
AcDbText
  0
TEXT
  5
1B0
100
AcDbEntity
  8
A1-CS
  6
CONTINUOUS
 62
   212
100
AcDbText
 10
703.243821
 20
34.998639
 30
0.0
 40
2.5
  1
DRAWING NUMBER
 72
     4
 11
720.327155
 21
36.248639
 31
0.0
100
AcDbText
  0
TEXT
  5
1B1
100
AcDbEntity
  8
A1-CS
  6
CONTINUOUS
 62
   212
100
AcDbText
 10
666.623821
 20
34.998639
 30
0.0
 40
2.5
  1
JOB NUMBER
 72
     4
 11
678.707155
 21
36.248639
 31
0.0
100
AcDbText
  0
TEXT
  5
1B2
100
AcDbEntity
  8
A1-CS
  6
CONTINUOUS
 62
   212
100
AcDbText
 10
460.52897
 20
21.531924
 30
0.0
 40
3.5
  1
MILLIMETRES
 72
     4
 11
478.02897
 21
23.281924
 31
0.0
100
AcDbText
  0
TEXT
  5
1B3
100
AcDbEntity
  8
A1-CS
  6
CONTINUOUS
 62
   212
100
AcDbText
 10
457.840488
 20
26.628639
 30
0.0
 40
3.5
  1
DIMENSIONS IN
 72
     4
 11
478.257155
 21
28.378639
 31
0.0
100
AcDbText
  0
TEXT
  5
1B4
100
AcDbEntity
  8
A1-CS
  6
CONTINUOUS
 62
   212
100
AcDbText
 10
457.840488
 20
32.128639
 30
0.0
 40
3.5
  1
DO NOT SCALE
 72
     4
 11
478.257155
 21
33.878639
 31
0.0
100
AcDbText
  0
TEXT
  5
1B5
100
AcDbEntity
  8
A1-CS
  6
CONTINUOUS
 62
   212
100
AcDbText
 10
22.477155
 20
23.548639
 30
0.0
 40
2.0
  1
No.
 41
1.25
 11
22.477155
 21
24.548639
 31
0.0
100
AcDbText
 73
     2
  0
TEXT
  5
1B6
100
AcDbEntity
  8
A1-CS
  6
CONTINUOUS
 62
   212
100
AcDbText
 10
357.450488
 20
23.548639
 30
0.0
 40
2.0
  1
ENG
 72
     4
 11
360.117155
 21
24.548639
 31
0.0
100
AcDbText
  0
TEXT
  5
1B7
100
AcDbEntity
  8
A1-CS
  6
CONTINUOUS
 62
   212
100
AcDbText
 10
368.507155
 20
33.948639
 30
0.0
 40
2.0
  1
DESIGN MANAGER
 11
368.507155
 21
34.948639
 31
0.0
100
AcDbText
 73
     2
  0
TEXT
  5
1B8
100
AcDbEntity
  8
A1-CS
  6
CONTINUOUS
 62
   212
100
AcDbText
 10
368.507155
 20
41.898639
 30
0.0
 40
2.0
  1
LEAD ENGINEER
 11
368.507155
 21
42.898639
 31
0.0
100
AcDbText
 73
     2
  0
TEXT
  5
1B9
100
AcDbEntity
  8
A1-CS
  6
CONTINUOUS
 62
   212
100
AcDbText
 10
368.507155
 20
49.938639
 30
0.0
 40
2.0
  1
ENGINEER
 11
368.507155
 21
50.938639
 31
0.0
100
AcDbText
 73
     2
  0
TEXT
  5
1BA
100
AcDbEntity
  8
A1-CS
  6
CONTINUOUS
 62
   212
100
AcDbText
 10
667.700488
 20
72.848639
 30
0.0
 40
2.5
  1
TITLE
 72
     4
 11
673.117155
 21
74.098639
 31
0.0
100
AcDbText
  0
TEXT
  5
1BB
100
AcDbEntity
  8
A1-CS
  6
CONTINUOUS
 62
   212
100
AcDbText
 10
15.653821
 20
47.428639
 30
0.0
 40
2.0
  1
H
 41
1.25
 72
     4
 11
16.487155
 21
48.428639
 31
0.0
100
AcDbText
  0
TEXT
  5
1BC
100
AcDbEntity
  8
A1-CS
  6
CONTINUOUS
 62
   212
100
AcDbText
 10
345.630488
 20
23.548639
 30
0.0
 40
2.0
  1
APP'D
 72
     4
 11
349.797155
 21
24.548639
 31
0.0
100
AcDbText
  0
TEXT
  5
1BD
100
AcDbEntity
  8
A1-CS
  6
CONTINUOUS
 62
   212
100
AcDbText
 10
440.480488
 20
72.998639
 30
0.0
 40
2.0
  1
DATE
 72
     4
 11
444.147155
 21
73.998639
 31
0.0
100
AcDbText
  0
TEXT
  5
1BE
100
AcDbEntity
  8
A1-CS
  6
CONTINUOUS
 62
   212
100
AcDbText
 10
420.423821
 20
72.998639
 30
0.0
 40
2.0
  1
SIGN
 72
     4
 11
423.757155
 21
73.998639
 31
0.0
100
AcDbText
  0
TEXT
  5
1BF
100
AcDbEntity
  8
A1-CS
  6
CONTINUOUS
 62
   212
100
AcDbText
 10
368.507155
 20
57.898639
 30
0.0
 40
2.0
  1
CHECKED
 11
368.507155
 21
58.898639
 31
0.0
100
AcDbText
 73
     2
  0
TEXT
  5
1C0
100
AcDbEntity
  8
A1-CS
  6
CONTINUOUS
 62
   212
100
AcDbText
 10
368.507155
 20
66.208639
 30
0.0
 40
2.0
  1
DRAWN
 11
368.507155
 21
67.208639
 31
0.0
100
AcDbText
 73
     2
  0
TEXT
  5
1C1
100
AcDbEntity
  8
A1-CS
  6
CONTINUOUS
 62
   212
100
AcDbText
 10
368.457155
 20
22.298639
 30
0.0
 40
2.0
  1
MANAGER
 11
368.457155
 21
23.298639
 31
0.0
100
AcDbText
 73
     2
  0
TEXT
  5
1C2
100
AcDbEntity
  8
A1-CS
  6
CONTINUOUS
 62
   212
100
AcDbText
 10
368.457155
 20
25.298639
 30
0.0
 40
2.0
  1
PROJECT
 11
368.457155
 21
26.298639
 31
0.0
100
AcDbText
 73
     2
  0
TEXT
  5
1C3
100
AcDbEntity
  8
A1-CS
  6
CONTINUOUS
 62
   212
100
AcDbText
 10
336.210488
 20
23.548639
 30
0.0
 40
2.0
  1
CHKD
 72
     4
 11
339.877155
 21
24.548639
 31
0.0
100
AcDbText
  0
TEXT
  5
1C4
100
AcDbEntity
  8
A1-CS
  6
CONTINUOUS
 62
   212
100
AcDbText
 10
327.770488
 20
23.508639
 30
0.0
 40
2.0
  1
BY
 72
     4
 11
329.437155
 21
24.508639
 31
0.0
100
AcDbText
  0
TEXT
  5
1C5
100
AcDbEntity
  8
A1-CS
  6
CONTINUOUS
 62
   212
100
AcDbText
 10
259.507155
 20
23.548639
 30
0.0
 40
2.0
  1
REVISION
 41
1.25
 11
259.507155
 21
24.548639
 31
0.0
100
AcDbText
 73
     2
  0
TEXT
  5
1C6
100
AcDbEntity
  8
A1-CS
  6
CONTINUOUS
 62
   212
100
AcDbText
 10
193.490488
 20
23.548639
 30
0.0
 40
2.0
  1
DATE
 72
     4
 11
197.157155
 21
24.548639
 31
0.0
100
AcDbText
  0
TEXT
  5
1C7
100
AcDbEntity
  8
A1-CS
  6
CONTINUOUS
 62
   212
100
AcDbText
 10
182.667155
 20
23.548639
 30
0.0
 40
2.0
  1
No.
 72
     4
 11
184.667155
 21
24.548639
 31
0.0
100
AcDbText
  0
TEXT
  5
1C8
100
AcDbEntity
  8
A1-CS
  6
CONTINUOUS
 62
   212
100
AcDbText
 10
31.137155
 20
23.548639
 30
0.0
 40
2.0
  1
DRAWING NUMBER
 41
1.25
 11
31.137155
 21
24.548639
 31
0.0
100
AcDbText
 73
     2
  0
TEXT
  5
1C9
100
AcDbEntity
  8
A1-CS
  6
CONTINUOUS
 62
   212
100
AcDbText
 10
823.573821
 20
330.428639
 30
0.0
 40
2.0
  1
D
 41
1.25
 72
     4
 11
824.407155
 21
331.428639
 31
0.0
100
AcDbText
  0
TEXT
  5
1CA
100
AcDbEntity
  8
A1-CS
  6
CONTINUOUS
 62
   212
100
AcDbText
 10
823.623821
 20
542.668639
 30
0.0
 40
2.0
  1
A
 41
1.25
 72
     4
 11
824.457155
 21
543.668639
 31
0.0
100
AcDbText
  0
TEXT
  5
1CB
100
AcDbEntity
  8
A1-CS
  6
CONTINUOUS
 62
   212
100
AcDbText
 10
823.563821
 20
471.928639
 30
0.0
 40
2.0
  1
B
 41
1.25
 72
     4
 11
824.397155
 21
472.928639
 31
0.0
100
AcDbText
  0
TEXT
  5
1CC
100
AcDbEntity
  8
A1-CS
  6
CONTINUOUS
 62
   212
100
AcDbText
 10
823.593821
 20
401.168639
 30
0.0
 40
2.0
  1
C
 41
1.25
 72
     4
 11
824.427155
 21
402.168639
 31
0.0
100
AcDbText
  0
TEXT
  5
1CD
100
AcDbEntity
  8
A1-CS
  6
CONTINUOUS
 62
   212
100
AcDbText
 10
823.573821
 20
259.668639
 30
0.0
 40
2.0
  1
E
 41
1.25
 72
     4
 11
824.407155
 21
260.668639
 31
0.0
100
AcDbText
  0
TEXT
  5
1CE
100
AcDbEntity
  8
A1-CS
  6
CONTINUOUS
 62
   212
100
AcDbText
 10
823.623821
 20
188.928639
 30
0.0
 40
2.0
  1
F
 41
1.25
 72
     4
 11
824.457155
 21
189.928639
 31
0.0
100
AcDbText
  0
TEXT
  5
1CF
100
AcDbEntity
  8
A1-CS
  6
CONTINUOUS
 62
   212
100
AcDbText
 10
823.573821
 20
118.168639
 30
0.0
 40
2.0
  1
G
 41
1.25
 72
     4
 11
824.407155
 21
119.168639
 31
0.0
100
AcDbText
  0
TEXT
  5
1D0
100
AcDbEntity
  8
A1-CS
  6
CONTINUOUS
 62
   212
100
AcDbText
 10
823.663821
 20
47.428639
 30
0.0
 40
2.0
  1
H
 41
1.25
 72
     4
 11
824.497155
 21
48.428639
 31
0.0
100
AcDbText
  0
TEXT
  5
1D1
100
AcDbEntity
  8
A1-CS
  6
CONTINUOUS
 62
   212
100
AcDbText
 10
15.573821
 20
330.428639
 30
0.0
 40
2.0
  1
D
 41
1.25
 72
     4
 11
16.407155
 21
331.428639
 31
0.0
100
AcDbText
  0
TEXT
  5
1D2
100
AcDbEntity
  8
A1-CS
  6
CONTINUOUS
 62
   212
100
AcDbText
 10
15.793821
 20
542.673639
 30
0.0
 40
1.99
  1
A
 72
     4
 11
16.457155
 21
543.668639
 31
0.0
100
AcDbText
  0
TEXT
  5
1D3
100
AcDbEntity
  8
A1-CS
  6
CONTINUOUS
 62
   212
100
AcDbText
 10
15.563821
 20
471.928639
 30
0.0
 40
2.0
  1
B
 41
1.25
 72
     4
 11
16.397155
 21
472.928639
 31
0.0
100
AcDbText
  0
TEXT
  5
1D4
100
AcDbEntity
  8
A1-CS
  6
CONTINUOUS
 62
   212
100
AcDbText
 10
15.593821
 20
401.168639
 30
0.0
 40
2.0
  1
C
 41
1.25
 72
     4
 11
16.427155
 21
402.168639
 31
0.0
100
AcDbText
  0
TEXT
  5
1D5
100
AcDbEntity
  8
A1-CS
  6
CONTINUOUS
 62
   212
100
AcDbText
 10
15.573821
 20
259.668639
 30
0.0
 40
2.0
  1
E
 41
1.25
 72
     4
 11
16.407155
 21
260.668639
 31
0.0
100
AcDbText
  0
TEXT
  5
1D6
100
AcDbEntity
  8
A1-CS
  6
CONTINUOUS
 62
   212
100
AcDbText
 10
15.623821
 20
188.928639
 30
0.0
 40
2.0
  1
F
 41
1.25
 72
     4
 11
16.457155
 21
189.928639
 31
0.0
100
AcDbText
  0
TEXT
  5
1D7
100
AcDbEntity
  8
A1-CS
  6
CONTINUOUS
 62
   212
100
AcDbText
 10
792.140488
 20
15.548639
 30
0.0
 40
2.0
  1
12
 41
1.25
 72
     4
 11
793.807155
 21
16.548639
 31
0.0
100
AcDbText
  0
TEXT
  5
1D8
100
AcDbEntity
  8
A1-CS
  6
CONTINUOUS
 62
   212
100
AcDbText
 10
724.167155
 20
15.548639
 30
0.0
 40
2.0
  1
11
 41
1.25
 72
     4
 11
725.417155
 21
16.548639
 31
0.0
100
AcDbText
  0
TEXT
  5
1D9
100
AcDbEntity
  8
A1-CS
  6
CONTINUOUS
 62
   212
100
AcDbText
 10
656.718821
 20
15.548639
 30
0.0
 40
2.0
  1
10
 41
1.25
 72
     4
 11
658.177155
 21
16.548639
 31
0.0
100
AcDbText
  0
TEXT
  5
1DA
100
AcDbEntity
  8
A1-CS
  6
CONTINUOUS
 62
   212
100
AcDbText
 10
589.163821
 20
15.548639
 30
0.0
 40
2.0
  1
9
 41
1.25
 72
     4
 11
589.997155
 21
16.548639
 31
0.0
100
AcDbText
  0
TEXT
  5
1DB
100
AcDbEntity
  8
A1-CS
  6
CONTINUOUS
 62
   212
100
AcDbText
 10
521.263821
 20
15.548639
 30
0.0
 40
2.0
  1
8
 41
1.25
 72
     4
 11
522.097155
 21
16.548639
 31
0.0
100
AcDbText
  0
TEXT
  5
1DC
100
AcDbEntity
  8
A1-CS
  6
CONTINUOUS
 62
   212
100
AcDbText
 10
453.303821
 20
15.548639
 30
0.0
 40
2.0
  1
7
 41
1.25
 72
     4
 11
454.137155
 21
16.548639
 31
0.0
100
AcDbText
  0
TEXT
  5
1DD
100
AcDbEntity
  8
A1-CS
  6
CONTINUOUS
 62
   212
100
AcDbText
 10
385.433821
 20
15.548639
 30
0.0
 40
2.0
  1
6
 41
1.25
 72
     4
 11
386.267155
 21
16.548639
 31
0.0
100
AcDbText
  0
TEXT
  5
1DE
100
AcDbEntity
  8
A1-CS
  6
CONTINUOUS
 62
   212
100
AcDbText
 10
317.563821
 20
15.548639
 30
0.0
 40
2.0
  1
5
 41
1.25
 72
     4
 11
318.397155
 21
16.548639
 31
0.0
100
AcDbText
  0
TEXT
  5
1DF
100
AcDbEntity
  8
A1-CS
  6
CONTINUOUS
 62
   212
100
AcDbText
 10
249.663821
 20
15.548639
 30
0.0
 40
2.0
  1
4
 41
1.25
 72
     4
 11
250.497155
 21
16.548639
 31
0.0
100
AcDbText
  0
TEXT
  5
1E0
100
AcDbEntity
  8
A1-CS
  6
CONTINUOUS
 62
   212
100
AcDbText
 10
181.793821
 20
15.548639
 30
0.0
 40
2.0
  1
3
 41
1.25
 72
     4
 11
182.627155
 21
16.548639
 31
0.0
100
AcDbText
  0
TEXT
  5
1E1
100
AcDbEntity
  8
A1-CS
  6
CONTINUOUS
 62
   212
100
AcDbText
 10
113.663821
 20
15.548639
 30
0.0
 40
2.0
  1
2
 41
1.25
 72
     4
 11
114.497155
 21
16.548639
 31
0.0
100
AcDbText
  0
TEXT
  5
1E2
100
AcDbEntity
  8
A1-CS
  6
CONTINUOUS
 62
   212
100
AcDbText
 10
46.180488
 20
15.548639
 30
0.0
 40
2.0
  1
1
 41
1.25
 72
     4
 11
46.597155
 21
16.548639
 31
0.0
100
AcDbText
  0
TEXT
  5
1E3
100
AcDbEntity
  8
A1-CS
  6
CONTINUOUS
 62
   212
100
AcDbText
 10
15.573821
 20
118.168639
 30
0.0
 40
2.0
  1
G
 41
1.25
 72
     4
 11
16.407155
 21
119.168639
 31
0.0
100
AcDbText
  0
LINE
  5
1E4
100
AcDbEntity
  8
A1-CS
  6
CONTINUOUS
 62
   212
100
AcDbLine
 10
830.957155
 20
0.048639
 30
0.0
 11
840.957155
 21
0.048639
 31
0.0
  0
LINE
  5
1E5
100
AcDbEntity
  8
A1-CS
  6
CONTINUOUS
 62
   212
100
AcDbLine
 10
-0.042845
 20
0.048639
 30
0.0
 11
9.957155
 21
0.048639
 31
0.0
  0
LINE
  5
1E6
100
AcDbEntity
  8
A1-CS
  6
CONTINUOUS
 62
   212
100
AcDbLine
 10
840.957155
 20
584.048639
 30
0.0
 11
840.957155
 21
594.048639
 31
0.0
  0
LINE
  5
1E7
100
AcDbEntity
  8
A1-CS
  6
CONTINUOUS
 62
   212
100
AcDbLine
 10
840.957155
 20
0.048639
 30
0.0
 11
840.957155
 21
10.048639
 31
0.0
  0
LINE
  5
1E8
100
AcDbEntity
  8
A1-CS
  6
CONTINUOUS
 62
   212
100
AcDbLine
 10
9.957155
 20
594.048639
 30
0.0
 11
-0.042845
 21
594.048639
 31
0.0
  0
LINE
  5
1E9
100
AcDbEntity
  8
A1-CS
  6
CONTINUOUS
 62
   212
100
AcDbLine
 10
840.957155
 20
594.048639
 30
0.0
 11
830.957155
 21
594.048639
 31
0.0
  0
LINE
  5
1EA
100
AcDbEntity
  8
A1-CS
  6
CONTINUOUS
 62
   212
100
AcDbLine
 10
-0.042845
 20
10.048639
 30
0.0
 11
-0.042845
 21
0.048639
 31
0.0
  0
LINE
  5
1EB
100
AcDbEntity
  8
A1-CS
  6
CONTINUOUS
 62
   212
100
AcDbLine
 10
-0.042845
 20
594.048639
 30
0.0
 11
-0.042845
 21
584.048639
 31
0.0
  0
LINE
  5
1EC
100
AcDbEntity
  8
A1-CS
  6
CONTINUOUS
 62
   212
100
AcDbLine
 10
760.037155
 20
581.048639
 30
0.0
 11
760.037155
 21
574.048639
 31
0.0
  0
LINE
  5
1ED
100
AcDbEntity
  8
A1-CS
  6
CONTINUOUS
 62
   212
100
AcDbLine
 10
692.137155
 20
581.048639
 30
0.0
 11
692.137155
 21
574.048639
 31
0.0
  0
LINE
  5
1EE
100
AcDbEntity
  8
A1-CS
  6
CONTINUOUS
 62
   212
100
AcDbLine
 10
624.207155
 20
581.048639
 30
0.0
 11
624.207155
 21
574.048639
 31
0.0
  0
LINE
  5
1EF
100
AcDbEntity
  8
A1-CS
  6
CONTINUOUS
 62
   212
100
AcDbLine
 10
556.277155
 20
581.048639
 30
0.0
 11
556.277155
 21
574.048639
 31
0.0
  0
LINE
  5
1F0
100
AcDbEntity
  8
A1-CS
  6
CONTINUOUS
 62
   212
100
AcDbLine
 10
488.377155
 20
581.048639
 30
0.0
 11
488.377155
 21
574.048639
 31
0.0
  0
LINE
  5
1F1
100
AcDbEntity
  8
A1-CS
  6
CONTINUOUS
 62
   212
100
AcDbLine
 10
420.457155
 20
581.048639
 30
0.0
 11
420.457155
 21
574.048639
 31
0.0
  0
LINE
  5
1F2
100
AcDbEntity
  8
A1-CS
  6
CONTINUOUS
 62
   212
100
AcDbLine
 10
352.537155
 20
581.048639
 30
0.0
 11
352.537155
 21
574.048639
 31
0.0
  0
LINE
  5
1F3
100
AcDbEntity
  8
A1-CS
  6
CONTINUOUS
 62
   212
100
AcDbLine
 10
284.637155
 20
581.048639
 30
0.0
 11
284.637155
 21
574.048639
 31
0.0
  0
LINE
  5
1F4
100
AcDbEntity
  8
A1-CS
  6
CONTINUOUS
 62
   212
100
AcDbLine
 10
216.707155
 20
581.048639
 30
0.0
 11
216.707155
 21
574.048639
 31
0.0
  0
LINE
  5
1F5
100
AcDbEntity
  8
A1-CS
  6
CONTINUOUS
 62
   212
100
AcDbLine
 10
148.777155
 20
581.048639
 30
0.0
 11
148.777155
 21
574.048639
 31
0.0
  0
LINE
  5
1F6
100
AcDbEntity
  8
A1-CS
  6
CONTINUOUS
 62
   212
100
AcDbLine
 10
80.877155
 20
581.048639
 30
0.0
 11
80.877155
 21
574.048639
 31
0.0
  0
LINE
  5
1F7
100
AcDbEntity
  8
A1-CS
  6
CONTINUOUS
 62
   212
100
AcDbLine
 10
760.037155
 20
20.048639
 30
0.0
 11
760.037155
 21
13.048639
 31
0.0
  0
LINE
  5
1F8
100
AcDbEntity
  8
A1-CS
  6
CONTINUOUS
 62
   212
100
AcDbLine
 10
692.137155
 20
20.048639
 30
0.0
 11
692.137155
 21
13.048639
 31
0.0
  0
LINE
  5
1F9
100
AcDbEntity
  8
A1-CS
  6
CONTINUOUS
 62
   212
100
AcDbLine
 10
624.207155
 20
20.048639
 30
0.0
 11
624.207155
 21
13.048639
 31
0.0
  0
LINE
  5
1FA
100
AcDbEntity
  8
A1-CS
  6
CONTINUOUS
 62
   212
100
AcDbLine
 10
556.277155
 20
20.048639
 30
0.0
 11
556.277155
 21
13.048639
 31
0.0
  0
LINE
  5
1FB
100
AcDbEntity
  8
A1-CS
  6
CONTINUOUS
 62
   212
100
AcDbLine
 10
488.377155
 20
20.048639
 30
0.0
 11
488.377155
 21
13.048639
 31
0.0
  0
LINE
  5
1FC
100
AcDbEntity
  8
A1-CS
  6
CONTINUOUS
 62
   212
100
AcDbLine
 10
420.457155
 20
20.048639
 30
0.0
 11
420.457155
 21
13.048639
 31
0.0
  0
LINE
  5
1FD
100
AcDbEntity
  8
A1-CS
  6
CONTINUOUS
 62
   212
100
AcDbLine
 10
352.537155
 20
20.048639
 30
0.0
 11
352.537155
 21
13.048639
 31
0.0
  0
LINE
  5
1FE
100
AcDbEntity
  8
A1-CS
  6
CONTINUOUS
 62
   212
100
AcDbLine
 10
284.637155
 20
20.048639
 30
0.0
 11
284.637155
 21
13.048639
 31
0.0
  0
LINE
  5
1FF
100
AcDbEntity
  8
A1-CS
  6
CONTINUOUS
 62
   212
100
AcDbLine
 10
216.707155
 20
20.048639
 30
0.0
 11
216.707155
 21
13.048639
 31
0.0
  0
LINE
  5
200
100
AcDbEntity
  8
A1-CS
  6
CONTINUOUS
 62
   212
100
AcDbLine
 10
148.777155
 20
20.048639
 30
0.0
 11
148.777155
 21
13.048639
 31
0.0
  0
LINE
  5
201
100
AcDbEntity
  8
A1-CS
  6
CONTINUOUS
 62
   212
100
AcDbLine
 10
789.207155
 20
39.048639
 30
0.0
 11
789.207155
 21
20.048639
 31
0.0
  0
LINE
  5
202
100
AcDbEntity
  8
A1-CS
  6
CONTINUOUS
 62
   212
100
AcDbLine
 10
666.957155
 20
39.048639
 30
0.0
 11
820.957155
 21
39.048639
 31
0.0
  0
LINE
  5
203
100
AcDbEntity
  8
A1-CS
  6
CONTINUOUS
 62
   212
100
AcDbLine
 10
803.207155
 20
39.048639
 30
0.0
 11
803.207155
 21
20.048639
 31
0.0
  0
LINE
  5
204
100
AcDbEntity
  8
A1-CS
  6
CONTINUOUS
 62
   212
100
AcDbLine
 10
365.957155
 20
63.048639
 30
0.0
 11
453.957155
 21
63.048639
 31
0.0
  0
LINE
  5
205
100
AcDbEntity
  8
A1-CS
  6
CONTINUOUS
 62
   212
100
AcDbLine
 10
365.957155
 20
55.048639
 30
0.0
 11
453.957155
 21
55.048639
 31
0.0
  0
LINE
  5
206
100
AcDbEntity
  8
A1-CS
  6
CONTINUOUS
 62
   212
100
AcDbLine
 10
365.957155
 20
47.048639
 30
0.0
 11
453.957155
 21
47.048639
 31
0.0
  0
LINE
  5
207
100
AcDbEntity
  8
A1-CS
  6
CONTINUOUS
 62
   212
100
AcDbLine
 10
365.957155
 20
29.048639
 30
0.0
 11
453.957155
 21
29.048639
 31
0.0
  0
LINE
  5
208
100
AcDbEntity
  8
A1-CS
  6
CONTINUOUS
 62
   212
100
AcDbLine
 10
502.957155
 20
39.048639
 30
0.0
 11
453.957155
 21
39.048639
 31
0.0
  0
LINE
  5
209
100
AcDbEntity
  8
A1-CS
  6
CONTINUOUS
 62
   212
100
AcDbLine
 10
19.957155
 20
29.048639
 30
0.0
 11
365.957155
 21
29.048639
 31
0.0
  0
LINE
  5
20A
100
AcDbEntity
  8
A1-CS
  6
CONTINUOUS
 62
   212
100
AcDbLine
 10
28.957155
 20
20.048639
 30
0.0
 11
28.957155
 21
77.048639
 31
0.0
  0
LINE
  5
20B
100
AcDbEntity
  8
A1-CS
  6
CONTINUOUS
 62
   212
100
AcDbLine
 10
365.957155
 20
39.048639
 30
0.0
 11
453.957155
 21
39.048639
 31
0.0
  0
LINE
  5
20C
100
AcDbEntity
  8
A1-CS
  6
CONTINUOUS
 62
   212
100
AcDbLine
 10
413.957155
 20
20.048639
 30
0.0
 11
413.957155
 21
77.048639
 31
0.0
  0
LINE
  5
20D
100
AcDbEntity
  8
A1-CS
  6
CONTINUOUS
 62
   212
100
AcDbLine
 10
433.957155
 20
20.048639
 30
0.0
 11
433.957155
 21
77.048639
 31
0.0
  0
LINE
  5
20E
100
AcDbEntity
  8
A1-CS
  6
CONTINUOUS
 62
   212
100
AcDbLine
 10
19.957155
 20
65.048639
 30
0.0
 11
365.957155
 21
65.048639
 31
0.0
  0
LINE
  5
20F
100
AcDbEntity
  8
A1-CS
  6
CONTINUOUS
 62
   212
100
AcDbLine
 10
502.957155
 20
39.048639
 30
0.0
 11
666.957155
 21
39.048639
 31
0.0
  0
LINE
  5
210
100
AcDbEntity
  8
A1-CS
  6
CONTINUOUS
 62
   212
100
AcDbLine
 10
502.957155
 20
58.048639
 30
0.0
 11
666.957155
 21
58.048639
 31
0.0
  0
LINE
  5
211
100
AcDbEntity
  8
A1-CS
  6
CONTINUOUS
 62
   212
100
AcDbLine
 10
502.957155
 20
77.048639
 30
0.0
 11
502.957155
 21
20.048639
 31
0.0
  0
LINE
  5
212
100
AcDbEntity
  8
A1-CS
  6
CONTINUOUS
 62
   212
100
AcDbLine
 10
365.957155
 20
20.048639
 30
0.0
 11
365.957155
 21
77.048639
 31
0.0
  0
LINE
  5
213
100
AcDbEntity
  8
A1-CS
  6
CONTINUOUS
 62
   212
100
AcDbLine
 10
820.957155
 20
83.798639
 30
0.0
 11
827.947155
 21
83.798639
 31
0.0
  0
LINE
  5
214
100
AcDbEntity
  8
A1-CS
  6
CONTINUOUS
 62
   212
100
AcDbLine
 10
820.957155
 20
154.548639
 30
0.0
 11
827.947155
 21
154.548639
 31
0.0
  0
LINE
  5
215
100
AcDbEntity
  8
A1-CS
  6
CONTINUOUS
 62
   212
100
AcDbLine
 10
820.957155
 20
225.298639
 30
0.0
 11
827.947155
 21
225.298639
 31
0.0
  0
LINE
  5
216
100
AcDbEntity
  8
A1-CS
  6
CONTINUOUS
 62
   212
100
AcDbLine
 10
820.957155
 20
296.048639
 30
0.0
 11
827.947155
 21
296.048639
 31
0.0
  0
LINE
  5
217
100
AcDbEntity
  8
A1-CS
  6
CONTINUOUS
 62
   212
100
AcDbLine
 10
820.957155
 20
366.798639
 30
0.0
 11
827.947155
 21
366.798639
 31
0.0
  0
LINE
  5
218
100
AcDbEntity
  8
A1-CS
  6
CONTINUOUS
 62
   212
100
AcDbLine
 10
820.957155
 20
437.548639
 30
0.0
 11
827.947155
 21
437.548639
 31
0.0
  0
LINE
  5
219
100
AcDbEntity
  8
A1-CS
  6
CONTINUOUS
 62
   212
100
AcDbLine
 10
820.957155
 20
508.298639
 30
0.0
 11
827.957155
 21
508.298639
 31
0.0
  0
LINE
  5
21A
100
AcDbEntity
  8
A1-CS
  6
CONTINUOUS
 62
   212
100
AcDbLine
 10
12.957155
 20
83.798639
 30
0.0
 11
19.947155
 21
83.798639
 31
0.0
  0
LINE
  5
21B
100
AcDbEntity
  8
A1-CS
  6
CONTINUOUS
 62
   212
100
AcDbLine
 10
12.957155
 20
154.548639
 30
0.0
 11
19.947155
 21
154.548639
 31
0.0
  0
LINE
  5
21C
100
AcDbEntity
  8
A1-CS
  6
CONTINUOUS
 62
   212
100
AcDbLine
 10
12.957155
 20
225.298639
 30
0.0
 11
19.947155
 21
225.298639
 31
0.0
  0
LINE
  5
21D
100
AcDbEntity
  8
A1-CS
  6
CONTINUOUS
 62
   212
100
AcDbLine
 10
12.957155
 20
296.048639
 30
0.0
 11
19.947155
 21
296.048639
 31
0.0
  0
LINE
  5
21E
100
AcDbEntity
  8
A1-CS
  6
CONTINUOUS
 62
   212
100
AcDbLine
 10
12.957155
 20
366.798639
 30
0.0
 11
19.947155
 21
366.798639
 31
0.0
  0
LINE
  5
21F
100
AcDbEntity
  8
A1-CS
  6
CONTINUOUS
 62
   212
100
AcDbLine
 10
12.957155
 20
437.548639
 30
0.0
 11
19.947155
 21
437.548639
 31
0.0
  0
LINE
  5
220
100
AcDbEntity
  8
A1-CS
  6
CONTINUOUS
 62
   212
100
AcDbLine
 10
12.957155
 20
508.298639
 30
0.0
 11
19.957155
 21
508.298639
 31
0.0
  0
LINE
  5
221
100
AcDbEntity
  8
A1-CS
  6
CONTINUOUS
 62
   212
100
AcDbLine
 10
80.877155
 20
20.048639
 30
0.0
 11
80.877155
 21
13.048639
 31
0.0
  0
LINE
  5
222
100
AcDbEntity
  8
A1-CS
  6
CONTINUOUS
 62
   212
100
AcDbLine
 10
702.957155
 20
39.048639
 30
0.0
 11
702.957155
 21
20.048639
 31
0.0
  0
LINE
  5
223
100
AcDbEntity
  8
A1-CS
  6
CONTINUOUS
 62
   212
100
AcDbLine
 10
19.957155
 20
35.048639
 30
0.0
 11
365.957155
 21
35.048639
 31
0.0
  0
LINE
  5
224
100
AcDbEntity
  8
A1-CS
  6
CONTINUOUS
 62
   212
100
AcDbLine
 10
19.957155
 20
41.048639
 30
0.0
 11
365.957155
 21
41.048639
 31
0.0
  0
LINE
  5
225
100
AcDbEntity
  8
A1-CS
  6
CONTINUOUS
 62
   212
100
AcDbLine
 10
19.957155
 20
47.048639
 30
0.0
 11
365.957155
 21
47.048639
 31
0.0
  0
LINE
  5
226
100
AcDbEntity
  8
A1-CS
  6
CONTINUOUS
 62
   212
100
AcDbLine
 10
19.957155
 20
53.048639
 30
0.0
 11
365.957155
 21
53.048639
 31
0.0
  0
LINE
  5
227
100
AcDbEntity
  8
A1-CS
  6
CONTINUOUS
 62
   212
100
AcDbLine
 10
19.957155
 20
59.048639
 30
0.0
 11
365.957155
 21
59.048639
 31
0.0
  0
LINE
  5
228
100
AcDbEntity
  8
A1-CS
  6
CONTINUOUS
 62
   212
100
AcDbLine
 10
19.957155
 20
71.048639
 30
0.0
 11
365.957155
 21
71.048639
 31
0.0
  0
LINE
  5
229
100
AcDbEntity
  8
A1-CS
  6
CONTINUOUS
 62
   212
100
AcDbLine
 10
365.957155
 20
71.048639
 30
0.0
 11
453.957155
 21
71.048639
 31
0.0
  0
LINE
  5
22A
100
AcDbEntity
  8
A1-CS
  6
CONTINUOUS
 62
   212
100
AcDbLine
 10
206.957155
 20
20.048639
 30
0.0
 11
206.957155
 21
77.048639
 31
0.0
  0
LINE
  5
22B
100
AcDbEntity
  8
A1-CS
  6
CONTINUOUS
 62
   212
100
AcDbLine
 10
188.957155
 20
20.048639
 30
0.0
 11
188.957155
 21
77.048639
 31
0.0
  0
LINE
  5
22C
100
AcDbEntity
  8
A1-CS
  6
CONTINUOUS
 62
   212
100
AcDbLine
 10
179.957155
 20
20.048639
 30
0.0
 11
179.957155
 21
77.048639
 31
0.0
  0
LINE
  5
22D
100
AcDbEntity
  8
A1-CS
  6
CONTINUOUS
 62
   212
100
AcDbLine
 10
354.957155
 20
20.048639
 30
0.0
 11
354.957155
 21
77.048639
 31
0.0
  0
LINE
  5
22E
100
AcDbEntity
  8
A1-CS
  6
CONTINUOUS
 62
   212
100
AcDbLine
 10
344.957155
 20
20.048639
 30
0.0
 11
344.957155
 21
77.048639
 31
0.0
  0
LINE
  5
22F
100
AcDbEntity
  8
A1-CS
  6
CONTINUOUS
 62
   212
100
AcDbLine
 10
334.957155
 20
20.048639
 30
0.0
 11
334.957155
 21
77.048639
 31
0.0
  0
LINE
  5
230
100
AcDbEntity
  8
A1-CS
  6
CONTINUOUS
 62
   212
100
AcDbLine
 10
324.957155
 20
20.048639
 30
0.0
 11
324.957155
 21
77.048639
 31
0.0
  0
LINE
  5
231
100
AcDbEntity
  8
A1-CS
  6
CONTINUOUS
 62
   212
100
AcDbLine
 10
67.379153
 20
20.453382
 30
0.0
 11
67.379153
 21
77.048639
 31
0.0
  0
LINE
  5
232
100
AcDbEntity
  8
A1-CS
  6
CONTINUOUS
 62
   212
100
AcDbLine
 10
453.957155
 20
20.048639
 30
0.0
 11
453.957155
 21
77.048639
 31
0.0
  0
LINE
  5
233
100
AcDbEntity
  8
A1-CS
  6
CONTINUOUS
 62
   212
100
AcDbLine
 10
666.957155
 20
20.048639
 30
0.0
 11
666.957155
 21
77.048639
 31
0.0
  0
LINE
  5
234
100
AcDbEntity
  8
A1-CS
  6
CONTINUOUS
 62
   212
100
AcDbLine
 10
19.957155
 20
77.048639
 30
0.0
 11
820.957155
 21
77.048639
 31
0.0
  0
TEXT
  5
241
100
AcDbEntity
  8
-CS
  6
CONTINUOUS
 62
   212
100
AcDbText
 10
368.507155
 20
72.998639
 30
0.0
 40
2.0
  1
SCALE
 11
368.507155
 21
73.998639
 31
0.0
100
AcDbText
 73
     2
  0
TEXT
  5
242
100
AcDbEntity
  8
-CS
  6
CONTINUOUS
 62
   212
100
AcDbText
 10
504.457155
 20
35.048639
 30
0.0
 40
3.0
  1
PROJECT
 11
504.457155
 21
36.548639
 31
0.0
100
AcDbText
 73
     2
  0
TEXT
  5
243
100
AcDbEntity
  8
-CS
  6
CONTINUOUS
 62
   212
100
AcDbText
 10
792.270488
 20
23.458639
 30
0.0
 40
4.99
  1
A1
 72
     1
 11
795.597155
 21
23.458639
 31
0.0
100
AcDbText
  0
TEXT
  5
244
100
AcDbEntity
  8
-CS
  6
CONTINUOUS
 62
   212
100
AcDbText
 10
103.317155
 20
23.548639
 30
0.0
 40
2.0
  1
REFERENCE DRAWINGS
 41
1.25
 11
103.317155
 21
24.548639
 31
0.0
100
AcDbText
 73
     2
  0
TEXT
  5
245
100
AcDbEntity
  8
-CS
  6
CONTINUOUS
 62
   212
100
AcDbText
 10
792.140488
 20
576.548639
 30
0.0
 40
2.0
  1
12
 41
1.25
 72
     4
 11
793.807155
 21
577.548639
 31
0.0
100
AcDbText
  0
TEXT
  5
246
100
AcDbEntity
  8
-CS
  6
CONTINUOUS
 62
   212
100
AcDbText
 10
724.167155
 20
576.548639
 30
0.0
 40
2.0
  1
11
 41
1.25
 72
     4
 11
725.417155
 21
577.548639
 31
0.0
100
AcDbText
  0
TEXT
  5
247
100
AcDbEntity
  8
-CS
  6
CONTINUOUS
 62
   212
100
AcDbText
 10
656.718821
 20
576.548639
 30
0.0
 40
2.0
  1
10
 41
1.25
 72
     4
 11
658.177155
 21
577.548639
 31
0.0
100
AcDbText
  0
TEXT
  5
248
100
AcDbEntity
  8
-CS
  6
CONTINUOUS
 62
   212
100
AcDbText
 10
589.163821
 20
576.548639
 30
0.0
 40
2.0
  1
9
 41
1.25
 72
     4
 11
589.997155
 21
577.548639
 31
0.0
100
AcDbText
  0
TEXT
  5
249
100
AcDbEntity
  8
-CS
  6
CONTINUOUS
 62
   212
100
AcDbText
 10
521.263821
 20
576.548639
 30
0.0
 40
2.0
  1
8
 41
1.25
 72
     4
 11
522.097155
 21
577.548639
 31
0.0
100
AcDbText
  0
TEXT
  5
24A
100
AcDbEntity
  8
-CS
  6
CONTINUOUS
 62
   212
100
AcDbText
 10
453.303821
 20
576.548639
 30
0.0
 40
2.0
  1
7
 41
1.25
 72
     4
 11
454.137155
 21
577.548639
 31
0.0
100
AcDbText
  0
TEXT
  5
24B
100
AcDbEntity
  8
-CS
  6
CONTINUOUS
 62
   212
100
AcDbText
 10
385.433821
 20
576.548639
 30
0.0
 40
2.0
  1
6
 41
1.25
 72
     4
 11
386.267155
 21
577.548639
 31
0.0
100
AcDbText
  0
TEXT
  5
24C
100
AcDbEntity
  8
-CS
  6
CONTINUOUS
 62
   212
100
AcDbText
 10
317.563821
 20
576.548639
 30
0.0
 40
2.0
  1
5
 41
1.25
 72
     4
 11
318.397155
 21
577.548639
 31
0.0
100
AcDbText
  0
TEXT
  5
24D
100
AcDbEntity
  8
-CS
  6
CONTINUOUS
 62
   212
100
AcDbText
 10
249.663821
 20
576.548639
 30
0.0
 40
2.0
  1
4
 41
1.25
 72
     4
 11
250.497155
 21
577.548639
 31
0.0
100
AcDbText
  0
TEXT
  5
24E
100
AcDbEntity
  8
-CS
  6
CONTINUOUS
 62
   212
100
AcDbText
 10
181.793821
 20
576.548639
 30
0.0
 40
2.0
  1
3
 41
1.25
 72
     4
 11
182.627155
 21
577.548639
 31
0.0
100
AcDbText
  0
TEXT
  5
24F
100
AcDbEntity
  8
-CS
  6
CONTINUOUS
 62
   212
100
AcDbText
 10
113.823821
 20
576.553639
 30
0.0
 40
1.99
  1
2
 72
     4
 11
114.487155
 21
577.548639
 31
0.0
100
AcDbText
  0
TEXT
  5
250
100
AcDbEntity
  8
-CS
  6
CONTINUOUS
 62
   212
100
AcDbText
 10
46.275488
 20
576.553639
 30
0.0
 40
1.99
  1
1
 72
     4
 11
46.607155
 21
577.548639
 31
0.0
100
AcDbText
  0
TEXT
  5
251
100
AcDbEntity
  8
-CS
  6
CONTINUOUS
 62
   212
100
AcDbText
 10
789.562204
 20
35.44069
 30
0.0
 40
2.5
  1
SHEET
 72
     4
 11
795.395538
 21
36.69069
 31
0.0
100
AcDbText
  0
TEXT
  5
252
100
AcDbEntity
  8
-CS
  6
CONTINUOUS
 62
   212
100
AcDbText
 10
703.243821
 20
34.998639
 30
0.0
 40
2.5
  1
DRAWING NUMBER
 72
     4
 11
720.327155
 21
36.248639
 31
0.0
100
AcDbText
  0
TEXT
  5
253
100
AcDbEntity
  8
-CS
  6
CONTINUOUS
 62
   212
100
AcDbText
 10
666.623821
 20
34.998639
 30
0.0
 40
2.5
  1
JOB NUMBER
 72
     4
 11
678.707155
 21
36.248639
 31
0.0
100
AcDbText
  0
TEXT
  5
254
100
AcDbEntity
  8
-CS
  6
CONTINUOUS
 62
   212
100
AcDbText
 10
22.477155
 20
23.548639
 30
0.0
 40
2.0
  1
No.
 41
1.25
 11
22.477155
 21
24.548639
 31
0.0
100
AcDbText
 73
     2
  0
TEXT
  5
255
100
AcDbEntity
  8
-CS
  6
CONTINUOUS
 62
   212
100
AcDbText
 10
357.450488
 20
23.548639
 30
0.0
 40
2.0
  1
ENG
 72
     4
 11
360.117155
 21
24.548639
 31
0.0
100
AcDbText
  0
TEXT
  5
256
100
AcDbEntity
  8
-CS
  6
CONTINUOUS
 62
   212
100
AcDbText
 10
368.507155
 20
33.948639
 30
0.0
 40
2.0
  1
DESIGN MANAGER
 11
368.507155
 21
34.948639
 31
0.0
100
AcDbText
 73
     2
  0
TEXT
  5
257
100
AcDbEntity
  8
-CS
  6
CONTINUOUS
 62
   212
100
AcDbText
 10
368.507155
 20
41.898639
 30
0.0
 40
2.0
  1
LEAD ENGINEER
 11
368.507155
 21
42.898639
 31
0.0
100
AcDbText
 73
     2
  0
TEXT
  5
258
100
AcDbEntity
  8
-CS
  6
CONTINUOUS
 62
   212
100
AcDbText
 10
368.507155
 20
49.938639
 30
0.0
 40
2.0
  1
ENGINEER
 11
368.507155
 21
50.938639
 31
0.0
100
AcDbText
 73
     2
  0
TEXT
  5
259
100
AcDbEntity
  8
-CS
  6
CONTINUOUS
 62
   212
100
AcDbText
 10
667.700488
 20
72.848639
 30
0.0
 40
2.5
  1
TITLE
 72
     4
 11
673.117155
 21
74.098639
 31
0.0
100
AcDbText
  0
TEXT
  5
25A
100
AcDbEntity
  8
-CS
  6
CONTINUOUS
 62
   212
100
AcDbText
 10
15.653821
 20
47.428639
 30
0.0
 40
2.0
  1
H
 41
1.25
 72
     4
 11
16.487155
 21
48.428639
 31
0.0
100
AcDbText
  0
TEXT
  5
25B
100
AcDbEntity
  8
-CS
  6
CONTINUOUS
 62
   212
100
AcDbText
 10
345.630488
 20
23.548639
 30
0.0
 40
2.0
  1
APP'D
 72
     4
 11
349.797155
 21
24.548639
 31
0.0
100
AcDbText
  0
TEXT
  5
25C
100
AcDbEntity
  8
-CS
  6
CONTINUOUS
 62
   212
100
AcDbText
 10
440.480488
 20
72.998639
 30
0.0
 40
2.0
  1
DATE
 72
     4
 11
444.147155
 21
73.998639
 31
0.0
100
AcDbText
  0
TEXT
  5
25D
100
AcDbEntity
  8
-CS
  6
CONTINUOUS
 62
   212
100
AcDbText
 10
420.423821
 20
72.998639
 30
0.0
 40
2.0
  1
SIGN
 72
     4
 11
423.757155
 21
73.998639
 31
0.0
100
AcDbText
  0
TEXT
  5
25E
100
AcDbEntity
  8
-CS
  6
CONTINUOUS
 62
   212
100
AcDbText
 10
368.507155
 20
57.898639
 30
0.0
 40
2.0
  1
CHECKED
 11
368.507155
 21
58.898639
 31
0.0
100
AcDbText
 73
     2
  0
TEXT
  5
25F
100
AcDbEntity
  8
-CS
  6
CONTINUOUS
 62
   212
100
AcDbText
 10
368.507155
 20
66.208639
 30
0.0
 40
2.0
  1
DRAWN
 11
368.507155
 21
67.208639
 31
0.0
100
AcDbText
 73
     2
  0
TEXT
  5
260
100
AcDbEntity
  8
-CS
  6
CONTINUOUS
 62
   212
100
AcDbText
 10
368.457155
 20
22.298639
 30
0.0
 40
2.0
  1
MANAGER
 11
368.457155
 21
23.298639
 31
0.0
100
AcDbText
 73
     2
  0
TEXT
  5
261
100
AcDbEntity
  8
-CS
  6
CONTINUOUS
 62
   212
100
AcDbText
 10
368.457155
 20
25.298639
 30
0.0
 40
2.0
  1
PROJECT
 11
368.457155
 21
26.298639
 31
0.0
100
AcDbText
 73
     2
  0
TEXT
  5
262
100
AcDbEntity
  8
-CS
  6
CONTINUOUS
 62
   212
100
AcDbText
 10
336.210488
 20
23.548639
 30
0.0
 40
2.0
  1
CHKD
 72
     4
 11
339.877155
 21
24.548639
 31
0.0
100
AcDbText
  0
TEXT
  5
263
100
AcDbEntity
  8
-CS
  6
CONTINUOUS
 62
   212
100
AcDbText
 10
327.770488
 20
23.508639
 30
0.0
 40
2.0
  1
BY
 72
     4
 11
329.437155
 21
24.508639
 31
0.0
100
AcDbText
  0
TEXT
  5
264
100
AcDbEntity
  8
-CS
  6
CONTINUOUS
 62
   212
100
AcDbText
 10
259.507155
 20
23.548639
 30
0.0
 40
2.0
  1
REVISION
 41
1.25
 11
259.507155
 21
24.548639
 31
0.0
100
AcDbText
 73
     2
  0
TEXT
  5
265
100
AcDbEntity
  8
-CS
  6
CONTINUOUS
 62
   212
100
AcDbText
 10
193.490488
 20
23.548639
 30
0.0
 40
2.0
  1
DATE
 72
     4
 11
197.157155
 21
24.548639
 31
0.0
100
AcDbText
  0
TEXT
  5
266
100
AcDbEntity
  8
-CS
  6
CONTINUOUS
 62
   212
100
AcDbText
 10
182.667155
 20
23.548639
 30
0.0
 40
2.0
  1
No.
 72
     4
 11
184.667155
 21
24.548639
 31
0.0
100
AcDbText
  0
TEXT
  5
267
100
AcDbEntity
  8
-CS
  6
CONTINUOUS
 62
   212
100
AcDbText
 10
31.137155
 20
23.548639
 30
0.0
 40
2.0
  1
DRAWING NUMBER
 41
1.25
 11
31.137155
 21
24.548639
 31
0.0
100
AcDbText
 73
     2
  0
TEXT
  5
268
100
AcDbEntity
  8
-CS
  6
CONTINUOUS
 62
   212
100
AcDbText
 10
823.573821
 20
330.428639
 30
0.0
 40
2.0
  1
D
 41
1.25
 72
     4
 11
824.407155
 21
331.428639
 31
0.0
100
AcDbText
  0
TEXT
  5
269
100
AcDbEntity
  8
-CS
  6
CONTINUOUS
 62
   212
100
AcDbText
 10
823.623821
 20
542.668639
 30
0.0
 40
2.0
  1
A
 41
1.25
 72
     4
 11
824.457155
 21
543.668639
 31
0.0
100
AcDbText
  0
TEXT
  5
26A
100
AcDbEntity
  8
-CS
  6
CONTINUOUS
 62
   212
100
AcDbText
 10
823.563821
 20
471.928639
 30
0.0
 40
2.0
  1
B
 41
1.25
 72
     4
 11
824.397155
 21
472.928639
 31
0.0
100
AcDbText
  0
TEXT
  5
26B
100
AcDbEntity
  8
-CS
  6
CONTINUOUS
 62
   212
100
AcDbText
 10
823.593821
 20
401.168639
 30
0.0
 40
2.0
  1
C
 41
1.25
 72
     4
 11
824.427155
 21
402.168639
 31
0.0
100
AcDbText
  0
TEXT
  5
26C
100
AcDbEntity
  8
-CS
  6
CONTINUOUS
 62
   212
100
AcDbText
 10
823.573821
 20
259.668639
 30
0.0
 40
2.0
  1
E
 41
1.25
 72
     4
 11
824.407155
 21
260.668639
 31
0.0
100
AcDbText
  0
TEXT
  5
26D
100
AcDbEntity
  8
-CS
  6
CONTINUOUS
 62
   212
100
AcDbText
 10
823.623821
 20
188.928639
 30
0.0
 40
2.0
  1
F
 41
1.25
 72
     4
 11
824.457155
 21
189.928639
 31
0.0
100
AcDbText
  0
TEXT
  5
26E
100
AcDbEntity
  8
-CS
  6
CONTINUOUS
 62
   212
100
AcDbText
 10
823.573821
 20
118.168639
 30
0.0
 40
2.0
  1
G
 41
1.25
 72
     4
 11
824.407155
 21
119.168639
 31
0.0
100
AcDbText
  0
TEXT
  5
26F
100
AcDbEntity
  8
-CS
  6
CONTINUOUS
 62
   212
100
AcDbText
 10
823.663821
 20
47.428639
 30
0.0
 40
2.0
  1
H
 41
1.25
 72
     4
 11
824.497155
 21
48.428639
 31
0.0
100
AcDbText
  0
TEXT
  5
270
100
AcDbEntity
  8
-CS
  6
CONTINUOUS
 62
   212
100
AcDbText
 10
15.573821
 20
330.428639
 30
0.0
 40
2.0
  1
D
 41
1.25
 72
     4
 11
16.407155
 21
331.428639
 31
0.0
100
AcDbText
  0
TEXT
  5
271
100
AcDbEntity
  8
-CS
  6
CONTINUOUS
 62
   212
100
AcDbText
 10
15.793821
 20
542.673639
 30
0.0
 40
1.99
  1
A
 72
     4
 11
16.457155
 21
543.668639
 31
0.0
100
AcDbText
  0
TEXT
  5
272
100
AcDbEntity
  8
-CS
  6
CONTINUOUS
 62
   212
100
AcDbText
 10
15.563821
 20
471.928639
 30
0.0
 40
2.0
  1
B
 41
1.25
 72
     4
 11
16.397155
 21
472.928639
 31
0.0
100
AcDbText
  0
TEXT
  5
273
100
AcDbEntity
  8
-CS
  6
CONTINUOUS
 62
   212
100
AcDbText
 10
15.593821
 20
401.168639
 30
0.0
 40
2.0
  1
C
 41
1.25
 72
     4
 11
16.427155
 21
402.168639
 31
0.0
100
AcDbText
  0
TEXT
  5
274
100
AcDbEntity
  8
-CS
  6
CONTINUOUS
 62
   212
100
AcDbText
 10
15.573821
 20
259.668639
 30
0.0
 40
2.0
  1
E
 41
1.25
 72
     4
 11
16.407155
 21
260.668639
 31
0.0
100
AcDbText
  0
TEXT
  5
275
100
AcDbEntity
  8
-CS
  6
CONTINUOUS
 62
   212
100
AcDbText
 10
15.623821
 20
188.928639
 30
0.0
 40
2.0
  1
F
 41
1.25
 72
     4
 11
16.457155
 21
189.928639
 31
0.0
100
AcDbText
  0
TEXT
  5
276
100
AcDbEntity
  8
-CS
  6
CONTINUOUS
 62
   212
100
AcDbText
 10
792.140488
 20
15.548639
 30
0.0
 40
2.0
  1
12
 41
1.25
 72
     4
 11
793.807155
 21
16.548639
 31
0.0
100
AcDbText
  0
TEXT
  5
277
100
AcDbEntity
  8
-CS
  6
CONTINUOUS
 62
   212
100
AcDbText
 10
724.167155
 20
15.548639
 30
0.0
 40
2.0
  1
11
 41
1.25
 72
     4
 11
725.417155
 21
16.548639
 31
0.0
100
AcDbText
  0
TEXT
  5
278
100
AcDbEntity
  8
-CS
  6
CONTINUOUS
 62
   212
100
AcDbText
 10
656.718821
 20
15.548639
 30
0.0
 40
2.0
  1
10
 41
1.25
 72
     4
 11
658.177155
 21
16.548639
 31
0.0
100
AcDbText
  0
TEXT
  5
279
100
AcDbEntity
  8
-CS
  6
CONTINUOUS
 62
   212
100
AcDbText
 10
589.163821
 20
15.548639
 30
0.0
 40
2.0
  1
9
 41
1.25
 72
     4
 11
589.997155
 21
16.548639
 31
0.0
100
AcDbText
  0
TEXT
  5
27A
100
AcDbEntity
  8
-CS
  6
CONTINUOUS
 62
   212
100
AcDbText
 10
521.263821
 20
15.548639
 30
0.0
 40
2.0
  1
8
 41
1.25
 72
     4
 11
522.097155
 21
16.548639
 31
0.0
100
AcDbText
  0
TEXT
  5
27B
100
AcDbEntity
  8
-CS
  6
CONTINUOUS
 62
   212
100
AcDbText
 10
453.303821
 20
15.548639
 30
0.0
 40
2.0
  1
7
 41
1.25
 72
     4
 11
454.137155
 21
16.548639
 31
0.0
100
AcDbText
  0
TEXT
  5
27C
100
AcDbEntity
  8
-CS
  6
CONTINUOUS
 62
   212
100
AcDbText
 10
385.433821
 20
15.548639
 30
0.0
 40
2.0
  1
6
 41
1.25
 72
     4
 11
386.267155
 21
16.548639
 31
0.0
100
AcDbText
  0
TEXT
  5
27D
100
AcDbEntity
  8
-CS
  6
CONTINUOUS
 62
   212
100
AcDbText
 10
317.563821
 20
15.548639
 30
0.0
 40
2.0
  1
5
 41
1.25
 72
     4
 11
318.397155
 21
16.548639
 31
0.0
100
AcDbText
  0
TEXT
  5
27E
100
AcDbEntity
  8
-CS
  6
CONTINUOUS
 62
   212
100
AcDbText
 10
249.663821
 20
15.548639
 30
0.0
 40
2.0
  1
4
 41
1.25
 72
     4
 11
250.497155
 21
16.548639
 31
0.0
100
AcDbText
  0
TEXT
  5
27F
100
AcDbEntity
  8
-CS
  6
CONTINUOUS
 62
   212
100
AcDbText
 10
181.793821
 20
15.548639
 30
0.0
 40
2.0
  1
3
 41
1.25
 72
     4
 11
182.627155
 21
16.548639
 31
0.0
100
AcDbText
  0
TEXT
  5
280
100
AcDbEntity
  8
-CS
  6
CONTINUOUS
 62
   212
100
AcDbText
 10
113.663821
 20
15.548639
 30
0.0
 40
2.0
  1
2
 41
1.25
 72
     4
 11
114.497155
 21
16.548639
 31
0.0
100
AcDbText
  0
TEXT
  5
281
100
AcDbEntity
  8
-CS
  6
CONTINUOUS
 62
   212
100
AcDbText
 10
46.180488
 20
15.548639
 30
0.0
 40
2.0
  1
1
 41
1.25
 72
     4
 11
46.597155
 21
16.548639
 31
0.0
100
AcDbText
  0
TEXT
  5
282
100
AcDbEntity
  8
-CS
  6
CONTINUOUS
 62
   212
100
AcDbText
 10
15.573821
 20
118.168639
 30
0.0
 40
2.0
  1
G
 41
1.25
 72
     4
 11
16.407155
 21
119.168639
 31
0.0
100
AcDbText
  0
LINE
  5
283
100
AcDbEntity
  8
-CS
  6
CONTINUOUS
 62
   212
100
AcDbLine
 10
830.957155
 20
0.048639
 30
0.0
 11
840.957155
 21
0.048639
 31
0.0
  0
LINE
  5
284
100
AcDbEntity
  8
-CS
  6
CONTINUOUS
 62
   212
100
AcDbLine
 10
-0.042845
 20
0.048639
 30
0.0
 11
9.957155
 21
0.048639
 31
0.0
  0
LINE
  5
285
100
AcDbEntity
  8
-CS
  6
CONTINUOUS
 62
   212
100
AcDbLine
 10
840.957155
 20
584.048639
 30
0.0
 11
840.957155
 21
594.048639
 31
0.0
  0
LINE
  5
286
100
AcDbEntity
  8
-CS
  6
CONTINUOUS
 62
   212
100
AcDbLine
 10
840.957155
 20
0.048639
 30
0.0
 11
840.957155
 21
10.048639
 31
0.0
  0
LINE
  5
287
100
AcDbEntity
  8
-CS
  6
CONTINUOUS
 62
   212
100
AcDbLine
 10
9.957155
 20
594.048639
 30
0.0
 11
-0.042845
 21
594.048639
 31
0.0
  0
LINE
  5
288
100
AcDbEntity
  8
-CS
  6
CONTINUOUS
 62
   212
100
AcDbLine
 10
840.957155
 20
594.048639
 30
0.0
 11
830.957155
 21
594.048639
 31
0.0
  0
LINE
  5
289
100
AcDbEntity
  8
-CS
  6
CONTINUOUS
 62
   212
100
AcDbLine
 10
-0.042845
 20
10.048639
 30
0.0
 11
-0.042845
 21
0.048639
 31
0.0
  0
LINE
  5
28A
100
AcDbEntity
  8
-CS
  6
CONTINUOUS
 62
   212
100
AcDbLine
 10
-0.042845
 20
594.048639
 30
0.0
 11
-0.042845
 21
584.048639
 31
0.0
  0
LINE
  5
28B
100
AcDbEntity
  8
-CS
  6
CONTINUOUS
 62
   212
100
AcDbLine
 10
760.037155
 20
581.048639
 30
0.0
 11
760.037155
 21
574.048639
 31
0.0
  0
LINE
  5
28C
100
AcDbEntity
  8
-CS
  6
CONTINUOUS
 62
   212
100
AcDbLine
 10
692.137155
 20
581.048639
 30
0.0
 11
692.137155
 21
574.048639
 31
0.0
  0
LINE
  5
28D
100
AcDbEntity
  8
-CS
  6
CONTINUOUS
 62
   212
100
AcDbLine
 10
624.207155
 20
581.048639
 30
0.0
 11
624.207155
 21
574.048639
 31
0.0
  0
LINE
  5
28E
100
AcDbEntity
  8
-CS
  6
CONTINUOUS
 62
   212
100
AcDbLine
 10
556.277155
 20
581.048639
 30
0.0
 11
556.277155
 21
574.048639
 31
0.0
  0
LINE
  5
28F
100
AcDbEntity
  8
-CS
  6
CONTINUOUS
 62
   212
100
AcDbLine
 10
488.377155
 20
581.048639
 30
0.0
 11
488.377155
 21
574.048639
 31
0.0
  0
LINE
  5
290
100
AcDbEntity
  8
-CS
  6
CONTINUOUS
 62
   212
100
AcDbLine
 10
420.457155
 20
581.048639
 30
0.0
 11
420.457155
 21
574.048639
 31
0.0
  0
LINE
  5
291
100
AcDbEntity
  8
-CS
  6
CONTINUOUS
 62
   212
100
AcDbLine
 10
352.537155
 20
581.048639
 30
0.0
 11
352.537155
 21
574.048639
 31
0.0
  0
LINE
  5
292
100
AcDbEntity
  8
-CS
  6
CONTINUOUS
 62
   212
100
AcDbLine
 10
284.637155
 20
581.048639
 30
0.0
 11
284.637155
 21
574.048639
 31
0.0
  0
LINE
  5
293
100
AcDbEntity
  8
-CS
  6
CONTINUOUS
 62
   212
100
AcDbLine
 10
216.707155
 20
581.048639
 30
0.0
 11
216.707155
 21
574.048639
 31
0.0
  0
LINE
  5
294
100
AcDbEntity
  8
-CS
  6
CONTINUOUS
 62
   212
100
AcDbLine
 10
148.777155
 20
581.048639
 30
0.0
 11
148.777155
 21
574.048639
 31
0.0
  0
LINE
  5
295
100
AcDbEntity
  8
-CS
  6
CONTINUOUS
 62
   212
100
AcDbLine
 10
80.877155
 20
581.048639
 30
0.0
 11
80.877155
 21
574.048639
 31
0.0
  0
LINE
  5
296
100
AcDbEntity
  8
-CS
  6
CONTINUOUS
 62
   212
100
AcDbLine
 10
760.037155
 20
20.048639
 30
0.0
 11
760.037155
 21
13.048639
 31
0.0
  0
LINE
  5
297
100
AcDbEntity
  8
-CS
  6
CONTINUOUS
 62
   212
100
AcDbLine
 10
692.137155
 20
20.048639
 30
0.0
 11
692.137155
 21
13.048639
 31
0.0
  0
LINE
  5
298
100
AcDbEntity
  8
-CS
  6
CONTINUOUS
 62
   212
100
AcDbLine
 10
624.207155
 20
20.048639
 30
0.0
 11
624.207155
 21
13.048639
 31
0.0
  0
LINE
  5
299
100
AcDbEntity
  8
-CS
  6
CONTINUOUS
 62
   212
100
AcDbLine
 10
556.277155
 20
20.048639
 30
0.0
 11
556.277155
 21
13.048639
 31
0.0
  0
LINE
  5
29A
100
AcDbEntity
  8
-CS
  6
CONTINUOUS
 62
   212
100
AcDbLine
 10
488.377155
 20
20.048639
 30
0.0
 11
488.377155
 21
13.048639
 31
0.0
  0
LINE
  5
29B
100
AcDbEntity
  8
-CS
  6
CONTINUOUS
 62
   212
100
AcDbLine
 10
420.457155
 20
20.048639
 30
0.0
 11
420.457155
 21
13.048639
 31
0.0
  0
LINE
  5
29C
100
AcDbEntity
  8
-CS
  6
CONTINUOUS
 62
   212
100
AcDbLine
 10
352.537155
 20
20.048639
 30
0.0
 11
352.537155
 21
13.048639
 31
0.0
  0
LINE
  5
29D
100
AcDbEntity
  8
-CS
  6
CONTINUOUS
 62
   212
100
AcDbLine
 10
284.637155
 20
20.048639
 30
0.0
 11
284.637155
 21
13.048639
 31
0.0
  0
LINE
  5
29E
100
AcDbEntity
  8
-CS
  6
CONTINUOUS
 62
   212
100
AcDbLine
 10
216.707155
 20
20.048639
 30
0.0
 11
216.707155
 21
13.048639
 31
0.0
  0
LINE
  5
29F
100
AcDbEntity
  8
-CS
  6
CONTINUOUS
 62
   212
100
AcDbLine
 10
148.777155
 20
20.048639
 30
0.0
 11
148.777155
 21
13.048639
 31
0.0
  0
LINE
  5
2A0
100
AcDbEntity
  8
-CS
  6
CONTINUOUS
 62
   212
100
AcDbLine
 10
789.207155
 20
39.048639
 30
0.0
 11
789.207155
 21
20.048639
 31
0.0
  0
LINE
  5
2A1
100
AcDbEntity
  8
-CS
  6
CONTINUOUS
 62
   212
100
AcDbLine
 10
666.957155
 20
39.048639
 30
0.0
 11
820.957155
 21
39.048639
 31
0.0
  0
LINE
  5
2A2
100
AcDbEntity
  8
-CS
  6
CONTINUOUS
 62
   212
100
AcDbLine
 10
803.207155
 20
39.048639
 30
0.0
 11
803.207155
 21
20.048639
 31
0.0
  0
LINE
  5
2A3
100
AcDbEntity
  8
-CS
  6
CONTINUOUS
 62
   212
100
AcDbLine
 10
365.957155
 20
63.048639
 30
0.0
 11
453.957155
 21
63.048639
 31
0.0
  0
LINE
  5
2A4
100
AcDbEntity
  8
-CS
  6
CONTINUOUS
 62
   212
100
AcDbLine
 10
365.957155
 20
55.048639
 30
0.0
 11
453.957155
 21
55.048639
 31
0.0
  0
LINE
  5
2A5
100
AcDbEntity
  8
-CS
  6
CONTINUOUS
 62
   212
100
AcDbLine
 10
365.957155
 20
47.048639
 30
0.0
 11
453.957155
 21
47.048639
 31
0.0
  0
LINE
  5
2A6
100
AcDbEntity
  8
-CS
  6
CONTINUOUS
 62
   212
100
AcDbLine
 10
365.957155
 20
29.048639
 30
0.0
 11
453.957155
 21
29.048639
 31
0.0
  0
LINE
  5
2A7
100
AcDbEntity
  8
-CS
  6
CONTINUOUS
 62
   212
100
AcDbLine
 10
502.957155
 20
39.048639
 30
0.0
 11
453.957155
 21
39.048639
 31
0.0
  0
LINE
  5
2A8
100
AcDbEntity
  8
-CS
  6
CONTINUOUS
 62
   212
100
AcDbLine
 10
19.957155
 20
29.048639
 30
0.0
 11
365.957155
 21
29.048639
 31
0.0
  0
LINE
  5
2A9
100
AcDbEntity
  8
-CS
  6
CONTINUOUS
 62
   212
100
AcDbLine
 10
28.957155
 20
20.048639
 30
0.0
 11
28.957155
 21
77.048639
 31
0.0
  0
LINE
  5
2AA
100
AcDbEntity
  8
-CS
  6
CONTINUOUS
 62
   212
100
AcDbLine
 10
365.957155
 20
39.048639
 30
0.0
 11
453.957155
 21
39.048639
 31
0.0
  0
LINE
  5
2AB
100
AcDbEntity
  8
-CS
  6
CONTINUOUS
 62
   212
100
AcDbLine
 10
413.957155
 20
20.048639
 30
0.0
 11
413.957155
 21
77.048639
 31
0.0
  0
LINE
  5
2AC
100
AcDbEntity
  8
-CS
  6
CONTINUOUS
 62
   212
100
AcDbLine
 10
433.957155
 20
20.048639
 30
0.0
 11
433.957155
 21
77.048639
 31
0.0
  0
LINE
  5
2AD
100
AcDbEntity
  8
-CS
  6
CONTINUOUS
 62
   212
100
AcDbLine
 10
19.957155
 20
65.048639
 30
0.0
 11
365.957155
 21
65.048639
 31
0.0
  0
LINE
  5
2AE
100
AcDbEntity
  8
-CS
  6
CONTINUOUS
 62
   212
100
AcDbLine
 10
502.957155
 20
39.048639
 30
0.0
 11
666.957155
 21
39.048639
 31
0.0
  0
LINE
  5
2AF
100
AcDbEntity
  8
-CS
  6
CONTINUOUS
 62
   212
100
AcDbLine
 10
502.957155
 20
58.048639
 30
0.0
 11
666.957155
 21
58.048639
 31
0.0
  0
LINE
  5
2B0
100
AcDbEntity
  8
-CS
  6
CONTINUOUS
 62
   212
100
AcDbLine
 10
502.957155
 20
77.048639
 30
0.0
 11
502.957155
 21
20.048639
 31
0.0
  0
LINE
  5
2B1
100
AcDbEntity
  8
-CS
  6
CONTINUOUS
 62
   212
100
AcDbLine
 10
365.957155
 20
20.048639
 30
0.0
 11
365.957155
 21
77.048639
 31
0.0
  0
LINE
  5
2B2
100
AcDbEntity
  8
-CS
  6
CONTINUOUS
 62
   212
100
AcDbLine
 10
820.957155
 20
83.798639
 30
0.0
 11
827.947155
 21
83.798639
 31
0.0
  0
LINE
  5
2B3
100
AcDbEntity
  8
-CS
  6
CONTINUOUS
 62
   212
100
AcDbLine
 10
820.957155
 20
154.548639
 30
0.0
 11
827.947155
 21
154.548639
 31
0.0
  0
LINE
  5
2B4
100
AcDbEntity
  8
-CS
  6
CONTINUOUS
 62
   212
100
AcDbLine
 10
820.957155
 20
225.298639
 30
0.0
 11
827.947155
 21
225.298639
 31
0.0
  0
LINE
  5
2B5
100
AcDbEntity
  8
-CS
  6
CONTINUOUS
 62
   212
100
AcDbLine
 10
820.957155
 20
296.048639
 30
0.0
 11
827.947155
 21
296.048639
 31
0.0
  0
LINE
  5
2B6
100
AcDbEntity
  8
-CS
  6
CONTINUOUS
 62
   212
100
AcDbLine
 10
820.957155
 20
366.798639
 30
0.0
 11
827.947155
 21
366.798639
 31
0.0
  0
LINE
  5
2B7
100
AcDbEntity
  8
-CS
  6
CONTINUOUS
 62
   212
100
AcDbLine
 10
820.957155
 20
437.548639
 30
0.0
 11
827.947155
 21
437.548639
 31
0.0
  0
LINE
  5
2B8
100
AcDbEntity
  8
-CS
  6
CONTINUOUS
 62
   212
100
AcDbLine
 10
820.957155
 20
508.298639
 30
0.0
 11
827.957155
 21
508.298639
 31
0.0
  0
LINE
  5
2B9
100
AcDbEntity
  8
-CS
  6
CONTINUOUS
 62
   212
100
AcDbLine
 10
12.957155
 20
83.798639
 30
0.0
 11
19.947155
 21
83.798639
 31
0.0
  0
LINE
  5
2BA
100
AcDbEntity
  8
-CS
  6
CONTINUOUS
 62
   212
100
AcDbLine
 10
12.957155
 20
154.548639
 30
0.0
 11
19.947155
 21
154.548639
 31
0.0
  0
LINE
  5
2BB
100
AcDbEntity
  8
-CS
  6
CONTINUOUS
 62
   212
100
AcDbLine
 10
12.957155
 20
225.298639
 30
0.0
 11
19.947155
 21
225.298639
 31
0.0
  0
LINE
  5
2BC
100
AcDbEntity
  8
-CS
  6
CONTINUOUS
 62
   212
100
AcDbLine
 10
12.957155
 20
296.048639
 30
0.0
 11
19.947155
 21
296.048639
 31
0.0
  0
LINE
  5
2BD
100
AcDbEntity
  8
-CS
  6
CONTINUOUS
 62
   212
100
AcDbLine
 10
12.957155
 20
366.798639
 30
0.0
 11
19.947155
 21
366.798639
 31
0.0
  0
LINE
  5
2BE
100
AcDbEntity
  8
-CS
  6
CONTINUOUS
 62
   212
100
AcDbLine
 10
12.957155
 20
437.548639
 30
0.0
 11
19.947155
 21
437.548639
 31
0.0
  0
LINE
  5
2BF
100
AcDbEntity
  8
-CS
  6
CONTINUOUS
 62
   212
100
AcDbLine
 10
12.957155
 20
508.298639
 30
0.0
 11
19.957155
 21
508.298639
 31
0.0
  0
LINE
  5
2C0
100
AcDbEntity
  8
-CS
  6
CONTINUOUS
 62
   212
100
AcDbLine
 10
80.877155
 20
20.048639
 30
0.0
 11
80.877155
 21
13.048639
 31
0.0
  0
LINE
  5
2C1
100
AcDbEntity
  8
-CS
  6
CONTINUOUS
 62
   212
100
AcDbLine
 10
702.957155
 20
39.048639
 30
0.0
 11
702.957155
 21
20.048639
 31
0.0
  0
LINE
  5
2C2
100
AcDbEntity
  8
-CS
  6
CONTINUOUS
 62
   212
100
AcDbLine
 10
19.957155
 20
35.048639
 30
0.0
 11
365.957155
 21
35.048639
 31
0.0
  0
LINE
  5
2C3
100
AcDbEntity
  8
-CS
  6
CONTINUOUS
 62
   212
100
AcDbLine
 10
19.957155
 20
41.048639
 30
0.0
 11
365.957155
 21
41.048639
 31
0.0
  0
LINE
  5
2C4
100
AcDbEntity
  8
-CS
  6
CONTINUOUS
 62
   212
100
AcDbLine
 10
19.957155
 20
47.048639
 30
0.0
 11
365.957155
 21
47.048639
 31
0.0
  0
LINE
  5
2C5
100
AcDbEntity
  8
-CS
  6
CONTINUOUS
 62
   212
100
AcDbLine
 10
19.957155
 20
53.048639
 30
0.0
 11
365.957155
 21
53.048639
 31
0.0
  0
LINE
  5
2C6
100
AcDbEntity
  8
-CS
  6
CONTINUOUS
 62
   212
100
AcDbLine
 10
19.957155
 20
59.048639
 30
0.0
 11
365.957155
 21
59.048639
 31
0.0
  0
LINE
  5
2C7
100
AcDbEntity
  8
-CS
  6
CONTINUOUS
 62
   212
100
AcDbLine
 10
19.957155
 20
71.048639
 30
0.0
 11
365.957155
 21
71.048639
 31
0.0
  0
LINE
  5
2C8
100
AcDbEntity
  8
-CS
  6
CONTINUOUS
 62
   212
100
AcDbLine
 10
365.957155
 20
71.048639
 30
0.0
 11
453.957155
 21
71.048639
 31
0.0
  0
LINE
  5
2C9
100
AcDbEntity
  8
-CS
  6
CONTINUOUS
 62
   212
100
AcDbLine
 10
206.957155
 20
20.048639
 30
0.0
 11
206.957155
 21
77.048639
 31
0.0
  0
LINE
  5
2CA
100
AcDbEntity
  8
-CS
  6
CONTINUOUS
 62
   212
100
AcDbLine
 10
188.957155
 20
20.048639
 30
0.0
 11
188.957155
 21
77.048639
 31
0.0
  0
LINE
  5
2CB
100
AcDbEntity
  8
-CS
  6
CONTINUOUS
 62
   212
100
AcDbLine
 10
179.957155
 20
20.048639
 30
0.0
 11
179.957155
 21
77.048639
 31
0.0
  0
LINE
  5
2CC
100
AcDbEntity
  8
-CS
  6
CONTINUOUS
 62
   212
100
AcDbLine
 10
354.957155
 20
20.048639
 30
0.0
 11
354.957155
 21
77.048639
 31
0.0
  0
LINE
  5
2CD
100
AcDbEntity
  8
-CS
  6
CONTINUOUS
 62
   212
100
AcDbLine
 10
344.957155
 20
20.048639
 30
0.0
 11
344.957155
 21
77.048639
 31
0.0
  0
LINE
  5
2CE
100
AcDbEntity
  8
-CS
  6
CONTINUOUS
 62
   212
100
AcDbLine
 10
334.957155
 20
20.048639
 30
0.0
 11
334.957155
 21
77.048639
 31
0.0
  0
LINE
  5
2CF
100
AcDbEntity
  8
-CS
  6
CONTINUOUS
 62
   212
100
AcDbLine
 10
324.957155
 20
20.048639
 30
0.0
 11
324.957155
 21
77.048639
 31
0.0
  0
LINE
  5
2D0
100
AcDbEntity
  8
-CS
  6
CONTINUOUS
 62
   212
100
AcDbLine
 10
453.957155
 20
20.048639
 30
0.0
 11
453.957155
 21
77.048639
 31
0.0
  0
LINE
  5
2D1
100
AcDbEntity
  8
-CS
  6
CONTINUOUS
 62
   212
100
AcDbLine
 10
666.957155
 20
20.048639
 30
0.0
 11
666.957155
 21
77.048639
 31
0.0
  0
LINE
  5
2D2
100
AcDbEntity
  8
-CS
  6
CONTINUOUS
 62
   212
100
AcDbLine
 10
19.957155
 20
77.048639
 30
0.0
 11
820.957155
 21
77.048639
 31
0.0
  0
LINE
  5
2DF
100
AcDbEntity
  8
-CS
  6
CONTINUOUS
 62
   212
100
AcDbLine
 10
12.957155
 20
13.048639
 30
0.0
 11
827.957155
 21
13.048639
 31
0.0
  0
LINE
  5
2E0
100
AcDbEntity
  8
-CS
  6
CONTINUOUS
 62
   212
100
AcDbLine
 10
827.957155
 20
13.048639
 30
0.0
 11
827.957155
 21
581.048639
 31
0.0
  0
LINE
  5
2E1
100
AcDbEntity
  8
-CS
  6
CONTINUOUS
 62
   212
100
AcDbLine
 10
827.957155
 20
581.048639
 30
0.0
 11
12.957155
 21
581.048639
 31
0.0
  0
LINE
  5
2E2
100
AcDbEntity
  8
-CS
  6
CONTINUOUS
 62
   212
100
AcDbLine
 10
12.957155
 20
581.048639
 30
0.0
 11
12.957155
 21
13.048639
 31
0.0
  0
LINE
  5
2E3
100
AcDbEntity
  8
-CS
  6
CONTINUOUS
 62
   212
100
AcDbLine
 10
19.957155
 20
20.048639
 30
0.0
 11
820.957155
 21
20.048639
 31
0.0
  0
LINE
  5
2E4
100
AcDbEntity
  8
-CS
  6
CONTINUOUS
 62
   212
100
AcDbLine
 10
820.957155
 20
20.048639
 30
0.0
 11
820.957155
 21
574.048639
 31
0.0
  0
LINE
  5
2E5
100
AcDbEntity
  8
-CS
  6
CONTINUOUS
 62
   212
100
AcDbLine
 10
820.957155
 20
574.048639
 30
0.0
 11
19.957155
 21
574.048639
 31
0.0
  0
LINE
  5
2E6
100
AcDbEntity
  8
-CS
  6
CONTINUOUS
 62
   212
100
AcDbLine
 10
19.957155
 20
574.048639
 30
0.0
 11
19.957155
 21
20.048639
 31
0.0
  0
LINE
  5
2E7
100
AcDbEntity
  8
A1-CS
  6
CONTINUOUS
 62
   212
100
AcDbLine
 10
12.957155
 20
13.048639
 30
0.0
 11
827.957155
 21
13.048639
 31
0.0
  0
LINE
  5
2E8
100
AcDbEntity
  8
A1-CS
  6
CONTINUOUS
 62
   212
100
AcDbLine
 10
827.957155
 20
13.048639
 30
0.0
 11
827.957155
 21
581.048639
 31
0.0
  0
LINE
  5
2E9
100
AcDbEntity
  8
A1-CS
  6
CONTINUOUS
 62
   212
100
AcDbLine
 10
827.957155
 20
581.048639
 30
0.0
 11
12.957155
 21
581.048639
 31
0.0
  0
LINE
  5
2EA
100
AcDbEntity
  8
A1-CS
  6
CONTINUOUS
 62
   212
100
AcDbLine
 10
12.957155
 20
581.048639
 30
0.0
 11
12.957155
 21
13.048639
 31
0.0
  0
LINE
  5
2EB
100
AcDbEntity
  8
A1-CS
  6
CONTINUOUS
 62
   212
100
AcDbLine
 10
19.957155
 20
20.048639
 30
0.0
 11
820.957155
 21
20.048639
 31
0.0
  0
LINE
  5
2EC
100
AcDbEntity
  8
A1-CS
  6
CONTINUOUS
 62
   212
100
AcDbLine
 10
820.957155
 20
20.048639
 30
0.0
 11
820.957155
 21
574.048639
 31
0.0
  0
LINE
  5
2ED
100
AcDbEntity
  8
A1-CS
  6
CONTINUOUS
 62
   212
100
AcDbLine
 10
820.957155
 20
574.048639
 30
0.0
 11
19.957155
 21
574.048639
 31
0.0
  0
LINE
  5
2EE
100
AcDbEntity
  8
A1-CS
  6
CONTINUOUS
 62
   212
100
AcDbLine
 10
19.957155
 20
574.048639
 30
0.0
 11
19.957155
 21
20.048639
 31
0.0
  0
ENDSEC
  0
SECTION
  2
OBJECTS
  0
DICTIONARY
  5
C
100
AcDbDictionary
  3
ACAD_GROUP
350
D
  3
ACAD_MLINESTYLE
350
1B
  0
DICTIONARY
  5
D
102
{ACAD_REACTORS
330
C
102
}
100
AcDbDictionary
  0
DICTIONARY
  5
1B
102
{ACAD_REACTORS
330
C
102
}
100
AcDbDictionary
  3
STANDARD
350
1C
  0
MLINESTYLE
  5
1C
102
{ACAD_REACTORS
330
1B
102
}
100
AcDbMlineStyle
  2
STANDARD
 70
     0
  3

 62
   256
 51
90.0
 52
90.0
 71
     2
 49
0.5
 62
   256
  6
BYLAYER
 49
-0.5
 62
   256
  6
BYLAYER
  0
ENDSEC
  0
EOF
