  0
SECTION
  2
HEADER
  9
$ACADVER
  1
AC1014
  9
$ACADMAINTVER
 70
     0
  9
$DWGCODEPAGE
  3
DOS850
  9
$INSBASE
 10
0.0
 20
0.0
 30
0.0
  9
$EXTMIN
 10
-0.226262
 20
-0.603703
 30
0.0
  9
$EXTMAX
 10
420.273738
 20
296.396298
 30
0.0
  9
$LIMMIN
 10
0.0
 20
0.0
  9
$LIMMAX
 10
0.0
 20
0.0
  9
$ORTHOMODE
 70
     1
  9
$REGENMODE
 70
     1
  9
$FILLMODE
 70
     1
  9
$QTEXTMODE
 70
     0
  9
$MIRRTEXT
 70
     1
  9
$DRAGMODE
 70
     2
  9
$LTSCALE
 40
1.0
  9
$OSMODE
 70
     1
  9
$ATTMODE
 70
     1
  9
$TEXTSIZE
 40
0.2
  9
$TRACEWID
 40
0.05
  9
$TEXTSTYLE
  7
STANDARD
  9
$CLAYER
  8
0
  9
$CELTYPE
  6
CONTINUOUS
  9
$CECOLOR
 62
   256
  9
$CELTSCALE
 40
1.0
  9
$DELOBJ
 70
     1
  9
$DISPSILH
 70
     0
  9
$DIMSCALE
 40
1.0
  9
$DIMASZ
 40
0.18
  9
$DIMEXO
 40
0.0625
  9
$DIMDLI
 40
0.38
  9
$DIMRND
 40
0.0
  9
$DIMDLE
 40
0.0
  9
$DIMEXE
 40
0.18
  9
$DIMTP
 40
0.0
  9
$DIMTM
 40
0.0
  9
$DIMTXT
 40
5.0
  9
$DIMCEN
 40
0.09
  9
$DIMTSZ
 40
0.0
  9
$DIMTOL
 70
     0
  9
$DIMLIM
 70
     0
  9
$DIMTIH
 70
     1
  9
$DIMTOH
 70
     1
  9
$DIMSE1
 70
     0
  9
$DIMSE2
 70
     0
  9
$DIMTAD
 70
     0
  9
$DIMZIN
 70
     0
  9
$DIMBLK
  1

  9
$DIMASO
 70
     1
  9
$DIMSHO
 70
     1
  9
$DIMPOST
  1

  9
$DIMAPOST
  1

  9
$DIMALT
 70
     0
  9
$DIMALTD
 70
     2
  9
$DIMALTF
 40
25.4
  9
$DIMLFAC
 40
1.0
  9
$DIMTOFL
 70
     0
  9
$DIMTVP
 40
0.0
  9
$DIMTIX
 70
     0
  9
$DIMSOXD
 70
     0
  9
$DIMSAH
 70
     0
  9
$DIMBLK1
  1

  9
$DIMBLK2
  1

  9
$DIMSTYLE
  2
STANDARD
  9
$DIMCLRD
 70
     0
  9
$DIMCLRE
 70
     0
  9
$DIMCLRT
 70
     0
  9
$DIMTFAC
 40
1.0
  9
$DIMGAP
 40
0.09
  9
$DIMJUST
 70
     0
  9
$DIMSD1
 70
     0
  9
$DIMSD2
 70
     0
  9
$DIMTOLJ
 70
     1
  9
$DIMTZIN
 70
     0
  9
$DIMALTZ
 70
     0
  9
$DIMALTTZ
 70
     0
  9
$DIMFIT
 70
     3
  9
$DIMUPT
 70
     0
  9
$DIMUNIT
 70
     2
  9
$DIMDEC
 70
     4
  9
$DIMTDEC
 70
     4
  9
$DIMALTU
 70
     2
  9
$DIMALTTD
 70
     2
  9
$DIMTXSTY
  7
STANDARD
  9
$DIMAUNIT
 70
     0
  9
$LUNITS
 70
     2
  9
$LUPREC
 70
     4
  9
$SKETCHINC
 40
0.1
  9
$FILLETRAD
 40
0.0
  9
$AUNITS
 70
     0
  9
$AUPREC
 70
     0
  9
$MENU
  1
acad
  9
$ELEVATION
 40
0.0
  9
$PELEVATION
 40
0.0
  9
$THICKNESS
 40
0.0
  9
$LIMCHECK
 70
     0
  9
$BLIPMODE
 70
     1
  9
$CHAMFERA
 40
0.0
  9
$CHAMFERB
 40
0.0
  9
$CHAMFERC
 40
0.0
  9
$CHAMFERD
 40
0.0
  9
$SKPOLY
 70
     0
  9
$TDCREATE
 40
2444240.000000000
  9
$TDUPDATE
 40
2453495.409293970
  9
$TDINDWG
 40
0.0342012963
  9
$TDUSRTIMER
 40
0.0341896875
  9
$USRTIMER
 70
     1
  9
$ANGBASE
 50
0.0
  9
$ANGDIR
 70
     0
  9
$PDMODE
 70
     0
  9
$PDSIZE
 40
0.0
  9
$PLINEWID
 40
0.0
  9
$COORDS
 70
     0
  9
$SPLFRAME
 70
     0
  9
$SPLINETYPE
 70
     6
  9
$SPLINESEGS
 70
     8
  9
$ATTDIA
 70
     0
  9
$ATTREQ
 70
     1
  9
$HANDLING
 70
     1
  9
$HANDSEED
  5
1309
  9
$SURFTAB1
 70
     6
  9
$SURFTAB2
 70
     6
  9
$SURFTYPE
 70
     6
  9
$SURFU
 70
     6
  9
$SURFV
 70
     6
  9
$UCSNAME
  2

  9
$UCSORG
 10
0.0
 20
0.0
 30
0.0
  9
$UCSXDIR
 10
1.0
 20
0.0
 30
0.0
  9
$UCSYDIR
 10
0.0
 20
1.0
 30
0.0
  9
$PUCSNAME
  2

  9
$PUCSORG
 10
0.0
 20
0.0
 30
0.0
  9
$PUCSXDIR
 10
1.0
 20
0.0
 30
0.0
  9
$PUCSYDIR
 10
0.0
 20
1.0
 30
0.0
  9
$USERI1
 70
     0
  9
$USERI2
 70
     0
  9
$USERI3
 70
     0
  9
$USERI4
 70
     0
  9
$USERI5
 70
     0
  9
$USERR1
 40
0.0
  9
$USERR2
 40
0.0
  9
$USERR3
 40
0.0
  9
$USERR4
 40
0.0
  9
$USERR5
 40
0.0
  9
$WORLDVIEW
 70
     1
  9
$SHADEDGE
 70
     3
  9
$SHADEDIF
 70
    70
  9
$TILEMODE
 70
     1
  9
$MAXACTVP
 70
    16
  9
$PINSBASE
 10
0.0
 20
0.0
 30
0.0
  9
$PLIMCHECK
 70
     0
  9
$PEXTMIN
 10
1.000000E+20
 20
1.000000E+20
 30
1.000000E+20
  9
$PEXTMAX
 10
-1.000000E+20
 20
-1.000000E+20
 30
-1.000000E+20
  9
$PLIMMIN
 10
0.0
 20
0.0
  9
$PLIMMAX
 10
12.0
 20
9.0
  9
$UNITMODE
 70
     0
  9
$VISRETAIN
 70
     0
  9
$PLINEGEN
 70
     1
  9
$PSLTSCALE
 70
     0
  9
$TREEDEPTH
 70
  3020
  9
$PICKSTYLE
 70
     1
  9
$CMLSTYLE
  2
STANDARD
  9
$CMLJUST
 70
     0
  9
$CMLSCALE
 40
1.0
  9
$PROXYGRAPHICS
 70
     0
  9
$MEASUREMENT
 70
     0
  0
ENDSEC
  0
SECTION
  2
CLASSES
  0
CLASS
  1
LWPOLYLINE
  2
AcDbPolyline
  3
"AutoCAD"
 90
        0
280
     0
281
     1
  0
CLASS
  1
IMAGE
  2
AcDbRasterImage
  3
ISM
 90
      127
280
     0
281
     1
  0
CLASS
  1
OLE2FRAME
  2
AcDbOle2Frame
  3
""
 90
        0
280
     0
281
     1
  0
CLASS
  1
HATCH
  2
AcDbHatch
  3
"ACAD_SEDONA"
 90
        0
280
     0
281
     1
  0
CLASS
  1
DICTIONARYVAR
  2
AcDbDictionaryVar
  3
"AutoCAD"
 90
        0
280
     0
281
     0
  0
CLASS
  1
RASTERVARIABLES
  2
AcDbRasterVariables
  3
ISM
 90
        0
280
     0
281
     0
  0
CLASS
  1
IMAGEDEF
  2
AcDbRasterImageDef
  3
ISM
 90
        0
280
     0
281
     0
  0
CLASS
  1
IMAGEDEF_REACTOR
  2
AcDbRasterImageDefReactor
  3
ISM
 90
        1
280
     0
281
     0
  0
CLASS
  1
IDBUFFER
  2
AcDbIdBuffer
  3
"Acad"
 90
        0
280
     0
281
     0
  0
CLASS
  1
SPATIAL_FILTER
  2
AcDbSpatialFilter
  3
"Acad"
 90
        0
280
     0
281
     0
  0
CLASS
  1
XRECORD
  2
AcDbXrecord
  3
"<Built In>"
 90
        0
280
     0
281
     0
  0
CLASS
  1
SORTENTSTABLE
  2
AcDbSortentsTable
  3
"AutoCAD"
 90
        0
280
     0
281
     0
  0
CLASS
  1
LAYER_INDEX
  2
AcDbLayerIndex
  3
"Acad"
 90
        0
280
     0
281
     0
  0
CLASS
  1
SPATIAL_INDEX
  2
AcDbSpatialIndex
  3
"Acad"
 90
        0
280
     0
281
     0
  0
CLASS
  1
OBJECT_PTR
  2
CAseDLPNTableRecord
  3
"ASE-LPNTableRecord"
 90
        1
280
     0
281
     0
  0
ENDSEC
  0
SECTION
  2
TABLES
  0
TABLE
  2
VPORT
  5
7
100
AcDbSymbolTable
 70
     1
  0
VPORT
  5
26
100
AcDbSymbolTableRecord
100
AcDbViewportTableRecord
  2
*ACTIVE
 70
     0
 10
0.0
 20
0.0
 11
1.0
 21
1.0
 12
210.023738
 22
147.896298
 13
0.0
 23
0.0
 14
1.0
 24
1.0
 15
0.0
 25
0.0
 16
0.0
 26
0.0
 36
1.0
 17
0.0
 27
0.0
 37
0.0
 40
302.940001
 41
0.688564
 42
50.0
 43
0.0
 44
0.0
 50
0.0
 51
0.0
 71
     0
 72
   100
 73
     1
 74
     1
 75
     0
 76
     0
 77
     0
 78
     0
  0
ENDTAB
  0
TABLE
  2
LTYPE
  5
4
100
AcDbSymbolTable
 70
     3
  0
LTYPE
  5
D
100
AcDbSymbolTableRecord
100
AcDbLinetypeTableRecord
  2
BYBLOCK
 70
    64
  3

 72
    65
 73
     0
 40
0.0
  0
LTYPE
  5
E
100
AcDbSymbolTableRecord
100
AcDbLinetypeTableRecord
  2
BYLAYER
 70
    64
  3

 72
    65
 73
     0
 40
0.0
  0
LTYPE
  5
F
100
AcDbSymbolTableRecord
100
AcDbLinetypeTableRecord
  2
CONTINUOUS
 70
    64
  3
SOLID LINE
 72
    64
 73
     0
 40
0.0
  0
ENDTAB
  0
TABLE
  2
LAYER
  5
2
100
AcDbSymbolTable
 70
     4
  0
LAYER
  5
1B
100
AcDbSymbolTableRecord
100
AcDbLayerTableRecord
  2
0
 70
    64
 62
     7
  6
CONTINUOUS
  0
LAYER
  5
24
100
AcDbSymbolTableRecord
100
AcDbLayerTableRecord
  2
-CS
 70
    64
 62
     7
  6
CONTINUOUS
  0
LAYER
  5
25
100
AcDbSymbolTableRecord
100
AcDbLayerTableRecord
  2
A1-CS
 70
    64
 62
     7
  6
CONTINUOUS
  0
LAYER
  5
C5D
100
AcDbSymbolTableRecord
100
AcDbLayerTableRecord
  2
DEFPOINTS
 70
    64
 62
     7
  6
CONTINUOUS
  0
ENDTAB
  0
TABLE
  2
STYLE
  5
3
100
AcDbSymbolTable
 70
     1
  0
STYLE
  5
28
100
AcDbSymbolTableRecord
100
AcDbTextStyleTableRecord
  2
STANDARD
 70
    64
 40
0.0
 41
1.0
 50
0.0
 71
     0
 42
0.2
  3
txt
  4

  0
ENDTAB
  0
TABLE
  2
VIEW
  5
5
100
AcDbSymbolTable
 70
     0
  0
ENDTAB
  0
TABLE
  2
UCS
  5
6
100
AcDbSymbolTable
 70
     0
  0
ENDTAB
  0
TABLE
  2
APPID
  5
8
100
AcDbSymbolTable
 70
     1
  0
APPID
  5
27
100
AcDbSymbolTableRecord
100
AcDbRegAppTableRecord
  2
ACAD
 70
     0
  0
ENDTAB
  0
TABLE
  2
DIMSTYLE
  5
9
100
AcDbSymbolTable
 70
     1
  0
DIMSTYLE
105
29
100
AcDbSymbolTableRecord
100
AcDbDimStyleTableRecord
  2
STANDARD
 70
    64
  3

  4

  5

  6

  7

 40
1.0
 41
0.18
 42
0.0625
 43
0.38
 44
0.18
 45
0.0
 46
0.0
 47
0.0
 48
0.0
140
0.18
141
0.09
142
0.0
143
25.4
144
1.0
145
0.0
146
1.0
147
0.09
 71
     0
 72
     0
 73
     1
 74
     1
 75
     0
 76
     0
 77
     0
 78
     0
170
     0
171
     2
172
     0
173
     0
174
     0
175
     0
176
     0
177
     0
178
     0
270
     2
271
     4
272
     4
273
     2
274
     2
340
28
275
     0
280
     0
281
     0
282
     0
283
     1
284
     0
285
     0
286
     0
287
     3
288
     0
  0
ENDTAB
  0
TABLE
  2
BLOCK_RECORD
  5
6F
100
AcDbSymbolTable
 70
     0
  0
BLOCK_RECORD
  5
6D
100
AcDbSymbolTableRecord
100
AcDbBlockTableRecord
  2
*MODEL_SPACE
  0
BLOCK_RECORD
  5
6E
100
AcDbSymbolTableRecord
100
AcDbBlockTableRecord
  2
*PAPER_SPACE
  0
ENDTAB
  0
ENDSEC
  0
SECTION
  2
BLOCKS
  0
BLOCK
  5
70
100
AcDbEntity
  8
0
100
AcDbBlockBegin
  2
*MODEL_SPACE
 70
     0
 10
0.0
 20
0.0
 30
0.0
  3
*MODEL_SPACE
  1

  0
ENDBLK
  5
71
100
AcDbEntity
  8
0
100
AcDbBlockEnd
  0
BLOCK
  5
72
100
AcDbEntity
 67
     1
  8
0
100
AcDbBlockBegin
  2
*PAPER_SPACE
 70
     0
 10
0.0
 20
0.0
 30
0.0
  3
*PAPER_SPACE
  1

  0
ENDBLK
  5
73
100
AcDbEntity
 67
     1
  8
0
100
AcDbBlockEnd
  0
ENDSEC
  0
SECTION
  2
ENTITIES
  0
LINE
  5
11C6
100
AcDbEntity
  8
-CS
  6
CONTINUOUS
 62
   212
100
AcDbLine
 10
9.773739
 20
37.896298
 30
0.0
 11
410.273738
 21
37.896298
 31
0.0
  0
LINE
  5
11C7
100
AcDbEntity
  8
-CS
  6
CONTINUOUS
 62
   212
100
AcDbLine
 10
333.273738
 20
9.396297
 30
0.0
 11
333.273738
 21
37.896298
 31
0.0
  0
LINE
  5
11C8
100
AcDbEntity
  8
-CS
  6
CONTINUOUS
 62
   212
100
AcDbLine
 10
226.773739
 20
9.396297
 30
0.0
 11
226.773739
 21
37.896298
 31
0.0
  0
LINE
  5
11C9
100
AcDbEntity
  8
-CS
  6
CONTINUOUS
 62
   212
100
AcDbLine
 10
162.273739
 20
9.396297
 30
0.0
 11
162.273739
 21
37.896298
 31
0.0
  0
LINE
  5
11CA
100
AcDbEntity
  8
-CS
  6
CONTINUOUS
 62
   212
100
AcDbLine
 10
167.273739
 20
9.396297
 30
0.0
 11
167.273739
 21
37.896298
 31
0.0
  0
LINE
  5
11CB
100
AcDbEntity
  8
-CS
  6
CONTINUOUS
 62
   212
100
AcDbLine
 10
172.273739
 20
9.396297
 30
0.0
 11
172.273739
 21
37.896298
 31
0.0
  0
LINE
  5
11CC
100
AcDbEntity
  8
-CS
  6
CONTINUOUS
 62
   212
100
AcDbLine
 10
177.273739
 20
9.396297
 30
0.0
 11
177.273739
 21
37.896298
 31
0.0
  0
LINE
  5
11CD
100
AcDbEntity
  8
-CS
  6
CONTINUOUS
 62
   212
100
AcDbLine
 10
89.773738
 20
9.396297
 30
0.0
 11
89.773738
 21
37.896298
 31
0.0
  0
LINE
  5
11CE
100
AcDbEntity
  8
-CS
  6
CONTINUOUS
 62
   212
100
AcDbLine
 10
94.273738
 20
9.396297
 30
0.0
 11
94.273738
 21
37.896298
 31
0.0
  0
LINE
  5
11CF
100
AcDbEntity
  8
-CS
  6
CONTINUOUS
 62
   212
100
AcDbLine
 10
103.273738
 20
9.396297
 30
0.0
 11
103.273738
 21
37.896298
 31
0.0
  0
LINE
  5
11D0
100
AcDbEntity
  8
-CS
  6
CONTINUOUS
 62
   212
100
AcDbLine
 10
182.773739
 20
34.896298
 30
0.0
 11
226.773739
 21
34.896298
 31
0.0
  0
LINE
  5
11D1
100
AcDbEntity
  8
-CS
  6
CONTINUOUS
 62
   212
100
AcDbLine
 10
9.773739
 20
34.896298
 30
0.0
 11
182.773739
 21
34.896298
 31
0.0
  0
LINE
  5
11D2
100
AcDbEntity
  8
-CS
  6
CONTINUOUS
 62
   212
100
AcDbLine
 10
9.773739
 20
28.896297
 30
0.0
 11
182.773739
 21
28.896297
 31
0.0
  0
LINE
  5
11D3
100
AcDbEntity
  8
-CS
  6
CONTINUOUS
 62
   212
100
AcDbLine
 10
9.773739
 20
25.896297
 30
0.0
 11
182.773739
 21
25.896297
 31
0.0
  0
LINE
  5
11D4
100
AcDbEntity
  8
-CS
  6
CONTINUOUS
 62
   212
100
AcDbLine
 10
9.773739
 20
22.896297
 30
0.0
 11
182.773739
 21
22.896297
 31
0.0
  0
LINE
  5
11D5
100
AcDbEntity
  8
-CS
  6
CONTINUOUS
 62
   212
100
AcDbLine
 10
9.773739
 20
19.896297
 30
0.0
 11
182.773739
 21
19.896297
 31
0.0
  0
LINE
  5
11D6
100
AcDbEntity
  8
-CS
  6
CONTINUOUS
 62
   212
100
AcDbLine
 10
9.773739
 20
16.896297
 30
0.0
 11
182.773739
 21
16.896297
 31
0.0
  0
LINE
  5
11D7
100
AcDbEntity
  8
-CS
  6
CONTINUOUS
 62
   212
100
AcDbLine
 10
351.273738
 20
18.896297
 30
0.0
 11
351.273738
 21
9.396297
 31
0.0
  0
LINE
  5
11D8
100
AcDbEntity
  8
-CS
  6
CONTINUOUS
 62
   212
100
AcDbLine
 10
40.233739
 20
9.396297
 30
0.0
 11
40.233739
 21
5.896298
 31
0.0
  0
LINE
  5
11D9
100
AcDbEntity
  8
-CS
  6
CONTINUOUS
 62
   212
100
AcDbLine
 10
6.273739
 20
253.521298
 30
0.0
 11
9.773739
 21
253.521298
 31
0.0
  0
LINE
  5
11DA
100
AcDbEntity
  8
-CS
  6
CONTINUOUS
 62
   212
100
AcDbLine
 10
6.273739
 20
218.146298
 30
0.0
 11
9.768738
 21
218.146298
 31
0.0
  0
LINE
  5
11DB
100
AcDbEntity
  8
-CS
  6
CONTINUOUS
 62
   212
100
AcDbLine
 10
6.273739
 20
182.771298
 30
0.0
 11
9.768738
 21
182.771298
 31
0.0
  0
LINE
  5
11DC
100
AcDbEntity
  8
-CS
  6
CONTINUOUS
 62
   212
100
AcDbLine
 10
6.273739
 20
147.396298
 30
0.0
 11
9.768738
 21
147.396298
 31
0.0
  0
LINE
  5
11DD
100
AcDbEntity
  8
-CS
  6
CONTINUOUS
 62
   212
100
AcDbLine
 10
6.273739
 20
112.021298
 30
0.0
 11
9.768738
 21
112.021298
 31
0.0
  0
LINE
  5
11DE
100
AcDbEntity
  8
-CS
  6
CONTINUOUS
 62
   212
100
AcDbLine
 10
6.273739
 20
76.646298
 30
0.0
 11
9.768738
 21
76.646298
 31
0.0
  0
LINE
  5
11DF
100
AcDbEntity
  8
-CS
  6
CONTINUOUS
 62
   212
100
AcDbLine
 10
6.273739
 20
41.271298
 30
0.0
 11
9.768738
 21
41.271298
 31
0.0
  0
LINE
  5
11E0
100
AcDbEntity
  8
-CS
  6
CONTINUOUS
 62
   212
100
AcDbLine
 10
410.273738
 20
253.521298
 30
0.0
 11
413.773738
 21
253.521298
 31
0.0
  0
LINE
  5
11E1
100
AcDbEntity
  8
-CS
  6
CONTINUOUS
 62
   212
100
AcDbLine
 10
410.273738
 20
218.146298
 30
0.0
 11
413.768738
 21
218.146298
 31
0.0
  0
LINE
  5
11E2
100
AcDbEntity
  8
-CS
  6
CONTINUOUS
 62
   212
100
AcDbLine
 10
410.273738
 20
182.771298
 30
0.0
 11
413.768738
 21
182.771298
 31
0.0
  0
LINE
  5
11E3
100
AcDbEntity
  8
-CS
  6
CONTINUOUS
 62
   212
100
AcDbLine
 10
410.273738
 20
147.396298
 30
0.0
 11
413.768738
 21
147.396298
 31
0.0
  0
LINE
  5
11E4
100
AcDbEntity
  8
-CS
  6
CONTINUOUS
 62
   212
100
AcDbLine
 10
410.273738
 20
112.021298
 30
0.0
 11
413.768738
 21
112.021298
 31
0.0
  0
LINE
  5
11E5
100
AcDbEntity
  8
-CS
  6
CONTINUOUS
 62
   212
100
AcDbLine
 10
410.273738
 20
76.646298
 30
0.0
 11
413.768738
 21
76.646298
 31
0.0
  0
LINE
  5
11E6
100
AcDbEntity
  8
-CS
  6
CONTINUOUS
 62
   212
100
AcDbLine
 10
410.273738
 20
41.271298
 30
0.0
 11
413.768738
 21
41.271298
 31
0.0
  0
LINE
  5
11E7
100
AcDbEntity
  8
-CS
  6
CONTINUOUS
 62
   212
100
AcDbLine
 10
182.773739
 20
9.396297
 30
0.0
 11
182.773739
 21
37.896298
 31
0.0
  0
LINE
  5
11E8
100
AcDbEntity
  8
-CS
  6
CONTINUOUS
 62
   212
100
AcDbLine
 10
251.273739
 20
37.896298
 30
0.0
 11
251.273739
 21
9.396297
 31
0.0
  0
LINE
  5
11E9
100
AcDbEntity
  8
-CS
  6
CONTINUOUS
 62
   212
100
AcDbLine
 10
251.273739
 20
28.396297
 30
0.0
 11
333.273738
 21
28.396297
 31
0.0
  0
LINE
  5
11EA
100
AcDbEntity
  8
-CS
  6
CONTINUOUS
 62
   212
100
AcDbLine
 10
251.273739
 20
18.896297
 30
0.0
 11
333.273738
 21
18.896297
 31
0.0
  0
LINE
  5
11EB
100
AcDbEntity
  8
-CS
  6
CONTINUOUS
 62
   212
100
AcDbLine
 10
9.773739
 20
31.896297
 30
0.0
 11
182.773739
 21
31.896297
 31
0.0
  0
LINE
  5
11EC
100
AcDbEntity
  8
-CS
  6
CONTINUOUS
 62
   212
100
AcDbLine
 10
216.773739
 20
9.396297
 30
0.0
 11
216.773739
 21
37.896298
 31
0.0
  0
LINE
  5
11ED
100
AcDbEntity
  8
-CS
  6
CONTINUOUS
 62
   212
100
AcDbLine
 10
206.773739
 20
9.396297
 30
0.0
 11
206.773739
 21
37.896298
 31
0.0
  0
LINE
  5
11EE
100
AcDbEntity
  8
-CS
  6
CONTINUOUS
 62
   212
100
AcDbLine
 10
182.773739
 20
18.896297
 30
0.0
 11
226.773739
 21
18.896297
 31
0.0
  0
LINE
  5
11EF
100
AcDbEntity
  8
-CS
  6
CONTINUOUS
 62
   212
100
AcDbLine
 10
14.273739
 20
9.396297
 30
0.0
 11
14.273739
 21
37.896298
 31
0.0
  0
LINE
  5
11F0
100
AcDbEntity
  8
-CS
  6
CONTINUOUS
 62
   212
100
AcDbLine
 10
9.773739
 20
13.896297
 30
0.0
 11
182.773739
 21
13.896297
 31
0.0
  0
LINE
  5
11F1
100
AcDbEntity
  8
-CS
  6
CONTINUOUS
 62
   212
100
AcDbLine
 10
251.273739
 20
18.896297
 30
0.0
 11
226.773739
 21
18.896297
 31
0.0
  0
LINE
  5
11F2
100
AcDbEntity
  8
-CS
  6
CONTINUOUS
 62
   212
100
AcDbLine
 10
182.773739
 20
13.896297
 30
0.0
 11
226.773739
 21
13.896297
 31
0.0
  0
LINE
  5
11F3
100
AcDbEntity
  8
-CS
  6
CONTINUOUS
 62
   212
100
AcDbLine
 10
182.773739
 20
22.896297
 30
0.0
 11
226.773739
 21
22.896297
 31
0.0
  0
LINE
  5
11F4
100
AcDbEntity
  8
-CS
  6
CONTINUOUS
 62
   212
100
AcDbLine
 10
182.773739
 20
26.896297
 30
0.0
 11
226.773739
 21
26.896297
 31
0.0
  0
LINE
  5
11F5
100
AcDbEntity
  8
-CS
  6
CONTINUOUS
 62
   212
100
AcDbLine
 10
182.773739
 20
30.896297
 30
0.0
 11
226.773739
 21
30.896297
 31
0.0
  0
LINE
  5
11F6
100
AcDbEntity
  8
-CS
  6
CONTINUOUS
 62
   212
100
AcDbLine
 10
401.398738
 20
18.896297
 30
0.0
 11
401.398738
 21
9.396297
 31
0.0
  0
LINE
  5
11F7
100
AcDbEntity
  8
-CS
  6
CONTINUOUS
 62
   212
100
AcDbLine
 10
333.273738
 20
18.896297
 30
0.0
 11
410.273738
 21
18.896297
 31
0.0
  0
LINE
  5
11F8
100
AcDbEntity
  8
-CS
  6
CONTINUOUS
 62
   212
100
AcDbLine
 10
394.398738
 20
18.896297
 30
0.0
 11
394.398738
 21
9.396297
 31
0.0
  0
LINE
  5
11F9
100
AcDbEntity
  8
-CS
  6
CONTINUOUS
 62
   212
100
AcDbLine
 10
74.183739
 20
9.396297
 30
0.0
 11
74.183739
 21
5.896298
 31
0.0
  0
LINE
  5
11FA
100
AcDbEntity
  8
-CS
  6
CONTINUOUS
 62
   212
100
AcDbLine
 10
108.148738
 20
9.396297
 30
0.0
 11
108.148738
 21
5.896298
 31
0.0
  0
LINE
  5
11FB
100
AcDbEntity
  8
-CS
  6
CONTINUOUS
 62
   212
100
AcDbLine
 10
142.113739
 20
9.396297
 30
0.0
 11
142.113739
 21
5.896298
 31
0.0
  0
LINE
  5
11FC
100
AcDbEntity
  8
-CS
  6
CONTINUOUS
 62
   212
100
AcDbLine
 10
176.063739
 20
9.396297
 30
0.0
 11
176.063739
 21
5.896298
 31
0.0
  0
LINE
  5
11FD
100
AcDbEntity
  8
-CS
  6
CONTINUOUS
 62
   212
100
AcDbLine
 10
210.023739
 20
9.396297
 30
0.0
 11
210.023739
 21
5.896298
 31
0.0
  0
LINE
  5
11FE
100
AcDbEntity
  8
-CS
  6
CONTINUOUS
 62
   212
100
AcDbLine
 10
243.983738
 20
9.396297
 30
0.0
 11
243.983738
 21
5.896298
 31
0.0
  0
LINE
  5
11FF
100
AcDbEntity
  8
-CS
  6
CONTINUOUS
 62
   212
100
AcDbLine
 10
277.933739
 20
9.396297
 30
0.0
 11
277.933739
 21
5.896298
 31
0.0
  0
LINE
  5
1200
100
AcDbEntity
  8
-CS
  6
CONTINUOUS
 62
   212
100
AcDbLine
 10
311.898738
 20
9.396297
 30
0.0
 11
311.898738
 21
5.896298
 31
0.0
  0
LINE
  5
1201
100
AcDbEntity
  8
-CS
  6
CONTINUOUS
 62
   212
100
AcDbLine
 10
345.863739
 20
9.396297
 30
0.0
 11
345.863739
 21
5.896298
 31
0.0
  0
LINE
  5
1202
100
AcDbEntity
  8
-CS
  6
CONTINUOUS
 62
   212
100
AcDbLine
 10
379.813739
 20
9.396297
 30
0.0
 11
379.813739
 21
5.896298
 31
0.0
  0
LINE
  5
1203
100
AcDbEntity
  8
-CS
  6
CONTINUOUS
 62
   212
100
AcDbLine
 10
40.233739
 20
289.896298
 30
0.0
 11
40.233739
 21
286.396298
 31
0.0
  0
LINE
  5
1204
100
AcDbEntity
  8
-CS
  6
CONTINUOUS
 62
   212
100
AcDbLine
 10
74.183739
 20
289.896298
 30
0.0
 11
74.183739
 21
286.396298
 31
0.0
  0
LINE
  5
1205
100
AcDbEntity
  8
-CS
  6
CONTINUOUS
 62
   212
100
AcDbLine
 10
108.148738
 20
289.896298
 30
0.0
 11
108.148738
 21
286.396298
 31
0.0
  0
LINE
  5
1206
100
AcDbEntity
  8
-CS
  6
CONTINUOUS
 62
   212
100
AcDbLine
 10
142.113739
 20
289.896298
 30
0.0
 11
142.113739
 21
286.396298
 31
0.0
  0
LINE
  5
1207
100
AcDbEntity
  8
-CS
  6
CONTINUOUS
 62
   212
100
AcDbLine
 10
176.063739
 20
289.896298
 30
0.0
 11
176.063739
 21
286.396298
 31
0.0
  0
LINE
  5
1208
100
AcDbEntity
  8
-CS
  6
CONTINUOUS
 62
   212
100
AcDbLine
 10
210.023739
 20
289.896298
 30
0.0
 11
210.023739
 21
286.396298
 31
0.0
  0
LINE
  5
1209
100
AcDbEntity
  8
-CS
  6
CONTINUOUS
 62
   212
100
AcDbLine
 10
243.983738
 20
289.896298
 30
0.0
 11
243.983738
 21
286.396298
 31
0.0
  0
LINE
  5
120A
100
AcDbEntity
  8
-CS
  6
CONTINUOUS
 62
   212
100
AcDbLine
 10
277.933739
 20
289.896298
 30
0.0
 11
277.933739
 21
286.396298
 31
0.0
  0
LINE
  5
120B
100
AcDbEntity
  8
-CS
  6
CONTINUOUS
 62
   212
100
AcDbLine
 10
311.898738
 20
289.896298
 30
0.0
 11
311.898738
 21
286.396298
 31
0.0
  0
LINE
  5
120C
100
AcDbEntity
  8
-CS
  6
CONTINUOUS
 62
   212
100
AcDbLine
 10
345.863739
 20
289.896298
 30
0.0
 11
345.863739
 21
286.396298
 31
0.0
  0
LINE
  5
120D
100
AcDbEntity
  8
-CS
  6
CONTINUOUS
 62
   212
100
AcDbLine
 10
379.813739
 20
289.896298
 30
0.0
 11
379.813739
 21
286.396298
 31
0.0
  0
LINE
  5
120E
100
AcDbEntity
  8
-CS
  6
CONTINUOUS
 62
   212
100
AcDbLine
 10
-0.226262
 20
296.396298
 30
0.0
 11
-0.226262
 21
291.396298
 31
0.0
  0
LINE
  5
120F
100
AcDbEntity
  8
-CS
  6
CONTINUOUS
 62
   212
100
AcDbLine
 10
-0.226262
 20
4.396298
 30
0.0
 11
-0.226262
 21
-0.603703
 31
0.0
  0
LINE
  5
1210
100
AcDbEntity
  8
-CS
  6
CONTINUOUS
 62
   212
100
AcDbLine
 10
420.273738
 20
296.396298
 30
0.0
 11
415.273738
 21
296.396298
 31
0.0
  0
LINE
  5
1211
100
AcDbEntity
  8
-CS
  6
CONTINUOUS
 62
   212
100
AcDbLine
 10
4.773739
 20
296.396298
 30
0.0
 11
-0.226262
 21
296.396298
 31
0.0
  0
LINE
  5
1212
100
AcDbEntity
  8
-CS
  6
CONTINUOUS
 62
   212
100
AcDbLine
 10
420.273738
 20
-0.603703
 30
0.0
 11
420.273738
 21
4.396298
 31
0.0
  0
LINE
  5
1213
100
AcDbEntity
  8
-CS
  6
CONTINUOUS
 62
   212
100
AcDbLine
 10
420.273738
 20
291.396298
 30
0.0
 11
420.273738
 21
296.396298
 31
0.0
  0
LINE
  5
1214
100
AcDbEntity
  8
-CS
  6
CONTINUOUS
 62
   212
100
AcDbLine
 10
-0.226262
 20
-0.603703
 30
0.0
 11
4.773739
 21
-0.603703
 31
0.0
  0
LINE
  5
1215
100
AcDbEntity
  8
-CS
  6
CONTINUOUS
 62
   212
100
AcDbLine
 10
415.273738
 20
-0.603703
 30
0.0
 11
420.273738
 21
-0.603703
 31
0.0
  0
TEXT
  5
1216
100
AcDbEntity
  8
-CS
  6
CONTINUOUS
 62
   212
100
AcDbText
 10
7.582072
 20
58.456297
 30
0.0
 40
1.0
  1
G
 41
1.25
 72
     4
 11
7.998739
 21
58.956297
 31
0.0
100
AcDbText
  0
TEXT
  5
1217
100
AcDbEntity
  8
-CS
  6
CONTINUOUS
 62
   212
100
AcDbText
 10
22.885406
 20
7.146298
 30
0.0
 40
1.0
  1
1
 41
1.25
 72
     4
 11
23.093739
 21
7.646298
 31
0.0
100
AcDbText
  0
TEXT
  5
1218
100
AcDbEntity
  8
-CS
  6
CONTINUOUS
 62
   212
100
AcDbText
 10
56.627072
 20
7.146298
 30
0.0
 40
1.0
  1
2
 41
1.25
 72
     4
 11
57.043739
 21
7.646298
 31
0.0
100
AcDbText
  0
TEXT
  5
1219
100
AcDbEntity
  8
-CS
  6
CONTINUOUS
 62
   212
100
AcDbText
 10
90.692072
 20
7.146298
 30
0.0
 40
1.0
  1
3
 41
1.25
 72
     4
 11
91.108739
 21
7.646298
 31
0.0
100
AcDbText
  0
TEXT
  5
121A
100
AcDbEntity
  8
-CS
  6
CONTINUOUS
 62
   212
100
AcDbText
 10
124.627072
 20
7.146298
 30
0.0
 40
1.0
  1
4
 41
1.25
 72
     4
 11
125.043739
 21
7.646298
 31
0.0
100
AcDbText
  0
TEXT
  5
121B
100
AcDbEntity
  8
-CS
  6
CONTINUOUS
 62
   212
100
AcDbText
 10
158.577072
 20
7.146298
 30
0.0
 40
1.0
  1
5
 41
1.25
 72
     4
 11
158.993739
 21
7.646298
 31
0.0
100
AcDbText
  0
TEXT
  5
121C
100
AcDbEntity
  8
-CS
  6
CONTINUOUS
 62
   212
100
AcDbText
 10
192.512072
 20
7.146298
 30
0.0
 40
1.0
  1
6
 41
1.25
 72
     4
 11
192.928739
 21
7.646298
 31
0.0
100
AcDbText
  0
TEXT
  5
121D
100
AcDbEntity
  8
-CS
  6
CONTINUOUS
 62
   212
100
AcDbText
 10
226.447072
 20
7.146298
 30
0.0
 40
1.0
  1
7
 41
1.25
 72
     4
 11
226.863739
 21
7.646298
 31
0.0
100
AcDbText
  0
TEXT
  5
121E
100
AcDbEntity
  8
-CS
  6
CONTINUOUS
 62
   212
100
AcDbText
 10
260.427071
 20
7.146298
 30
0.0
 40
1.0
  1
8
 41
1.25
 72
     4
 11
260.843738
 21
7.646298
 31
0.0
100
AcDbText
  0
TEXT
  5
121F
100
AcDbEntity
  8
-CS
  6
CONTINUOUS
 62
   212
100
AcDbText
 10
294.377072
 20
7.146298
 30
0.0
 40
1.0
  1
9
 41
1.25
 72
     4
 11
294.793739
 21
7.646298
 31
0.0
100
AcDbText
  0
TEXT
  5
1220
100
AcDbEntity
  8
-CS
  6
CONTINUOUS
 62
   212
100
AcDbText
 10
328.154571
 20
7.146298
 30
0.0
 40
1.0
  1
10
 41
1.25
 72
     4
 11
328.883738
 21
7.646298
 31
0.0
100
AcDbText
  0
TEXT
  5
1221
100
AcDbEntity
  8
-CS
  6
CONTINUOUS
 62
   212
100
AcDbText
 10
361.878739
 20
7.146298
 30
0.0
 40
1.0
  1
11
 41
1.25
 72
     4
 11
362.503739
 21
7.646298
 31
0.0
100
AcDbText
  0
TEXT
  5
1222
100
AcDbEntity
  8
-CS
  6
CONTINUOUS
 62
   212
100
AcDbText
 10
395.865405
 20
7.146298
 30
0.0
 40
1.0
  1
12
 41
1.25
 72
     4
 11
396.698738
 21
7.646298
 31
0.0
100
AcDbText
  0
TEXT
  5
1223
100
AcDbEntity
  8
-CS
  6
CONTINUOUS
 62
   212
100
AcDbText
 10
7.607072
 20
93.836298
 30
0.0
 40
1.0
  1
F
 41
1.25
 72
     4
 11
8.023739
 21
94.336298
 31
0.0
100
AcDbText
  0
TEXT
  5
1224
100
AcDbEntity
  8
-CS
  6
CONTINUOUS
 62
   212
100
AcDbText
 10
7.582072
 20
129.206298
 30
0.0
 40
1.0
  1
E
 41
1.25
 72
     4
 11
7.998739
 21
129.706298
 31
0.0
100
AcDbText
  0
TEXT
  5
1225
100
AcDbEntity
  8
-CS
  6
CONTINUOUS
 62
   212
100
AcDbText
 10
7.592071
 20
199.956298
 30
0.0
 40
1.0
  1
C
 41
1.25
 72
     4
 11
8.008738
 21
200.456298
 31
0.0
100
AcDbText
  0
TEXT
  5
1226
100
AcDbEntity
  8
-CS
  6
CONTINUOUS
 62
   212
100
AcDbText
 10
7.577072
 20
235.336298
 30
0.0
 40
1.0
  1
B
 41
1.25
 72
     4
 11
7.993739
 21
235.836298
 31
0.0
100
AcDbText
  0
TEXT
  5
1227
100
AcDbEntity
  8
-CS
  6
CONTINUOUS
 62
   212
100
AcDbText
 10
7.692072
 20
270.708798
 30
0.0
 40
0.995
  1
A
 72
     4
 11
8.023739
 21
271.206298
 31
0.0
100
AcDbText
  0
TEXT
  5
1228
100
AcDbEntity
  8
-CS
  6
CONTINUOUS
 62
   212
100
AcDbText
 10
7.582072
 20
164.586298
 30
0.0
 40
1.0
  1
D
 41
1.25
 72
     4
 11
7.998739
 21
165.086298
 31
0.0
100
AcDbText
  0
TEXT
  5
1229
100
AcDbEntity
  8
-CS
  6
CONTINUOUS
 62
   212
100
AcDbText
 10
411.627072
 20
23.086298
 30
0.0
 40
1.0
  1
H
 41
1.25
 72
     4
 11
412.043739
 21
23.586298
 31
0.0
100
AcDbText
  0
TEXT
  5
122A
100
AcDbEntity
  8
-CS
  6
CONTINUOUS
 62
   212
100
AcDbText
 10
411.582072
 20
58.456297
 30
0.0
 40
1.0
  1
G
 41
1.25
 72
     4
 11
411.998739
 21
58.956297
 31
0.0
100
AcDbText
  0
TEXT
  5
122B
100
AcDbEntity
  8
-CS
  6
CONTINUOUS
 62
   212
100
AcDbText
 10
411.607071
 20
93.836298
 30
0.0
 40
1.0
  1
F
 41
1.25
 72
     4
 11
412.023738
 21
94.336298
 31
0.0
100
AcDbText
  0
TEXT
  5
122C
100
AcDbEntity
  8
-CS
  6
CONTINUOUS
 62
   212
100
AcDbText
 10
411.582072
 20
129.206298
 30
0.0
 40
1.0
  1
E
 41
1.25
 72
     4
 11
411.998739
 21
129.706298
 31
0.0
100
AcDbText
  0
TEXT
  5
122D
100
AcDbEntity
  8
-CS
  6
CONTINUOUS
 62
   212
100
AcDbText
 10
411.592071
 20
199.956298
 30
0.0
 40
1.0
  1
C
 41
1.25
 72
     4
 11
412.008738
 21
200.456298
 31
0.0
100
AcDbText
  0
TEXT
  5
122E
100
AcDbEntity
  8
-CS
  6
CONTINUOUS
 62
   212
100
AcDbText
 10
411.577072
 20
235.336298
 30
0.0
 40
1.0
  1
B
 41
1.25
 72
     4
 11
411.993739
 21
235.836298
 31
0.0
100
AcDbText
  0
TEXT
  5
122F
100
AcDbEntity
  8
-CS
  6
CONTINUOUS
 62
   212
100
AcDbText
 10
411.607071
 20
270.706298
 30
0.0
 40
1.0
  1
A
 41
1.25
 72
     4
 11
412.023738
 21
271.206298
 31
0.0
100
AcDbText
  0
TEXT
  5
1230
100
AcDbEntity
  8
-CS
  6
CONTINUOUS
 62
   212
100
AcDbText
 10
411.582072
 20
164.586298
 30
0.0
 40
1.0
  1
D
 41
1.25
 72
     4
 11
411.998739
 21
165.086298
 31
0.0
100
AcDbText
  0
TEXT
  5
1231
100
AcDbEntity
  8
-CS
  6
CONTINUOUS
 62
   212
100
AcDbText
 10
15.363739
 20
11.146297
 30
0.0
 40
1.0
  1
DRAWING NUMBER
 41
1.25
 11
15.363739
 21
11.646297
 31
0.0
100
AcDbText
 73
     2
  0
TEXT
  5
1232
100
AcDbEntity
  8
-CS
  6
CONTINUOUS
 62
   212
100
AcDbText
 10
91.128738
 20
11.146297
 30
0.0
 40
1.0
  1
No.
 72
     4
 11
92.128738
 21
11.646297
 31
0.0
100
AcDbText
  0
TEXT
  5
1233
100
AcDbEntity
  8
-CS
  6
CONTINUOUS
 62
   212
100
AcDbText
 10
96.540406
 20
11.146297
 30
0.0
 40
1.0
  1
DATE
 72
     4
 11
98.373739
 21
11.646297
 31
0.0
100
AcDbText
  0
TEXT
  5
1234
100
AcDbEntity
  8
-CS
  6
CONTINUOUS
 62
   212
100
AcDbText
 10
129.548739
 20
11.146297
 30
0.0
 40
1.0
  1
REVISION
 41
1.25
 11
129.548739
 21
11.646297
 31
0.0
100
AcDbText
 73
     2
  0
TEXT
  5
1235
100
AcDbEntity
  8
-CS
  6
CONTINUOUS
 62
   212
100
AcDbText
 10
163.680405
 20
11.126298
 30
0.0
 40
1.0
  1
BY
 72
     4
 11
164.513738
 21
11.626298
 31
0.0
100
AcDbText
  0
TEXT
  5
1236
100
AcDbEntity
  8
-CS
  6
CONTINUOUS
 62
   212
100
AcDbText
 10
167.900405
 20
11.146297
 30
0.0
 40
1.0
  1
CHKD
 72
     4
 11
169.733738
 21
11.646297
 31
0.0
100
AcDbText
  0
TEXT
  5
1237
100
AcDbEntity
  8
-CS
  6
CONTINUOUS
 62
   212
100
AcDbText
 10
184.023739
 20
12.021297
 30
0.0
 40
1.0
  1
PROJECT
 11
184.023739
 21
12.521297
 31
0.0
100
AcDbText
 73
     2
  0
TEXT
  5
1238
100
AcDbEntity
  8
-CS
  6
CONTINUOUS
 62
   212
100
AcDbText
 10
184.023739
 20
10.521297
 30
0.0
 40
1.0
  1
MANAGER
 11
184.023739
 21
11.021297
 31
0.0
100
AcDbText
 73
     2
  0
TEXT
  5
1239
100
AcDbEntity
  8
-CS
  6
CONTINUOUS
 62
   212
100
AcDbText
 10
184.048739
 20
32.476298
 30
0.0
 40
1.0
  1
DRAWN
 11
184.048739
 21
32.976298
 31
0.0
100
AcDbText
 73
     2
  0
TEXT
  5
123A
100
AcDbEntity
  8
-CS
  6
CONTINUOUS
 62
   212
100
AcDbText
 10
184.048739
 20
28.321298
 30
0.0
 40
1.0
  1
CHECKED
 11
184.048739
 21
28.821298
 31
0.0
100
AcDbText
 73
     2
  0
TEXT
  5
123B
100
AcDbEntity
  8
-CS
  6
CONTINUOUS
 62
   212
100
AcDbText
 10
210.007072
 20
35.871297
 30
0.0
 40
1.0
  1
SIGN
 72
     4
 11
211.673739
 21
36.371297
 31
0.0
100
AcDbText
  0
TEXT
  5
123C
100
AcDbEntity
  8
-CS
  6
CONTINUOUS
 62
   212
100
AcDbText
 10
220.035406
 20
35.871297
 30
0.0
 40
1.0
  1
DATE
 72
     4
 11
221.868739
 21
36.371297
 31
0.0
100
AcDbText
  0
TEXT
  5
123D
100
AcDbEntity
  8
-CS
  6
CONTINUOUS
 62
   212
100
AcDbText
 10
172.610405
 20
11.146297
 30
0.0
 40
1.0
  1
APP'D
 72
     4
 11
174.693738
 21
11.646297
 31
0.0
100
AcDbText
  0
TEXT
  5
123E
100
AcDbEntity
  8
-CS
  6
CONTINUOUS
 62
   212
100
AcDbText
 10
7.622071
 20
23.086298
 30
0.0
 40
1.0
  1
H
 41
1.25
 72
     4
 11
8.038738
 21
23.586298
 31
0.0
100
AcDbText
  0
TEXT
  5
123F
100
AcDbEntity
  8
-CS
  6
CONTINUOUS
 62
   212
100
AcDbText
 10
333.645406
 20
35.796298
 30
0.0
 40
1.25
  1
TITLE
 72
     4
 11
336.353739
 21
36.421298
 31
0.0
100
AcDbText
  0
TEXT
  5
1240
100
AcDbEntity
  8
-CS
  6
CONTINUOUS
 62
   212
100
AcDbText
 10
184.048739
 20
24.341298
 30
0.0
 40
1.0
  1
ENGINEER
 11
184.048739
 21
24.841298
 31
0.0
100
AcDbText
 73
     2
  0
TEXT
  5
1241
100
AcDbEntity
  8
-CS
  6
CONTINUOUS
 62
   212
100
AcDbText
 10
184.048739
 20
20.321298
 30
0.0
 40
1.0
  1
LEAD ENGINEER
 11
184.048739
 21
20.821298
 31
0.0
100
AcDbText
 73
     2
  0
TEXT
  5
1242
100
AcDbEntity
  8
-CS
  6
CONTINUOUS
 62
   212
100
AcDbText
 10
184.048739
 20
16.346297
 30
0.0
 40
1.0
  1
DESIGN MANAGER
 11
184.048739
 21
16.846297
 31
0.0
100
AcDbText
 73
     2
  0
TEXT
  5
1243
100
AcDbEntity
  8
-CS
  6
CONTINUOUS
 62
   212
100
AcDbText
 10
178.520405
 20
11.146297
 30
0.0
 40
1.0
  1
ENG
 72
     4
 11
179.853738
 21
11.646297
 31
0.0
100
AcDbText
  0
TEXT
  5
1244
100
AcDbEntity
  8
-CS
  6
CONTINUOUS
 62
   212
100
AcDbText
 10
11.033739
 20
11.146297
 30
0.0
 40
1.0
  1
No.
 41
1.25
 11
11.033739
 21
11.646297
 31
0.0
100
AcDbText
 73
     2
  0
TEXT
  5
1245
100
AcDbEntity
  8
-CS
  6
CONTINUOUS
 62
   212
100
AcDbText
 10
333.107071
 20
16.871298
 30
0.0
 40
1.25
  1
JOB NUMBER
 72
     4
 11
339.148738
 21
17.496298
 31
0.0
100
AcDbText
  0
TEXT
  5
1246
100
AcDbEntity
  8
-CS
  6
CONTINUOUS
 62
   212
100
AcDbText
 10
351.417071
 20
16.871298
 30
0.0
 40
1.25
  1
DRAWING NUMBER
 72
     4
 11
359.958738
 21
17.496298
 31
0.0
100
AcDbText
  0
TEXT
  5
1247
100
AcDbEntity
  8
-CS
  6
CONTINUOUS
 62
   212
100
AcDbText
 10
394.576263
 20
17.092323
 30
0.0
 40
1.25
  1
SHEET
 72
     4
 11
397.49293
 21
17.717323
 31
0.0
100
AcDbText
  0
TEXT
  5
1248
100
AcDbEntity
  8
-CS
  6
CONTINUOUS
 62
   212
100
AcDbText
 10
22.932906
 20
287.648798
 30
0.0
 40
0.995
  1
1
 72
     4
 11
23.098739
 21
288.146298
 31
0.0
100
AcDbText
  0
TEXT
  5
1249
100
AcDbEntity
  8
-CS
  6
CONTINUOUS
 62
   212
100
AcDbText
 10
56.707072
 20
287.648798
 30
0.0
 40
0.995
  1
2
 72
     4
 11
57.038739
 21
288.146298
 31
0.0
100
AcDbText
  0
TEXT
  5
124A
100
AcDbEntity
  8
-CS
  6
CONTINUOUS
 62
   212
100
AcDbText
 10
90.692072
 20
287.646298
 30
0.0
 40
1.0
  1
3
 41
1.25
 72
     4
 11
91.108739
 21
288.146298
 31
0.0
100
AcDbText
  0
TEXT
  5
124B
100
AcDbEntity
  8
-CS
  6
CONTINUOUS
 62
   212
100
AcDbText
 10
124.627072
 20
287.646298
 30
0.0
 40
1.0
  1
4
 41
1.25
 72
     4
 11
125.043739
 21
288.146298
 31
0.0
100
AcDbText
  0
TEXT
  5
124C
100
AcDbEntity
  8
-CS
  6
CONTINUOUS
 62
   212
100
AcDbText
 10
158.577072
 20
287.646298
 30
0.0
 40
1.0
  1
5
 41
1.25
 72
     4
 11
158.993739
 21
288.146298
 31
0.0
100
AcDbText
  0
TEXT
  5
124D
100
AcDbEntity
  8
-CS
  6
CONTINUOUS
 62
   212
100
AcDbText
 10
192.512072
 20
287.646298
 30
0.0
 40
1.0
  1
6
 41
1.25
 72
     4
 11
192.928739
 21
288.146298
 31
0.0
100
AcDbText
  0
TEXT
  5
124E
100
AcDbEntity
  8
-CS
  6
CONTINUOUS
 62
   212
100
AcDbText
 10
226.447072
 20
287.646298
 30
0.0
 40
1.0
  1
7
 41
1.25
 72
     4
 11
226.863739
 21
288.146298
 31
0.0
100
AcDbText
  0
TEXT
  5
124F
100
AcDbEntity
  8
-CS
  6
CONTINUOUS
 62
   212
100
AcDbText
 10
260.427071
 20
287.646298
 30
0.0
 40
1.0
  1
8
 41
1.25
 72
     4
 11
260.843738
 21
288.146298
 31
0.0
100
AcDbText
  0
TEXT
  5
1250
100
AcDbEntity
  8
-CS
  6
CONTINUOUS
 62
   212
100
AcDbText
 10
294.377072
 20
287.646298
 30
0.0
 40
1.0
  1
9
 41
1.25
 72
     4
 11
294.793739
 21
288.146298
 31
0.0
100
AcDbText
  0
TEXT
  5
1251
100
AcDbEntity
  8
-CS
  6
CONTINUOUS
 62
   212
100
AcDbText
 10
328.154571
 20
287.646298
 30
0.0
 40
1.0
  1
10
 41
1.25
 72
     4
 11
328.883738
 21
288.146298
 31
0.0
100
AcDbText
  0
TEXT
  5
1252
100
AcDbEntity
  8
-CS
  6
CONTINUOUS
 62
   212
100
AcDbText
 10
361.878739
 20
287.646298
 30
0.0
 40
1.0
  1
11
 41
1.25
 72
     4
 11
362.503739
 21
288.146298
 31
0.0
100
AcDbText
  0
TEXT
  5
1253
100
AcDbEntity
  8
-CS
  6
CONTINUOUS
 62
   212
100
AcDbText
 10
395.865405
 20
287.646298
 30
0.0
 40
1.0
  1
12
 41
1.25
 72
     4
 11
396.698738
 21
288.146298
 31
0.0
100
AcDbText
  0
TEXT
  5
1254
100
AcDbEntity
  8
-CS
  6
CONTINUOUS
 62
   212
100
AcDbText
 10
51.453739
 20
11.146297
 30
0.0
 40
1.0
  1
REFERENCE DRAWINGS
 41
1.25
 11
51.453739
 21
11.646297
 31
0.0
100
AcDbText
 73
     2
  0
TEXT
  5
1255
100
AcDbEntity
  8
-CS
  6
CONTINUOUS
 62
   212
100
AcDbText
 10
395.514571
 20
11.101297
 30
0.0
 40
2.495
  1
A3
 72
     1
 11
397.593738
 21
11.101297
 31
0.0
100
AcDbText
  0
TEXT
  5
1256
100
AcDbEntity
  8
-CS
  6
CONTINUOUS
 62
   212
100
AcDbText
 10
252.023739
 20
16.896297
 30
0.0
 40
1.5
  1
PROJECT
 11
252.023739
 21
17.646297
 31
0.0
100
AcDbText
 73
     2
  0
TEXT
  5
1257
100
AcDbEntity
  8
-CS
  6
CONTINUOUS
 62
   212
100
AcDbText
 10
184.048739
 20
35.871297
 30
0.0
 40
1.0
  1
SCALE
 11
184.048739
 21
36.371297
 31
0.0
100
AcDbText
 73
     2
  0
LINE
  5
1264
100
AcDbEntity
  8
A1-CS
  6
CONTINUOUS
 62
   212
100
AcDbLine
 10
9.773739
 20
37.896298
 30
0.0
 11
410.273738
 21
37.896298
 31
0.0
  0
LINE
  5
1265
100
AcDbEntity
  8
A1-CS
  6
CONTINUOUS
 62
   212
100
AcDbLine
 10
333.273738
 20
9.396297
 30
0.0
 11
333.273738
 21
37.896298
 31
0.0
  0
LINE
  5
1266
100
AcDbEntity
  8
A1-CS
  6
CONTINUOUS
 62
   212
100
AcDbLine
 10
226.773739
 20
9.396297
 30
0.0
 11
226.773739
 21
37.896298
 31
0.0
  0
LINE
  5
1267
100
AcDbEntity
  8
A1-CS
  6
CONTINUOUS
 62
   212
100
AcDbLine
 10
33.484738
 20
9.598669
 30
0.0
 11
33.484738
 21
37.896298
 31
0.0
  0
LINE
  5
1268
100
AcDbEntity
  8
A1-CS
  6
CONTINUOUS
 62
   212
100
AcDbLine
 10
162.273739
 20
9.396297
 30
0.0
 11
162.273739
 21
37.896298
 31
0.0
  0
LINE
  5
1269
100
AcDbEntity
  8
A1-CS
  6
CONTINUOUS
 62
   212
100
AcDbLine
 10
167.273739
 20
9.396297
 30
0.0
 11
167.273739
 21
37.896298
 31
0.0
  0
LINE
  5
126A
100
AcDbEntity
  8
A1-CS
  6
CONTINUOUS
 62
   212
100
AcDbLine
 10
172.273739
 20
9.396297
 30
0.0
 11
172.273739
 21
37.896298
 31
0.0
  0
LINE
  5
126B
100
AcDbEntity
  8
A1-CS
  6
CONTINUOUS
 62
   212
100
AcDbLine
 10
177.273739
 20
9.396297
 30
0.0
 11
177.273739
 21
37.896298
 31
0.0
  0
LINE
  5
126C
100
AcDbEntity
  8
A1-CS
  6
CONTINUOUS
 62
   212
100
AcDbLine
 10
89.773738
 20
9.396297
 30
0.0
 11
89.773738
 21
37.896298
 31
0.0
  0
LINE
  5
126D
100
AcDbEntity
  8
A1-CS
  6
CONTINUOUS
 62
   212
100
AcDbLine
 10
94.273738
 20
9.396297
 30
0.0
 11
94.273738
 21
37.896298
 31
0.0
  0
LINE
  5
126E
100
AcDbEntity
  8
A1-CS
  6
CONTINUOUS
 62
   212
100
AcDbLine
 10
103.273738
 20
9.396297
 30
0.0
 11
103.273738
 21
37.896298
 31
0.0
  0
LINE
  5
126F
100
AcDbEntity
  8
A1-CS
  6
CONTINUOUS
 62
   212
100
AcDbLine
 10
182.773739
 20
34.896298
 30
0.0
 11
226.773739
 21
34.896298
 31
0.0
  0
LINE
  5
1270
100
AcDbEntity
  8
A1-CS
  6
CONTINUOUS
 62
   212
100
AcDbLine
 10
9.773739
 20
34.896298
 30
0.0
 11
182.773739
 21
34.896298
 31
0.0
  0
LINE
  5
1271
100
AcDbEntity
  8
A1-CS
  6
CONTINUOUS
 62
   212
100
AcDbLine
 10
9.773739
 20
28.896297
 30
0.0
 11
182.773739
 21
28.896297
 31
0.0
  0
LINE
  5
1272
100
AcDbEntity
  8
A1-CS
  6
CONTINUOUS
 62
   212
100
AcDbLine
 10
9.773739
 20
25.896297
 30
0.0
 11
182.773739
 21
25.896297
 31
0.0
  0
LINE
  5
1273
100
AcDbEntity
  8
A1-CS
  6
CONTINUOUS
 62
   212
100
AcDbLine
 10
9.773739
 20
22.896297
 30
0.0
 11
182.773739
 21
22.896297
 31
0.0
  0
LINE
  5
1274
100
AcDbEntity
  8
A1-CS
  6
CONTINUOUS
 62
   212
100
AcDbLine
 10
9.773739
 20
19.896297
 30
0.0
 11
182.773739
 21
19.896297
 31
0.0
  0
LINE
  5
1275
100
AcDbEntity
  8
A1-CS
  6
CONTINUOUS
 62
   212
100
AcDbLine
 10
9.773739
 20
16.896297
 30
0.0
 11
182.773739
 21
16.896297
 31
0.0
  0
LINE
  5
1276
100
AcDbEntity
  8
A1-CS
  6
CONTINUOUS
 62
   212
100
AcDbLine
 10
351.273738
 20
18.896297
 30
0.0
 11
351.273738
 21
9.396297
 31
0.0
  0
LINE
  5
1277
100
AcDbEntity
  8
A1-CS
  6
CONTINUOUS
 62
   212
100
AcDbLine
 10
40.233739
 20
9.396297
 30
0.0
 11
40.233739
 21
5.896298
 31
0.0
  0
LINE
  5
1278
100
AcDbEntity
  8
A1-CS
  6
CONTINUOUS
 62
   212
100
AcDbLine
 10
6.273739
 20
253.521298
 30
0.0
 11
9.773739
 21
253.521298
 31
0.0
  0
LINE
  5
1279
100
AcDbEntity
  8
A1-CS
  6
CONTINUOUS
 62
   212
100
AcDbLine
 10
6.273739
 20
218.146298
 30
0.0
 11
9.768738
 21
218.146298
 31
0.0
  0
LINE
  5
127A
100
AcDbEntity
  8
A1-CS
  6
CONTINUOUS
 62
   212
100
AcDbLine
 10
6.273739
 20
182.771298
 30
0.0
 11
9.768738
 21
182.771298
 31
0.0
  0
LINE
  5
127B
100
AcDbEntity
  8
A1-CS
  6
CONTINUOUS
 62
   212
100
AcDbLine
 10
6.273739
 20
147.396298
 30
0.0
 11
9.768738
 21
147.396298
 31
0.0
  0
LINE
  5
127C
100
AcDbEntity
  8
A1-CS
  6
CONTINUOUS
 62
   212
100
AcDbLine
 10
6.273739
 20
112.021298
 30
0.0
 11
9.768738
 21
112.021298
 31
0.0
  0
LINE
  5
127D
100
AcDbEntity
  8
A1-CS
  6
CONTINUOUS
 62
   212
100
AcDbLine
 10
6.273739
 20
76.646298
 30
0.0
 11
9.768738
 21
76.646298
 31
0.0
  0
LINE
  5
127E
100
AcDbEntity
  8
A1-CS
  6
CONTINUOUS
 62
   212
100
AcDbLine
 10
6.273739
 20
41.271298
 30
0.0
 11
9.768738
 21
41.271298
 31
0.0
  0
LINE
  5
127F
100
AcDbEntity
  8
A1-CS
  6
CONTINUOUS
 62
   212
100
AcDbLine
 10
410.273738
 20
253.521298
 30
0.0
 11
413.773738
 21
253.521298
 31
0.0
  0
LINE
  5
1280
100
AcDbEntity
  8
A1-CS
  6
CONTINUOUS
 62
   212
100
AcDbLine
 10
410.273738
 20
218.146298
 30
0.0
 11
413.768738
 21
218.146298
 31
0.0
  0
LINE
  5
1281
100
AcDbEntity
  8
A1-CS
  6
CONTINUOUS
 62
   212
100
AcDbLine
 10
410.273738
 20
182.771298
 30
0.0
 11
413.768738
 21
182.771298
 31
0.0
  0
LINE
  5
1282
100
AcDbEntity
  8
A1-CS
  6
CONTINUOUS
 62
   212
100
AcDbLine
 10
410.273738
 20
147.396298
 30
0.0
 11
413.768738
 21
147.396298
 31
0.0
  0
LINE
  5
1283
100
AcDbEntity
  8
A1-CS
  6
CONTINUOUS
 62
   212
100
AcDbLine
 10
410.273738
 20
112.021298
 30
0.0
 11
413.768738
 21
112.021298
 31
0.0
  0
LINE
  5
1284
100
AcDbEntity
  8
A1-CS
  6
CONTINUOUS
 62
   212
100
AcDbLine
 10
410.273738
 20
76.646298
 30
0.0
 11
413.768738
 21
76.646298
 31
0.0
  0
LINE
  5
1285
100
AcDbEntity
  8
A1-CS
  6
CONTINUOUS
 62
   212
100
AcDbLine
 10
410.273738
 20
41.271298
 30
0.0
 11
413.768738
 21
41.271298
 31
0.0
  0
LINE
  5
1286
100
AcDbEntity
  8
A1-CS
  6
CONTINUOUS
 62
   212
100
AcDbLine
 10
182.773739
 20
9.396297
 30
0.0
 11
182.773739
 21
37.896298
 31
0.0
  0
LINE
  5
1287
100
AcDbEntity
  8
A1-CS
  6
CONTINUOUS
 62
   212
100
AcDbLine
 10
251.273739
 20
37.896298
 30
0.0
 11
251.273739
 21
9.396297
 31
0.0
  0
LINE
  5
1288
100
AcDbEntity
  8
A1-CS
  6
CONTINUOUS
 62
   212
100
AcDbLine
 10
251.273739
 20
28.396297
 30
0.0
 11
333.273738
 21
28.396297
 31
0.0
  0
LINE
  5
1289
100
AcDbEntity
  8
A1-CS
  6
CONTINUOUS
 62
   212
100
AcDbLine
 10
251.273739
 20
18.896297
 30
0.0
 11
333.273738
 21
18.896297
 31
0.0
  0
LINE
  5
128A
100
AcDbEntity
  8
A1-CS
  6
CONTINUOUS
 62
   212
100
AcDbLine
 10
9.773739
 20
31.896297
 30
0.0
 11
182.773739
 21
31.896297
 31
0.0
  0
LINE
  5
128B
100
AcDbEntity
  8
A1-CS
  6
CONTINUOUS
 62
   212
100
AcDbLine
 10
216.773739
 20
9.396297
 30
0.0
 11
216.773739
 21
37.896298
 31
0.0
  0
LINE
  5
128C
100
AcDbEntity
  8
A1-CS
  6
CONTINUOUS
 62
   212
100
AcDbLine
 10
206.773739
 20
9.396297
 30
0.0
 11
206.773739
 21
37.896298
 31
0.0
  0
LINE
  5
128D
100
AcDbEntity
  8
A1-CS
  6
CONTINUOUS
 62
   212
100
AcDbLine
 10
182.773739
 20
18.896297
 30
0.0
 11
226.773739
 21
18.896297
 31
0.0
  0
LINE
  5
128E
100
AcDbEntity
  8
A1-CS
  6
CONTINUOUS
 62
   212
100
AcDbLine
 10
14.273739
 20
9.396297
 30
0.0
 11
14.273739
 21
37.896298
 31
0.0
  0
LINE
  5
128F
100
AcDbEntity
  8
A1-CS
  6
CONTINUOUS
 62
   212
100
AcDbLine
 10
9.773739
 20
13.896297
 30
0.0
 11
182.773739
 21
13.896297
 31
0.0
  0
LINE
  5
1290
100
AcDbEntity
  8
A1-CS
  6
CONTINUOUS
 62
   212
100
AcDbLine
 10
251.273739
 20
18.896297
 30
0.0
 11
226.773739
 21
18.896297
 31
0.0
  0
LINE
  5
1291
100
AcDbEntity
  8
A1-CS
  6
CONTINUOUS
 62
   212
100
AcDbLine
 10
182.773739
 20
13.896297
 30
0.0
 11
226.773739
 21
13.896297
 31
0.0
  0
LINE
  5
1292
100
AcDbEntity
  8
A1-CS
  6
CONTINUOUS
 62
   212
100
AcDbLine
 10
182.773739
 20
22.896297
 30
0.0
 11
226.773739
 21
22.896297
 31
0.0
  0
LINE
  5
1293
100
AcDbEntity
  8
A1-CS
  6
CONTINUOUS
 62
   212
100
AcDbLine
 10
182.773739
 20
26.896297
 30
0.0
 11
226.773739
 21
26.896297
 31
0.0
  0
LINE
  5
1294
100
AcDbEntity
  8
A1-CS
  6
CONTINUOUS
 62
   212
100
AcDbLine
 10
182.773739
 20
30.896297
 30
0.0
 11
226.773739
 21
30.896297
 31
0.0
  0
LINE
  5
1295
100
AcDbEntity
  8
A1-CS
  6
CONTINUOUS
 62
   212
100
AcDbLine
 10
401.398738
 20
18.896297
 30
0.0
 11
401.398738
 21
9.396297
 31
0.0
  0
LINE
  5
1296
100
AcDbEntity
  8
A1-CS
  6
CONTINUOUS
 62
   212
100
AcDbLine
 10
333.273738
 20
18.896297
 30
0.0
 11
410.273738
 21
18.896297
 31
0.0
  0
LINE
  5
1297
100
AcDbEntity
  8
A1-CS
  6
CONTINUOUS
 62
   212
100
AcDbLine
 10
394.398738
 20
18.896297
 30
0.0
 11
394.398738
 21
9.396297
 31
0.0
  0
LINE
  5
1298
100
AcDbEntity
  8
A1-CS
  6
CONTINUOUS
 62
   212
100
AcDbLine
 10
74.183739
 20
9.396297
 30
0.0
 11
74.183739
 21
5.896298
 31
0.0
  0
LINE
  5
1299
100
AcDbEntity
  8
A1-CS
  6
CONTINUOUS
 62
   212
100
AcDbLine
 10
108.148738
 20
9.396297
 30
0.0
 11
108.148738
 21
5.896298
 31
0.0
  0
LINE
  5
129A
100
AcDbEntity
  8
A1-CS
  6
CONTINUOUS
 62
   212
100
AcDbLine
 10
142.113739
 20
9.396297
 30
0.0
 11
142.113739
 21
5.896298
 31
0.0
  0
LINE
  5
129B
100
AcDbEntity
  8
A1-CS
  6
CONTINUOUS
 62
   212
100
AcDbLine
 10
176.063739
 20
9.396297
 30
0.0
 11
176.063739
 21
5.896298
 31
0.0
  0
LINE
  5
129C
100
AcDbEntity
  8
A1-CS
  6
CONTINUOUS
 62
   212
100
AcDbLine
 10
210.023739
 20
9.396297
 30
0.0
 11
210.023739
 21
5.896298
 31
0.0
  0
LINE
  5
129D
100
AcDbEntity
  8
A1-CS
  6
CONTINUOUS
 62
   212
100
AcDbLine
 10
243.983738
 20
9.396297
 30
0.0
 11
243.983738
 21
5.896298
 31
0.0
  0
LINE
  5
129E
100
AcDbEntity
  8
A1-CS
  6
CONTINUOUS
 62
   212
100
AcDbLine
 10
277.933739
 20
9.396297
 30
0.0
 11
277.933739
 21
5.896298
 31
0.0
  0
LINE
  5
129F
100
AcDbEntity
  8
A1-CS
  6
CONTINUOUS
 62
   212
100
AcDbLine
 10
311.898738
 20
9.396297
 30
0.0
 11
311.898738
 21
5.896298
 31
0.0
  0
LINE
  5
12A0
100
AcDbEntity
  8
A1-CS
  6
CONTINUOUS
 62
   212
100
AcDbLine
 10
345.863739
 20
9.396297
 30
0.0
 11
345.863739
 21
5.896298
 31
0.0
  0
LINE
  5
12A1
100
AcDbEntity
  8
A1-CS
  6
CONTINUOUS
 62
   212
100
AcDbLine
 10
379.813739
 20
9.396297
 30
0.0
 11
379.813739
 21
5.896298
 31
0.0
  0
LINE
  5
12A2
100
AcDbEntity
  8
A1-CS
  6
CONTINUOUS
 62
   212
100
AcDbLine
 10
40.233739
 20
289.896298
 30
0.0
 11
40.233739
 21
286.396298
 31
0.0
  0
LINE
  5
12A3
100
AcDbEntity
  8
A1-CS
  6
CONTINUOUS
 62
   212
100
AcDbLine
 10
74.183739
 20
289.896298
 30
0.0
 11
74.183739
 21
286.396298
 31
0.0
  0
LINE
  5
12A4
100
AcDbEntity
  8
A1-CS
  6
CONTINUOUS
 62
   212
100
AcDbLine
 10
108.148738
 20
289.896298
 30
0.0
 11
108.148738
 21
286.396298
 31
0.0
  0
LINE
  5
12A5
100
AcDbEntity
  8
A1-CS
  6
CONTINUOUS
 62
   212
100
AcDbLine
 10
142.113739
 20
289.896298
 30
0.0
 11
142.113739
 21
286.396298
 31
0.0
  0
LINE
  5
12A6
100
AcDbEntity
  8
A1-CS
  6
CONTINUOUS
 62
   212
100
AcDbLine
 10
176.063739
 20
289.896298
 30
0.0
 11
176.063739
 21
286.396298
 31
0.0
  0
LINE
  5
12A7
100
AcDbEntity
  8
A1-CS
  6
CONTINUOUS
 62
   212
100
AcDbLine
 10
210.023739
 20
289.896298
 30
0.0
 11
210.023739
 21
286.396298
 31
0.0
  0
LINE
  5
12A8
100
AcDbEntity
  8
A1-CS
  6
CONTINUOUS
 62
   212
100
AcDbLine
 10
243.983738
 20
289.896298
 30
0.0
 11
243.983738
 21
286.396298
 31
0.0
  0
LINE
  5
12A9
100
AcDbEntity
  8
A1-CS
  6
CONTINUOUS
 62
   212
100
AcDbLine
 10
277.933739
 20
289.896298
 30
0.0
 11
277.933739
 21
286.396298
 31
0.0
  0
LINE
  5
12AA
100
AcDbEntity
  8
A1-CS
  6
CONTINUOUS
 62
   212
100
AcDbLine
 10
311.898738
 20
289.896298
 30
0.0
 11
311.898738
 21
286.396298
 31
0.0
  0
LINE
  5
12AB
100
AcDbEntity
  8
A1-CS
  6
CONTINUOUS
 62
   212
100
AcDbLine
 10
345.863739
 20
289.896298
 30
0.0
 11
345.863739
 21
286.396298
 31
0.0
  0
LINE
  5
12AC
100
AcDbEntity
  8
A1-CS
  6
CONTINUOUS
 62
   212
100
AcDbLine
 10
379.813739
 20
289.896298
 30
0.0
 11
379.813739
 21
286.396298
 31
0.0
  0
LINE
  5
12AD
100
AcDbEntity
  8
A1-CS
  6
CONTINUOUS
 62
   212
100
AcDbLine
 10
-0.226262
 20
296.396298
 30
0.0
 11
-0.226262
 21
291.396298
 31
0.0
  0
LINE
  5
12AE
100
AcDbEntity
  8
A1-CS
  6
CONTINUOUS
 62
   212
100
AcDbLine
 10
-0.226262
 20
4.396298
 30
0.0
 11
-0.226262
 21
-0.603703
 31
0.0
  0
LINE
  5
12AF
100
AcDbEntity
  8
A1-CS
  6
CONTINUOUS
 62
   212
100
AcDbLine
 10
420.273738
 20
296.396298
 30
0.0
 11
415.273738
 21
296.396298
 31
0.0
  0
LINE
  5
12B0
100
AcDbEntity
  8
A1-CS
  6
CONTINUOUS
 62
   212
100
AcDbLine
 10
4.773739
 20
296.396298
 30
0.0
 11
-0.226262
 21
296.396298
 31
0.0
  0
LINE
  5
12B1
100
AcDbEntity
  8
A1-CS
  6
CONTINUOUS
 62
   212
100
AcDbLine
 10
420.273738
 20
-0.603703
 30
0.0
 11
420.273738
 21
4.396298
 31
0.0
  0
LINE
  5
12B2
100
AcDbEntity
  8
A1-CS
  6
CONTINUOUS
 62
   212
100
AcDbLine
 10
420.273738
 20
291.396298
 30
0.0
 11
420.273738
 21
296.396298
 31
0.0
  0
LINE
  5
12B3
100
AcDbEntity
  8
A1-CS
  6
CONTINUOUS
 62
   212
100
AcDbLine
 10
-0.226262
 20
-0.603703
 30
0.0
 11
4.773739
 21
-0.603703
 31
0.0
  0
LINE
  5
12B4
100
AcDbEntity
  8
A1-CS
  6
CONTINUOUS
 62
   212
100
AcDbLine
 10
415.273738
 20
-0.603703
 30
0.0
 11
420.273738
 21
-0.603703
 31
0.0
  0
TEXT
  5
12B5
100
AcDbEntity
  8
A1-CS
  6
CONTINUOUS
 62
   212
100
AcDbText
 10
7.582072
 20
58.456297
 30
0.0
 40
1.0
  1
G
 41
1.25
 72
     4
 11
7.998739
 21
58.956297
 31
0.0
100
AcDbText
  0
TEXT
  5
12B6
100
AcDbEntity
  8
A1-CS
  6
CONTINUOUS
 62
   212
100
AcDbText
 10
22.885406
 20
7.146298
 30
0.0
 40
1.0
  1
1
 41
1.25
 72
     4
 11
23.093739
 21
7.646298
 31
0.0
100
AcDbText
  0
TEXT
  5
12B7
100
AcDbEntity
  8
A1-CS
  6
CONTINUOUS
 62
   212
100
AcDbText
 10
56.627072
 20
7.146298
 30
0.0
 40
1.0
  1
2
 41
1.25
 72
     4
 11
57.043739
 21
7.646298
 31
0.0
100
AcDbText
  0
TEXT
  5
12B8
100
AcDbEntity
  8
A1-CS
  6
CONTINUOUS
 62
   212
100
AcDbText
 10
90.692072
 20
7.146298
 30
0.0
 40
1.0
  1
3
 41
1.25
 72
     4
 11
91.108739
 21
7.646298
 31
0.0
100
AcDbText
  0
TEXT
  5
12B9
100
AcDbEntity
  8
A1-CS
  6
CONTINUOUS
 62
   212
100
AcDbText
 10
124.627072
 20
7.146298
 30
0.0
 40
1.0
  1
4
 41
1.25
 72
     4
 11
125.043739
 21
7.646298
 31
0.0
100
AcDbText
  0
TEXT
  5
12BA
100
AcDbEntity
  8
A1-CS
  6
CONTINUOUS
 62
   212
100
AcDbText
 10
158.577072
 20
7.146298
 30
0.0
 40
1.0
  1
5
 41
1.25
 72
     4
 11
158.993739
 21
7.646298
 31
0.0
100
AcDbText
  0
TEXT
  5
12BB
100
AcDbEntity
  8
A1-CS
  6
CONTINUOUS
 62
   212
100
AcDbText
 10
192.512072
 20
7.146298
 30
0.0
 40
1.0
  1
6
 41
1.25
 72
     4
 11
192.928739
 21
7.646298
 31
0.0
100
AcDbText
  0
TEXT
  5
12BC
100
AcDbEntity
  8
A1-CS
  6
CONTINUOUS
 62
   212
100
AcDbText
 10
226.447072
 20
7.146298
 30
0.0
 40
1.0
  1
7
 41
1.25
 72
     4
 11
226.863739
 21
7.646298
 31
0.0
100
AcDbText
  0
TEXT
  5
12BD
100
AcDbEntity
  8
A1-CS
  6
CONTINUOUS
 62
   212
100
AcDbText
 10
260.427071
 20
7.146298
 30
0.0
 40
1.0
  1
8
 41
1.25
 72
     4
 11
260.843738
 21
7.646298
 31
0.0
100
AcDbText
  0
TEXT
  5
12BE
100
AcDbEntity
  8
A1-CS
  6
CONTINUOUS
 62
   212
100
AcDbText
 10
294.377072
 20
7.146298
 30
0.0
 40
1.0
  1
9
 41
1.25
 72
     4
 11
294.793739
 21
7.646298
 31
0.0
100
AcDbText
  0
TEXT
  5
12BF
100
AcDbEntity
  8
A1-CS
  6
CONTINUOUS
 62
   212
100
AcDbText
 10
328.154571
 20
7.146298
 30
0.0
 40
1.0
  1
10
 41
1.25
 72
     4
 11
328.883738
 21
7.646298
 31
0.0
100
AcDbText
  0
TEXT
  5
12C0
100
AcDbEntity
  8
A1-CS
  6
CONTINUOUS
 62
   212
100
AcDbText
 10
361.878739
 20
7.146298
 30
0.0
 40
1.0
  1
11
 41
1.25
 72
     4
 11
362.503739
 21
7.646298
 31
0.0
100
AcDbText
  0
TEXT
  5
12C1
100
AcDbEntity
  8
A1-CS
  6
CONTINUOUS
 62
   212
100
AcDbText
 10
395.865405
 20
7.146298
 30
0.0
 40
1.0
  1
12
 41
1.25
 72
     4
 11
396.698738
 21
7.646298
 31
0.0
100
AcDbText
  0
TEXT
  5
12C2
100
AcDbEntity
  8
A1-CS
  6
CONTINUOUS
 62
   212
100
AcDbText
 10
7.607072
 20
93.836298
 30
0.0
 40
1.0
  1
F
 41
1.25
 72
     4
 11
8.023739
 21
94.336298
 31
0.0
100
AcDbText
  0
TEXT
  5
12C3
100
AcDbEntity
  8
A1-CS
  6
CONTINUOUS
 62
   212
100
AcDbText
 10
7.582072
 20
129.206298
 30
0.0
 40
1.0
  1
E
 41
1.25
 72
     4
 11
7.998739
 21
129.706298
 31
0.0
100
AcDbText
  0
TEXT
  5
12C4
100
AcDbEntity
  8
A1-CS
  6
CONTINUOUS
 62
   212
100
AcDbText
 10
7.592071
 20
199.956298
 30
0.0
 40
1.0
  1
C
 41
1.25
 72
     4
 11
8.008738
 21
200.456298
 31
0.0
100
AcDbText
  0
TEXT
  5
12C5
100
AcDbEntity
  8
A1-CS
  6
CONTINUOUS
 62
   212
100
AcDbText
 10
7.577072
 20
235.336298
 30
0.0
 40
1.0
  1
B
 41
1.25
 72
     4
 11
7.993739
 21
235.836298
 31
0.0
100
AcDbText
  0
TEXT
  5
12C6
100
AcDbEntity
  8
A1-CS
  6
CONTINUOUS
 62
   212
100
AcDbText
 10
7.692072
 20
270.708798
 30
0.0
 40
0.995
  1
A
 72
     4
 11
8.023739
 21
271.206298
 31
0.0
100
AcDbText
  0
TEXT
  5
12C7
100
AcDbEntity
  8
A1-CS
  6
CONTINUOUS
 62
   212
100
AcDbText
 10
7.582072
 20
164.586298
 30
0.0
 40
1.0
  1
D
 41
1.25
 72
     4
 11
7.998739
 21
165.086298
 31
0.0
100
AcDbText
  0
TEXT
  5
12C8
100
AcDbEntity
  8
A1-CS
  6
CONTINUOUS
 62
   212
100
AcDbText
 10
411.627072
 20
23.086298
 30
0.0
 40
1.0
  1
H
 41
1.25
 72
     4
 11
412.043739
 21
23.586298
 31
0.0
100
AcDbText
  0
TEXT
  5
12C9
100
AcDbEntity
  8
A1-CS
  6
CONTINUOUS
 62
   212
100
AcDbText
 10
411.582072
 20
58.456297
 30
0.0
 40
1.0
  1
G
 41
1.25
 72
     4
 11
411.998739
 21
58.956297
 31
0.0
100
AcDbText
  0
TEXT
  5
12CA
100
AcDbEntity
  8
A1-CS
  6
CONTINUOUS
 62
   212
100
AcDbText
 10
411.607071
 20
93.836298
 30
0.0
 40
1.0
  1
F
 41
1.25
 72
     4
 11
412.023738
 21
94.336298
 31
0.0
100
AcDbText
  0
TEXT
  5
12CB
100
AcDbEntity
  8
A1-CS
  6
CONTINUOUS
 62
   212
100
AcDbText
 10
411.582072
 20
129.206298
 30
0.0
 40
1.0
  1
E
 41
1.25
 72
     4
 11
411.998739
 21
129.706298
 31
0.0
100
AcDbText
  0
TEXT
  5
12CC
100
AcDbEntity
  8
A1-CS
  6
CONTINUOUS
 62
   212
100
AcDbText
 10
411.592071
 20
199.956298
 30
0.0
 40
1.0
  1
C
 41
1.25
 72
     4
 11
412.008738
 21
200.456298
 31
0.0
100
AcDbText
  0
TEXT
  5
12CD
100
AcDbEntity
  8
A1-CS
  6
CONTINUOUS
 62
   212
100
AcDbText
 10
411.577072
 20
235.336298
 30
0.0
 40
1.0
  1
B
 41
1.25
 72
     4
 11
411.993739
 21
235.836298
 31
0.0
100
AcDbText
  0
TEXT
  5
12CE
100
AcDbEntity
  8
A1-CS
  6
CONTINUOUS
 62
   212
100
AcDbText
 10
411.607071
 20
270.706298
 30
0.0
 40
1.0
  1
A
 41
1.25
 72
     4
 11
412.023738
 21
271.206298
 31
0.0
100
AcDbText
  0
TEXT
  5
12CF
100
AcDbEntity
  8
A1-CS
  6
CONTINUOUS
 62
   212
100
AcDbText
 10
411.582072
 20
164.586298
 30
0.0
 40
1.0
  1
D
 41
1.25
 72
     4
 11
411.998739
 21
165.086298
 31
0.0
100
AcDbText
  0
TEXT
  5
12D0
100
AcDbEntity
  8
A1-CS
  6
CONTINUOUS
 62
   212
100
AcDbText
 10
15.363739
 20
11.146297
 30
0.0
 40
1.0
  1
DRAWING NUMBER
 41
1.25
 11
15.363739
 21
11.646297
 31
0.0
100
AcDbText
 73
     2
  0
TEXT
  5
12D1
100
AcDbEntity
  8
A1-CS
  6
CONTINUOUS
 62
   212
100
AcDbText
 10
91.128738
 20
11.146297
 30
0.0
 40
1.0
  1
No.
 72
     4
 11
92.128738
 21
11.646297
 31
0.0
100
AcDbText
  0
TEXT
  5
12D2
100
AcDbEntity
  8
A1-CS
  6
CONTINUOUS
 62
   212
100
AcDbText
 10
96.540406
 20
11.146297
 30
0.0
 40
1.0
  1
DATE
 72
     4
 11
98.373739
 21
11.646297
 31
0.0
100
AcDbText
  0
TEXT
  5
12D3
100
AcDbEntity
  8
A1-CS
  6
CONTINUOUS
 62
   212
100
AcDbText
 10
129.548739
 20
11.146297
 30
0.0
 40
1.0
  1
REVISION
 41
1.25
 11
129.548739
 21
11.646297
 31
0.0
100
AcDbText
 73
     2
  0
TEXT
  5
12D4
100
AcDbEntity
  8
A1-CS
  6
CONTINUOUS
 62
   212
100
AcDbText
 10
163.680405
 20
11.126298
 30
0.0
 40
1.0
  1
BY
 72
     4
 11
164.513738
 21
11.626298
 31
0.0
100
AcDbText
  0
TEXT
  5
12D5
100
AcDbEntity
  8
A1-CS
  6
CONTINUOUS
 62
   212
100
AcDbText
 10
167.900405
 20
11.146297
 30
0.0
 40
1.0
  1
CHKD
 72
     4
 11
169.733738
 21
11.646297
 31
0.0
100
AcDbText
  0
TEXT
  5
12D6
100
AcDbEntity
  8
A1-CS
  6
CONTINUOUS
 62
   212
100
AcDbText
 10
184.023739
 20
12.021297
 30
0.0
 40
1.0
  1
PROJECT
 11
184.023739
 21
12.521297
 31
0.0
100
AcDbText
 73
     2
  0
TEXT
  5
12D7
100
AcDbEntity
  8
A1-CS
  6
CONTINUOUS
 62
   212
100
AcDbText
 10
184.023739
 20
10.521297
 30
0.0
 40
1.0
  1
MANAGER
 11
184.023739
 21
11.021297
 31
0.0
100
AcDbText
 73
     2
  0
TEXT
  5
12D8
100
AcDbEntity
  8
A1-CS
  6
CONTINUOUS
 62
   212
100
AcDbText
 10
184.048739
 20
32.476298
 30
0.0
 40
1.0
  1
DRAWN
 11
184.048739
 21
32.976298
 31
0.0
100
AcDbText
 73
     2
  0
TEXT
  5
12D9
100
AcDbEntity
  8
A1-CS
  6
CONTINUOUS
 62
   212
100
AcDbText
 10
184.048739
 20
28.321298
 30
0.0
 40
1.0
  1
CHECKED
 11
184.048739
 21
28.821298
 31
0.0
100
AcDbText
 73
     2
  0
TEXT
  5
12DA
100
AcDbEntity
  8
A1-CS
  6
CONTINUOUS
 62
   212
100
AcDbText
 10
210.007072
 20
35.871297
 30
0.0
 40
1.0
  1
SIGN
 72
     4
 11
211.673739
 21
36.371297
 31
0.0
100
AcDbText
  0
TEXT
  5
12DB
100
AcDbEntity
  8
A1-CS
  6
CONTINUOUS
 62
   212
100
AcDbText
 10
220.035406
 20
35.871297
 30
0.0
 40
1.0
  1
DATE
 72
     4
 11
221.868739
 21
36.371297
 31
0.0
100
AcDbText
  0
TEXT
  5
12DC
100
AcDbEntity
  8
A1-CS
  6
CONTINUOUS
 62
   212
100
AcDbText
 10
172.610405
 20
11.146297
 30
0.0
 40
1.0
  1
APP'D
 72
     4
 11
174.693738
 21
11.646297
 31
0.0
100
AcDbText
  0
TEXT
  5
12DD
100
AcDbEntity
  8
A1-CS
  6
CONTINUOUS
 62
   212
100
AcDbText
 10
7.622071
 20
23.086298
 30
0.0
 40
1.0
  1
H
 41
1.25
 72
     4
 11
8.038738
 21
23.586298
 31
0.0
100
AcDbText
  0
TEXT
  5
12DE
100
AcDbEntity
  8
A1-CS
  6
CONTINUOUS
 62
   212
100
AcDbText
 10
333.645406
 20
35.796298
 30
0.0
 40
1.25
  1
TITLE
 72
     4
 11
336.353739
 21
36.421298
 31
0.0
100
AcDbText
  0
TEXT
  5
12DF
100
AcDbEntity
  8
A1-CS
  6
CONTINUOUS
 62
   212
100
AcDbText
 10
184.048739
 20
24.341298
 30
0.0
 40
1.0
  1
ENGINEER
 11
184.048739
 21
24.841298
 31
0.0
100
AcDbText
 73
     2
  0
TEXT
  5
12E0
100
AcDbEntity
  8
A1-CS
  6
CONTINUOUS
 62
   212
100
AcDbText
 10
184.048739
 20
20.321298
 30
0.0
 40
1.0
  1
LEAD ENGINEER
 11
184.048739
 21
20.821298
 31
0.0
100
AcDbText
 73
     2
  0
TEXT
  5
12E1
100
AcDbEntity
  8
A1-CS
  6
CONTINUOUS
 62
   212
100
AcDbText
 10
184.048739
 20
16.346297
 30
0.0
 40
1.0
  1
DESIGN MANAGER
 11
184.048739
 21
16.846297
 31
0.0
100
AcDbText
 73
     2
  0
TEXT
  5
12E2
100
AcDbEntity
  8
A1-CS
  6
CONTINUOUS
 62
   212
100
AcDbText
 10
178.520405
 20
11.146297
 30
0.0
 40
1.0
  1
ENG
 72
     4
 11
179.853738
 21
11.646297
 31
0.0
100
AcDbText
  0
TEXT
  5
12E3
100
AcDbEntity
  8
A1-CS
  6
CONTINUOUS
 62
   212
100
AcDbText
 10
11.033739
 20
11.146297
 30
0.0
 40
1.0
  1
No.
 41
1.25
 11
11.033739
 21
11.646297
 31
0.0
100
AcDbText
 73
     2
  0
TEXT
  5
12E4
100
AcDbEntity
  8
A1-CS
  6
CONTINUOUS
 62
   212
100
AcDbText
 10
228.715406
 20
15.436297
 30
0.0
 40
1.75
  1
DO NOT SCALE
 72
     4
 11
238.923739
 21
16.311297
 31
0.0
100
AcDbText
  0
TEXT
  5
12E5
100
AcDbEntity
  8
A1-CS
  6
CONTINUOUS
 62
   212
100
AcDbText
 10
228.715406
 20
12.686298
 30
0.0
 40
1.75
  1
DIMENSIONS IN
 72
     4
 11
238.923739
 21
13.561298
 31
0.0
100
AcDbText
  0
TEXT
  5
12E6
100
AcDbEntity
  8
A1-CS
  6
CONTINUOUS
 62
   212
100
AcDbText
 10
230.059646
 20
10.13794
 30
0.0
 40
1.75
  1
MILLIMETRES
 72
     4
 11
238.809646
 21
11.01294
 31
0.0
100
AcDbText
  0
TEXT
  5
12E7
100
AcDbEntity
  8
A1-CS
  6
CONTINUOUS
 62
   212
100
AcDbText
 10
333.107071
 20
16.871298
 30
0.0
 40
1.25
  1
JOB NUMBER
 72
     4
 11
339.148738
 21
17.496298
 31
0.0
100
AcDbText
  0
TEXT
  5
12E8
100
AcDbEntity
  8
A1-CS
  6
CONTINUOUS
 62
   212
100
AcDbText
 10
351.417071
 20
16.871298
 30
0.0
 40
1.25
  1
DRAWING NUMBER
 72
     4
 11
359.958738
 21
17.496298
 31
0.0
100
AcDbText
  0
TEXT
  5
12E9
100
AcDbEntity
  8
A1-CS
  6
CONTINUOUS
 62
   212
100
AcDbText
 10
394.782076
 20
15.052672
 30
0.0
 40
1.25
  1
SIZE
 72
     4
 11
396.865409
 21
15.677672
 31
0.0
100
AcDbText
  0
TEXT
  5
12EA
100
AcDbEntity
  8
A1-CS
  6
CONTINUOUS
 62
   212
100
AcDbText
 10
403.928739
 20
16.871298
 30
0.0
 40
1.25
  1
REV
 72
     4
 11
405.803739
 21
17.496298
 31
0.0
100
AcDbText
  0
TEXT
  5
12EB
100
AcDbEntity
  8
A1-CS
  6
CONTINUOUS
 62
   212
100
AcDbText
 10
22.932906
 20
287.648798
 30
0.0
 40
0.995
  1
1
 72
     4
 11
23.098739
 21
288.146298
 31
0.0
100
AcDbText
  0
TEXT
  5
12EC
100
AcDbEntity
  8
A1-CS
  6
CONTINUOUS
 62
   212
100
AcDbText
 10
56.707072
 20
287.648798
 30
0.0
 40
0.995
  1
2
 72
     4
 11
57.038739
 21
288.146298
 31
0.0
100
AcDbText
  0
TEXT
  5
12ED
100
AcDbEntity
  8
A1-CS
  6
CONTINUOUS
 62
   212
100
AcDbText
 10
90.692072
 20
287.646298
 30
0.0
 40
1.0
  1
3
 41
1.25
 72
     4
 11
91.108739
 21
288.146298
 31
0.0
100
AcDbText
  0
TEXT
  5
12EE
100
AcDbEntity
  8
A1-CS
  6
CONTINUOUS
 62
   212
100
AcDbText
 10
124.627072
 20
287.646298
 30
0.0
 40
1.0
  1
4
 41
1.25
 72
     4
 11
125.043739
 21
288.146298
 31
0.0
100
AcDbText
  0
TEXT
  5
12EF
100
AcDbEntity
  8
A1-CS
  6
CONTINUOUS
 62
   212
100
AcDbText
 10
158.577072
 20
287.646298
 30
0.0
 40
1.0
  1
5
 41
1.25
 72
     4
 11
158.993739
 21
288.146298
 31
0.0
100
AcDbText
  0
TEXT
  5
12F0
100
AcDbEntity
  8
A1-CS
  6
CONTINUOUS
 62
   212
100
AcDbText
 10
192.512072
 20
287.646298
 30
0.0
 40
1.0
  1
6
 41
1.25
 72
     4
 11
192.928739
 21
288.146298
 31
0.0
100
AcDbText
  0
TEXT
  5
12F1
100
AcDbEntity
  8
A1-CS
  6
CONTINUOUS
 62
   212
100
AcDbText
 10
226.447072
 20
287.646298
 30
0.0
 40
1.0
  1
7
 41
1.25
 72
     4
 11
226.863739
 21
288.146298
 31
0.0
100
AcDbText
  0
TEXT
  5
12F2
100
AcDbEntity
  8
A1-CS
  6
CONTINUOUS
 62
   212
100
AcDbText
 10
260.427071
 20
287.646298
 30
0.0
 40
1.0
  1
8
 41
1.25
 72
     4
 11
260.843738
 21
288.146298
 31
0.0
100
AcDbText
  0
TEXT
  5
12F3
100
AcDbEntity
  8
A1-CS
  6
CONTINUOUS
 62
   212
100
AcDbText
 10
294.377072
 20
287.646298
 30
0.0
 40
1.0
  1
9
 41
1.25
 72
     4
 11
294.793739
 21
288.146298
 31
0.0
100
AcDbText
  0
TEXT
  5
12F4
100
AcDbEntity
  8
A1-CS
  6
CONTINUOUS
 62
   212
100
AcDbText
 10
328.154571
 20
287.646298
 30
0.0
 40
1.0
  1
10
 41
1.25
 72
     4
 11
328.883738
 21
288.146298
 31
0.0
100
AcDbText
  0
TEXT
  5
12F5
100
AcDbEntity
  8
A1-CS
  6
CONTINUOUS
 62
   212
100
AcDbText
 10
361.878739
 20
287.646298
 30
0.0
 40
1.0
  1
11
 41
1.25
 72
     4
 11
362.503739
 21
288.146298
 31
0.0
100
AcDbText
  0
TEXT
  5
12F6
100
AcDbEntity
  8
A1-CS
  6
CONTINUOUS
 62
   212
100
AcDbText
 10
395.865405
 20
287.646298
 30
0.0
 40
1.0
  1
12
 41
1.25
 72
     4
 11
396.698738
 21
288.146298
 31
0.0
100
AcDbText
  0
TEXT
  5
12F7
100
AcDbEntity
  8
A1-CS
  6
CONTINUOUS
 62
   212
100
AcDbText
 10
51.453739
 20
11.146297
 30
0.0
 40
1.0
  1
REFERENCE DRAWINGS
 41
1.25
 11
51.453739
 21
11.646297
 31
0.0
100
AcDbText
 73
     2
  0
TEXT
  5
12F8
100
AcDbEntity
  8
A1-CS
  6
CONTINUOUS
 62
   212
100
AcDbText
 10
184.048739
 20
35.871297
 30
0.0
 40
1.0
  1
SCALE
 11
184.048739
 21
36.371297
 31
0.0
100
AcDbText
 73
     2
  0
LINE
  5
12F9
100
AcDbEntity
  8
A1-CS
  6
CONTINUOUS
 62
   212
100
AcDbLine
 10
9.773739
 20
9.396297
 30
0.0
 11
410.273738
 21
9.396297
 31
0.0
  0
LINE
  5
12FA
100
AcDbEntity
  8
A1-CS
  6
CONTINUOUS
 62
   212
100
AcDbLine
 10
410.273738
 20
9.396297
 30
0.0
 11
410.273738
 21
286.396298
 31
0.0
  0
LINE
  5
12FB
100
AcDbEntity
  8
A1-CS
  6
CONTINUOUS
 62
   212
100
AcDbLine
 10
410.273738
 20
286.396298
 30
0.0
 11
9.773739
 21
286.396298
 31
0.0
  0
LINE
  5
12FC
100
AcDbEntity
  8
A1-CS
  6
CONTINUOUS
 62
   212
100
AcDbLine
 10
9.773739
 20
286.396298
 30
0.0
 11
9.773739
 21
9.396297
 31
0.0
  0
LINE
  5
12FD
100
AcDbEntity
  8
A1-CS
  6
CONTINUOUS
 62
   212
100
AcDbLine
 10
6.273739
 20
5.896298
 30
0.0
 11
413.773738
 21
5.896298
 31
0.0
  0
LINE
  5
12FE
100
AcDbEntity
  8
A1-CS
  6
CONTINUOUS
 62
   212
100
AcDbLine
 10
413.773738
 20
5.896298
 30
0.0
 11
413.773738
 21
289.896298
 31
0.0
  0
LINE
  5
12FF
100
AcDbEntity
  8
A1-CS
  6
CONTINUOUS
 62
   212
100
AcDbLine
 10
413.773738
 20
289.896298
 30
0.0
 11
6.273739
 21
289.896298
 31
0.0
  0
LINE
  5
1300
100
AcDbEntity
  8
A1-CS
  6
CONTINUOUS
 62
   212
100
AcDbLine
 10
6.273739
 20
289.896298
 30
0.0
 11
6.273739
 21
5.896298
 31
0.0
  0
LINE
  5
1301
100
AcDbEntity
  8
-CS
  6
CONTINUOUS
 62
   212
100
AcDbLine
 10
9.773739
 20
9.396297
 30
0.0
 11
410.273738
 21
9.396297
 31
0.0
  0
LINE
  5
1302
100
AcDbEntity
  8
-CS
  6
CONTINUOUS
 62
   212
100
AcDbLine
 10
410.273738
 20
9.396297
 30
0.0
 11
410.273738
 21
286.396298
 31
0.0
  0
LINE
  5
1303
100
AcDbEntity
  8
-CS
  6
CONTINUOUS
 62
   212
100
AcDbLine
 10
410.273738
 20
286.396298
 30
0.0
 11
9.773739
 21
286.396298
 31
0.0
  0
LINE
  5
1304
100
AcDbEntity
  8
-CS
  6
CONTINUOUS
 62
   212
100
AcDbLine
 10
9.773739
 20
286.396298
 30
0.0
 11
9.773739
 21
9.396297
 31
0.0
  0
LINE
  5
1305
100
AcDbEntity
  8
-CS
  6
CONTINUOUS
 62
   212
100
AcDbLine
 10
6.273739
 20
5.896298
 30
0.0
 11
413.773738
 21
5.896298
 31
0.0
  0
LINE
  5
1306
100
AcDbEntity
  8
-CS
  6
CONTINUOUS
 62
   212
100
AcDbLine
 10
413.773738
 20
5.896298
 30
0.0
 11
413.773738
 21
289.896298
 31
0.0
  0
LINE
  5
1307
100
AcDbEntity
  8
-CS
  6
CONTINUOUS
 62
   212
100
AcDbLine
 10
413.773738
 20
289.896298
 30
0.0
 11
6.273739
 21
289.896298
 31
0.0
  0
LINE
  5
1308
100
AcDbEntity
  8
-CS
  6
CONTINUOUS
 62
   212
100
AcDbLine
 10
6.273739
 20
289.896298
 30
0.0
 11
6.273739
 21
5.896298
 31
0.0
  0
ENDSEC
  0
SECTION
  2
OBJECTS
  0
DICTIONARY
  5
646
100
AcDbDictionary
  3
ACAD_GROUP
350
647
  3
ACAD_MLINESTYLE
350
648
  0
DICTIONARY
  5
647
102
{ACAD_REACTORS
330
646
102
}
100
AcDbDictionary
  0
DICTIONARY
  5
648
102
{ACAD_REACTORS
330
646
102
}
100
AcDbDictionary
  3
STANDARD
350
649
  0
MLINESTYLE
  5
649
102
{ACAD_REACTORS
330
648
102
}
100
AcDbMlineStyle
  2
STANDARD
 70
     0
  3

 62
     0
 51
90.0
 52
90.0
 71
     2
 49
0.5
 62
   256
  6
BYLAYER
 49
-0.5
 62
   256
  6
BYLAYER
  0
ENDSEC
  0
EOF
