  0
SECTION
  2
HEADER
  9
$ACADVER
  1
AC1009
  9
$INSBASE
 10
0.0
 20
0.0
 30
0.0
  9
$EXTMAX
 10
11.25
 20
11.25
 30
0.0
  9
$EXTMIN
 10
-13.125
 20
-15.0
 30
0.0
  9
$LIMMAX
 10
12.0
 20
9.0
  9
$LIMMIN
 10
0.0
 20
0.0
  9
$ORTHOMODE
 70
0
  9
$REGENMODE
 70
1
  9
$FILLMODE
 70
1
  9
$QTEXTMODE
 70
0
  9
$MIRRTEXT
 70
1
  9
$DRAGMODE
 70
2
  9
$LTSCALE
 40
1.0
  9
$OSMODE
 70
0
  9
$ATTMODE
 70
1
  9
$TEXTSIZE
 40
0.2
  9
$TRACEWID
 40
0.05
  9
$TEXTSTYLE
  7
STANDARD
  9
$CLAYER
  8
0
  9
$CELTYPE
  6
CONTINUOUS
  9
$CECOLOR
 62
256
  9
$DIMSCALE
 40
1.0
  9
$DIMASZ
 40
0.18
  9
$DIMEXO
 40
0.0625
  9
$DIMDLI
 40
0.38
  9
$DIMRND
 40
0.0
  9
$DIMDLE
 40
0.0
  9
$DIMEXE
 40
0.18
  9
$DIMTP
 40
0.0
  9
$DIMTM
 40
0.0
  9
$DIMTXT
 40
0.18
  9
$DIMCEN
 40
0.09
  9
$DIMTSZ
 40
0.0
  9
$DIMTOL
 70
0
  9
$DIMLIM
 70
0
  9
$DIMTIH
 70
1
  9
$DIMTOH
 70
1
  9
$DIMSE1
 70
0
  9
$DIMSE2
 70
0
  9
$DIMTAD
 70
0
  9
$DIMZIN
 70
0
  9
$DIMBLK
  1

  9
$DIMASO
 70
1
  9
$DIMSHO
 70
1
  9
$DIMPOST
  1

  9
$DIMAPOST
  1

  9
$DIMALT
 70
0
  9
$DIMALTD
 70
2
  9
$DIMALTF
 40
25.4
  9
$DIMLFAC
 40
1.0
  9
$DIMTOFL
 70
0
  9
$DIMTVP
 40
0.0
  9
$DIMTIX
 70
0
  9
$DIMSOXD
 70
0
  9
$DIMSAH
 70
0
  9
$DIMBLK1
  1

  9
$DIMBLK2
  1

  9
$DIMSTYLE
  2
*UNNAMED
  9
$DIMCLRD
 70
0
  9
$DIMCLRE
 70
0
  9
$DIMCLRT
 70
0
  9
$DIMTFAC
 40
1.0
  9
$DIMGAP
 40
0.09
  9
$LUNITS
 70
2
  9
$LUPREC
 70
4
  9
$AXISMODE
 70
0
  9
$AXISUNIT
 10
0.0
 20
0.0
  9
$SKETCHINC
 40
0.1
  9
$FILLETRAD
 40
0.0
  9
$AUNITS
 70
0
  9
$AUPREC
 70
0
  9
$MENU
  1
acad
  9
$ELEVATION
 40
0.0
  9
$PELEVATION
 40
0.0
  9
$THICKNESS
 40
0.0
  9
$LIMCHECK
 70
0
  9
$BLIPMODE
 70
1
  9
$CHAMFERA
 40
0.0
  9
$CHAMFERB
 40
0.0
  9
$SKPOLY
 70
0
  9
$TDCREATE
 40
0.0
  9
$TDUPDATE
 40
0.0
  9
$TDINDWG
 40
0.0
  9
$TDUSRTIMER
 40
0.0
  9
$USRTIMER
 70
1
  9
$ANGBASE
 50
0.0
  9
$ANGDIR
 70
0
  9
$PDMODE
 70
0
  9
$PDSIZE
 40
0.0
  9
$PLINEWID
 40
0.0
  9
$COORDS
 70
0
  9
$SPLFRAME
 70
0
  9
$SPLINETYPE
 70
6
  9
$SPLINESEGS
 70
10
  9
$ATTDIA
 70
0
  9
$ATTREQ
 70
1
  9
$HANDLING
 70
1
  9
$HANDSEED
  5
126
  9
$SURFTAB1
 70
6
  9
$SURFTAB2
 70
6
  9
$SURFTYPE
 70
6
  9
$SURFU
 70
10
  9
$SURFV
 70
10
  9
$UCSNAME
  2

  9
$UCSORG
 10
0.0
 20
0.0
 30
0.0
  9
$UCSXDIR
 10
1.0
 20
0.0
 30
0.0
  9
$UCSYDIR
 10
0.0
 20
1.0
 30
0.0
  9
$PUCSNAME
  2
 
  9
$PUCSORG
 10
0.0
 20
0.0
 30
0.0
  9
$PUCSXDIR
 10
1.0
 20
0.0
 30
0.0
  9
$PUCSYDIR
 10
0.0
 20
1.0
 30
0.0
  9
$USERI1
 70
0
  9
$USERI2
 70
0
  9
$USERI3
 70
0
  9
$USERI4
 70
0
  9
$USERI5
 70
0
  9
$USERR1
 40
0.0
  9
$USERR2
 40
0.0
  9
$USERR3
 40
0.0
  9
$USERR4
 40
0.0
  9
$USERR5
 40
0.0
  9
$WORLDVIEW
 70
1
  9
$SHADEDGE
 70
3
  9
$SHADEDIF
 70
70
  9
$TILEMODE
 70
1
  9
$MAXACTVP
 70
16
  9
$PINSBASE
 10
0.0
 20
0.0
 30
0.0
  9
$PLIMCHECK
 70
0
  9
$PEXTMIN
 10
-1.000000E+020
 20
-1.000000E+020
 30
-1.000000E+020
  9
$PEXTMAX
 10
-1.000000E+020
 20
-1.000000E+020
 30
-1.000000E+020
  9
$PLIMMIN
 10
0.0
 20
0.0
  9
$PLIMMAX
 10
12.0
 20
9.0
  9
$UNITMODE
 70
0
  9
$VISRETAIN
 70
0
  0
ENDSEC
  0
SECTION
  2
TABLES
  0
TABLE
  2
LTYPE
 70
7
  0
LTYPE
  2
CONTINUOUS
 70
64
  3
Solid line
 72
65
 73
0
 40
0.0
  0
LTYPE
  2
DOT
 70
64
  3
. . . . . . . . . . . . . . . . . . . . . . . . . . . . . . . . .
 72
65
 73
2
 40
0.25
 49
0.0
 49
-0.25
  0
LTYPE
  2
HIDDEN
 70
64
  3
__ __ __ __ __ __ __ __ __ __ __ __ __ __ __ __ __ __ __ __ __ 
 72
65
 73
2
 40
0.375
 49
0.25
 49
-0.125
  0
LTYPE
  2
DASHED
 70
64
  3
__ __ __ __ __ __ __ __ __ __ __ __ __ __ __ __ __ __ __ __ __
 72
65
 73
2
 40
0.75
 49
0.5
 49
-0.25
  0
LTYPE
  2
DASHDOT
 70
64
  3
__ . __ . __ . __ . __ . __ . __ . __ . __ . __ . __ . __ . _
 72
65
 73
4
 40
1.0
 49
0.5
 49
-0.25
 49
0.0
 49
-0.25
  0
LTYPE
  2
DIVIDE
 70
64
  3
____ . . ____ . . ____ . . ____ . . ____ . . ____ . . ____ . .
 72
65
 73
6
 40
1.25
 49
0.5
 49
-0.25
 49
0.0
 49
-0.25
 49
0.0
 49
-0.25
  0
LTYPE
  2
CENTER
 70
64
  3
____ _ ____ _ ____ _ ____ _ ____ _ ____ _ ____ _ ____ _ ____ _
 72
65
 73
4
 40
2.0
 49
1.25
 49
-0.25
 49
0.25
 49
-0.25
  0
ENDTAB
  0
TABLE
  2
APPID
 70
1
  0
APPID
  2
ACAD
 70
0
  0
ENDTAB
  0
TABLE
  2
DIMSTYLE
 70
0
  0
ENDTAB
  0
TABLE
  2
LAYER
 70
4
  0
LAYER
  2
0
 70
0
 62
7
  6
CONTINUOUS
  0
LAYER
  2
CONSTRUCTION_CLASS
 70
0
 62
7
  6
CONTINUOUS
  0
LAYER
  2
PATTERN_CLASS
 70
0
 62
7
  6
CONTINUOUS
  0
LAYER
  2
1
 70
0
 62
7
  6
CONTINUOUS
  0
ENDTAB
  0
TABLE
  2
STYLE
 70
1
  0
STYLE
  2
STANDARD
 70
0
 40
0.2
 41
1.0
 50
0.0
 71
0
 42
0.0
  3
txt
  4

  0
ENDTAB
  0
TABLE
  2
UCS
 70
0
  0
ENDTAB
  0
TABLE
  2
VIEW
 70
0
  0
ENDTAB
  0
TABLE
  2
VPORT
 70
1
  0
VPORT
  2
*ACTIVE
 70
0
 10
0.0
 20
0.0
 11
1.0
 21
1.0
 12
0.0
 22
0.0
 13
0.0
 23
0.0
 14
0.0
 24
0.0
 15
0.0
 25
0.0
 16
0.0
 26
0.0
 36
1.0
 17
-1.123516
 27
-1.2465
 37
0.0
 40
15.383
 41
1.39966
 42
50.0
 43
0.004
 44
0.0
 50
0.0
 51
0.0
 71
0
 72
100
 73
1
 74
0
 75
0
 76
0
 77
0
 78
0
  0
ENDTAB
  0
ENDSEC
  0
SECTION
  2
BLOCKS
  0
BLOCK
  8
1
  5
112
 70
0
 10
0.0
 20
0.0
 30
0.0
  2
SPRAY0
  3
SPRAY0
  0
LINE
  8
1
  5
114
  6
CONTINUOUS
 62
7
 10
0.0
 20
0.0
 30
0.0
 11
-1.411
 21
-1.411
 31
0.0
  0
LINE
  8
1
  5
116
  6
CONTINUOUS
 62
7
 10
0.0
 20
0.0
 30
0.0
 11
-0.749
 21
-1.851
 31
0.0
  0
LINE
  8
1
  5
118
  6
CONTINUOUS
 62
7
 10
0.0
 20
0.0
 30
0.0
 11
0.749
 21
-1.851
 31
0.0
  0
LINE
  8
1
  5
11A
  6
CONTINUOUS
 62
7
 10
0.0
 20
0.0
 30
0.0
 11
0.0
 21
-1.998
 31
0.0
  0
LINE
  8
1
  5
11C
  6
CONTINUOUS
 62
7
 10
0.0
 20
0.0
 30
0.0
 11
1.413
 21
-1.411
 31
0.0
  0
ENDBLK
  8
1
  5
11D
  0
BLOCK
  8
1
  5
11F
 70
0
 10
0.0
 20
0.0
 30
0.0
  2
FLANG0
  3
FLANG0
  0
LINE
  8
1
  5
121
  6
CONTINUOUS
 62
7
 10
0.0
 20
1.251
 30
0.0
 11
0.0
 21
-1.251
 31
0.0
  0
LINE
  8
1
  5
123
  6
CONTINUOUS
 62
7
 10
0.625
 20
1.251
 30
0.0
 11
0.625
 21
-1.251
 31
0.0
  0
ENDBLK
  8
1
  5
124
  0
ENDSEC
  0
SECTION
  2
ENTITIES
  0
LINE
  8
1
  5
2
  6
CONTINUOUS
 62
7
 10
-11.25
 20
11.25
 30
0.0
 11
11.25
 21
11.25
 31
0.0
  0
LINE
  8
1
  5
4
  6
CONTINUOUS
 62
7
 10
11.25
 20
11.25
 30
0.0
 11
11.25
 21
-11.25
 31
0.0
  0
LINE
  8
1
  5
6
  6
CONTINUOUS
 62
7
 10
-11.25
 20
11.25
 30
0.0
 11
-11.25
 21
-11.25
 31
0.0
  0
LINE
  8
1
  5
8
  6
CONTINUOUS
 62
7
 10
-0.937
 20
-12.374
 30
0.0
 11
0.937
 21
-12.374
 31
0.0
  0
LINE
  8
1
  5
A
  6
CONTINUOUS
 62
7
 10
0.937
 20
-12.374
 30
0.0
 11
0.937
 21
-13.5
 31
0.0
  0
LINE
  8
1
  5
C
  6
CONTINUOUS
 62
7
 10
0.937
 20
-13.5
 30
0.0
 11
-0.937
 21
-13.5
 31
0.0
  0
LINE
  8
1
  5
E
  6
CONTINUOUS
 62
7
 10
-0.937
 20
-13.5
 30
0.0
 11
-0.937
 21
-12.374
 31
0.0
  0
LINE
  8
1
  5
10
  6
CONTINUOUS
 62
7
 10
-0.937
 20
-12.936
 30
0.0
 11
0.937
 21
-12.936
 31
0.0
  0
LINE
  8
1
  5
12
  6
CONTINUOUS
 62
7
 10
0.0
 20
-13.5
 30
0.0
 11
0.0
 21
-15.0
 31
0.0
  0
LINE
  8
1
  5
14
  6
CONTINUOUS
 62
7
 10
-11.25
 20
-11.25
 30
0.0
 11
-0.937
 21
-12.374
 31
0.0
  0
LINE
  8
1
  5
16
  6
CONTINUOUS
 62
7
 10
0.937
 20
-12.374
 30
0.0
 11
11.25
 21
-11.25
 31
0.0
  0
POLYLINE
  8
1
  5
18
  6
CONTINUOUS
 62
7
 10
0.0
 20
0.0
 30
0.0
 66
1
 70
0
  0
VERTEX
  8
1
  5
19
  6
CONTINUOUS
 62
7
 10
7.96875
 20
1.125
 30
0.0
 42
0.058645
  0
VERTEX
  8
1
  5
1A
  6
CONTINUOUS
 62
7
 10
8.517442
 20
1.18985
 30
0.0
 42
0.056806
  0
VERTEX
  8
1
  5
1B
  6
CONTINUOUS
 62
7
 10
9.045047
 20
1.381907
 30
0.0
 42
0.053691
  0
VERTEX
  8
1
  5
1C
  6
CONTINUOUS
 62
7
 10
9.531291
 20
1.69379
 30
0.0
 42
0.050095
  0
VERTEX
  8
1
  5
1D
  6
CONTINUOUS
 62
7
 10
9.957488
 20
2.113515
 30
0.0
 42
0.046703
  0
VERTEX
  8
1
  5
1E
  6
CONTINUOUS
 62
7
 10
10.307258
 20
2.62495
 30
0.0
 42
0.04395
  0
VERTEX
  8
1
  5
1F
  6
CONTINUOUS
 62
7
 10
10.567161
 20
3.208443
 30
0.0
 42
0.042051
  0
VERTEX
  8
1
  5
20
  6
CONTINUOUS
 62
7
 10
10.727209
 20
3.84157
 30
0.0
 42
0.04109
  0
VERTEX
  8
1
  5
21
  6
CONTINUOUS
 62
7
 10
10.78125
 20
4.5
 30
0.0
 42
0.04109
  0
VERTEX
  8
1
  5
22
  6
CONTINUOUS
 62
7
 10
10.727209
 20
5.15843
 30
0.0
 42
0.042051
  0
VERTEX
  8
1
  5
23
  6
CONTINUOUS
 62
7
 10
10.567161
 20
5.791557
 30
0.0
 42
0.04395
  0
VERTEX
  8
1
  5
24
  6
CONTINUOUS
 62
7
 10
10.307258
 20
6.37505
 30
0.0
 42
0.046703
  0
VERTEX
  8
1
  5
25
  6
CONTINUOUS
 62
7
 10
9.957488
 20
6.886485
 30
0.0
 42
0.050095
  0
VERTEX
  8
1
  5
26
  6
CONTINUOUS
 62
7
 10
9.531291
 20
7.30621
 30
0.0
 42
0.053691
  0
VERTEX
  8
1
  5
27
  6
CONTINUOUS
 62
7
 10
9.045047
 20
7.618093
 30
0.0
 42
0.056806
  0
VERTEX
  8
1
  5
28
  6
CONTINUOUS
 62
7
 10
8.517442
 20
7.81015
 30
0.0
 42
0.058645
  0
VERTEX
  8
1
  5
29
  6
CONTINUOUS
 62
7
 10
7.96875
 20
7.875
 30
0.0
 42
0.058645
  0
SEQEND
  8
1
  5
2A
  0
POLYLINE
  8
1
  5
2C
  6
CONTINUOUS
 62
7
 10
0.0
 20
0.0
 30
0.0
 66
1
 70
0
  0
VERTEX
  8
1
  5
2D
  6
CONTINUOUS
 62
7
 10
7.96875
 20
-9.0
 30
0.0
 42
0.058645
  0
VERTEX
  8
1
  5
2E
  6
CONTINUOUS
 62
7
 10
8.517442
 20
-8.93515
 30
0.0
 42
0.056806
  0
VERTEX
  8
1
  5
2F
  6
CONTINUOUS
 62
7
 10
9.045047
 20
-8.743093
 30
0.0
 42
0.053691
  0
VERTEX
  8
1
  5
30
  6
CONTINUOUS
 62
7
 10
9.531291
 20
-8.43121
 30
0.0
 42
0.050095
  0
VERTEX
  8
1
  5
31
  6
CONTINUOUS
 62
7
 10
9.957488
 20
-8.011485
 30
0.0
 42
0.046703
  0
VERTEX
  8
1
  5
32
  6
CONTINUOUS
 62
7
 10
10.307258
 20
-7.50005
 30
0.0
 42
0.04395
  0
VERTEX
  8
1
  5
33
  6
CONTINUOUS
 62
7
 10
10.567161
 20
-6.916557
 30
0.0
 42
0.042051
  0
VERTEX
  8
1
  5
34
  6
CONTINUOUS
 62
7
 10
10.727209
 20
-6.28343
 30
0.0
 42
0.04109
  0
VERTEX
  8
1
  5
35
  6
CONTINUOUS
 62
7
 10
10.78125
 20
-5.625
 30
0.0
 42
0.04109
  0
VERTEX
  8
1
  5
36
  6
CONTINUOUS
 62
7
 10
10.727209
 20
-4.96657
 30
0.0
 42
0.042051
  0
VERTEX
  8
1
  5
37
  6
CONTINUOUS
 62
7
 10
10.567161
 20
-4.333443
 30
0.0
 42
0.04395
  0
VERTEX
  8
1
  5
38
  6
CONTINUOUS
 62
7
 10
10.307258
 20
-3.74995
 30
0.0
 42
0.046703
  0
VERTEX
  8
1
  5
39
  6
CONTINUOUS
 62
7
 10
9.957488
 20
-3.238515
 30
0.0
 42
0.050095
  0
VERTEX
  8
1
  5
3A
  6
CONTINUOUS
 62
7
 10
9.531291
 20
-2.81879
 30
0.0
 42
0.053691
  0
VERTEX
  8
1
  5
3B
  6
CONTINUOUS
 62
7
 10
9.045047
 20
-2.506907
 30
0.0
 42
0.056806
  0
VERTEX
  8
1
  5
3C
  6
CONTINUOUS
 62
7
 10
8.517442
 20
-2.31485
 30
0.0
 42
0.058645
  0
VERTEX
  8
1
  5
3D
  6
CONTINUOUS
 62
7
 10
7.96875
 20
-2.25
 30
0.0
 42
0.058645
  0
SEQEND
  8
1
  5
3E
  0
LINE
  8
1
  5
40
  6
CONTINUOUS
 62
7
 10
-13.125
 20
8.436
 30
0.0
 11
-13.125
 21
7.313
 31
0.0
  0
LINE
  8
1
  5
42
  6
CONTINUOUS
 62
7
 10
-13.125
 20
6.75
 30
0.0
 11
-13.125
 21
5.626
 31
0.0
  0
POLYLINE
  8
1
  5
44
  6
CONTINUOUS
 62
7
 10
0.0
 20
0.0
 30
0.0
 66
1
 70
0
  0
VERTEX
  8
1
  5
45
  6
CONTINUOUS
 62
7
 10
7.96875
 20
2.8125
 30
0.0
 42
0.058645
  0
VERTEX
  8
1
  5
46
  6
CONTINUOUS
 62
7
 10
8.243096
 20
2.844925
 30
0.0
 42
0.056806
  0
VERTEX
  8
1
  5
47
  6
CONTINUOUS
 62
7
 10
8.506899
 20
2.940953
 30
0.0
 42
0.053691
  0
VERTEX
  8
1
  5
48
  6
CONTINUOUS
 62
7
 10
8.750021
 20
3.096895
 30
0.0
 42
0.050095
  0
VERTEX
  8
1
  5
49
  6
CONTINUOUS
 62
7
 10
8.963119
 20
3.306757
 30
0.0
 42
0.046703
  0
VERTEX
  8
1
  5
4A
  6
CONTINUOUS
 62
7
 10
9.138004
 20
3.562475
 30
0.0
 42
0.04395
  0
VERTEX
  8
1
  5
4B
  6
CONTINUOUS
 62
7
 10
9.267956
 20
3.854222
 30
0.0
 42
0.042051
  0
VERTEX
  8
1
  5
4C
  6
CONTINUOUS
 62
7
 10
9.347979
 20
4.170785
 30
0.0
 42
0.04109
  0
VERTEX
  8
1
  5
4D
  6
CONTINUOUS
 62
7
 10
9.375
 20
4.5
 30
0.0
 42
0.04109
  0
VERTEX
  8
1
  5
4E
  6
CONTINUOUS
 62
7
 10
9.347979
 20
4.829215
 30
0.0
 42
0.042051
  0
VERTEX
  8
1
  5
4F
  6
CONTINUOUS
 62
7
 10
9.267956
 20
5.145778
 30
0.0
 42
0.04395
  0
VERTEX
  8
1
  5
50
  6
CONTINUOUS
 62
7
 10
9.138004
 20
5.437525
 30
0.0
 42
0.046703
  0
VERTEX
  8
1
  5
51
  6
CONTINUOUS
 62
7
 10
8.963119
 20
5.693243
 30
0.0
 42
0.050095
  0
VERTEX
  8
1
  5
52
  6
CONTINUOUS
 62
7
 10
8.750021
 20
5.903105
 30
0.0
 42
0.053691
  0
VERTEX
  8
1
  5
53
  6
CONTINUOUS
 62
7
 10
8.506899
 20
6.059047
 30
0.0
 42
0.056806
  0
VERTEX
  8
1
  5
54
  6
CONTINUOUS
 62
7
 10
8.243096
 20
6.155075
 30
0.0
 42
0.058645
  0
VERTEX
  8
1
  5
55
  6
CONTINUOUS
 62
7
 10
7.96875
 20
6.1875
 30
0.0
 42
0.058645
  0
SEQEND
  8
1
  5
56
  0
LINE
  8
1
  5
58
  6
CONTINUOUS
 62
7
 10
-13.125
 20
6.187
 30
0.0
 11
7.969
 21
6.187
 31
0.0
  0
POLYLINE
  8
1
  5
5A
  6
CONTINUOUS
 62
7
 10
0.0
 20
0.0
 30
0.0
 66
1
 70
0
  0
VERTEX
  8
1
  5
5B
  6
CONTINUOUS
 62
7
 10
-7.03125
 20
2.8125
 30
0.0
 42
0.058645
  0
VERTEX
  8
1
  5
5C
  6
CONTINUOUS
 62
7
 10
-7.579942
 20
2.74765
 30
0.0
 42
0.056806
  0
VERTEX
  8
1
  5
5D
  6
CONTINUOUS
 62
7
 10
-8.107547
 20
2.555593
 30
0.0
 42
0.053691
  0
VERTEX
  8
1
  5
5E
  6
CONTINUOUS
 62
7
 10
-8.593791
 20
2.24371
 30
0.0
 42
0.050095
  0
VERTEX
  8
1
  5
5F
  6
CONTINUOUS
 62
7
 10
-9.019988
 20
1.823985
 30
0.0
 42
0.046703
  0
VERTEX
  8
1
  5
60
  6
CONTINUOUS
 62
7
 10
-9.369758
 20
1.31255
 30
0.0
 42
0.04395
  0
VERTEX
  8
1
  5
61
  6
CONTINUOUS
 62
7
 10
-9.629661
 20
0.729057
 30
0.0
 42
0.042051
  0
VERTEX
  8
1
  5
62
  6
CONTINUOUS
 62
7
 10
-9.789709
 20
0.09593
 30
0.0
 42
0.04109
  0
VERTEX
  8
1
  5
63
  6
CONTINUOUS
 62
7
 10
-9.84375
 20
-0.5625
 30
0.0
 42
0.04109
  0
VERTEX
  8
1
  5
64
  6
CONTINUOUS
 62
7
 10
-9.789709
 20
-1.22093
 30
0.0
 42
0.042051
  0
VERTEX
  8
1
  5
65
  6
CONTINUOUS
 62
7
 10
-9.629661
 20
-1.854057
 30
0.0
 42
0.04395
  0
VERTEX
  8
1
  5
66
  6
CONTINUOUS
 62
7
 10
-9.369758
 20
-2.43755
 30
0.0
 42
0.046703
  0
VERTEX
  8
1
  5
67
  6
CONTINUOUS
 62
7
 10
-9.019988
 20
-2.948985
 30
0.0
 42
0.050095
  0
VERTEX
  8
1
  5
68
  6
CONTINUOUS
 62
7
 10
-8.593791
 20
-3.36871
 30
0.0
 42
0.053691
  0
VERTEX
  8
1
  5
69
  6
CONTINUOUS
 62
7
 10
-8.107547
 20
-3.680593
 30
0.0
 42
0.056806
  0
VERTEX
  8
1
  5
6A
  6
CONTINUOUS
 62
7
 10
-7.579942
 20
-3.87265
 30
0.0
 42
0.058645
  0
VERTEX
  8
1
  5
6B
  6
CONTINUOUS
 62
7
 10
-7.03125
 20
-3.9375
 30
0.0
 42
0.058645
  0
SEQEND
  8
1
  5
6C
  0
POLYLINE
  8
1
  5
6E
  6
CONTINUOUS
 62
7
 10
0.0
 20
0.0
 30
0.0
 66
1
 70
0
  0
VERTEX
  8
1
  5
6F
  6
CONTINUOUS
 62
7
 10
-7.03125
 20
1.125
 30
0.0
 42
0.058645
  0
VERTEX
  8
1
  5
70
  6
CONTINUOUS
 62
7
 10
-7.305596
 20
1.092575
 30
0.0
 42
0.056806
  0
VERTEX
  8
1
  5
71
  6
CONTINUOUS
 62
7
 10
-7.569399
 20
0.996547
 30
0.0
 42
0.053691
  0
VERTEX
  8
1
  5
72
  6
CONTINUOUS
 62
7
 10
-7.812521
 20
0.840605
 30
0.0
 42
0.050095
  0
VERTEX
  8
1
  5
73
  6
CONTINUOUS
 62
7
 10
-8.025619
 20
0.630743
 30
0.0
 42
0.046703
  0
VERTEX
  8
1
  5
74
  6
CONTINUOUS
 62
7
 10
-8.200504
 20
0.375025
 30
0.0
 42
0.04395
  0
VERTEX
  8
1
  5
75
  6
CONTINUOUS
 62
7
 10
-8.330456
 20
0.083278
 30
0.0
 42
0.042051
  0
VERTEX
  8
1
  5
76
  6
CONTINUOUS
 62
7
 10
-8.410479
 20
-0.233285
 30
0.0
 42
0.04109
  0
VERTEX
  8
1
  5
77
  6
CONTINUOUS
 62
7
 10
-8.4375
 20
-0.5625
 30
0.0
 42
0.04109
  0
VERTEX
  8
1
  5
78
  6
CONTINUOUS
 62
7
 10
-8.410479
 20
-0.891715
 30
0.0
 42
0.042051
  0
VERTEX
  8
1
  5
79
  6
CONTINUOUS
 62
7
 10
-8.330456
 20
-1.208278
 30
0.0
 42
0.04395
  0
VERTEX
  8
1
  5
7A
  6
CONTINUOUS
 62
7
 10
-8.200504
 20
-1.500025
 30
0.0
 42
0.046703
  0
VERTEX
  8
1
  5
7B
  6
CONTINUOUS
 62
7
 10
-8.025619
 20
-1.755743
 30
0.0
 42
0.050095
  0
VERTEX
  8
1
  5
7C
  6
CONTINUOUS
 62
7
 10
-7.812521
 20
-1.965605
 30
0.0
 42
0.053691
  0
VERTEX
  8
1
  5
7D
  6
CONTINUOUS
 62
7
 10
-7.569399
 20
-2.121547
 30
0.0
 42
0.056806
  0
VERTEX
  8
1
  5
7E
  6
CONTINUOUS
 62
7
 10
-7.305596
 20
-2.217575
 30
0.0
 42
0.058645
  0
VERTEX
  8
1
  5
7F
  6
CONTINUOUS
 62
7
 10
-7.03125
 20
-2.25
 30
0.0
 42
0.058645
  0
SEQEND
  8
1
  5
80
  0
LINE
  8
1
  5
82
  6
CONTINUOUS
 62
7
 10
7.969
 20
-9.0
 30
0.0
 11
-13.125
 21
-9.0
 31
0.0
  0
LINE
  8
1
  5
84
  6
CONTINUOUS
 62
7
 10
-13.125
 20
-8.436
 30
0.0
 11
-13.125
 21
-9.564
 31
0.0
  0
LINE
  8
1
  5
86
  6
CONTINUOUS
 62
7
 10
-13.125
 20
-7.874
 30
0.0
 11
-13.125
 21
-6.75
 31
0.0
  0
LINE
  8
1
  5
88
  6
CONTINUOUS
 62
7
 10
-13.125
 20
-7.313
 30
0.0
 11
7.969
 21
-7.313
 31
0.0
  0
POLYLINE
  8
1
  5
8A
  6
CONTINUOUS
 62
7
 10
0.0
 20
0.0
 30
0.0
 66
1
 70
0
  0
VERTEX
  8
1
  5
8B
  6
CONTINUOUS
 62
7
 10
7.96875
 20
-7.3125
 30
0.0
 42
0.058645
  0
VERTEX
  8
1
  5
8C
  6
CONTINUOUS
 62
7
 10
8.243096
 20
-7.280075
 30
0.0
 42
0.056806
  0
VERTEX
  8
1
  5
8D
  6
CONTINUOUS
 62
7
 10
8.506899
 20
-7.184047
 30
0.0
 42
0.053691
  0
VERTEX
  8
1
  5
8E
  6
CONTINUOUS
 62
7
 10
8.750021
 20
-7.028105
 30
0.0
 42
0.050095
  0
VERTEX
  8
1
  5
8F
  6
CONTINUOUS
 62
7
 10
8.963119
 20
-6.818243
 30
0.0
 42
0.046703
  0
VERTEX
  8
1
  5
90
  6
CONTINUOUS
 62
7
 10
9.138004
 20
-6.562525
 30
0.0
 42
0.04395
  0
VERTEX
  8
1
  5
91
  6
CONTINUOUS
 62
7
 10
9.267956
 20
-6.270778
 30
0.0
 42
0.042051
  0
VERTEX
  8
1
  5
92
  6
CONTINUOUS
 62
7
 10
9.347979
 20
-5.954215
 30
0.0
 42
0.04109
  0
VERTEX
  8
1
  5
93
  6
CONTINUOUS
 62
7
 10
9.375
 20
-5.625
 30
0.0
 42
0.04109
  0
VERTEX
  8
1
  5
94
  6
CONTINUOUS
 62
7
 10
9.347979
 20
-5.295785
 30
0.0
 42
0.042051
  0
VERTEX
  8
1
  5
95
  6
CONTINUOUS
 62
7
 10
9.267956
 20
-4.979222
 30
0.0
 42
0.04395
  0
VERTEX
  8
1
  5
96
  6
CONTINUOUS
 62
7
 10
9.138004
 20
-4.687475
 30
0.0
 42
0.046703
  0
VERTEX
  8
1
  5
97
  6
CONTINUOUS
 62
7
 10
8.963119
 20
-4.431757
 30
0.0
 42
0.050095
  0
VERTEX
  8
1
  5
98
  6
CONTINUOUS
 62
7
 10
8.750021
 20
-4.221895
 30
0.0
 42
0.053691
  0
VERTEX
  8
1
  5
99
  6
CONTINUOUS
 62
7
 10
8.506899
 20
-4.065953
 30
0.0
 42
0.056806
  0
VERTEX
  8
1
  5
9A
  6
CONTINUOUS
 62
7
 10
8.243096
 20
-3.969925
 30
0.0
 42
0.058645
  0
VERTEX
  8
1
  5
9B
  6
CONTINUOUS
 62
7
 10
7.96875
 20
-3.9375
 30
0.0
 42
0.058645
  0
SEQEND
  8
1
  5
9C
  0
LINE
  8
1
  5
9E
  6
CONTINUOUS
 62
7
 10
-13.125
 20
7.874
 30
0.0
 11
7.969
 21
7.874
 31
0.0
  0
LINE
  8
1
  5
A0
  6
CONTINUOUS
 62
7
 10
7.969
 20
2.813
 30
0.0
 11
-7.031
 21
2.813
 31
0.0
  0
LINE
  8
1
  5
A2
  6
CONTINUOUS
 62
7
 10
-7.031
 20
1.126
 30
0.0
 11
7.969
 21
1.126
 31
0.0
  0
LINE
  8
1
  5
A4
  6
CONTINUOUS
 62
7
 10
7.969
 20
-2.25
 30
0.0
 11
-7.031
 21
-2.25
 31
0.0
  0
LINE
  8
1
  5
A6
  6
CONTINUOUS
 62
7
 10
-7.031
 20
-3.936
 30
0.0
 11
7.969
 21
-3.936
 31
0.0
  0
LINE
  8
1
  5
A8
  6
CONTINUOUS
 62
7
 10
-9.375
 20
8.436
 30
0.0
 11
-9.375
 21
5.626
 31
0.0
  0
LINE
  8
1
  5
AA
  6
CONTINUOUS
 62
7
 10
-9.375
 20
-6.75
 30
0.0
 11
-9.375
 21
-9.564
 31
0.0
  0
INSERT
  8
1
  5
AC
  6
CONTINUOUS
 62
7
  2
SPRAY0
 10
-5.625
 20
9.0
 30
0.0
 41
0.375
 42
0.45
 43
1.0
 70
1
 71
1
  0
INSERT
  8
1
  5
AE
  6
CONTINUOUS
 62
7
  2
SPRAY0
 10
-1.875
 20
9.0
 30
0.0
 41
0.375
 42
0.45
 43
1.0
 70
1
 71
1
  0
INSERT
  8
1
  5
B0
  6
CONTINUOUS
 62
7
  2
SPRAY0
 10
1.875
 20
9.0
 30
0.0
 41
0.375
 42
0.45
 43
1.0
 70
1
 71
1
  0
INSERT
  8
1
  5
B2
  6
CONTINUOUS
 62
7
  2
SPRAY0
 10
5.625
 20
9.0
 30
0.0
 41
0.375
 42
0.45
 43
1.0
 70
1
 71
1
  0
INSERT
  8
1
  5
B4
  6
CONTINUOUS
 62
7
  2
SPRAY0
 10
3.75
 20
5.064
 30
0.0
 41
0.375
 42
-0.45
 43
1.0
 70
1
 71
1
  0
INSERT
  8
1
  5
B6
  6
CONTINUOUS
 62
7
  2
SPRAY0
 10
0.0
 20
5.064
 30
0.0
 41
0.375
 42
-0.45
 43
1.0
 70
1
 71
1
  0
INSERT
  8
1
  5
B8
  6
CONTINUOUS
 62
7
  2
SPRAY0
 10
-3.75
 20
5.064
 30
0.0
 41
0.375
 42
-0.45
 43
1.0
 70
1
 71
1
  0
INSERT
  8
1
  5
BA
  6
CONTINUOUS
 62
7
  2
SPRAY0
 10
-7.5
 20
5.064
 30
0.0
 41
0.375
 42
-0.45
 43
1.0
 70
1
 71
1
  0
INSERT
  8
1
  5
BC
  6
CONTINUOUS
 62
7
  2
SPRAY0
 10
-5.625
 20
3.936
 30
0.0
 41
0.375
 42
0.45
 43
1.0
 70
1
 71
1
  0
LINE
  8
1
  5
BE
  6
CONTINUOUS
 62
7
 10
-10.313
 20
9.564
 30
0.0
 11
-10.313
 21
-10.687
 31
0.0
  0
LINE
  8
1
  5
C0
  6
CONTINUOUS
 62
7
 10
-10.313
 20
-10.126
 30
0.0
 11
8.437
 21
-10.126
 31
0.0
  0
INSERT
  8
1
  5
C2
  6
CONTINUOUS
 62
7
  2
FLANG0
 10
8.437
 20
9.0
 30
0.0
 41
0.262501
 42
0.315001
 43
1.0
 70
1
 71
1
  0
INSERT
  8
1
  5
C4
  6
CONTINUOUS
 62
7
  2
FLANG0
 10
8.437
 20
5.064
 30
0.0
 41
0.262501
 42
0.315001
 43
1.0
 70
1
 71
1
  0
INSERT
  8
1
  5
C6
  6
CONTINUOUS
 62
7
  2
FLANG0
 10
8.437
 20
3.936
 30
0.0
 41
0.262501
 42
0.315001
 43
1.0
 70
1
 71
1
  0
INSERT
  8
1
  5
C8
  6
CONTINUOUS
 62
7
  2
FLANG0
 10
8.437
 20
0.0
 30
0.0
 41
0.262501
 42
0.315001
 43
1.0
 70
1
 71
1
  0
INSERT
  8
1
  5
CA
  6
CONTINUOUS
 62
7
  2
FLANG0
 10
8.437
 20
-1.126
 30
0.0
 41
0.262501
 42
0.315001
 43
1.0
 70
1
 71
1
  0
INSERT
  8
1
  5
CC
  6
CONTINUOUS
 62
7
  2
FLANG0
 10
8.437
 20
-5.064
 30
0.0
 41
0.262501
 42
0.315001
 43
1.0
 70
1
 71
1
  0
INSERT
  8
1
  5
CE
  6
CONTINUOUS
 62
7
  2
FLANG0
 10
8.437
 20
-6.187
 30
0.0
 41
0.262501
 42
0.315001
 43
1.0
 70
1
 71
1
  0
INSERT
  8
1
  5
D0
  6
CONTINUOUS
 62
7
  2
FLANG0
 10
8.437
 20
-10.126
 30
0.0
 41
0.262501
 42
0.315001
 43
1.0
 70
1
 71
1
  0
LINE
  8
1
  5
D2
  6
CONTINUOUS
 62
7
 10
-10.313
 20
5.064
 30
0.0
 11
8.437
 21
5.064
 31
0.0
  0
LINE
  8
1
  5
D4
  6
CONTINUOUS
 62
7
 10
8.437
 20
3.936
 30
0.0
 11
-10.313
 21
3.936
 31
0.0
  0
LINE
  8
1
  5
D6
  6
CONTINUOUS
 62
7
 10
8.437
 20
-5.064
 30
0.0
 11
-10.313
 21
-5.064
 31
0.0
  0
LINE
  8
1
  5
D8
  6
CONTINUOUS
 62
7
 10
-10.313
 20
-6.187
 30
0.0
 11
8.437
 21
-6.187
 31
0.0
  0
INSERT
  8
1
  5
DA
  6
CONTINUOUS
 62
7
  2
SPRAY0
 10
-5.625
 20
-1.126
 30
0.0
 41
0.375
 42
0.45
 43
1.0
 70
1
 71
1
  0
INSERT
  8
1
  5
DC
  6
CONTINUOUS
 62
7
  2
SPRAY0
 10
-5.625
 20
-6.187
 30
0.0
 41
0.375
 42
0.45
 43
1.0
 70
1
 71
1
  0
INSERT
  8
1
  5
DE
  6
CONTINUOUS
 62
7
  2
SPRAY0
 10
-1.875
 20
3.936
 30
0.0
 41
0.375
 42
0.45
 43
1.0
 70
1
 71
1
  0
INSERT
  8
1
  5
E0
  6
CONTINUOUS
 62
7
  2
SPRAY0
 10
-1.875
 20
-1.126
 30
0.0
 41
0.375
 42
0.45
 43
1.0
 70
1
 71
1
  0
INSERT
  8
1
  5
E2
  6
CONTINUOUS
 62
7
  2
SPRAY0
 10
-1.875
 20
-6.187
 30
0.0
 41
0.375
 42
0.45
 43
1.0
 70
1
 71
1
  0
INSERT
  8
1
  5
E4
  6
CONTINUOUS
 62
7
  2
SPRAY0
 10
1.875
 20
3.936
 30
0.0
 41
0.375
 42
0.45
 43
1.0
 70
1
 71
1
  0
INSERT
  8
1
  5
E6
  6
CONTINUOUS
 62
7
  2
SPRAY0
 10
1.875
 20
-1.126
 30
0.0
 41
0.375
 42
0.45
 43
1.0
 70
1
 71
1
  0
INSERT
  8
1
  5
E8
  6
CONTINUOUS
 62
7
  2
SPRAY0
 10
1.875
 20
-6.187
 30
0.0
 41
0.375
 42
0.45
 43
1.0
 70
1
 71
1
  0
INSERT
  8
1
  5
EA
  6
CONTINUOUS
 62
7
  2
SPRAY0
 10
5.625
 20
-1.126
 30
0.0
 41
0.375
 42
0.45
 43
1.0
 70
1
 71
1
  0
INSERT
  8
1
  5
EC
  6
CONTINUOUS
 62
7
  2
SPRAY0
 10
5.625
 20
-6.187
 30
0.0
 41
0.375
 42
0.45
 43
1.0
 70
1
 71
1
  0
INSERT
  8
1
  5
EE
  6
CONTINUOUS
 62
7
  2
SPRAY0
 10
-7.5
 20
-5.064
 30
0.0
 41
0.375
 42
-0.45
 43
1.0
 70
1
 71
1
  0
INSERT
  8
1
  5
F0
  6
CONTINUOUS
 62
7
  2
SPRAY0
 10
-7.5
 20
-10.126
 30
0.0
 41
0.375
 42
-0.45
 43
1.0
 70
1
 71
1
  0
INSERT
  8
1
  5
F2
  6
CONTINUOUS
 62
7
  2
SPRAY0
 10
-3.75
 20
0.0
 30
0.0
 41
0.375
 42
-0.45
 43
1.0
 70
1
 71
1
  0
INSERT
  8
1
  5
F4
  6
CONTINUOUS
 62
7
  2
SPRAY0
 10
-3.75
 20
-5.064
 30
0.0
 41
0.375
 42
-0.45
 43
1.0
 70
1
 71
1
  0
INSERT
  8
1
  5
F6
  6
CONTINUOUS
 62
7
  2
SPRAY0
 10
-3.75
 20
-10.126
 30
0.0
 41
0.375
 42
-0.45
 43
1.0
 70
1
 71
1
  0
INSERT
  8
1
  5
F8
  6
CONTINUOUS
 62
7
  2
SPRAY0
 10
3.75
 20
0.0
 30
0.0
 41
0.375
 42
-0.45
 43
1.0
 70
1
 71
1
  0
INSERT
  8
1
  5
FA
  6
CONTINUOUS
 62
7
  2
SPRAY0
 10
3.75
 20
-5.064
 30
0.0
 41
0.375
 42
-0.45
 43
1.0
 70
1
 71
1
  0
INSERT
  8
1
  5
FC
  6
CONTINUOUS
 62
7
  2
SPRAY0
 10
3.75
 20
-10.126
 30
0.0
 41
0.375
 42
-0.45
 43
1.0
 70
1
 71
1
  0
INSERT
  8
1
  5
FE
  6
CONTINUOUS
 62
7
  2
SPRAY0
 10
0.0
 20
0.0
 30
0.0
 41
0.375
 42
-0.45
 43
1.0
 70
1
 71
1
  0
INSERT
  8
1
  5
100
  6
CONTINUOUS
 62
7
  2
SPRAY0
 10
0.0
 20
-10.126
 30
0.0
 41
0.375
 42
-0.45
 43
1.0
 70
1
 71
1
  0
INSERT
  8
1
  5
102
  6
CONTINUOUS
 62
7
  2
SPRAY0
 10
7.5
 20
5.064
 30
0.0
 41
0.375
 42
-0.45
 43
1.0
 70
1
 71
1
  0
INSERT
  8
1
  5
104
  6
CONTINUOUS
 62
7
  2
SPRAY0
 10
7.5
 20
0.0
 30
0.0
 41
0.375
 42
-0.45
 43
1.0
 70
1
 71
1
  0
INSERT
  8
1
  5
106
  6
CONTINUOUS
 62
7
  2
SPRAY0
 10
7.5
 20
-5.064
 30
0.0
 41
0.375
 42
-0.45
 43
1.0
 70
1
 71
1
  0
INSERT
  8
1
  5
108
  6
CONTINUOUS
 62
7
  2
SPRAY0
 10
7.5
 20
-10.126
 30
0.0
 41
0.375
 42
-0.45
 43
1.0
 70
1
 71
1
  0
INSERT
  8
1
  5
10A
  6
CONTINUOUS
 62
7
  2
SPRAY0
 10
5.625
 20
3.936
 30
0.0
 41
0.375
 42
0.45
 43
1.0
 70
1
 71
1
  0
LINE
  8
1
  5
10C
  6
CONTINUOUS
 62
7
 10
8.437
 20
0.0
 30
0.0
 11
-10.313
 21
0.0
 31
0.0
  0
LINE
  8
1
  5
10E
  6
CONTINUOUS
 62
7
 10
-10.313
 20
-1.126
 30
0.0
 11
8.437
 21
-1.126
 31
0.0
  0
LINE
  8
1
  5
110
  6
CONTINUOUS
 62
7
 10
8.437
 20
9.0
 30
0.0
 11
-10.313
 21
9.0
 31
0.0
  0
ENDSEC
  0
EOF
