  0
SECTION
  2
HEADER
  9
$ACADVER
  1
AC1009
  9
$INSBASE
 10
0.0
 20
0.0
 30
0.0
  9
$EXTMIN
 10
-6.936
 20
-4.792
 30
0.0
  9
$EXTMAX
 10
7.392
 20
9.769
 30
0.0
  9
$LIMMIN
 10
-20.0
 20
-20.0
  9
$LIMMAX
 10
20.0
 20
20.0
  9
$ORTHOMODE
 70
     0
  9
$REGENMODE
 70
     1
  9
$FILLMODE
 70
     1
  9
$QTEXTMODE
 70
     0
  9
$MIRRTEXT
 70
     1
  9
$DRAGMODE
 70
     2
  9
$LTSCALE
 40
1.0
  9
$OSMODE
 70
     0
  9
$ATTMODE
 70
     1
  9
$TEXTSIZE
 40
0.2
  9
$TRACEWID
 40
0.05
  9
$TEXTSTYLE
  7
STANDARD
  9
$CLAYER
  8
0
  9
$CELTYPE
  6
BYLAYER
  9
$CECOLOR
 62
   256
  9
$DIMSCALE
 40
1.0
  9
$DIMASZ
 40
0.18
  9
$DIMEXO
 40
0.0625
  9
$DIMDLI
 40
0.38
  9
$DIMRND
 40
0.0
  9
$DIMDLE
 40
0.0
  9
$DIMEXE
 40
0.18
  9
$DIMTP
 40
0.0
  9
$DIMTM
 40
0.0
  9
$DIMTXT
 40
0.18
  9
$DIMCEN
 40
0.09
  9
$DIMTSZ
 40
0.0
  9
$DIMTOL
 70
     0
  9
$DIMLIM
 70
     0
  9
$DIMTIH
 70
     1
  9
$DIMTOH
 70
     1
  9
$DIMSE1
 70
     0
  9
$DIMSE2
 70
     0
  9
$DIMTAD
 70
     0
  9
$DIMZIN
 70
     0
  9
$DIMBLK
  1

  9
$DIMASO
 70
     1
  9
$DIMSHO
 70
     1
  9
$DIMPOST
  1

  9
$DIMAPOST
  1

  9
$DIMALT
 70
     0
  9
$DIMALTD
 70
     2
  9
$DIMALTF
 40
25.4
  9
$DIMLFAC
 40
1.0
  9
$DIMTOFL
 70
     0
  9
$DIMTVP
 40
0.0
  9
$DIMTIX
 70
     0
  9
$DIMSOXD
 70
     0
  9
$DIMSAH
 70
     0
  9
$DIMBLK1
  1

  9
$DIMBLK2
  1

  9
$DIMSTYLE
  2
*UNNAMED
  9
$DIMCLRD
 70
     0
  9
$DIMCLRE
 70
     0
  9
$DIMCLRT
 70
     0
  9
$DIMTFAC
 40
1.0
  9
$DIMGAP
 40
0.09
  9
$LUNITS
 70
     2
  9
$LUPREC
 70
     4
  9
$SKETCHINC
 40
0.1
  9
$FILLETRAD
 40
0.0
  9
$AUNITS
 70
     0
  9
$AUPREC
 70
     0
  9
$MENU
  1
acad
  9
$ELEVATION
 40
0.0
  9
$PELEVATION
 40
0.0
  9
$THICKNESS
 40
0.0
  9
$LIMCHECK
 70
     0
  9
$BLIPMODE
 70
     1
  9
$CHAMFERA
 40
0.0
  9
$CHAMFERB
 40
0.0
  9
$SKPOLY
 70
     0
  9
$TDCREATE
 40
2450773.324395370
  9
$TDUPDATE
 40
2450773.362619444
  9
$TDINDWG
 40
0.0020850694
  9
$TDUSRTIMER
 40
0.0020850694
  9
$USRTIMER
 70
     1
  9
$ANGBASE
 50
0.0
  9
$ANGDIR
 70
     0
  9
$PDMODE
 70
     0
  9
$PDSIZE
 40
0.0
  9
$PLINEWID
 40
0.0
  9
$COORDS
 70
     0
  9
$SPLFRAME
 70
     0
  9
$SPLINETYPE
 70
     6
  9
$SPLINESEGS
 70
    10
  9
$ATTDIA
 70
     0
  9
$ATTREQ
 70
     1
  9
$HANDLING
 70
     1
  9
$HANDSEED
  5
2EE
  9
$SURFTAB1
 70
     6
  9
$SURFTAB2
 70
     6
  9
$SURFTYPE
 70
     6
  9
$SURFU
 70
    10
  9
$SURFV
 70
    10
  9
$UCSNAME
  2

  9
$UCSORG
 10
0.0
 20
0.0
 30
0.0
  9
$UCSXDIR
 10
1.0
 20
0.0
 30
0.0
  9
$UCSYDIR
 10
0.0
 20
1.0
 30
0.0
  9
$PUCSNAME
  2

  9
$PUCSORG
 10
0.0
 20
0.0
 30
0.0
  9
$PUCSXDIR
 10
1.0
 20
0.0
 30
0.0
  9
$PUCSYDIR
 10
0.0
 20
1.0
 30
0.0
  9
$USERI1
 70
     0
  9
$USERI2
 70
     0
  9
$USERI3
 70
     0
  9
$USERI4
 70
     0
  9
$USERI5
 70
     0
  9
$USERR1
 40
0.0
  9
$USERR2
 40
0.0
  9
$USERR3
 40
0.0
  9
$USERR4
 40
0.0
  9
$USERR5
 40
0.0
  9
$WORLDVIEW
 70
     1
  9
$SHADEDGE
 70
     3
  9
$SHADEDIF
 70
    70
  9
$TILEMODE
 70
     1
  9
$MAXACTVP
 70
    16
  9
$PINSBASE
 10
0.0
 20
0.0
 30
0.0
  9
$PLIMCHECK
 70
     0
  9
$PEXTMIN
 10
-1.000000E+20
 20
-1.000000E+20
 30
-1.000000E+20
  9
$PEXTMAX
 10
-1.000000E+20
 20
-1.000000E+20
 30
-1.000000E+20
  9
$PLIMMIN
 10
0.0
 20
0.0
  9
$PLIMMAX
 10
12.0
 20
9.0
  9
$UNITMODE
 70
     0
  9
$VISRETAIN
 70
     0
  9
$PLINEGEN
 70
     0
  9
$PSLTSCALE
 70
     0
  9
$TREEDEPTH
 70
  3020
  9
$DWGCODEPAGE
  3
undefined
  0
ENDSEC
  0
SECTION
  2
TABLES
  0
TABLE
  2
VPORT
 70
     2
  0
VPORT
  2
*ACTIVE
 70
     0
 10
0.0
 20
0.0
 11
1.0
 21
1.0
 12
10.438117
 22
0.66845
 13
0.0
 23
0.0
 14
1.25
 24
1.25
 15
10.0
 25
10.0
 16
0.0
 26
0.0
 36
1.0
 17
-0.899656
 27
-0.66845
 37
0.0
 40
40.0
 41
1.476923
 42
50.0
 43
0.0
 44
0.0
 50
0.0
 51
0.0
 71
     0
 72
   100
 73
     1
 74
     0
 75
     1
 76
     1
 77
     0
 78
     0
  0
ENDTAB
  0
TABLE
  2
LTYPE
 70
     1
  0
LTYPE
  2
CONTINUOUS
 70
    64
  3
Solid line
 72
    65
 73
     0
 40
0.0
  0
ENDTAB
  0
TABLE
  2
LAYER
 70
     1
  0
LAYER
  2
0
 70
    64
 62
     7
  6
CONTINUOUS
  0
ENDTAB
  0
TABLE
  2
STYLE
 70
     1
  0
STYLE
  2
STANDARD
 70
     0
 40
0.2
 41
1.0
 50
0.0
 71
     0
 42
0.0
  3
txt
  4

  0
ENDTAB
  0
TABLE
  2
VIEW
 70
     0
  0
ENDTAB
  0
TABLE
  2
UCS
 70
     0
  0
ENDTAB
  0
TABLE
  2
APPID
 70
     1
  0
APPID
  2
ACAD
 70
    64
  0
ENDTAB
  0
TABLE
  2
DIMSTYLE
 70
     0
  0
ENDTAB
  0
ENDSEC
  0
SECTION
  2
BLOCKS
  0
ENDSEC
  0
SECTION
  2
ENTITIES
  0
LINE
  8
0
  5
10
 10
3.456
 20
-1.444
 30
0.0
 11
6.736
 21
-1.444
 31
0.0
  0
LINE
  8
0
  5
12
 10
3.456
 20
-1.292
 30
0.0
 11
6.736
 21
-1.292
 31
0.0
  0
LINE
  8
0
  5
2C
 10
0.879
 20
-1.056
 30
0.0
 11
0.879
 21
-0.872
 31
0.0
  0
LINE
  8
0
  5
2E
 10
2.448
 20
-0.232
 30
0.0
 11
2.448
 21
-4.792
 31
0.0
  0
LINE
  8
0
  5
30
 10
-0.074
 20
-4.792
 30
0.0
 11
-0.074
 21
-0.232
 31
0.0
  0
LINE
  8
0
  5
29A
 10
0.879
 20
-3.924
 30
0.0
 11
0.879
 21
-4.128
 31
0.0
  0
LINE
  8
0
  5
29C
 10
1.058
 20
-3.924
 30
0.0
 11
1.058
 21
-1.056
 31
0.0
  0
LINE
  8
0
  5
2AE
 10
3.456
 20
-1.292
 30
0.0
 11
3.456
 21
-1.444
 31
0.0
  0
LINE
  8
0
  5
2B0
 10
-3.583
 20
2.93
 30
0.0
 11
-3.583
 21
8.792
 31
0.0
  0
LINE
  8
0
  5
2B2
 10
-4.56
 20
1.953
 30
0.0
 11
-4.56
 21
9.769
 31
0.0
  0
LINE
  8
0
  5
2B4
 10
4.558
 20
1.953
 30
0.0
 11
4.558
 21
9.769
 31
0.0
  0
LINE
  8
0
  5
2B6
 10
3.582
 20
2.93
 30
0.0
 11
3.582
 21
8.792
 31
0.0
  0
LINE
  8
0
  5
2B8
 10
-3.583
 20
2.93
 30
0.0
 11
3.582
 21
2.93
 31
0.0
  0
LINE
  8
0
  5
2BA
 10
-4.56
 20
1.953
 30
0.0
 11
4.558
 21
1.953
 31
0.0
  0
LINE
  8
0
  5
2BC
 10
-3.908
 20
0.0
 30
0.0
 11
3.907
 21
0.0
 31
0.0
  0
LINE
  8
0
  5
2BE
 10
-3.908
 20
0.976
 30
0.0
 11
-0.978
 21
0.976
 31
0.0
  0
LINE
  8
0
  5
2C0
 10
-3.908
 20
0.0
 30
0.0
 11
-3.908
 21
0.976
 31
0.0
  0
LINE
  8
0
  5
2C2
 10
-0.978
 20
0.976
 30
0.0
 11
-0.978
 21
1.953
 31
0.0
  0
LINE
  8
0
  5
2C4
 10
0.976
 20
0.976
 30
0.0
 11
3.907
 21
0.976
 31
0.0
  0
LINE
  8
0
  5
2C6
 10
0.976
 20
0.976
 30
0.0
 11
0.976
 21
1.953
 31
0.0
  0
LINE
  8
0
  5
2C8
 10
3.907
 20
0.0
 30
0.0
 11
3.907
 21
0.976
 31
0.0
  0
LINE
  8
0
  5
2CA
 10
-3.583
 20
8.792
 30
0.0
 11
3.582
 21
8.792
 31
0.0
  0
LINE
  8
0
  5
2CC
 10
-4.56
 20
9.769
 30
0.0
 11
4.558
 21
9.769
 31
0.0
  0
LINE
  8
0
  5
2D0
 10
6.736
 20
-1.292
 30
0.0
 11
6.736
 21
-1.444
 31
0.0
  0
LINE
  8
0
  5
2D2
 10
-6.936
 20
-0.22
 30
0.0
 11
7.392
 21
-0.22
 31
0.0
  0
LINE
  8
0
  5
2D3
 10
7.392
 20
-0.22
 30
0.0
 11
7.392
 21
-4.78
 31
0.0
  0
LINE
  8
0
  5
2D4
 10
7.392
 20
-4.78
 30
0.0
 11
-6.936
 21
-4.78
 31
0.0
  0
LINE
  8
0
  5
2D5
 10
-6.936
 20
-4.78
 30
0.0
 11
-6.936
 21
-0.22
 31
0.0
  0
LINE
  8
0
  5
2D6
 10
2.739
 20
-2.043
 30
0.0
 11
7.108
 21
-2.043
 31
0.0
  0
LINE
  8
0
  5
2D7
 10
7.108
 20
-2.043
 30
0.0
 11
7.108
 21
-3.207
 31
0.0
  0
LINE
  8
0
  5
2D8
 10
7.108
 20
-3.207
 30
0.0
 11
2.709
 21
-3.207
 31
0.0
  0
LINE
  8
0
  5
2D9
 10
2.709
 20
-3.207
 30
0.0
 11
2.709
 21
-2.043
 31
0.0
  0
LINE
  8
0
  5
2DA
 10
2.739
 20
-0.878
 30
0.0
 11
7.108
 21
-0.878
 31
0.0
  0
LINE
  8
0
  5
2DB
 10
7.108
 20
-0.878
 30
0.0
 11
7.108
 21
-2.043
 31
0.0
  0
LINE
  8
0
  5
2DC
 10
7.108
 20
-2.043
 30
0.0
 11
2.709
 21
-2.043
 31
0.0
  0
LINE
  8
0
  5
2DD
 10
2.709
 20
-2.043
 30
0.0
 11
2.709
 21
-0.878
 31
0.0
  0
LINE
  8
0
  5
2DE
 10
0.879
 20
-1.056
 30
0.0
 11
0.879
 21
-3.924
 31
0.0
  0
LINE
  8
0
  5
2DF
 10
0.879
 20
-3.924
 30
0.0
 11
1.53
 21
-3.924
 31
0.0
  0
LINE
  8
0
  5
2E0
 10
1.53
 20
-3.924
 30
0.0
 11
1.53
 21
-1.056
 31
0.0
  0
LINE
  8
0
  5
2E1
 10
1.53
 20
-1.056
 30
0.0
 11
0.879
 21
-1.056
 31
0.0
  0
LINE
  8
0
  5
2E2
 10
0.228
 20
-0.872
 30
0.0
 11
2.182
 21
-0.872
 31
0.0
  0
LINE
  8
0
  5
2E3
 10
2.182
 20
-0.872
 30
0.0
 11
2.182
 21
-4.128
 31
0.0
  0
LINE
  8
0
  5
2E4
 10
2.182
 20
-4.128
 30
0.0
 11
0.228
 21
-4.128
 31
0.0
  0
LINE
  8
0
  5
2E5
 10
0.228
 20
-4.128
 30
0.0
 11
0.228
 21
-0.872
 31
0.0
  0
LINE
  8
0
  5
2E6
 10
1.756
 20
-3.508
 30
0.0
 11
1.85
 21
-3.508
 31
0.0
  0
LINE
  8
0
  5
2E7
 10
1.85
 20
-3.508
 30
0.0
 11
1.85
 21
-3.722
 31
0.0
  0
LINE
  8
0
  5
2E8
 10
1.85
 20
-3.722
 30
0.0
 11
1.756
 21
-3.722
 31
0.0
  0
LINE
  8
0
  5
2E9
 10
1.756
 20
-3.722
 30
0.0
 11
1.756
 21
-3.508
 31
0.0
  0
LINE
  8
0
  5
2EA
 10
1.709
 20
-1.235
 30
0.0
 11
1.85
 21
-1.235
 31
0.0
  0
LINE
  8
0
  5
2EB
 10
1.85
 20
-1.235
 30
0.0
 11
1.85
 21
-1.658
 31
0.0
  0
LINE
  8
0
  5
2EC
 10
1.85
 20
-1.658
 30
0.0
 11
1.709
 21
-1.658
 31
0.0
  0
LINE
  8
0
  5
2ED
 10
1.709
 20
-1.658
 30
0.0
 11
1.709
 21
-1.235
 31
0.0
  0
ENDSEC
  0
EOF
