  0
SECTION
  2
HEADER
  9
$ACADVER
  1
AC1014
  9
$ACADMAINTVER
 70
     9
  9
$DWGCODEPAGE
  3
ANSI_1252
  9
$INSBASE
 10
0.0
 20
0.0
 30
0.0
  9
$EXTMIN
 10
-42.828737
 20
-18.222085
 30
-0.001526
  9
$EXTMAX
 10
33.17681
 20
17.792684
 30
0.0
  9
$LIMMIN
 10
0.0
 20
0.0
  9
$LIMMAX
 10
12.0
 20
9.0
  9
$ORTHOMODE
 70
     1
  9
$REGENMODE
 70
     1
  9
$FILLMODE
 70
     1
  9
$QTEXTMODE
 70
     0
  9
$MIRRTEXT
 70
     1
  9
$DRAGMODE
 70
     2
  9
$LTSCALE
 40
1.0
  9
$OSMODE
 70
    39
  9
$ATTMODE
 70
     1
  9
$TEXTSIZE
 40
0.2
  9
$TRACEWID
 40
0.05
  9
$TEXTSTYLE
  7
STANDARD
  9
$CLAYER
  8
ELEC
  9
$CELTYPE
  6
CONTINUOUS
  9
$CECOLOR
 62
   256
  9
$CELTSCALE
 40
1.0
  9
$DELOBJ
 70
     1
  9
$DISPSILH
 70
     0
  9
$DIMSCALE
 40
1.0
  9
$DIMASZ
 40
0.18
  9
$DIMEXO
 40
0.0625
  9
$DIMDLI
 40
0.38
  9
$DIMRND
 40
0.0
  9
$DIMDLE
 40
0.0
  9
$DIMEXE
 40
0.18
  9
$DIMTP
 40
0.0
  9
$DIMTM
 40
0.0
  9
$DIMTXT
 40
0.18
  9
$DIMCEN
 40
0.09
  9
$DIMTSZ
 40
0.0
  9
$DIMTOL
 70
     0
  9
$DIMLIM
 70
     0
  9
$DIMTIH
 70
     1
  9
$DIMTOH
 70
     1
  9
$DIMSE1
 70
     0
  9
$DIMSE2
 70
     0
  9
$DIMTAD
 70
     0
  9
$DIMZIN
 70
     0
  9
$DIMBLK
  1

  9
$DIMASO
 70
     1
  9
$DIMSHO
 70
     1
  9
$DIMPOST
  1

  9
$DIMAPOST
  1

  9
$DIMALT
 70
     0
  9
$DIMALTD
 70
     2
  9
$DIMALTF
 40
25.4
  9
$DIMLFAC
 40
1.0
  9
$DIMTOFL
 70
     0
  9
$DIMTVP
 40
0.0
  9
$DIMTIX
 70
     0
  9
$DIMSOXD
 70
     0
  9
$DIMSAH
 70
     0
  9
$DIMBLK1
  1

  9
$DIMBLK2
  1

  9
$DIMSTYLE
  2
STANDARD
  9
$DIMCLRD
 70
     0
  9
$DIMCLRE
 70
     0
  9
$DIMCLRT
 70
     0
  9
$DIMTFAC
 40
1.0
  9
$DIMGAP
 40
0.09
  9
$DIMJUST
 70
     0
  9
$DIMSD1
 70
     0
  9
$DIMSD2
 70
     0
  9
$DIMTOLJ
 70
     1
  9
$DIMTZIN
 70
     0
  9
$DIMALTZ
 70
     0
  9
$DIMALTTZ
 70
     0
  9
$DIMFIT
 70
     3
  9
$DIMUPT
 70
     0
  9
$DIMUNIT
 70
     2
  9
$DIMDEC
 70
     4
  9
$DIMTDEC
 70
     4
  9
$DIMALTU
 70
     2
  9
$DIMALTTD
 70
     2
  9
$DIMTXSTY
  7
STANDARD
  9
$DIMAUNIT
 70
     0
  9
$LUNITS
 70
     2
  9
$LUPREC
 70
     2
  9
$SKETCHINC
 40
0.1
  9
$FILLETRAD
 40
0.0
  9
$AUNITS
 70
     0
  9
$AUPREC
 70
     0
  9
$MENU
  1
acad
  9
$ELEVATION
 40
0.0
  9
$PELEVATION
 40
0.0
  9
$THICKNESS
 40
0.0
  9
$LIMCHECK
 70
     0
  9
$BLIPMODE
 70
     1
  9
$CHAMFERA
 40
0.0
  9
$CHAMFERB
 40
0.0
  9
$CHAMFERC
 40
0.0
  9
$CHAMFERD
 40
0.0
  9
$SKPOLY
 70
     0
  9
$TDCREATE
 40
0.0000000000
  9
$TDUPDATE
 40
0.0000000000
  9
$TDINDWG
 40
0.0000000000
  9
$TDUSRTIMER
 40
0.0000000000
  9
$USRTIMER
 70
     1
  9
$ANGBASE
 50
0.0
  9
$ANGDIR
 70
     0
  9
$PDMODE
 70
     0
  9
$PDSIZE
 40
0.0
  9
$PLINEWID
 40
0.0
  9
$COORDS
 70
     0
  9
$SPLFRAME
 70
     0
  9
$SPLINETYPE
 70
     6
  9
$SPLINESEGS
 70
    10
  9
$ATTDIA
 70
     0
  9
$ATTREQ
 70
     0
  9
$HANDLING
 70
     1
  9
$HANDSEED
  5
ED
  9
$SURFTAB1
 70
     6
  9
$SURFTAB2
 70
     6
  9
$SURFTYPE
 70
     6
  9
$SURFU
 70
    10
  9
$SURFV
 70
    10
  9
$UCSNAME
  2

  9
$UCSORG
 10
0.0
 20
0.0
 30
0.0
  9
$UCSXDIR
 10
1.0
 20
0.0
 30
0.0
  9
$UCSYDIR
 10
0.0
 20
1.0
 30
0.0
  9
$PUCSNAME
  2
 
  9
$PUCSORG
 10
0.0
 20
0.0
 30
0.0
  9
$PUCSXDIR
 10
1.0
 20
0.0
 30
0.0
  9
$PUCSYDIR
 10
0.0
 20
1.0
 30
0.0
  9
$USERI1
 70
     0
  9
$USERI2
 70
     0
  9
$USERI3
 70
     0
  9
$USERI4
 70
     0
  9
$USERI5
 70
     0
  9
$USERR1
 40
0.0
  9
$USERR2
 40
0.0
  9
$USERR3
 40
0.0
  9
$USERR4
 40
0.0
  9
$USERR5
 40
0.0
  9
$WORLDVIEW
 70
     1
  9
$SHADEDGE
 70
     3
  9
$SHADEDIF
 70
    70
  9
$TILEMODE
 70
     1
  9
$MAXACTVP
 70
    16
  9
$PINSBASE
 10
0.0
 20
0.0
 30
0.0
  9
$PLIMCHECK
 70
     0
  9
$PEXTMIN
 10
-1.000000E+20
 20
-1.000000E+20
 30
-1.000000E+20
  9
$PEXTMAX
 10
-1.000000E+20
 20
-1.000000E+20
 30
-1.000000E+20
  9
$PLIMMIN
 10
0.0
 20
0.0
  9
$PLIMMAX
 10
12.0
 20
9.0
  9
$UNITMODE
 70
     0
  9
$VISRETAIN
 70
     0
  9
$PLINEGEN
 70
     0
  9
$PSLTSCALE
 70
     1
  9
$TREEDEPTH
 70
  3020
  9
$PICKSTYLE
 70
     1
  9
$CMLSTYLE
  2
STANDARD
  9
$CMLJUST
 70
     0
  9
$CMLSCALE
 40
1.0
  9
$PROXYGRAPHICS
 70
     1
  9
$MEASUREMENT
 70
     0
  0
ENDSEC
  0
SECTION
  2
CLASSES
  0
CLASS
  1
LWPOLYLINE
  2
AcDbPolyline
  3
"AutoCAD"
 90
        0
280
     0
281
     1
  0
ENDSEC
  0
SECTION
  2
TABLES
  0
TABLE
  2
VPORT
  5
2F
100
AcDbSymbolTable
 70
     4
  0
VPORT
  5
EC
100
AcDbSymbolTableRecord
100
AcDbViewportTableRecord
  2
*ACTIVE
 70
     0
 10
0.0
 20
0.0
 11
1.0
 21
1.0
 12
-3.237979
 22
0.0973
 13
0.0
 23
0.0
 14
0.0
 24
0.0
 15
0.0
 25
0.0
 16
0.0
 26
0.0
 36
1.0
 17
-1.587985
 27
-0.312
 37
0.0
 40
44.608208
 41
1.717593
 42
50.0
 43
0.0
 44
0.0
 50
0.0
 51
0.0
 71
     0
 72
   100
 73
     1
 74
     0
 75
     0
 76
     0
 77
     0
 78
     0
  0
ENDTAB
  0
TABLE
  2
LTYPE
  5
2C
100
AcDbSymbolTable
 70
     7
  0
LTYPE
  5
39
100
AcDbSymbolTableRecord
100
AcDbLinetypeTableRecord
  2
BYBLOCK
 70
     0
  3

 72
    65
 73
     0
 40
0.0
  0
LTYPE
  5
3A
100
AcDbSymbolTableRecord
100
AcDbLinetypeTableRecord
  2
BYLAYER
 70
     0
  3

 72
    65
 73
     0
 40
0.0
  0
LTYPE
  5
3B
100
AcDbSymbolTableRecord
100
AcDbLinetypeTableRecord
  2
CONTINUOUS
 70
     0
  3
Solid line
 72
    65
 73
     0
 40
0.0
  0
LTYPE
  5
46
100
AcDbSymbolTableRecord
100
AcDbLinetypeTableRecord
  2
DOT
 70
     0
  3
. . . . . . . . . . . . . . . . . . . . . . . . . . . . . . . . .
 72
    65
 73
     2
 40
0.25
 49
0.0
 74
     0
 49
-0.25
 74
     0
  0
LTYPE
  5
47
100
AcDbSymbolTableRecord
100
AcDbLinetypeTableRecord
  2
HIDDEN
 70
     0
  3
__ __ __ __ __ __ __ __ __ __ __ __ __ __ __ __ __ __ __ __ __ 
 72
    65
 73
     2
 40
0.375
 49
0.25
 74
     0
 49
-0.125
 74
     0
  0
LTYPE
  5
48
100
AcDbSymbolTableRecord
100
AcDbLinetypeTableRecord
  2
DASHED
 70
     0
  3
__ __ __ __ __ __ __ __ __ __ __ __ __ __ __ __ __ __ __ __ __
 72
    65
 73
     2
 40
0.75
 49
0.5
 74
     0
 49
-0.25
 74
     0
  0
LTYPE
  5
49
100
AcDbSymbolTableRecord
100
AcDbLinetypeTableRecord
  2
DASHDOT
 70
     0
  3
__ . __ . __ . __ . __ . __ . __ . __ . __ . __ . __ . __ . _
 72
    65
 73
     4
 40
1.0
 49
0.5
 74
     0
 49
-0.25
 74
     0
 49
0.0
 74
     0
 49
-0.25
 74
     0
  0
LTYPE
  5
4A
100
AcDbSymbolTableRecord
100
AcDbLinetypeTableRecord
  2
DIVIDE
 70
     0
  3
____ . . ____ . . ____ . . ____ . . ____ . . ____ . . ____ . .
 72
    65
 73
     6
 40
1.25
 49
0.5
 74
     0
 49
-0.25
 74
     0
 49
0.0
 74
     0
 49
-0.25
 74
     0
 49
0.0
 74
     0
 49
-0.25
 74
     0
  0
LTYPE
  5
4B
100
AcDbSymbolTableRecord
100
AcDbLinetypeTableRecord
  2
CENTER
 70
     0
  3
____ _ ____ _ ____ _ ____ _ ____ _ ____ _ ____ _ ____ _ ____ _
 72
    65
 73
     4
 40
2.0
 49
1.25
 74
     0
 49
-0.25
 74
     0
 49
0.25
 74
     0
 49
-0.25
 74
     0
  0
ENDTAB
  0
TABLE
  2
LAYER
  5
29
100
AcDbSymbolTable
 70
     6
  0
LAYER
  5
35
100
AcDbSymbolTableRecord
100
AcDbLayerTableRecord
  2
0
 70
     0
 62
     7
  6
CONTINUOUS
  0
LAYER
  5
4C
100
AcDbSymbolTableRecord
100
AcDbLayerTableRecord
  2
CONSTRUCTION_CLASS
 70
     0
 62
     7
  6
CONTINUOUS
  0
LAYER
  5
4D
100
AcDbSymbolTableRecord
100
AcDbLayerTableRecord
  2
PATTERN_CLASS
 70
     0
 62
     7
  6
CONTINUOUS
  0
LAYER
  5
4E
100
AcDbSymbolTableRecord
100
AcDbLayerTableRecord
  2
1
 70
     0
 62
     7
  6
CONTINUOUS
  0
LAYER
  5
AE
100
AcDbSymbolTableRecord
100
AcDbLayerTableRecord
  2
ELECT
 70
     0
 62
     1
  6
CONTINUOUS
  0
LAYER
  5
AF
100
AcDbSymbolTableRecord
100
AcDbLayerTableRecord
  2
ELEC
 70
     0
 62
     7
  6
CONTINUOUS
  0
ENDTAB
  0
TABLE
  2
STYLE
  5
2A
100
AcDbSymbolTable
 70
     1
  0
STYLE
  5
36
100
AcDbSymbolTableRecord
100
AcDbTextStyleTableRecord
  2
STANDARD
 70
     0
 40
0.2
 41
1.0
 50
0.0
 71
     0
 42
0.0
  3
txt
  4

  0
ENDTAB
  0
TABLE
  2
VIEW
  5
2D
100
AcDbSymbolTable
 70
     0
  0
ENDTAB
  0
TABLE
  2
UCS
  5
2E
100
AcDbSymbolTable
 70
     0
  0
ENDTAB
  0
TABLE
  2
APPID
  5
30
100
AcDbSymbolTable
 70
     1
  0
APPID
  5
37
100
AcDbSymbolTableRecord
100
AcDbRegAppTableRecord
  2
ACAD
 70
     0
  0
ENDTAB
  0
TABLE
  2
DIMSTYLE
  5
31
100
AcDbSymbolTable
 70
     1
  0
DIMSTYLE
105
4F
100
AcDbSymbolTableRecord
100
AcDbDimStyleTableRecord
  2
STANDARD
 70
     0
  3

  4

  5

  6

  7

 40
1.0
 41
0.18
 42
0.0625
 43
0.38
 44
0.18
 45
0.0
 46
0.0
 47
0.0
 48
0.0
140
0.18
141
0.09
142
0.0
143
25.4
144
1.0
145
0.0
146
1.0
147
0.09
 71
     0
 72
     0
 73
     1
 74
     1
 75
     0
 76
     0
 77
     0
 78
     0
170
     0
171
     2
172
     0
173
     0
174
     0
175
     0
176
     0
177
     0
178
     0
270
     2
271
     4
272
     4
273
     2
274
     2
340
36
275
     0
280
     0
281
     0
282
     0
283
     1
284
     0
285
     0
286
     0
287
     3
288
     0
  0
ENDTAB
  0
TABLE
  2
BLOCK_RECORD
  5
28
100
AcDbSymbolTable
 70
     1
  0
BLOCK_RECORD
  5
3F
100
AcDbSymbolTableRecord
100
AcDbBlockTableRecord
  2
*MODEL_SPACE
  0
BLOCK_RECORD
  5
3C
100
AcDbSymbolTableRecord
100
AcDbBlockTableRecord
  2
*PAPER_SPACE
  0
BLOCK_RECORD
  5
B0
100
AcDbSymbolTableRecord
100
AcDbBlockTableRecord
  2
A$C21E4430C
  0
ENDTAB
  0
ENDSEC
  0
SECTION
  2
BLOCKS
  0
BLOCK
  5
40
100
AcDbEntity
  8
0
100
AcDbBlockBegin
  2
*MODEL_SPACE
 70
     0
 10
0.0
 20
0.0
 30
0.0
  3
*MODEL_SPACE
  1

  0
ENDBLK
  5
41
100
AcDbEntity
  8
0
100
AcDbBlockEnd
  0
BLOCK
  5
3D
100
AcDbEntity
 67
     1
  8
0
100
AcDbBlockBegin
  2
*PAPER_SPACE
 70
     0
 10
0.0
 20
0.0
 30
0.0
  3
*PAPER_SPACE
  1

  0
ENDBLK
  5
3E
100
AcDbEntity
 67
     1
  8
0
100
AcDbBlockEnd
  0
BLOCK
  5
CC
100
AcDbEntity
  8
0
100
AcDbBlockBegin
  2
A$C21E4430C
 70
     0
 10
0.0
 20
0.0
 30
0.0
  3
A$C21E4430C
  1

  0
LINE
  5
B1
100
AcDbEntity
  8
0
  6
CONTINUOUS
100
AcDbLine
 10
20.0
 20
24.0
 30
0.0
 11
14.0
 21
24.0
 31
0.0
  0
LINE
  5
B2
100
AcDbEntity
  8
0
  6
CONTINUOUS
100
AcDbLine
 10
14.0
 20
12.0
 30
0.0
 11
20.0
 21
12.0
 31
0.0
  0
LINE
  5
B3
100
AcDbEntity
  8
0
  6
CONTINUOUS
100
AcDbLine
 10
14.0
 20
24.0
 30
0.0
 11
14.0
 21
12.0
 31
0.0
  0
LINE
  5
B4
100
AcDbEntity
  8
0
  6
CONTINUOUS
100
AcDbLine
 10
14.0
 20
22.0
 30
0.0
 11
8.0
 21
28.0
 31
0.0
  0
LINE
  5
B5
100
AcDbEntity
  8
0
  6
CONTINUOUS
100
AcDbLine
 10
8.0
 20
28.0
 30
0.0
 11
8.0
 21
32.0
 31
0.0
  0
LINE
  5
B6
100
AcDbEntity
  8
0
  6
CONTINUOUS
100
AcDbLine
 10
26.0
 20
32.0
 30
0.0
 11
26.0
 21
4.0
 31
0.0
  0
LINE
  5
B7
100
AcDbEntity
  8
0
  6
CONTINUOUS
100
AcDbLine
 10
20.0
 20
12.0
 30
0.0
 11
26.0
 21
4.0
 31
0.0
  0
LINE
  5
B8
100
AcDbEntity
  8
0
  6
CONTINUOUS
100
AcDbLine
 10
20.0
 20
24.0
 30
0.0
 11
20.0
 21
12.0
 31
0.0
  0
LINE
  5
B9
100
AcDbEntity
  8
0
  6
CONTINUOUS
100
AcDbLine
 10
26.0
 20
32.0
 30
0.0
 11
20.0
 21
24.0
 31
0.0
  0
LINE
  5
BA
100
AcDbEntity
  8
0
  6
CONTINUOUS
100
AcDbLine
 10
0.0
 20
28.0
 30
0.0
 11
14.0
 21
14.0
 31
0.0
  0
LINE
  5
BB
100
AcDbEntity
  8
0
  6
CONTINUOUS
100
AcDbLine
 10
8.0
 20
32.0
 30
0.0
 11
0.0
 21
32.0
 31
0.0
  0
LINE
  5
BC
100
AcDbEntity
  8
0
  6
CONTINUOUS
100
AcDbLine
 10
0.0
 20
32.0
 30
0.0
 11
0.0
 21
28.0
 31
0.0
  0
LINE
  5
BD
100
AcDbEntity
  8
0
  6
CONTINUOUS
100
AcDbLine
 10
64.0
 20
32.0
 30
0.0
 11
64.0
 21
4.0
 31
0.0
  0
LINE
  5
BE
100
AcDbEntity
  8
0
  6
CONTINUOUS
100
AcDbLine
 10
70.0
 20
12.0
 30
0.0
 11
64.0
 21
4.0
 31
0.0
  0
LINE
  5
BF
100
AcDbEntity
  8
0
  6
CONTINUOUS
100
AcDbLine
 10
60.0
 20
36.0
 30
0.0
 11
60.0
 21
0.0
 31
0.0
  0
LINE
  5
C0
100
AcDbEntity
  8
0
  6
CONTINUOUS
100
AcDbLine
 10
56.0
 20
0.0
 30
0.0
 11
56.0
 21
36.0
 31
0.0
  0
LINE
  5
C1
100
AcDbEntity
  8
0
  6
CONTINUOUS
100
AcDbLine
 10
26.0
 20
4.0
 30
0.0
 11
56.0
 21
4.0
 31
0.0
  0
LINE
  5
C2
100
AcDbEntity
  8
0
  6
CONTINUOUS
100
AcDbLine
 10
60.0
 20
0.0
 30
0.0
 11
56.0
 21
0.0
 31
0.0
  0
LINE
  5
C3
100
AcDbEntity
  8
0
  6
CONTINUOUS
100
AcDbLine
 10
64.0
 20
4.0
 30
0.0
 11
60.0
 21
4.0
 31
0.0
  0
LINE
  5
C4
100
AcDbEntity
  8
0
  6
CONTINUOUS
100
AcDbLine
 10
56.0
 20
32.0
 30
0.0
 11
26.0
 21
32.0
 31
0.0
  0
LINE
  5
C5
100
AcDbEntity
  8
0
  6
CONTINUOUS
100
AcDbLine
 10
64.0
 20
32.0
 30
0.0
 11
70.0
 21
24.0
 31
0.0
  0
LINE
  5
C6
100
AcDbEntity
  8
0
  6
CONTINUOUS
100
AcDbLine
 10
60.0
 20
32.0
 30
0.0
 11
64.0
 21
32.0
 31
0.0
  0
LINE
  5
C7
100
AcDbEntity
  8
0
  6
CONTINUOUS
100
AcDbLine
 10
76.0
 20
24.0
 30
0.0
 11
76.0
 21
12.0
 31
0.0
  0
LINE
  5
C8
100
AcDbEntity
  8
0
  6
CONTINUOUS
100
AcDbLine
 10
70.0
 20
24.0
 30
0.0
 11
70.0
 21
12.0
 31
0.0
  0
LINE
  5
C9
100
AcDbEntity
  8
0
  6
CONTINUOUS
100
AcDbLine
 10
76.0
 20
12.0
 30
0.0
 11
70.0
 21
12.0
 31
0.0
  0
LINE
  5
CA
100
AcDbEntity
  8
0
  6
CONTINUOUS
100
AcDbLine
 10
70.0
 20
24.0
 30
0.0
 11
76.0
 21
24.0
 31
0.0
  0
LINE
  5
CB
100
AcDbEntity
  8
0
  6
CONTINUOUS
100
AcDbLine
 10
56.0
 20
36.0
 30
0.0
 11
60.0
 21
36.0
 31
0.0
  0
ENDBLK
  5
CD
100
AcDbEntity
  8
0
100
AcDbBlockEnd
  0
ENDSEC
  0
SECTION
  2
ENTITIES
  0
LINE
  5
D0
100
AcDbEntity
  8
0
  6
CONTINUOUS
100
AcDbLine
 10
-22.827237
 20
5.791077
 30
0.0
 11
-28.827237
 21
5.791077
 31
0.0
  0
LINE
  5
D1
100
AcDbEntity
  8
0
  6
CONTINUOUS
100
AcDbLine
 10
-28.827237
 20
-6.208923
 30
0.0
 11
-22.827237
 21
-6.208923
 31
0.0
  0
LINE
  5
D2
100
AcDbEntity
  8
0
  6
CONTINUOUS
100
AcDbLine
 10
-28.827237
 20
5.791077
 30
0.0
 11
-28.827237
 21
-6.208923
 31
0.0
  0
LINE
  5
D3
100
AcDbEntity
  8
0
  6
CONTINUOUS
100
AcDbLine
 10
-28.827237
 20
3.791077
 30
0.0
 11
-34.827237
 21
9.791077
 31
0.0
  0
LINE
  5
D4
100
AcDbEntity
  8
0
  6
CONTINUOUS
100
AcDbLine
 10
-34.827237
 20
9.791077
 30
0.0
 11
-34.827237
 21
13.791077
 31
0.0
  0
LINE
  5
D5
100
AcDbEntity
  8
0
  6
CONTINUOUS
100
AcDbLine
 10
-16.827237
 20
13.791077
 30
0.0
 11
-16.827237
 21
-14.208923
 31
0.0
  0
LINE
  5
D6
100
AcDbEntity
  8
0
  6
CONTINUOUS
100
AcDbLine
 10
-22.827237
 20
-6.208923
 30
0.0
 11
-16.827237
 21
-14.208923
 31
0.0
  0
LINE
  5
D7
100
AcDbEntity
  8
0
  6
CONTINUOUS
100
AcDbLine
 10
-22.827237
 20
5.791077
 30
0.0
 11
-22.827237
 21
-6.208923
 31
0.0
  0
LINE
  5
D8
100
AcDbEntity
  8
0
  6
CONTINUOUS
100
AcDbLine
 10
-16.827237
 20
13.791077
 30
0.0
 11
-22.827237
 21
5.791077
 31
0.0
  0
LINE
  5
D9
100
AcDbEntity
  8
0
  6
CONTINUOUS
100
AcDbLine
 10
-42.827237
 20
9.791077
 30
0.0
 11
-28.827237
 21
-4.208923
 31
0.0
  0
LINE
  5
DA
100
AcDbEntity
  8
0
  6
CONTINUOUS
100
AcDbLine
 10
-34.827237
 20
13.791077
 30
0.0
 11
-42.827237
 21
13.791077
 31
0.0
  0
LINE
  5
DB
100
AcDbEntity
  8
0
  6
CONTINUOUS
100
AcDbLine
 10
-42.827237
 20
13.791077
 30
0.0
 11
-42.827237
 21
9.791077
 31
0.0
  0
LINE
  5
DC
100
AcDbEntity
  8
0
  6
CONTINUOUS
100
AcDbLine
 10
21.172763
 20
13.791077
 30
0.0
 11
21.172763
 21
-14.208923
 31
0.0
  0
LINE
  5
DD
100
AcDbEntity
  8
0
  6
CONTINUOUS
100
AcDbLine
 10
27.172763
 20
-6.208923
 30
0.0
 11
21.172763
 21
-14.208923
 31
0.0
  0
LINE
  5
DE
100
AcDbEntity
  8
0
  6
CONTINUOUS
100
AcDbLine
 10
17.172763
 20
17.791077
 30
0.0
 11
17.172763
 21
-18.208923
 31
0.0
  0
LINE
  5
DF
100
AcDbEntity
  8
0
  6
CONTINUOUS
100
AcDbLine
 10
13.172763
 20
-18.208923
 30
0.0
 11
13.172763
 21
17.791077
 31
0.0
  0
LINE
  5
E0
100
AcDbEntity
  8
0
  6
CONTINUOUS
100
AcDbLine
 10
-16.827237
 20
-14.208923
 30
0.0
 11
13.172763
 21
-14.208923
 31
0.0
  0
LINE
  5
E1
100
AcDbEntity
  8
0
  6
CONTINUOUS
100
AcDbLine
 10
17.172763
 20
-18.208923
 30
0.0
 11
13.172763
 21
-18.208923
 31
0.0
  0
LINE
  5
E2
100
AcDbEntity
  8
0
  6
CONTINUOUS
100
AcDbLine
 10
21.172763
 20
-14.208923
 30
0.0
 11
17.172763
 21
-14.208923
 31
0.0
  0
LINE
  5
E3
100
AcDbEntity
  8
0
  6
CONTINUOUS
100
AcDbLine
 10
13.172763
 20
13.791077
 30
0.0
 11
-16.827237
 21
13.791077
 31
0.0
  0
LINE
  5
E4
100
AcDbEntity
  8
0
  6
CONTINUOUS
100
AcDbLine
 10
21.172763
 20
13.791077
 30
0.0
 11
27.172763
 21
5.791077
 31
0.0
  0
LINE
  5
E5
100
AcDbEntity
  8
0
  6
CONTINUOUS
100
AcDbLine
 10
17.172763
 20
13.791077
 30
0.0
 11
21.172763
 21
13.791077
 31
0.0
  0
LINE
  5
E6
100
AcDbEntity
  8
0
  6
CONTINUOUS
100
AcDbLine
 10
33.172763
 20
5.791077
 30
0.0
 11
33.172763
 21
-6.208923
 31
0.0
  0
LINE
  5
E7
100
AcDbEntity
  8
0
  6
CONTINUOUS
100
AcDbLine
 10
27.172763
 20
5.791077
 30
0.0
 11
27.172763
 21
-6.208923
 31
0.0
  0
LINE
  5
E8
100
AcDbEntity
  8
0
  6
CONTINUOUS
100
AcDbLine
 10
33.172763
 20
-6.208923
 30
0.0
 11
27.172763
 21
-6.208923
 31
0.0
  0
LINE
  5
E9
100
AcDbEntity
  8
0
  6
CONTINUOUS
100
AcDbLine
 10
27.172763
 20
5.791077
 30
0.0
 11
33.172763
 21
5.791077
 31
0.0
  0
LINE
  5
EA
100
AcDbEntity
  8
0
  6
CONTINUOUS
100
AcDbLine
 10
13.172763
 20
17.791077
 30
0.0
 11
17.172763
 21
17.791077
 31
0.0
  0
ENDSEC
  0
SECTION
  2
OBJECTS
  0
DICTIONARY
  5
33
100
AcDbDictionary
  3
ACAD_GROUP
350
34
  3
ACAD_MLINESTYLE
350
42
  0
DICTIONARY
  5
34
102
{ACAD_REACTORS
330
33
102
}
100
AcDbDictionary
  0
DICTIONARY
  5
42
102
{ACAD_REACTORS
330
33
102
}
100
AcDbDictionary
  3
STANDARD
350
43
  0
MLINESTYLE
  5
43
102
{ACAD_REACTORS
330
42
102
}
100
AcDbMlineStyle
  2
STANDARD
 70
     0
  3

 62
   256
 51
90.0
 52
90.0
 71
     2
 49
0.5
 62
   256
  6
BYLAYER
 49
-0.5
 62
   256
  6
BYLAYER
  0
ENDSEC
  0
EOF
