  0
SECTION
  2
HEADER
  9
$ACADVER
  1
AC1009
  9
$INSBASE
 10
0.0
 20
0.0
 30
0.0
  9
$EXTMIN
 10
-15.0
 20
-18.9
 30
0.0
  9
$EXTMAX
 10
15.0
 20
32.5
 30
0.0
  9
$LIMMIN
 10
0.0
 20
0.0
  9
$LIMMAX
 10
420.0
 20
297.0
  9
$ORTHOMODE
 70
     0
  9
$REGENMODE
 70
     1
  9
$FILLMODE
 70
     1
  9
$QTEXTMODE
 70
     0
  9
$MIRRTEXT
 70
     1
  9
$DRAGMODE
 70
     2
  9
$LTSCALE
 40
1.0
  9
$OSMODE
 70
     0
  9
$ATTMODE
 70
     1
  9
$TEXTSIZE
 40
3.0
  9
$TRACEWID
 40
10.0
  9
$TEXTSTYLE
  7
STANDARD
  9
$CLAYER
  8
0
  9
$CELTYPE
  6
BYLAYER
  9
$CECOLOR
 62
   256
  9
$DIMSCALE
 40
1.0
  9
$DIMASZ
 40
3.0
  9
$DIMEXO
 40
2.5
  9
$DIMDLI
 40
10.0
  9
$DIMRND
 40
0.0
  9
$DIMDLE
 40
1.25
  9
$DIMEXE
 40
2.5
  9
$DIMTP
 40
0.0
  9
$DIMTM
 40
0.0
  9
$DIMTXT
 40
3.0
  9
$DIMCEN
 40
-3.0
  9
$DIMTSZ
 40
0.0
  9
$DIMTOL
 70
     0
  9
$DIMLIM
 70
     0
  9
$DIMTIH
 70
     0
  9
$DIMTOH
 70
     0
  9
$DIMSE1
 70
     0
  9
$DIMSE2
 70
     0
  9
$DIMTAD
 70
     0
  9
$DIMZIN
 70
     0
  9
$DIMBLK
  1

  9
$DIMASO
 70
     1
  9
$DIMSHO
 70
     0
  9
$DIMPOST
  1

  9
$DIMAPOST
  1

  9
$DIMALT
 70
     0
  9
$DIMALTD
 70
     2
  9
$DIMALTF
 40
0.039
  9
$DIMLFAC
 40
1.0
  9
$DIMTOFL
 70
     0
  9
$DIMTVP
 40
1.5
  9
$DIMTIX
 70
     0
  9
$DIMSOXD
 70
     0
  9
$DIMSAH
 70
     0
  9
$DIMBLK1
  1

  9
$DIMBLK2
  1

  9
$DIMSTYLE
  2
*UNNAMED
  9
$DIMCLRD
 70
     0
  9
$DIMCLRE
 70
     0
  9
$DIMCLRT
 70
     0
  9
$DIMTFAC
 40
0.75
  9
$DIMGAP
 40
1.5
  9
$LUNITS
 70
     2
  9
$LUPREC
 70
     2
  9
$SKETCHINC
 40
1.0
  9
$FILLETRAD
 40
0.0
  9
$AUNITS
 70
     0
  9
$AUPREC
 70
     4
  9
$MENU
  1
acad
  9
$ELEVATION
 40
0.0
  9
$PELEVATION
 40
0.0
  9
$THICKNESS
 40
0.0
  9
$LIMCHECK
 70
     0
  9
$BLIPMODE
 70
     0
  9
$CHAMFERA
 40
0.0
  9
$CHAMFERB
 40
0.0
  9
$SKPOLY
 70
     0
  9
$TDCREATE
 40
2450746.336629050
  9
$TDUPDATE
 40
2450746.336629050
  9
$TDINDWG
 40
0.0000000000
  9
$TDUSRTIMER
 40
0.0000000000
  9
$USRTIMER
 70
     1
  9
$ANGBASE
 50
0.0
  9
$ANGDIR
 70
     0
  9
$PDMODE
 70
     0
  9
$PDSIZE
 40
0.0
  9
$PLINEWID
 40
0.0
  9
$COORDS
 70
     1
  9
$SPLFRAME
 70
     0
  9
$SPLINETYPE
 70
     6
  9
$SPLINESEGS
 70
     8
  9
$ATTDIA
 70
     0
  9
$ATTREQ
 70
     1
  9
$HANDLING
 70
     0
  9
$HANDSEED
  5
0
  9
$SURFTAB1
 70
    18
  9
$SURFTAB2
 70
    18
  9
$SURFTYPE
 70
     6
  9
$SURFU
 70
    18
  9
$SURFV
 70
    18
  9
$UCSNAME
  2

  9
$UCSORG
 10
0.0
 20
0.0
 30
0.0
  9
$UCSXDIR
 10
1.0
 20
0.0
 30
0.0
  9
$UCSYDIR
 10
0.0
 20
1.0
 30
0.0
  9
$PUCSNAME
  2

  9
$PUCSORG
 10
0.0
 20
0.0
 30
0.0
  9
$PUCSXDIR
 10
1.0
 20
0.0
 30
0.0
  9
$PUCSYDIR
 10
0.0
 20
1.0
 30
0.0
  9
$USERI1
 70
     0
  9
$USERI2
 70
     0
  9
$USERI3
 70
     0
  9
$USERI4
 70
     0
  9
$USERI5
 70
     0
  9
$USERR1
 40
0.0
  9
$USERR2
 40
0.0
  9
$USERR3
 40
0.0
  9
$USERR4
 40
0.0
  9
$USERR5
 40
0.0
  9
$WORLDVIEW
 70
     1
  9
$SHADEDGE
 70
     3
  9
$SHADEDIF
 70
    70
  9
$TILEMODE
 70
     1
  9
$MAXACTVP
 70
    16
  9
$PINSBASE
 10
0.0
 20
0.0
 30
0.0
  9
$PLIMCHECK
 70
     0
  9
$PEXTMIN
 10
1.000000E+20
 20
1.000000E+20
 30
1.000000E+20
  9
$PEXTMAX
 10
-1.000000E+20
 20
-1.000000E+20
 30
-1.000000E+20
  9
$PLIMMIN
 10
0.0
 20
0.0
  9
$PLIMMAX
 10
420.0
 20
297.0
  9
$UNITMODE
 70
     0
  9
$VISRETAIN
 70
     0
  9
$PLINEGEN
 70
     0
  9
$PSLTSCALE
 70
     1
  9
$TREEDEPTH
 70
  3020
  9
$DWGCODEPAGE
  3
iso8859-1
  0
ENDSEC
  0
SECTION
  2
TABLES
  0
TABLE
  2
VPORT
 70
    55
  0
VPORT
  2
*ACTIVE
 70
     0
 10
0.0
 20
0.0
 11
1.0
 21
1.0
 12
44.73
 22
18.006502
 13
0.0
 23
0.0
 14
0.63
 24
0.63
 15
10.0
 25
10.0
 16
0.0
 26
0.0
 36
1.0
 17
0.0
 27
0.0
 37
0.0
 40
83.893004
 41
1.757238
 42
50.0
 43
0.0
 44
0.0
 50
0.0
 51
0.0
 71
     0
 72
   100
 73
     1
 74
     1
 75
     1
 76
     0
 77
     0
 78
     0
  0
ENDTAB
  0
TABLE
  2
LTYPE
 70
     1
  0
LTYPE
  2
CONTINUOUS
 70
    64
  3
Solid line
 72
    65
 73
     0
 40
0.0
  0
ENDTAB
  0
TABLE
  2
LAYER
 70
     1
  0
LAYER
  2
0
 70
    64
 62
     7
  6
CONTINUOUS
  0
ENDTAB
  0
TABLE
  2
STYLE
 70
     1
  0
STYLE
  2
STANDARD
 70
     0
 40
0.0
 41
1.0
 50
0.0
 71
     0
 42
3.0
  3
txt.shx
  4

  0
ENDTAB
  0
TABLE
  2
VIEW
 70
     0
  0
ENDTAB
  0
TABLE
  2
UCS
 70
     0
  0
ENDTAB
  0
TABLE
  2
APPID
 70
     1
  0
APPID
  2
ACAD
 70
    64
  0
ENDTAB
  0
TABLE
  2
DIMSTYLE
 70
     1
  0
DIMSTYLE
  2
STANDARD
 70
     0
  3

  4

  5

  6

  7

 40
1.0
 41
3.0
 42
2.5
 43
10.0
 44
2.5
 45
0.0
 46
1.25
 47
0.0
 48
0.0
140
3.0
141
-3.0
142
0.0
143
0.039
144
1.0
145
1.5
146
0.75
147
1.5
 71
     0
 72
     0
 73
     0
 74
     0
 75
     0
 76
     0
 77
     0
 78
     0
170
     0
171
     2
172
     0
173
     0
174
     0
175
     0
176
     0
177
     0
178
     0
  0
ENDTAB
  0
ENDSEC
  0
SECTION
  2
BLOCKS
  0
ENDSEC
  0
SECTION
  2
ENTITIES
  0
LINE
  8
0
 10
-12.283513
 20
-6.3
 30
0.0
 11
13.543513
 21
-6.3
 31
0.0
  0
POLYLINE
  8
0
 66
     1
 10
0.0
 20
0.0
 30
0.0
  0
VERTEX
  8
0
 10
-12.283513
 20
-6.3
 30
0.0
  0
VERTEX
  8
0
 10
-11.709579
 20
-5.726066
 30
0.0
  0
VERTEX
  8
0
 10
-11.135645
 20
-4.578198
 30
0.0
  0
VERTEX
  8
0
 10
-10.561711
 20
-3.430331
 30
0.0
  0
VERTEX
  8
0
 10
-9.987777
 20
-2.856397
 30
0.0
  0
VERTEX
  8
0
 10
-9.413843
 20
-1.708529
 30
0.0
  0
VERTEX
  8
0
 10
-8.839909
 20
-0.560661
 30
0.0
  0
VERTEX
  8
0
 10
-7.692042
 20
1.161141
 30
0.0
  0
VERTEX
  8
0
 10
-6.544174
 20
1.735075
 30
0.0
  0
VERTEX
  8
0
 10
-5.97024
 20
2.882942
 30
0.0
  0
VERTEX
  8
0
 10
-5.396306
 20
4.03081
 30
0.0
  0
VERTEX
  8
0
 10
-4.248438
 20
4.604744
 30
0.0
  0
VERTEX
  8
0
 10
-3.674504
 20
5.752612
 30
0.0
  0
VERTEX
  8
0
 10
-2.526636
 20
6.90048
 30
0.0
  0
VERTEX
  8
0
 10
-1.378769
 20
8.048347
 30
0.0
  0
VERTEX
  8
0
 10
-0.230901
 20
8.622281
 30
0.0
  0
VERTEX
  8
0
 10
0.343033
 20
8.622281
 30
0.0
  0
VERTEX
  8
0
 10
1.490901
 20
8.048347
 30
0.0
  0
VERTEX
  8
0
 10
2.638769
 20
6.90048
 30
0.0
  0
VERTEX
  8
0
 10
3.786636
 20
5.752612
 30
0.0
  0
VERTEX
  8
0
 10
4.934504
 20
5.178678
 30
0.0
  0
VERTEX
  8
0
 10
5.508438
 20
4.03081
 30
0.0
  0
VERTEX
  8
0
 10
6.082372
 20
3.456876
 30
0.0
  0
VERTEX
  8
0
 10
7.23024
 20
2.309008
 30
0.0
  0
VERTEX
  8
0
 10
7.804174
 20
1.161141
 30
0.0
  0
VERTEX
  8
0
 10
8.952042
 20
0.013273
 30
0.0
  0
VERTEX
  8
0
 10
10.099909
 20
-1.134595
 30
0.0
  0
VERTEX
  8
0
 10
11.247777
 20
-2.282463
 30
0.0
  0
VERTEX
  8
0
 10
11.821711
 20
-3.430331
 30
0.0
  0
VERTEX
  8
0
 10
12.395645
 20
-4.578198
 30
0.0
  0
VERTEX
  8
0
 10
12.969579
 20
-5.152132
 30
0.0
  0
VERTEX
  8
0
 10
13.543513
 20
-6.3
 30
0.0
  0
SEQEND
  8
0
  0
POLYLINE
  8
0
 66
     1
 10
0.0
 20
0.0
 30
0.0
  0
VERTEX
  8
0
 10
-8.839909
 20
-5.726066
 30
0.0
  0
VERTEX
  8
0
 10
-6.544174
 20
-1.708529
 30
0.0
  0
VERTEX
  8
0
 10
-5.97024
 20
-1.134595
 30
0.0
  0
VERTEX
  8
0
 10
-5.396306
 20
0.013273
 30
0.0
  0
VERTEX
  8
0
 10
-4.822372
 20
0.587207
 30
0.0
  0
VERTEX
  8
0
 10
-4.248438
 20
1.735075
 30
0.0
  0
VERTEX
  8
0
 10
-3.674504
 20
2.882942
 30
0.0
  0
VERTEX
  8
0
 10
-2.526636
 20
4.03081
 30
0.0
  0
VERTEX
  8
0
 10
-1.952703
 20
5.178678
 30
0.0
  0
VERTEX
  8
0
 10
-1.378769
 20
6.326546
 30
0.0
  0
SEQEND
  8
0
  0
POLYLINE
  8
0
 66
     1
 10
0.0
 20
0.0
 30
0.0
  0
VERTEX
  8
0
 10
-3.561947
 20
-4.409362
 30
0.0
  0
VERTEX
  8
0
 10
-3.308692
 20
-3.480761
 30
0.0
  0
VERTEX
  8
0
 10
-2.971019
 20
-2.974251
 30
0.0
  0
VERTEX
  8
0
 10
-2.717764
 20
-2.04565
 30
0.0
  0
VERTEX
  8
0
 10
-2.380091
 20
-1.53914
 30
0.0
  0
VERTEX
  8
0
 10
-2.126836
 20
-0.610539
 30
0.0
  0
VERTEX
  8
0
 10
-1.873581
 20
0.318062
 30
0.0
  0
VERTEX
  8
0
 10
-1.198235
 20
1.331081
 30
0.0
  0
VERTEX
  8
0
 10
-0.94498
 20
2.259682
 30
0.0
  0
VERTEX
  8
0
 10
-0.691725
 20
3.188283
 30
0.0
  0
SEQEND
  8
0
  0
POLYLINE
  8
0
 66
     1
 10
0.0
 20
0.0
 30
0.0
  0
VERTEX
  8
0
 10
8.952042
 20
-5.152132
 30
0.0
  0
VERTEX
  8
0
 10
8.378108
 20
-4.004264
 30
0.0
  0
VERTEX
  8
0
 10
6.082372
 20
-1.134595
 30
0.0
  0
VERTEX
  8
0
 10
5.508438
 20
0.013273
 30
0.0
  0
VERTEX
  8
0
 10
4.934504
 20
0.587207
 30
0.0
  0
VERTEX
  8
0
 10
4.36057
 20
1.735075
 30
0.0
  0
VERTEX
  8
0
 10
3.786636
 20
2.882942
 30
0.0
  0
VERTEX
  8
0
 10
2.638769
 20
4.03081
 30
0.0
  0
VERTEX
  8
0
 10
2.064835
 20
5.178678
 30
0.0
  0
VERTEX
  8
0
 10
1.490901
 20
6.326546
 30
0.0
  0
SEQEND
  8
0
  0
POLYLINE
  8
0
 66
     1
 10
0.0
 20
0.0
 30
0.0
  0
VERTEX
  8
0
 10
4.8046
 20
-4.422314
 30
0.0
  0
VERTEX
  8
0
 10
4.45386
 20
-3.525977
 30
0.0
  0
VERTEX
  8
0
 10
4.064149
 20
-3.058323
 30
0.0
  0
VERTEX
  8
0
 10
3.713408
 20
-2.161987
 30
0.0
  0
VERTEX
  8
0
 10
3.323697
 20
-1.694333
 30
0.0
  0
VERTEX
  8
0
 10
2.972956
 20
-0.797997
 30
0.0
  0
VERTEX
  8
0
 10
2.622216
 20
0.09834
 30
0.0
  0
VERTEX
  8
0
 10
1.842793
 20
1.033647
 30
0.0
  0
VERTEX
  8
0
 10
1.492053
 20
1.929984
 30
0.0
  0
VERTEX
  8
0
 10
1.141312
 20
2.82632
 30
0.0
  0
SEQEND
  8
0
  0
ENDSEC
  0
EOF
